<?xml version="1.0" encoding="iso-8859-1"?>
<!-- Generator: Adobe Illustrator 18.0.0, SVG Export Plug-In . SVG Version: 6.00 Build 0)  -->
<!DOCTYPE svg PUBLIC "-//W3C//DTD SVG 1.1//EN" "http://www.w3.org/Graphics/SVG/1.1/DTD/svg11.dtd">
<svg version="1.1" id="Capa_1" xmlns="http://www.w3.org/2000/svg" xmlns:xlink="http://www.w3.org/1999/xlink" x="0px" y="0px"
	 viewBox="0 0 488.477 488.477" style="enable-background:new 0 0 488.477 488.477;" xml:space="preserve">
<g>
	<path d="M472.227,35.998H16.25C7.29,35.998,0,43.288,0,52.248v383.98c0,8.961,7.29,16.25,16.25,16.25h455.977
		c8.96,0,16.25-7.289,16.25-16.25V52.248C488.477,43.288,481.187,35.998,472.227,35.998z M8.5,269.795
		c8.632-7.003,18.187-12.819,28.452-17.27c29.968-12.996,63.203-13.544,93.585-1.541c30.38,12.002,54.269,35.117,67.265,65.087
		c13.004,29.988,13.292,64.555,0.883,95.235H8.5V269.795z M205.6,312.689c-13.899-32.053-39.448-56.774-71.94-69.61
		c-32.492-12.837-68.039-12.251-100.09,1.648c-8.89,3.855-17.292,8.657-25.07,14.324v-71.738l37.286-16.169l10.427,24.048
		c0.766,1.766,2.626,2.802,4.527,2.512c14.637-2.186,29.51-2.429,44.209-0.718c1.919,0.219,3.736-0.869,4.444-2.66l9.636-24.388
		l75.301,29.748l-9.635,24.388c-0.708,1.791-0.122,3.834,1.426,4.979c11.915,8.811,22.61,19.158,31.79,30.752
		c1.294,1.636,3.56,2.069,5.35,1.103l23.714-10.283l32.21,74.282l-23.667,10.263c-0.029,0.009-0.058,0.019-0.086,0.029
		c-1.933,0.67-3.113,2.622-2.811,4.645c2.192,14.644,2.435,29.525,0.722,44.23c-0.223,1.913,0.869,3.737,2.661,4.444l24.389,9.632
		l-5.198,13.156h-67.388C219.788,379.331,219.058,343.726,205.6,312.689z M283.73,390.329l-21.597-8.529
		c1.299-13.296,1.081-26.706-0.65-39.954l21.293-9.234c4.183-1.813,6.108-6.698,4.293-10.89l-32.383-74.68
		c-1.818-4.189-6.698-6.122-10.882-4.309l-21.295,9.234c-8.479-10.308-18.118-19.631-28.72-27.779l8.531-21.595
		c1.673-4.237-0.418-9.052-4.667-10.735l-75.706-29.908c-4.247-1.675-9.066,0.41-10.74,4.649l-8.532,21.594
		c-13.296-1.297-26.705-1.08-39.951,0.649l-9.235-21.297c-1.817-4.183-6.703-6.104-10.891-4.286L8.5,178.047v-75.241h471.477v43.833
		h-88.882c-2.347,0-4.25,1.903-4.25,4.25s1.903,4.25,4.25,4.25h88.882v256.167H284.333l4.043-10.233
		C290.052,396.825,287.969,392.006,283.73,390.329z M16.25,44.498h455.977c4.273,0,7.75,3.476,7.75,7.75v15.058H170.095
		c-2.347,0-4.25,1.903-4.25,4.25s1.903,4.25,4.25,4.25h309.882v18.5H8.5V52.248C8.5,47.975,11.977,44.498,16.25,44.498z
		 M472.227,443.978H16.25c-4.273,0-7.75-3.477-7.75-7.75v-16.423h471.477v16.423C479.977,440.502,476.5,443.978,472.227,443.978z"/>
	<path d="M38.095,84.806c8.409,0,15.25-6.841,15.25-15.25s-6.841-15.25-15.25-15.25c-8.409,0-15.25,6.841-15.25,15.25
		S29.686,84.806,38.095,84.806z M38.095,62.806c3.722,0,6.75,3.028,6.75,6.75s-3.028,6.75-6.75,6.75c-3.722,0-6.75-3.028-6.75-6.75
		S34.373,62.806,38.095,62.806z"/>
	<path d="M80.595,84.806c8.409,0,15.25-6.841,15.25-15.25s-6.841-15.25-15.25-15.25c-8.409,0-15.25,6.841-15.25,15.25
		S72.186,84.806,80.595,84.806z M80.595,62.806c3.722,0,6.75,3.028,6.75,6.75s-3.028,6.75-6.75,6.75c-3.722,0-6.75-3.028-6.75-6.75
		S76.873,62.806,80.595,62.806z"/>
	<path d="M123.095,84.806c8.409,0,15.25-6.841,15.25-15.25s-6.841-15.25-15.25-15.25c-8.409,0-15.25,6.841-15.25,15.25
		S114.686,84.806,123.095,84.806z M123.095,62.806c3.722,0,6.75,3.028,6.75,6.75s-3.028,6.75-6.75,6.75
		c-3.722,0-6.75-3.028-6.75-6.75S119.373,62.806,123.095,62.806z"/>
	<path d="M52.633,288.691c-2.153,0.934-3.142,3.437-2.208,5.59c0.935,2.154,3.438,3.141,5.59,2.208
		c37.625-16.315,81.507,1.022,97.823,38.646c0.695,1.603,2.259,2.56,3.901,2.56c0.564,0,1.138-0.113,1.689-0.352
		c2.153-0.934,3.142-3.437,2.208-5.59C143.456,289.83,94.557,270.512,52.633,288.691z"/>
</g>
<g>
</g>
<g>
</g>
<g>
</g>
<g>
</g>
<g>
</g>
<g>
</g>
<g>
</g>
<g>
</g>
<g>
</g>
<g>
</g>
<g>
</g>
<g>
</g>
<g>
</g>
<g>
</g>
<g>
</g>
</svg>
