<?xml version="1.0" encoding="utf-8"?>
<!-- Svg Vector Icons : http://www.onlinewebfonts.com/icon -->
<!DOCTYPE svg PUBLIC "-//W3C//DTD SVG 1.1//EN" "http://www.w3.org/Graphics/SVG/1.1/DTD/svg11.dtd">
<svg version="1.1" xmlns="http://www.w3.org/2000/svg" xmlns:xlink="http://www.w3.org/1999/xlink" x="0px" y="0px" viewBox="0 0 1000 1000" enable-background="new 0 0 1000 1000" xml:space="preserve">
<metadata> Svg Vector Icons : http://www.onlinewebfonts.com/icon </metadata>
<g><path d="M776.7,350.4c-54.2-104.6-163.3-176-289.2-176c-148.7,0-274.1,99.7-313,235.8C80.4,431.1,10,515,10,615.3c0,116,94.1,210.1,210.1,210.1h189.6V552.5h-75.9c-5,0-9.5-2.9-11.6-7.4s-1.5-9.8,1.7-13.7l166.1-200.3c2.4-2.9,6.1-4.6,9.9-4.6c3.8,0,7.5,1.7,9.9,4.6l165.6,199.6c2.2,2.3,3.5,5.4,3.5,8.8c0,7.1-5.7,12.9-12.9,12.9c0,0,0,0-0.1,0h-75.9v273.1h161.6c131.6,0,238.2-106.6,238.2-238.2C989.9,464.2,896.6,362.9,776.7,350.4z"/></g>
</svg>