<?xml version="1.0" encoding="iso-8859-1"?>
<!-- Generator: Adobe Illustrator 16.0.0, SVG Export Plug-In . SVG Version: 6.00 Build 0)  -->
<!DOCTYPE svg PUBLIC "-//W3C//DTD SVG 1.1//EN" "http://www.w3.org/Graphics/SVG/1.1/DTD/svg11.dtd">
<svg version="1.1" id="Capa_1" xmlns="http://www.w3.org/2000/svg" xmlns:xlink="http://www.w3.org/1999/xlink" x="0px" y="0px"
	 width="438.082px" height="438.083px" viewBox="0 0 438.082 438.083" style="enable-background:new 0 0 438.082 438.083;"
	 xml:space="preserve">
<g>
	<path d="M310.655,131.095l-61.862-24.436v326.47c0,2.73-2.223,4.953-4.959,4.953h-49.58c-2.734,0-4.951-2.223-4.951-4.953V106.66
		l-61.868,24.436c-2.078,0.815-4.439,0.15-5.781-1.635c-1.345-1.773-1.339-4.232,0.029-5.999L215.119,1.93
		c0.937-1.221,2.397-1.93,3.928-1.93c1.543,0,2.991,0.709,3.928,1.93l93.438,121.531c0.686,0.889,1.028,1.956,1.028,3.02
		c0,1.052-0.331,2.101-1.005,2.979C315.1,131.251,312.729,131.911,310.655,131.095z M397.431,173.227H266.951v105.921h130.479
		c6.686,0,12.105-5.421,12.105-12.105v-81.71C409.536,178.65,404.116,173.227,397.431,173.227z M28.546,185.332v81.71
		c0,6.685,5.423,12.105,12.105,12.105H171.14V173.227H40.651C33.969,173.227,28.546,178.65,28.546,185.332z"/>
</g>
<g>
</g>
<g>
</g>
<g>
</g>
<g>
</g>
<g>
</g>
<g>
</g>
<g>
</g>
<g>
</g>
<g>
</g>
<g>
</g>
<g>
</g>
<g>
</g>
<g>
</g>
<g>
</g>
<g>
</g>
</svg>
