<?xml version="1.0" encoding="iso-8859-1"?>
<!-- Generator: Adobe Illustrator 16.0.0, SVG Export Plug-In . SVG Version: 6.00 Build 0)  -->
<!DOCTYPE svg PUBLIC "-//W3C//DTD SVG 1.1//EN" "http://www.w3.org/Graphics/SVG/1.1/DTD/svg11.dtd">
<svg version="1.1" id="Capa_1" xmlns="http://www.w3.org/2000/svg" xmlns:xlink="http://www.w3.org/1999/xlink" x="0px" y="0px"
	 width="497.332px" height="497.332px" viewBox="0 0 497.332 497.332" style="enable-background:new 0 0 497.332 497.332;"
	 xml:space="preserve">
<g>
	<path d="M334.136,108.359c0.597,0.769,0.887,1.69,0.887,2.616c0,0.907-0.29,1.815-0.869,2.583c-1.158,1.54-3.203,2.119-4.994,1.407
		l-53.54-21.148v123.945c0,2.373-1.921,4.286-4.291,4.286l-42.909,0.006c-2.373,0-4.292-1.918-4.292-4.292V93.816l-53.542,21.148
		c-1.791,0.706-3.842,0.127-4.998-1.407c-1.162-1.537-1.15-3.665,0.023-5.193L246.473,3.183c0.813-1.058,2.072-1.67,3.402-1.67
		c1.333,0,2.592,0.618,3.407,1.67L334.136,108.359z M244.053,494.152c0.818,1.052,2.075,1.667,3.408,1.667
		c1.333,0,2.591-0.615,3.402-1.667l80.855-105.176c1.177-1.525,1.188-3.659,0.024-5.196c-1.153-1.542-3.21-2.122-4.995-1.406
		l-53.545,21.148V279.568c0-2.371-1.922-4.292-4.292-4.292l-42.906,0.013c-2.374,0-4.292,1.908-4.292,4.279v123.948l-53.542-21.148
		c-1.791-0.71-3.836-0.13-4.992,1.406c-0.582,0.769-0.872,1.667-0.872,2.583s0.296,1.851,0.89,2.619L244.053,494.152z
		 M276.802,269.519c0,2.364,1.915,4.291,4.291,4.291h123.942l-21.154,53.54c-0.709,1.785-0.13,3.83,1.406,4.988
		c0.769,0.579,1.667,0.875,2.583,0.875c0.917,0,1.845-0.296,2.613-0.898l105.176-80.841c1.058-0.816,1.673-2.081,1.673-3.411
		c0-1.336-0.615-2.589-1.673-3.404l-105.176-80.856c-1.525-1.167-3.659-1.18-5.196-0.023c-1.536,1.155-2.115,3.212-1.4,4.997
		l21.148,53.543H281.093c-2.376,0-4.291,1.924-4.291,4.291V269.519z M0,247.153c0,1.336,0.615,2.589,1.67,3.404l105.182,80.859
		c1.525,1.171,3.656,1.183,5.193,0.023c1.537-1.158,2.119-3.215,1.403-5L92.303,272.9h123.946c2.37,0,4.291-1.927,4.291-4.291
		l-0.009-42.912c0-2.367-1.912-4.291-4.282-4.291H92.303l21.146-53.543c0.709-1.785,0.127-3.83-1.403-4.986
		c-0.769-0.582-1.67-0.877-2.583-0.877c-0.922,0-1.848,0.295-2.616,0.896L1.676,243.748C0.615,244.564,0,245.829,0,247.153z"/>
</g>
<g>
</g>
<g>
</g>
<g>
</g>
<g>
</g>
<g>
</g>
<g>
</g>
<g>
</g>
<g>
</g>
<g>
</g>
<g>
</g>
<g>
</g>
<g>
</g>
<g>
</g>
<g>
</g>
<g>
</g>
</svg>
