<?xml version="1.0" encoding="utf-8"?>
<svg version="1.1" id="Capa_1" x="0px" y="0px" width="100px" height="100px" viewBox="0 0 100 100" style="enable-background:new 0 0 470.083 470.083;" xmlns="http://www.w3.org/2000/svg">
  <g>
    <path d="M 92.528 57.471 C 92.528 80.923 73.45 100 49.999 100 C 26.549 100 7.471 80.923 7.471 57.471 C 7.471 49.72 9.58 42.127 13.567 35.522 L 24.664 42.221 C 21.896 46.807 20.434 52.081 20.431 57.473 C 20.431 73.776 33.695 87.038 49.997 87.038 C 66.301 87.038 79.564 73.776 79.564 57.473 C 79.564 41.76 67.234 28.908 51.748 27.996 L 45.407 27.996 L 50.747 41.513 C 50.926 41.965 50.781 42.482 50.392 42.775 C 50.003 43.068 49.466 43.067 49.08 42.769 L 22.531 22.355 C 22.264 22.149 22.107 21.835 22.107 21.496 C 22.107 21.159 22.264 20.842 22.531 20.637 L 49.081 0.224 C 49.276 0.074 49.507 0 49.741 0 C 49.971 0 50.199 0.072 50.393 0.217 C 50.782 0.51 50.928 1.027 50.748 1.481 L 45.409 14.996 L 50.001 14.942 C 51.643 14.942 57.09 15.495 57.988 15.706 C 77.631 19.456 92.528 36.752 92.528 57.471 Z"/>
  </g>
</svg>