<?xml version="1.0" encoding="iso-8859-1"?>
<!-- Generator: Adobe Illustrator 16.0.0, SVG Export Plug-In . SVG Version: 6.00 Build 0)  -->
<!DOCTYPE svg PUBLIC "-//W3C//DTD SVG 1.1//EN" "http://www.w3.org/Graphics/SVG/1.1/DTD/svg11.dtd">
<svg version="1.1" id="Capa_1" xmlns="http://www.w3.org/2000/svg" xmlns:xlink="http://www.w3.org/1999/xlink" x="0px" y="0px"
	 width="560.612px" height="560.612px" viewBox="0 0 560.612 560.612" style="enable-background:new 0 0 560.612 560.612;"
	 xml:space="preserve">
<g>
	<path d="M227.976,233.026L83.301,121.803c-1.448-1.126-2.309-2.84-2.309-4.678c0-1.835,0.86-3.558,2.309-4.672L227.976,1.218
		C229.039,0.398,230.298,0,231.578,0c1.244,0,2.491,0.387,3.552,1.179c2.119,1.599,2.905,4.413,1.924,6.896l-29.09,73.642
		l37.442,0.109c0,0,3.591,0.201,8.564,0.63l-0.018-0.63c3.171-0.074,75.575-0.86,126.153,48.761
		c31.12,30.517,46.885,72.096,46.885,123.583V423.73h-70.634V254.163c0-32.255-8.411-56.182-25.718-73.161
		c-24.636-24.166-60.902-27.919-71.934-28.469h-50.747l29.09,73.648c0.981,2.462,0.186,5.284-1.924,6.88
		C233.011,234.66,230.077,234.648,227.976,233.026z M467.515,454.691H110.735c-6.688,0-12.105,5.426-12.105,12.105v81.71
		c0,6.68,5.417,12.105,12.105,12.105h356.779c6.686,0,12.105-5.426,12.105-12.105v-81.71
		C479.62,460.105,474.188,454.691,467.515,454.691z"/>
</g>
<g>
</g>
<g>
</g>
<g>
</g>
<g>
</g>
<g>
</g>
<g>
</g>
<g>
</g>
<g>
</g>
<g>
</g>
<g>
</g>
<g>
</g>
<g>
</g>
<g>
</g>
<g>
</g>
<g>
</g>
</svg>
