<?xml version="1.0" encoding="iso-8859-1"?>
<!-- Generator: Adobe Illustrator 16.0.0, SVG Export Plug-In . SVG Version: 6.00 Build 0)  -->
<!DOCTYPE svg PUBLIC "-//W3C//DTD SVG 1.1//EN" "http://www.w3.org/Graphics/SVG/1.1/DTD/svg11.dtd">
<svg version="1.1" id="Capa_1" xmlns="http://www.w3.org/2000/svg" xmlns:xlink="http://www.w3.org/1999/xlink" x="0px" y="0px"
	 width="354.829px" height="354.829px" viewBox="0 0 354.829 354.829" style="enable-background:new 0 0 354.829 354.829;"
	 xml:space="preserve">
<g>
	<path d="M175.362,136.816c1.676,1.676,1.67,4.386-0.006,6.064l-30.337,30.346c-1.676,1.673-4.395,1.673-6.064,0L51.313,85.585
		L28.409,138.4c-0.763,1.768-2.625,2.808-4.531,2.542c-1.909-0.26-3.408-1.779-3.656-3.685L3.025,5.71
		C2.851,4.389,3.303,3.064,4.249,2.125c0.937-0.938,2.264-1.398,3.588-1.221l131.544,17.194c0.966,0.127,1.826,0.567,2.479,1.218
		c0.641,0.641,1.079,1.489,1.211,2.438c0.266,1.9-0.768,3.759-2.536,4.528L87.721,49.187L175.362,136.816z M332.436,214.525
		c-1.91-0.267-3.766,0.774-4.534,2.541l-22.904,52.813l-87.639-87.634c-1.679-1.679-4.397-1.679-6.07,0l-30.34,30.341
		c-1.676,1.678-1.676,4.391,0,6.064l87.645,87.645l-52.818,22.898c-1.768,0.762-2.808,2.624-2.536,4.521
		c0.137,0.957,0.573,1.797,1.212,2.441c0.656,0.656,1.513,1.099,2.482,1.217l131.544,17.201c1.324,0.171,2.648-0.284,3.588-1.224
		c0.94-0.94,1.39-2.271,1.224-3.588L336.094,218.22C335.852,216.304,334.35,214.791,332.436,214.525z M212.801,172.579
		c1.667,1.67,4.393,1.676,6.064,0.006l87.64-87.642l22.903,52.815c0.757,1.768,2.613,2.802,4.522,2.536
		c0.957-0.133,1.797-0.567,2.447-1.203c0.649-0.656,1.093-1.513,1.205-2.482L354.796,5.074c0.165-1.333-0.29-2.657-1.229-3.597
		c-0.946-0.943-2.264-1.392-3.588-1.224L218.434,17.451c-1.908,0.248-3.428,1.75-3.693,3.656c-0.267,1.9,0.773,3.765,2.535,4.527
		l52.818,22.901l-87.645,87.642c-1.676,1.673-1.67,4.395,0,6.067L212.801,172.579z M142.017,181.384
		c-1.669-1.667-4.386-1.673-6.064,0l-87.636,87.639l-22.901-52.818c-0.762-1.768-2.621-2.802-4.521-2.536
		c-0.958,0.136-1.803,0.573-2.447,1.212c-0.647,0.65-1.093,1.513-1.209,2.482L0.034,348.9c-0.168,1.324,0.293,2.647,1.229,3.588
		c0.946,0.939,2.264,1.389,3.591,1.224l131.535-17.194c1.906-0.249,3.425-1.75,3.691-3.653s-0.774-3.765-2.542-4.527l-52.816-22.904
		l87.642-87.633c1.676-1.679,1.669-4.403,0-6.07L142.017,181.384z"/>
</g>
<g>
</g>
<g>
</g>
<g>
</g>
<g>
</g>
<g>
</g>
<g>
</g>
<g>
</g>
<g>
</g>
<g>
</g>
<g>
</g>
<g>
</g>
<g>
</g>
<g>
</g>
<g>
</g>
<g>
</g>
</svg>
