<?xml version="1.0" encoding="iso-8859-1"?>
<!-- Generator: Adobe Illustrator 16.0.0, SVG Export Plug-In . SVG Version: 6.00 Build 0)  -->
<!DOCTYPE svg PUBLIC "-//W3C//DTD SVG 1.1//EN" "http://www.w3.org/Graphics/SVG/1.1/DTD/svg11.dtd">
<svg version="1.1" id="Capa_1" xmlns="http://www.w3.org/2000/svg" xmlns:xlink="http://www.w3.org/1999/xlink" x="0px" y="0px"
	 width="75.324px" height="75.323px" viewBox="0 0 75.324 75.323" style="enable-background:new 0 0 75.324 75.323;"
	 xml:space="preserve">
<g>
	<path d="M58.46,47.26c0.146,0.19,0.22,0.418,0.22,0.646c0,0.225-0.069,0.448-0.213,0.638c-0.286,0.381-0.792,0.521-1.235,0.348
		L44.017,43.67v30.594c0,0.586-0.475,1.06-1.059,1.06H32.367c-0.585,0-1.059-0.474-1.059-1.06V43.669l-13.216,5.222
		c-0.442,0.174-0.948,0.031-1.234-0.349c-0.287-0.38-0.286-0.905,0.006-1.282l19.959-25.96c0.2-0.261,0.51-0.414,0.839-0.414
		s0.64,0.153,0.839,0.414L58.46,47.26z M67.135,0H8.189c-1.104,0-2,0.896-2,2v13.5c0,1.104,0.896,2,2,2h58.945c1.104,0,2-0.896,2-2
		V2C69.135,0.895,68.24,0,67.135,0z"/>
</g>
<g>
</g>
<g>
</g>
<g>
</g>
<g>
</g>
<g>
</g>
<g>
</g>
<g>
</g>
<g>
</g>
<g>
</g>
<g>
</g>
<g>
</g>
<g>
</g>
<g>
</g>
<g>
</g>
<g>
</g>
</svg>
