<?xml version="1.0" encoding="iso-8859-1"?>
<!-- Generator: Adobe Illustrator 16.0.0, SVG Export Plug-In . SVG Version: 6.00 Build 0)  -->
<!DOCTYPE svg PUBLIC "-//W3C//DTD SVG 1.1//EN" "http://www.w3.org/Graphics/SVG/1.1/DTD/svg11.dtd">
<svg version="1.1" id="Capa_1" xmlns="http://www.w3.org/2000/svg" xmlns:xlink="http://www.w3.org/1999/xlink" x="0px" y="0px"
	 width="453.379px" height="453.379px" viewBox="0 0 453.379 453.379" style="enable-background:new 0 0 453.379 453.379;"
	 xml:space="preserve">
<g>
	<path d="M372.349,122.284c0,1.017-0.319,2.028-0.97,2.888c-1.294,1.726-3.582,2.367-5.586,1.575l-59.805-23.625v345.47
		c0,2.642-2.146,4.787-4.794,4.787h-47.93c-2.643,0-4.794-2.146-4.794-4.787V327.385l-0.13,0.048
		c-1.501-3.99-15.729-37.64-63.514-40.358l22.945,58.091c0.792,2.009,0.151,4.291-1.566,5.579c-1.726,1.301-4.1,1.289-5.808-0.023
		L82.901,260.387c-1.182-0.904-1.871-2.306-1.871-3.795s0.689-2.891,1.871-3.801l117.491-90.328c0.86-0.659,1.895-0.993,2.92-0.993
		c1.017,0,2.033,0.319,2.884,0.97c1.72,1.294,2.368,3.582,1.569,5.585l-23.623,59.805v4.9c26.874,0.856,47.972,7.914,64.321,17.478
		V103.116l-59.814,23.625c-2.01,0.792-4.292,0.15-5.585-1.575c-1.295-1.72-1.289-4.096,0.023-5.805L273.42,1.867
		C274.324,0.688,275.731,0,277.215,0s2.891,0.688,3.795,1.867l90.334,117.494C372.023,120.228,372.349,121.256,372.349,122.284z"/>
</g>
<g>
</g>
<g>
</g>
<g>
</g>
<g>
</g>
<g>
</g>
<g>
</g>
<g>
</g>
<g>
</g>
<g>
</g>
<g>
</g>
<g>
</g>
<g>
</g>
<g>
</g>
<g>
</g>
<g>
</g>
</svg>
