<?xml version="1.0" encoding="iso-8859-1"?>
<!-- Generator: Adobe Illustrator 16.0.0, SVG Export Plug-In . SVG Version: 6.00 Build 0)  -->
<!DOCTYPE svg PUBLIC "-//W3C//DTD SVG 1.1//EN" "http://www.w3.org/Graphics/SVG/1.1/DTD/svg11.dtd">
<svg version="1.1" id="Capa_1" xmlns="http://www.w3.org/2000/svg" xmlns:xlink="http://www.w3.org/1999/xlink" x="0px" y="0px"
	 width="451.311px" height="451.31px" viewBox="0 0 451.311 451.31" style="enable-background:new 0 0 451.311 451.31;"
	 xml:space="preserve">
<g>
	<path d="M451.311,189.91v17.026v37.451v17.023c-103.392,0-135.356,21.887-169.208,45.052
		c-32.521,22.266-66.15,45.282-148.555,45.282v-0.509c-3.904,0.337-6.744,0.503-6.744,0.503l-28.877,0.082l22.438,56.803
		c0.756,1.903,0.139,4.084-1.49,5.309c-0.815,0.614-1.773,0.91-2.743,0.91c-0.978,0-1.947-0.308-2.772-0.935L1.782,328.119
		C0.662,327.255,0,325.925,0,324.506c0-1.412,0.662-2.736,1.782-3.605l111.586-85.794c1.625-1.254,3.883-1.254,5.512-0.013
		c1.635,1.229,2.246,3.399,1.49,5.296l-22.438,56.809h40.22c61.959-0.744,84.713-16.201,113.185-35.684
		c18.088-12.377,37.368-25.558,66.047-35.854c-28.679-10.311-47.959-23.483-66.047-35.86
		c-28.472-19.488-51.225-34.941-113.185-35.687h-40.22l22.438,56.806c0.756,1.9,0.139,4.072-1.49,5.302
		c-1.634,1.232-3.892,1.227-5.512-0.021L1.782,130.412C0.662,129.546,0,128.222,0,126.806c0-1.418,0.662-2.748,1.782-3.608
		l111.586-85.789c0.822-0.629,1.791-0.939,2.77-0.939c0.969,0,1.927,0.305,2.742,0.913c1.635,1.229,2.246,3.408,1.49,5.308
		l-22.438,56.8l28.877,0.086c0,0,2.846,0.156,6.744,0.502V99.57c82.405,0,116.034,23.017,148.555,45.279
		C315.954,168.022,347.919,189.91,451.311,189.91z"/>
</g>
<g>
</g>
<g>
</g>
<g>
</g>
<g>
</g>
<g>
</g>
<g>
</g>
<g>
</g>
<g>
</g>
<g>
</g>
<g>
</g>
<g>
</g>
<g>
</g>
<g>
</g>
<g>
</g>
<g>
</g>
</svg>
