<?xml version="1.0" encoding="iso-8859-1"?>
<!-- Generator: Adobe Illustrator 16.0.0, SVG Export Plug-In . SVG Version: 6.00 Build 0)  -->
<!DOCTYPE svg PUBLIC "-//W3C//DTD SVG 1.1//EN" "http://www.w3.org/Graphics/SVG/1.1/DTD/svg11.dtd">
<svg version="1.1" id="Capa_1" xmlns="http://www.w3.org/2000/svg" xmlns:xlink="http://www.w3.org/1999/xlink" x="0px" y="0px"
	 width="367.408px" height="367.408px" viewBox="0 0 367.408 367.408" style="enable-background:new 0 0 367.408 367.408;"
	 xml:space="preserve">
<g>
	<path d="M364.747,79.693L179.288,265.144l111.758,48.468c3.735,1.632,5.946,5.556,5.373,9.599
		c-0.562,4.043-3.747,7.224-7.813,7.744L10.258,367.329c-2.793,0.372-5.606-0.591-7.604-2.577c-1.998-1.998-2.941-4.799-2.577-7.601
		L36.451,78.798c0.272-2.04,1.206-3.869,2.592-5.249c1.362-1.359,3.147-2.288,5.157-2.571c4.043-0.567,7.965,1.64,9.599,5.382
		l48.457,111.755L287.712,2.655c3.546-3.541,9.291-3.541,12.838,0l64.203,64.194C368.293,70.405,368.293,76.141,364.747,79.693z"/>
</g>
<g>
</g>
<g>
</g>
<g>
</g>
<g>
</g>
<g>
</g>
<g>
</g>
<g>
</g>
<g>
</g>
<g>
</g>
<g>
</g>
<g>
</g>
<g>
</g>
<g>
</g>
<g>
</g>
<g>
</g>
</svg>
