<?xml version="1.0" encoding="iso-8859-1"?>
<!-- Generator: Adobe Illustrator 16.0.0, SVG Export Plug-In . SVG Version: 6.00 Build 0)  -->
<!DOCTYPE svg PUBLIC "-//W3C//DTD SVG 1.1//EN" "http://www.w3.org/Graphics/SVG/1.1/DTD/svg11.dtd">
<svg version="1.1" id="Capa_1" xmlns="http://www.w3.org/2000/svg" xmlns:xlink="http://www.w3.org/1999/xlink" x="0px" y="0px"
	 width="470.083px" height="470.083px" viewBox="0 0 470.083 470.083" style="enable-background:new 0 0 470.083 470.083;"
	 xml:space="preserve">
<g>
	<path d="M460.664,0v70.627H329.711c-32.249,0-56.176,8.414-73.151,25.718c-24.175,24.636-27.922,60.902-28.478,71.934v50.747
		l73.648-29.09c2.471-0.981,5.284-0.187,6.88,1.927c1.608,2.116,1.597,5.048-0.023,7.152L197.352,343.688
		c-1.126,1.441-2.837,2.305-4.679,2.305c-1.835,0-3.558-0.863-4.678-2.305L76.766,199.015c-0.819-1.064-1.218-2.323-1.218-3.6
		c0-1.247,0.387-2.495,1.182-3.552c1.596-2.119,4.418-2.908,6.892-1.927l73.648,29.09l0.109-37.442c0,0,0.201-3.588,0.629-8.565
		l-0.629,0.018c-0.071-3.171-0.866-75.572,48.755-126.153C236.658,15.767,278.234,0,329.717,0H460.664z M378.298,364.162H21.524
		c-6.688,0-12.105,5.426-12.105,12.105v81.71c0,6.679,5.417,12.105,12.105,12.105h356.774c6.679,0,12.105-5.427,12.105-12.105
		v-81.71C390.403,369.588,384.971,364.162,378.298,364.162z"/>
</g>
<g>
</g>
<g>
</g>
<g>
</g>
<g>
</g>
<g>
</g>
<g>
</g>
<g>
</g>
<g>
</g>
<g>
</g>
<g>
</g>
<g>
</g>
<g>
</g>
<g>
</g>
<g>
</g>
<g>
</g>
</svg>
