<?xml version="1.0" encoding="iso-8859-1"?>
<!-- Generator: Adobe Illustrator 16.0.0, SVG Export Plug-In . SVG Version: 6.00 Build 0)  -->
<!DOCTYPE svg PUBLIC "-//W3C//DTD SVG 1.1//EN" "http://www.w3.org/Graphics/SVG/1.1/DTD/svg11.dtd">
<svg version="1.1" id="Capa_1" xmlns="http://www.w3.org/2000/svg" xmlns:xlink="http://www.w3.org/1999/xlink" x="0px" y="0px"
	 width="471.612px" height="471.612px" viewBox="0 0 471.612 471.612" style="enable-background:new 0 0 471.612 471.612;"
	 xml:space="preserve">
<g>
	<path d="M355.19,347.927c0.261,1.991-0.425,4.001-1.838,5.42c-1.425,1.43-3.429,2.104-5.427,1.844l-198.294-25.919
		c-1.454-0.188-2.754-0.856-3.735-1.838c-0.97-0.97-1.634-2.24-1.841-3.677c-0.405-2.878,1.17-5.674,3.833-6.832l79.615-34.52
		L95.386,150.279c-2.518-2.524-2.53-6.629,0.006-9.159l45.729-45.729c2.53-2.53,6.629-2.523,9.159,0l132.12,132.117l34.507-79.609
		c1.171-2.657,3.961-4.238,6.845-3.833c2.885,0.402,5.148,2.671,5.509,5.571L355.19,347.927z M402.625,402.624
		c-91.978,91.983-241.656,91.983-333.64,0c-91.98-91.977-91.98-241.658,0-333.639c91.983-91.98,241.662-91.98,333.64,0
		C494.607,160.975,494.607,310.642,402.625,402.624z M384.331,87.276c-81.899-81.896-215.161-81.891-297.055,0
		c-81.896,81.899-81.896,215.154,0,297.055c81.894,81.887,215.155,81.894,297.055,0C466.219,302.431,466.219,169.176,384.331,87.276
		z"/>
</g>
<g>
</g>
<g>
</g>
<g>
</g>
<g>
</g>
<g>
</g>
<g>
</g>
<g>
</g>
<g>
</g>
<g>
</g>
<g>
</g>
<g>
</g>
<g>
</g>
<g>
</g>
<g>
</g>
<g>
</g>
</svg>
