<?xml version="1.0" encoding="iso-8859-1"?>
<!-- Generator: Adobe Illustrator 16.0.0, SVG Export Plug-In . SVG Version: 6.00 Build 0)  -->
<!DOCTYPE svg PUBLIC "-//W3C//DTD SVG 1.1//EN" "http://www.w3.org/Graphics/SVG/1.1/DTD/svg11.dtd">
<svg version="1.1" id="Capa_1" xmlns="http://www.w3.org/2000/svg" xmlns:xlink="http://www.w3.org/1999/xlink" x="0px" y="0px"
	 width="420.144px" height="420.144px" viewBox="0 0 420.144 420.144" style="enable-background:new 0 0 420.144 420.144;"
	 xml:space="preserve">
<g>
	<path d="M384.714,303.021c0,1.839-0.856,3.559-2.305,4.67L237.731,418.926c-1.064,0.821-2.317,1.218-3.594,1.218
		c-1.253,0-2.494-0.385-3.559-1.183c-2.116-1.596-2.908-4.409-1.927-6.892l29.093-73.637v-3.127
		c-1.336,0.148-2.666,0.237-4.043,0.237v-0.272h-60.904c-86.782,0-157.368-70.586-157.368-157.365v-20.537
		C35.43,70.593,106.016,0,192.798,0h157.238v72.632H192.798c-46.733,0-84.737,38.012-84.737,84.736v20.537
		c0,46.728,38.003,84.734,84.737,84.734h62.985l-27.131-68.678c-0.981-2.462-0.189-5.284,1.927-6.88
		c2.11-1.599,5.048-1.587,7.152,0.035l144.672,111.224C383.857,299.476,384.714,301.184,384.714,303.021z"/>
</g>
<g>
</g>
<g>
</g>
<g>
</g>
<g>
</g>
<g>
</g>
<g>
</g>
<g>
</g>
<g>
</g>
<g>
</g>
<g>
</g>
<g>
</g>
<g>
</g>
<g>
</g>
<g>
</g>
<g>
</g>
</svg>
