<?xml version="1.0" encoding="iso-8859-1"?>
<!-- Generator: Adobe Illustrator 16.0.0, SVG Export Plug-In . SVG Version: 6.00 Build 0)  -->
<!DOCTYPE svg PUBLIC "-//W3C//DTD SVG 1.1//EN" "http://www.w3.org/Graphics/SVG/1.1/DTD/svg11.dtd">
<svg version="1.1" id="Capa_1" xmlns="http://www.w3.org/2000/svg" xmlns:xlink="http://www.w3.org/1999/xlink" x="0px" y="0px"
	 width="471.839px" height="471.838px" viewBox="0 0 471.839 471.838" style="enable-background:new 0 0 471.839 471.838;"
	 xml:space="preserve">
<g>
	<path d="M402.145,235.911c0.012,2.021-0.928,3.913-2.518,5.143L241.082,362.939c-1.164,0.881-2.554,1.342-3.942,1.342
		c-1.371,0-2.733-0.426-3.901-1.301c-2.319-1.749-3.177-4.841-2.119-7.542l31.885-80.705H76.16c-3.564,0-6.476-2.896-6.469-6.479
		v-64.667c0-3.579,2.899-6.466,6.475-6.472h186.845L231.12,116.41c-1.052-2.704-0.195-5.798,2.137-7.548
		c2.316-1.75,5.526-1.75,7.831,0.044l158.551,121.886C401.217,232.009,402.145,233.913,402.145,235.911z M471.839,235.922
		c0,130.084-105.833,235.916-235.92,235.916C105.835,471.838,0,366.006,0,235.922C0,105.835,105.835,0,235.919,0
		C366.006,0,471.839,105.835,471.839,235.922z M445.967,235.922c0-115.824-94.229-210.048-210.048-210.048
		c-115.824,0-210.051,94.229-210.051,210.048c0,115.815,94.221,210.045,210.051,210.045
		C351.737,445.967,445.967,351.738,445.967,235.922z"/>
</g>
<g>
</g>
<g>
</g>
<g>
</g>
<g>
</g>
<g>
</g>
<g>
</g>
<g>
</g>
<g>
</g>
<g>
</g>
<g>
</g>
<g>
</g>
<g>
</g>
<g>
</g>
<g>
</g>
<g>
</g>
</svg>
