<?xml version="1.0" encoding="iso-8859-1"?>
<!-- Generator: Adobe Illustrator 16.0.0, SVG Export Plug-In . SVG Version: 6.00 Build 0)  -->
<!DOCTYPE svg PUBLIC "-//W3C//DTD SVG 1.1//EN" "http://www.w3.org/Graphics/SVG/1.1/DTD/svg11.dtd">
<svg version="1.1" id="Capa_1" xmlns="http://www.w3.org/2000/svg" xmlns:xlink="http://www.w3.org/1999/xlink" x="0px" y="0px"
	 width="466.678px" height="466.678px" viewBox="0 0 466.678 466.678" style="enable-background:new 0 0 466.678 466.678;"
	 xml:space="preserve">
<g>
	<path d="M411.631,240.58L240.538,463.132c-1.714,2.234-4.386,3.546-7.196,3.546c-2.825,0-5.482-1.312-7.196-3.546L55.038,240.58
		c-1.253-1.638-1.882-3.582-1.882-5.539c0-1.921,0.605-3.848,1.835-5.467c2.444-3.257,6.783-4.472,10.578-2.979l113.3,44.757
		L178.856,9.079C178.868,4.061,182.923,0,187.947,0h90.774c5.024,0,9.079,4.061,9.091,9.079l-0.012,262.273l113.298-44.763
		c3.8-1.492,8.139-0.278,10.592,2.985C414.149,232.837,414.138,237.341,411.631,240.58z"/>
</g>
<g>
</g>
<g>
</g>
<g>
</g>
<g>
</g>
<g>
</g>
<g>
</g>
<g>
</g>
<g>
</g>
<g>
</g>
<g>
</g>
<g>
</g>
<g>
</g>
<g>
</g>
<g>
</g>
<g>
</g>
</svg>
