<?xml version="1.0" encoding="iso-8859-1"?>
<!-- Generator: Adobe Illustrator 16.0.0, SVG Export Plug-In . SVG Version: 6.00 Build 0)  -->
<!DOCTYPE svg PUBLIC "-//W3C//DTD SVG 1.1//EN" "http://www.w3.org/Graphics/SVG/1.1/DTD/svg11.dtd">
<svg version="1.1" id="Capa_1" xmlns="http://www.w3.org/2000/svg" xmlns:xlink="http://www.w3.org/1999/xlink" x="0px" y="0px"
	 width="520.101px" height="520.101px" viewBox="0 0 520.101 520.101" style="enable-background:new 0 0 520.101 520.101;"
	 xml:space="preserve">
<g>
	<path d="M324.258,470.213l0.071,0.06c-14.724,10.409-23.855,29.507-23.844,49.815l-53.25,0.013
		c-0.012-29.129,13.299-56.578,35.831-74.476c13.778-10.817,22.006-28.821,22.006-48.339c0-33.479-23.312-56.802-44.236-56.802
		v-0.461c-49.875-4.705-87.639-44.78-87.639-95.081c0-28.375,12.235-54.595,33.685-72.632l-0.035-0.023
		c9.061-7.687,15.492-18.702,18.542-30.96V71.898l-57.34,16.482c-1.921,0.544-4.108,0.095-5.355-1.103
		c-1.253-1.194-1.241-2.863,0.023-4.043l86.604-81.935C250.19,0.47,251.538,0,252.962,0c1.418,0,2.778,0.47,3.647,1.301
		l86.599,81.935c0.627,0.591,0.939,1.312,0.939,2.033c0,0.71-0.301,1.404-0.91,2.01c-1.247,1.191-3.434,1.641-5.367,1.103
		l-57.334-16.482v48.634c1.354,28.738-10.355,56.658-31.776,75.632l0.112,0.085c-14.026,10.766-22.408,28.974-22.408,48.693
		c0,33.479,23.318,56.803,44.242,56.803v0.473c49.863,4.693,87.634,44.769,87.634,95.068
		C358.315,425.823,345.938,452.174,324.258,470.213z"/>
</g>
<g>
</g>
<g>
</g>
<g>
</g>
<g>
</g>
<g>
</g>
<g>
</g>
<g>
</g>
<g>
</g>
<g>
</g>
<g>
</g>
<g>
</g>
<g>
</g>
<g>
</g>
<g>
</g>
<g>
</g>
</svg>
