<?xml version="1.0" encoding="iso-8859-1"?>
<!-- Generator: Adobe Illustrator 16.0.0, SVG Export Plug-In . SVG Version: 6.00 Build 0)  -->
<!DOCTYPE svg PUBLIC "-//W3C//DTD SVG 1.1//EN" "http://www.w3.org/Graphics/SVG/1.1/DTD/svg11.dtd">
<svg version="1.1" id="Capa_1" xmlns="http://www.w3.org/2000/svg" xmlns:xlink="http://www.w3.org/1999/xlink" x="0px" y="0px"
	 width="466.69px" height="466.69px" viewBox="0 0 466.69 466.69" style="enable-background:new 0 0 466.69 466.69;"
	 xml:space="preserve">
<g>
	<path d="M466.69,278.734c-0.018,5.024-4.072,9.079-9.097,9.079H195.336l44.744,113.298c1.49,3.794,0.287,8.133-2.976,10.58
		c-3.263,2.471-7.767,2.459-11.003-0.048L3.546,240.539C1.312,238.825,0,236.153,0,233.349c0-2.825,1.312-5.482,3.546-7.202
		L226.102,55.045c1.634-1.253,3.582-1.889,5.544-1.889c1.912,0,3.842,0.611,5.458,1.835c3.263,2.45,4.478,6.792,2.976,10.586
		l-44.756,113.292l262.27-0.006c5.024,0.006,9.079,4.066,9.079,9.079L466.69,278.734z"/>
</g>
<g>
</g>
<g>
</g>
<g>
</g>
<g>
</g>
<g>
</g>
<g>
</g>
<g>
</g>
<g>
</g>
<g>
</g>
<g>
</g>
<g>
</g>
<g>
</g>
<g>
</g>
<g>
</g>
<g>
</g>
</svg>
