<?xml version="1.0" encoding="iso-8859-1"?>
<!-- Generator: Adobe Illustrator 16.0.0, SVG Export Plug-In . SVG Version: 6.00 Build 0)  -->
<!DOCTYPE svg PUBLIC "-//W3C//DTD SVG 1.1//EN" "http://www.w3.org/Graphics/SVG/1.1/DTD/svg11.dtd">
<svg version="1.1" id="Capa_1" xmlns="http://www.w3.org/2000/svg" xmlns:xlink="http://www.w3.org/1999/xlink" x="0px" y="0px"
	 width="367.415px" height="367.415px" viewBox="0 0 367.415 367.415" style="enable-background:new 0 0 367.415 367.415;"
	 xml:space="preserve">
<g>
	<path d="M364.754,300.547L300.57,364.75c-3.559,3.547-9.292,3.547-12.85,0L102.27,179.297L53.795,291.049
		c-1.628,3.741-5.55,5.952-9.593,5.379c-4.043-0.562-7.223-3.754-7.743-7.82L0.078,10.258c-0.369-2.79,0.585-5.604,2.577-7.595
		c1.998-1.998,4.806-2.947,7.601-2.583l278.356,36.381c2.039,0.266,3.871,1.2,5.248,2.586c1.359,1.362,2.287,3.147,2.571,5.163
		c0.567,4.037-1.638,7.964-5.379,9.587l-111.758,48.462l185.459,185.45C368.301,291.262,368.301,297.001,364.754,300.547z"/>
</g>
<g>
</g>
<g>
</g>
<g>
</g>
<g>
</g>
<g>
</g>
<g>
</g>
<g>
</g>
<g>
</g>
<g>
</g>
<g>
</g>
<g>
</g>
<g>
</g>
<g>
</g>
<g>
</g>
<g>
</g>
</svg>
