<?xml version="1.0" encoding="iso-8859-1"?>
<!-- Generator: Adobe Illustrator 16.0.0, SVG Export Plug-In . SVG Version: 6.00 Build 0)  -->
<!DOCTYPE svg PUBLIC "-//W3C//DTD SVG 1.1//EN" "http://www.w3.org/Graphics/SVG/1.1/DTD/svg11.dtd">
<svg version="1.1" id="Capa_1" xmlns="http://www.w3.org/2000/svg" xmlns:xlink="http://www.w3.org/1999/xlink" x="0px" y="0px"
	 width="367.411px" height="367.411px" viewBox="0 0 367.411 367.411" style="enable-background:new 0 0 367.411 367.411;"
	 xml:space="preserve">
<g>
	<path d="M364.759,364.753c-1.997,1.998-4.805,2.943-7.601,2.583L78.802,330.955c-2.039-0.266-3.869-1.199-5.249-2.589
		c-1.359-1.359-2.288-3.145-2.571-5.16c-0.567-4.037,1.64-7.961,5.382-9.593l111.752-48.462L2.66,79.698
		c-3.546-3.546-3.546-9.294,0-12.844L66.854,2.66c3.556-3.546,9.292-3.546,12.844,0l185.454,185.457l48.468-111.758
		c1.626-3.742,5.551-5.943,9.594-5.376c4.043,0.562,7.223,3.753,7.742,7.813l36.381,278.355
		C367.697,359.948,366.745,362.761,364.759,364.753z"/>
</g>
<g>
</g>
<g>
</g>
<g>
</g>
<g>
</g>
<g>
</g>
<g>
</g>
<g>
</g>
<g>
</g>
<g>
</g>
<g>
</g>
<g>
</g>
<g>
</g>
<g>
</g>
<g>
</g>
<g>
</g>
</svg>
