<?xml version="1.0" encoding="iso-8859-1"?>
<!-- Generator: Adobe Illustrator 16.0.0, SVG Export Plug-In . SVG Version: 6.00 Build 0)  -->
<!DOCTYPE svg PUBLIC "-//W3C//DTD SVG 1.1//EN" "http://www.w3.org/Graphics/SVG/1.1/DTD/svg11.dtd">
<svg version="1.1" id="Capa_1" xmlns="http://www.w3.org/2000/svg" xmlns:xlink="http://www.w3.org/1999/xlink" x="0px" y="0px"
	 width="458.865px" height="458.864px" viewBox="0 0 458.865 458.864" style="enable-background:new 0 0 458.865 458.864;"
	 xml:space="preserve">
<g>
	<path d="M330.63,272.332c0,58.871-43.491,107.646-99.998,116.235v70.297h-47.537v-114.45c0-2.188,1.773-3.96,3.963-3.96h38.258
		c32.305-5.87,56.894-34.152,56.894-68.122c0-35.264-26.504-64.397-60.621-68.688h-34.531c-2.189,0-3.957-1.776-3.957-3.96V85.233
		l-49.446,19.532c-1.652,0.647-3.547,0.122-4.617-1.3c-1.079-1.422-1.073-3.39,0.024-4.8l74.665-97.12
		C204.471,0.57,205.633,0,206.868,0s2.391,0.57,3.142,1.545l74.665,97.12c0.55,0.709,0.822,1.561,0.822,2.409
		c0,0.842-0.261,1.676-0.798,2.391c-1.07,1.416-2.962,1.947-4.617,1.3l-49.438-19.532v70.87
		C287.145,164.694,330.63,213.464,330.63,272.332z M254.276,270.914c0-26.186-21.229-47.414-47.414-47.414
		c-26.185,0-47.416,21.228-47.416,47.414c0,26.185,21.231,47.416,47.416,47.416C233.047,318.33,254.276,297.11,254.276,270.914z"/>
</g>
<g>
</g>
<g>
</g>
<g>
</g>
<g>
</g>
<g>
</g>
<g>
</g>
<g>
</g>
<g>
</g>
<g>
</g>
<g>
</g>
<g>
</g>
<g>
</g>
<g>
</g>
<g>
</g>
<g>
</g>
</svg>
