<?xml version="1.0" encoding="iso-8859-1"?>
<!-- Generator: Adobe Illustrator 16.0.0, SVG Export Plug-In . SVG Version: 6.00 Build 0)  -->
<!DOCTYPE svg PUBLIC "-//W3C//DTD SVG 1.1//EN" "http://www.w3.org/Graphics/SVG/1.1/DTD/svg11.dtd">
<svg version="1.1" id="Capa_1" xmlns="http://www.w3.org/2000/svg" xmlns:xlink="http://www.w3.org/1999/xlink" x="0px" y="0px"
	 width="418.234px" height="418.234px" viewBox="0 0 418.234 418.234" style="enable-background:new 0 0 418.234 418.234;"
	 xml:space="preserve">
<g>
	<path d="M325.473,266.458c0,1.24-0.384,2.482-1.182,3.534c-1.584,2.104-4.386,2.891-6.839,1.915l-73.151-28.892V412.37
		c0,3.24-2.625,5.864-5.869,5.864h-58.626c-3.233,0-5.86-2.624-5.86-5.864V243.016l-73.164,28.892
		c-2.447,0.97-5.249,0.178-6.833-1.915c-1.593-2.11-1.587-5.013,0.036-7.11l110.484-143.706c1.114-1.448,2.829-2.287,4.649-2.287
		c1.821,0,3.541,0.839,4.649,2.287l110.49,143.706C325.06,263.939,325.473,265.204,325.473,266.458z M209.117,0
		c-27.381,0-49.583,22.201-49.583,49.577c0,27.387,22.201,49.588,49.583,49.588s49.588-22.201,49.588-49.588
		C258.706,22.201,236.499,0,209.117,0z"/>
</g>
<g>
</g>
<g>
</g>
<g>
</g>
<g>
</g>
<g>
</g>
<g>
</g>
<g>
</g>
<g>
</g>
<g>
</g>
<g>
</g>
<g>
</g>
<g>
</g>
<g>
</g>
<g>
</g>
<g>
</g>
</svg>
