<?xml version="1.0" encoding="iso-8859-1"?>
<!-- Generator: Adobe Illustrator 16.0.0, SVG Export Plug-In . SVG Version: 6.00 Build 0)  -->
<!DOCTYPE svg PUBLIC "-//W3C//DTD SVG 1.1//EN" "http://www.w3.org/Graphics/SVG/1.1/DTD/svg11.dtd">
<svg version="1.1" id="Capa_1" xmlns="http://www.w3.org/2000/svg" xmlns:xlink="http://www.w3.org/1999/xlink" x="0px" y="0px"
	 width="367.415px" height="367.415px" viewBox="0 0 367.415 367.415" style="enable-background:new 0 0 367.415 367.415;"
	 xml:space="preserve">
<g>
	<path d="M367.334,10.256l-36.381,278.361c-0.266,2.039-1.205,3.866-2.583,5.243c-1.365,1.359-3.15,2.288-5.159,2.571
		c-4.037,0.567-7.962-1.631-9.588-5.379l-48.462-111.758L79.702,364.754c-3.546,3.547-9.297,3.547-12.844,0L2.664,300.558
		c-3.546-3.553-3.546-9.292,0-12.839L188.12,102.257L76.368,53.795c-3.748-1.629-5.949-5.551-5.382-9.594
		c0.564-4.043,3.753-7.217,7.814-7.743L357.156,0.078c2.796-0.37,5.604,0.585,7.595,2.577
		C366.749,4.653,367.701,7.46,367.334,10.256z"/>
</g>
<g>
</g>
<g>
</g>
<g>
</g>
<g>
</g>
<g>
</g>
<g>
</g>
<g>
</g>
<g>
</g>
<g>
</g>
<g>
</g>
<g>
</g>
<g>
</g>
<g>
</g>
<g>
</g>
<g>
</g>
</svg>
