<?xml version="1.0" encoding="iso-8859-1"?>
<!-- Generator: Adobe Illustrator 16.0.0, SVG Export Plug-In . SVG Version: 6.00 Build 0)  -->
<!DOCTYPE svg PUBLIC "-//W3C//DTD SVG 1.1//EN" "http://www.w3.org/Graphics/SVG/1.1/DTD/svg11.dtd">
<svg version="1.1" id="Capa_1" xmlns="http://www.w3.org/2000/svg" xmlns:xlink="http://www.w3.org/1999/xlink" x="0px" y="0px"
	 width="492.716px" height="492.716px" viewBox="0 0 492.716 492.716" style="enable-background:new 0 0 492.716 492.716;"
	 xml:space="preserve">
<g>
	<path d="M157.696,267.565c12.336,17.2,25.62,35.683,42.103,53.244C162.224,364.046,107.467,403.388,0,403.388v-78.684
		c85.204,0,119.717-28.254,150.24-67.483C152.696,260.602,155.173,264.042,157.696,267.565z M241.804,207.237
		c7.699,10.73,14.931,20.797,22.42,30.038c25.96-28.641,58.558-49.08,120.898-53.058l-19.15,48.495
		c-0.799,2.01-0.154,4.292,1.572,5.591c0.856,0.636,1.873,0.97,2.89,0.97c1.028,0,2.058-0.334,2.914-0.993l117.494-90.34
		c1.177-0.898,1.868-2.309,1.868-3.798c0-1.486-0.686-2.899-1.868-3.795L373.348,50.013c-1.714-1.315-4.09-1.327-5.804-0.023
		c-1.727,1.3-2.377,3.582-1.572,5.591l19.683,49.836c-84.364,4.419-134.112,33.526-169.175,68.081
		C225.868,185.047,234.123,196.529,241.804,207.237z M373.348,254.431c-0.869-0.662-1.897-0.993-2.92-0.993
		c-1.017,0-2.033,0.331-2.884,0.97c-1.727,1.3-2.377,3.582-1.572,5.592l19.145,48.491c-89.223-5.68-117.548-45.087-152.634-94.017
		C192.493,158.712,142.728,89.32,0,89.32v78.684c102.327,0,131.55,40.734,168.543,92.326
		c38.609,53.842,86.223,120.107,217.111,126.97l-19.683,49.833c-0.799,2.01-0.154,4.292,1.572,5.592
		c1.714,1.307,4.096,1.295,5.804-0.023l117.494-90.34c1.183-0.893,1.874-2.306,1.874-3.795s-0.686-2.896-1.874-3.795
		L373.348,254.431z"/>
</g>
<g>
</g>
<g>
</g>
<g>
</g>
<g>
</g>
<g>
</g>
<g>
</g>
<g>
</g>
<g>
</g>
<g>
</g>
<g>
</g>
<g>
</g>
<g>
</g>
<g>
</g>
<g>
</g>
<g>
</g>
</svg>
