<?xml version="1.0" encoding="iso-8859-1"?>
<!-- Generator: Adobe Illustrator 16.0.0, SVG Export Plug-In . SVG Version: 6.00 Build 0)  -->
<!DOCTYPE svg PUBLIC "-//W3C//DTD SVG 1.1//EN" "http://www.w3.org/Graphics/SVG/1.1/DTD/svg11.dtd">
<svg version="1.1" id="Capa_1" xmlns="http://www.w3.org/2000/svg" xmlns:xlink="http://www.w3.org/1999/xlink" x="0px" y="0px"
	 width="460.531px" height="460.531px" viewBox="0 0 460.531 460.531" style="enable-background:new 0 0 460.531 460.531;"
	 xml:space="preserve">
<g>
	<path d="M403.262,254.156v206.375h-70.628V254.156c0-32.26-8.411-56.187-25.718-73.16c-24.636-24.166-60.904-27.919-71.934-28.469
		h-50.747l29.09,73.648c0.979,2.468,0.187,5.284-1.927,6.88c-2.116,1.604-5.048,1.593-7.152-0.03L59.574,121.797
		c-1.445-1.126-2.305-2.84-2.305-4.678c0-1.835,0.86-3.561,2.305-4.672L204.246,1.218c1.064-0.819,2.323-1.218,3.6-1.218
		c1.247,0,2.494,0.387,3.552,1.185c2.119,1.593,2.905,4.413,1.927,6.889l-29.09,73.642l37.442,0.109c0,0,3.588,0.198,8.565,0.624
		l-0.018-0.63c3.174-0.067,75.568-0.859,126.153,48.761C387.492,161.092,403.262,202.665,403.262,254.156z"/>
</g>
<g>
</g>
<g>
</g>
<g>
</g>
<g>
</g>
<g>
</g>
<g>
</g>
<g>
</g>
<g>
</g>
<g>
</g>
<g>
</g>
<g>
</g>
<g>
</g>
<g>
</g>
<g>
</g>
<g>
</g>
</svg>
