<?xml version="1.0" encoding="iso-8859-1"?>
<!-- Generator: Adobe Illustrator 16.0.0, SVG Export Plug-In . SVG Version: 6.00 Build 0)  -->
<!DOCTYPE svg PUBLIC "-//W3C//DTD SVG 1.1//EN" "http://www.w3.org/Graphics/SVG/1.1/DTD/svg11.dtd">
<svg version="1.1" id="Capa_1" xmlns="http://www.w3.org/2000/svg" xmlns:xlink="http://www.w3.org/1999/xlink" x="0px" y="0px"
	 width="432.16px" height="432.16px" viewBox="0 0 432.16 432.16" style="enable-background:new 0 0 432.16 432.16;"
	 xml:space="preserve">
<g>
	<path d="M332.436,149.572c0,1.241-0.384,2.482-1.182,3.529c-1.584,2.107-4.386,2.893-6.839,1.918l-73.151-28.895v169.355
		c0,3.239-2.625,5.863-5.869,5.863h-58.626c-3.233,0-5.86-2.624-5.86-5.863V126.124l-73.164,28.895
		c-2.447,0.969-5.249,0.183-6.833-1.918c-1.593-2.107-1.587-5.012,0.036-7.099L211.431,2.288C212.545,0.839,214.26,0,216.08,0
		c1.821,0,3.541,0.848,4.649,2.288l110.49,143.714C332.023,147.048,332.436,148.307,332.436,149.572z M216.08,333
		c-27.381,0-49.583,22.189-49.583,49.58s22.201,49.579,49.583,49.579s49.588-22.188,49.588-49.579
		C265.668,355.202,243.461,333,216.08,333z"/>
</g>
<g>
</g>
<g>
</g>
<g>
</g>
<g>
</g>
<g>
</g>
<g>
</g>
<g>
</g>
<g>
</g>
<g>
</g>
<g>
</g>
<g>
</g>
<g>
</g>
<g>
</g>
<g>
</g>
<g>
</g>
</svg>
