<?xml version="1.0" encoding="iso-8859-1"?>
<!-- Generator: Adobe Illustrator 16.0.0, SVG Export Plug-In . SVG Version: 6.00 Build 0)  -->
<!DOCTYPE svg PUBLIC "-//W3C//DTD SVG 1.1//EN" "http://www.w3.org/Graphics/SVG/1.1/DTD/svg11.dtd">
<svg version="1.1" id="Capa_1" xmlns="http://www.w3.org/2000/svg" xmlns:xlink="http://www.w3.org/1999/xlink" x="0px" y="0px"
	 width="385.163px" height="385.162px" viewBox="0 0 385.163 385.162" style="enable-background:new 0 0 385.163 385.162;"
	 xml:space="preserve">
<g>
	<path d="M383.904,40.45l-87.639,87.639l52.812,22.901c1.768,0.769,2.808,2.628,2.542,4.534c-0.261,1.906-1.779,3.407-3.688,3.655
		l-131.544,17.2c-1.318,0.172-2.648-0.283-3.588-1.22c-0.94-0.94-1.396-2.264-1.224-3.591L228.77,40.028
		c0.124-0.96,0.562-1.827,1.218-2.474c0.645-0.644,1.489-1.084,2.441-1.218c1.902-0.266,3.765,0.774,4.527,2.542l22.904,52.816
		L347.5,4.052c1.679-1.67,4.386-1.664,6.064,0.006l30.34,30.334C385.583,36.059,385.583,38.769,383.904,40.45z M168.788,208.795
		L37.25,225.989c-1.915,0.248-3.428,1.749-3.694,3.659c-0.266,1.902,0.769,3.759,2.542,4.527l52.819,22.904L1.271,344.719
		c-1.673,1.679-1.673,4.392,0,6.07l30.34,30.334c1.679,1.679,4.392,1.685,6.07,0.006l87.639-87.645l22.904,52.818
		c0.762,1.768,2.618,2.802,4.527,2.536c0.958-0.136,1.797-0.567,2.436-1.212c0.656-0.65,1.099-1.514,1.217-2.482l17.201-131.538
		c0.165-1.324-0.29-2.648-1.224-3.594C171.441,209.078,170.112,208.617,168.788,208.795z M290.703,259.857l52.812-22.903
		c1.768-0.757,2.803-2.619,2.536-4.517c-0.13-0.957-0.567-1.809-1.218-2.44c-0.645-0.656-1.513-1.105-2.471-1.218l-131.544-17.2
		c-1.324-0.172-2.647,0.283-3.588,1.224c-0.939,0.934-1.395,2.27-1.218,3.588l17.194,131.544c0.249,1.909,1.75,3.422,3.659,3.688
		c1.903,0.266,3.766-0.774,4.533-2.542l22.904-52.818l87.633,87.639c1.679,1.679,4.393,1.679,6.07,0l30.335-30.34
		c1.679-1.679,1.685-4.397,0.006-6.064L290.703,259.857z M88.897,125.312l-52.818,22.901c-1.768,0.762-2.802,2.622-2.536,4.522
		c0.136,0.954,0.567,1.797,1.211,2.438c0.656,0.656,1.513,1.102,2.483,1.218l131.538,17.2c1.33,0.171,2.654-0.284,3.594-1.22
		c0.934-0.94,1.389-2.27,1.217-3.591L156.393,37.238c-0.248-1.912-1.75-3.425-3.653-3.691c-1.909-0.267-3.765,0.774-4.534,2.541
		l-22.904,52.816L37.663,1.262c-1.673-1.679-4.392-1.679-6.07,0L1.259,31.602c-1.679,1.678-1.679,4.395,0,6.064L88.897,125.312z"/>
</g>
<g>
</g>
<g>
</g>
<g>
</g>
<g>
</g>
<g>
</g>
<g>
</g>
<g>
</g>
<g>
</g>
<g>
</g>
<g>
</g>
<g>
</g>
<g>
</g>
<g>
</g>
<g>
</g>
<g>
</g>
</svg>
