<?xml version="1.0" encoding="iso-8859-1"?>
<!-- Generator: Adobe Illustrator 16.0.0, SVG Export Plug-In . SVG Version: 6.00 Build 0)  -->
<!DOCTYPE svg PUBLIC "-//W3C//DTD SVG 1.1//EN" "http://www.w3.org/Graphics/SVG/1.1/DTD/svg11.dtd">
<svg version="1.1" id="Capa_1" xmlns="http://www.w3.org/2000/svg" xmlns:xlink="http://www.w3.org/1999/xlink" x="0px" y="0px"
	 width="82.166px" height="82.166px" viewBox="0 0 82.166 82.166" style="enable-background:new 0 0 82.166 82.166;"
	 xml:space="preserve">
<g>
	<path d="M71.655,19.977v56.189c0,3.312-2.686,6-6,6c-3.313,0-6-2.688-6-6V25.977h-27.5c-0.125,0-0.246-0.012-0.369-0.019
		l4.508,11.411c0.162,0.407,0.031,0.873-0.318,1.137c-0.349,0.264-0.834,0.262-1.182-0.006L10.892,20.124
		c-0.24-0.187-0.381-0.47-0.381-0.773c0-0.303,0.141-0.589,0.381-0.772L34.794,0.201C34.97,0.066,35.177,0,35.388,0
		c0.207,0,0.412,0.064,0.588,0.195c0.35,0.264,0.48,0.729,0.318,1.139L31.487,13.5v0.516c0.221-0.024,0.441-0.039,0.668-0.039h33.5
		C68.97,13.977,71.655,16.663,71.655,19.977z"/>
</g>
<g>
</g>
<g>
</g>
<g>
</g>
<g>
</g>
<g>
</g>
<g>
</g>
<g>
</g>
<g>
</g>
<g>
</g>
<g>
</g>
<g>
</g>
<g>
</g>
<g>
</g>
<g>
</g>
<g>
</g>
</svg>
