<?xml version="1.0" encoding="iso-8859-1"?>
<!-- Generator: Adobe Illustrator 16.0.0, SVG Export Plug-In . SVG Version: 6.00 Build 0)  -->
<!DOCTYPE svg PUBLIC "-//W3C//DTD SVG 1.1//EN" "http://www.w3.org/Graphics/SVG/1.1/DTD/svg11.dtd">
<svg version="1.1" id="Capa_1" xmlns="http://www.w3.org/2000/svg" xmlns:xlink="http://www.w3.org/1999/xlink" x="0px" y="0px"
	 width="453.385px" height="453.385px" viewBox="0 0 453.385 453.385" style="enable-background:new 0 0 453.385 453.385;"
	 xml:space="preserve">
<g>
	<path d="M336.929,122.287c0,1.017-0.332,2.034-0.97,2.888c-1.301,1.726-3.582,2.373-5.592,1.572l-59.805-23.616v345.455
		c0,2.653-2.151,4.799-4.8,4.799h-47.925c-2.651,0-4.799-2.146-4.799-4.799V327.396l-0.127,0.048v-0.585
		c-38.873,26.592-84.217,34.471-87.527,35.021l-8.928-53.741c0.907-0.153,84.438-15.014,96.582-68.233V103.125l-59.808,23.616
		c-2.01,0.801-4.291,0.15-5.592-1.572c-1.3-1.714-1.288-4.093,0.024-5.805L238.006,1.87C238.904,0.691,240.311,0,241.8,0
		c1.49,0,2.896,0.686,3.795,1.87l90.341,117.494C336.597,120.23,336.929,121.259,336.929,122.287z"/>
</g>
<g>
</g>
<g>
</g>
<g>
</g>
<g>
</g>
<g>
</g>
<g>
</g>
<g>
</g>
<g>
</g>
<g>
</g>
<g>
</g>
<g>
</g>
<g>
</g>
<g>
</g>
<g>
</g>
<g>
</g>
</svg>
