<?xml version="1.0" encoding="iso-8859-1"?>
<!-- Generator: Adobe Illustrator 16.0.0, SVG Export Plug-In . SVG Version: 6.00 Build 0)  -->
<!DOCTYPE svg PUBLIC "-//W3C//DTD SVG 1.1//EN" "http://www.w3.org/Graphics/SVG/1.1/DTD/svg11.dtd">
<svg version="1.1" id="Capa_1" xmlns="http://www.w3.org/2000/svg" xmlns:xlink="http://www.w3.org/1999/xlink" x="0px" y="0px"
	 width="458.864px" height="458.864px" viewBox="0 0 458.864 458.864" style="enable-background:new 0 0 458.864 458.864;"
	 xml:space="preserve">
<g>
	<path d="M254.234,311.828H37.519c-5.198,0-9.418-4.215-9.418-9.422v-63.553c0-5.201,4.214-9.422,9.418-9.422h213.051
		c12.005,10.539,19.541,25.942,19.541,42.9C270.11,287.523,264.123,301.496,254.234,311.828z M421.355,229.432h-86.062
		c4.823,13.512,7.437,27.976,7.437,42.9c0,13.701-2.294,26.959-6.384,39.496h84.996c5.196,0,9.422-4.215,9.422-9.422v-63.553
		C430.771,233.641,426.545,229.432,421.355,229.432z M230.641,156.103v-70.87l49.436,19.532c1.654,0.647,3.546,0.122,4.622-1.3
		c0.532-0.709,0.798-1.549,0.798-2.391c0-0.854-0.278-1.699-0.821-2.409l-74.668-97.12C209.256,0.57,208.101,0,206.865,0
		s-2.397,0.57-3.142,1.545l-74.659,97.12c-1.096,1.41-1.102,3.378-0.023,4.8c1.07,1.416,2.958,1.947,4.616,1.3l49.446-19.532v114.45
		c0,2.184,1.768,3.96,3.958,3.96h34.531c34.12,4.291,60.624,33.419,60.624,68.688c0,33.97-24.589,62.252-56.897,68.122h-38.257
		c-2.19,0-3.966,1.772-3.966,3.96v114.45h47.538v-70.297c56.513-8.589,100.004-57.364,100.004-116.235
		C330.637,213.464,287.146,164.694,230.641,156.103z"/>
</g>
<g>
</g>
<g>
</g>
<g>
</g>
<g>
</g>
<g>
</g>
<g>
</g>
<g>
</g>
<g>
</g>
<g>
</g>
<g>
</g>
<g>
</g>
<g>
</g>
<g>
</g>
<g>
</g>
<g>
</g>
</svg>
