<?xml version="1.0" encoding="iso-8859-1"?>
<!-- Generator: Adobe Illustrator 16.0.0, SVG Export Plug-In . SVG Version: 6.00 Build 0)  -->
<!DOCTYPE svg PUBLIC "-//W3C//DTD SVG 1.1//EN" "http://www.w3.org/Graphics/SVG/1.1/DTD/svg11.dtd">
<svg version="1.1" id="Capa_1" xmlns="http://www.w3.org/2000/svg" xmlns:xlink="http://www.w3.org/1999/xlink" x="0px" y="0px"
	 width="428.507px" height="428.508px" viewBox="0 0 428.507 428.508" style="enable-background:new 0 0 428.507 428.508;"
	 xml:space="preserve">
<g>
	<path d="M287.629,184.996c0-69.018-56.152-125.17-125.172-125.17c-69.017,0-125.172,56.152-125.172,125.17
		c0,24.429,7.146,47.164,19.295,66.457H0v58.712h162.458C231.477,310.165,287.629,254.013,287.629,184.996z M162.458,251.453
		C125.811,251.453,96,221.64,96,184.996c0-36.644,29.817-66.458,66.458-66.458c36.644,0,66.454,29.814,66.454,66.458
		C228.912,221.64,199.101,251.453,162.458,251.453z M428.507,280.807c0,1.383-0.639,2.678-1.727,3.511L318.248,367.76
		c-0.792,0.62-1.744,0.916-2.695,0.922c-0.934,0-1.88-0.289-2.66-0.893c-1.596-1.193-2.181-3.311-1.454-5.16l20.724-52.458h-111.72
		c0,0,48.421-14.481,65.065-58.712h46.643l-20.724-52.458c-0.727-1.853-0.13-3.963,1.454-5.163c1.59-1.206,3.783-1.197,5.361,0.023
		l108.539,83.445C427.869,278.141,428.513,279.436,428.507,280.807z"/>
</g>
<g>
</g>
<g>
</g>
<g>
</g>
<g>
</g>
<g>
</g>
<g>
</g>
<g>
</g>
<g>
</g>
<g>
</g>
<g>
</g>
<g>
</g>
<g>
</g>
<g>
</g>
<g>
</g>
<g>
</g>
</svg>
