<?xml version="1.0" encoding="iso-8859-1"?>
<!-- Generator: Adobe Illustrator 16.0.0, SVG Export Plug-In . SVG Version: 6.00 Build 0)  -->
<!DOCTYPE svg PUBLIC "-//W3C//DTD SVG 1.1//EN" "http://www.w3.org/Graphics/SVG/1.1/DTD/svg11.dtd">
<svg version="1.1" id="Capa_1" xmlns="http://www.w3.org/2000/svg" xmlns:xlink="http://www.w3.org/1999/xlink" x="0px" y="0px"
	 width="466.678px" height="466.678px" viewBox="0 0 466.678 466.678" style="enable-background:new 0 0 466.678 466.678;"
	 xml:space="preserve">
<g>
	<path d="M233.336,0c2.819,0,5.477,1.306,7.196,3.546l171.108,222.556c1.259,1.628,1.885,3.582,1.885,5.529
		c0,1.927-0.614,3.842-1.832,5.468c-2.453,3.263-6.785,4.474-10.586,2.973l-113.298-44.75V457.6c0,5.018-4.061,9.078-9.079,9.078
		h-90.789c-5.018,0-9.079-4.061-9.079-9.078V195.321l-113.292,44.75c-3.797,1.501-8.13,0.284-10.586-2.973
		c-2.458-3.257-2.447-7.761,0.054-10.997L226.14,3.546C227.86,1.312,230.517,0,233.336,0z"/>
</g>
<g>
</g>
<g>
</g>
<g>
</g>
<g>
</g>
<g>
</g>
<g>
</g>
<g>
</g>
<g>
</g>
<g>
</g>
<g>
</g>
<g>
</g>
<g>
</g>
<g>
</g>
<g>
</g>
<g>
</g>
</svg>
