<?xml version="1.0" encoding="iso-8859-1"?>
<!-- Generator: Adobe Illustrator 16.0.0, SVG Export Plug-In . SVG Version: 6.00 Build 0)  -->
<!DOCTYPE svg PUBLIC "-//W3C//DTD SVG 1.1//EN" "http://www.w3.org/Graphics/SVG/1.1/DTD/svg11.dtd">
<svg version="1.1" id="Capa_1" xmlns="http://www.w3.org/2000/svg" xmlns:xlink="http://www.w3.org/1999/xlink" x="0px" y="0px"
	 width="462.369px" height="462.369px" viewBox="0 0 462.369 462.369" style="enable-background:new 0 0 462.369 462.369;"
	 xml:space="preserve">
<g>
	<path d="M0,371.825v-59.007c61.959,0,92.905-30.694,122.837-60.378c7.288-7.235,14.665-14.518,22.419-21.256
		c-7.755-6.727-15.131-14.014-22.419-21.255C92.905,180.249,61.959,149.551,0,149.551V90.544c86.262,0,131.42,44.789,164.381,77.496
		c19.55,19.394,32.116,31.227,45.521,33.52c1.599-0.085,3.166-0.192,4.812-0.192v0.626l0,0h141.882l-24.246-61.354
		c-0.816-2.057-0.154-4.406,1.619-5.733c1.762-1.33,4.197-1.324,5.946,0.026l120.544,92.672c1.206,0.931,1.909,2.374,1.909,3.898
		c0,1.524-0.703,2.968-1.909,3.896l-120.544,92.675c-0.881,0.674-1.938,1.017-2.991,1.017c-1.04,0-2.08-0.331-2.955-0.993
		c-1.773-1.324-2.423-3.677-1.619-5.733l24.246-61.365H214.54c-0.047,0-0.092-0.012-0.133-0.012c-1.531,0-3.015-0.095-4.504-0.172
		c-13.406,2.287-25.966,14.121-45.521,33.52C131.42,327.034,86.262,371.825,0,371.825z"/>
</g>
<g>
</g>
<g>
</g>
<g>
</g>
<g>
</g>
<g>
</g>
<g>
</g>
<g>
</g>
<g>
</g>
<g>
</g>
<g>
</g>
<g>
</g>
<g>
</g>
<g>
</g>
<g>
</g>
<g>
</g>
</svg>
