<?xml version="1.0" encoding="iso-8859-1"?>
<!-- Generator: Adobe Illustrator 16.0.0, SVG Export Plug-In . SVG Version: 6.00 Build 0)  -->
<!DOCTYPE svg PUBLIC "-//W3C//DTD SVG 1.1//EN" "http://www.w3.org/Graphics/SVG/1.1/DTD/svg11.dtd">
<svg version="1.1" id="Capa_1" xmlns="http://www.w3.org/2000/svg" xmlns:xlink="http://www.w3.org/1999/xlink" x="0px" y="0px"
	 width="471.839px" height="471.838px" viewBox="0 0 471.839 471.838" style="enable-background:new 0 0 471.839 471.838;"
	 xml:space="preserve">
<g>
	<path d="M402.156,268.254c0,3.576-2.902,6.467-6.478,6.467H208.833l31.889,80.705c1.052,2.707,0.201,5.805-2.134,7.554
		c-2.317,1.75-5.526,1.75-7.832-0.047L72.215,241.053c-1.593-1.224-2.524-3.133-2.524-5.131c-0.006-2.021,0.931-3.907,2.524-5.136
		l158.541-121.892c1.162-0.884,2.554-1.345,3.939-1.345c1.375,0,2.74,0.429,3.904,1.307c2.323,1.744,3.174,4.838,2.122,7.536
		l-31.889,80.711l186.846-0.006c3.563,0.006,6.478,2.899,6.466,6.478L402.156,268.254z M471.839,235.922
		c0,130.084-105.833,235.916-235.92,235.916C105.829,471.838,0,366.006,0,235.922C0,105.83,105.835,0,235.919,0
		C366.006,0,471.839,105.835,471.839,235.922z M445.967,235.922c0-115.824-94.218-210.048-210.048-210.048
		c-115.815,0-210.051,94.224-210.051,210.048c0.006,115.815,94.235,210.045,210.051,210.045
		C351.743,445.967,445.967,351.738,445.967,235.922z"/>
</g>
<g>
</g>
<g>
</g>
<g>
</g>
<g>
</g>
<g>
</g>
<g>
</g>
<g>
</g>
<g>
</g>
<g>
</g>
<g>
</g>
<g>
</g>
<g>
</g>
<g>
</g>
<g>
</g>
<g>
</g>
</svg>
