<?xml version="1.0" encoding="iso-8859-1"?>
<!-- Generator: Adobe Illustrator 16.0.0, SVG Export Plug-In . SVG Version: 6.00 Build 0)  -->
<!DOCTYPE svg PUBLIC "-//W3C//DTD SVG 1.1//EN" "http://www.w3.org/Graphics/SVG/1.1/DTD/svg11.dtd">
<svg version="1.1" id="Capa_1" xmlns="http://www.w3.org/2000/svg" xmlns:xlink="http://www.w3.org/1999/xlink" x="0px" y="0px"
	 width="543.46px" height="543.46px" viewBox="0 0 543.46 543.46" style="enable-background:new 0 0 543.46 543.46;"
	 xml:space="preserve">
<g>
	<path d="M540.747,44.622l-0.893-2.096c-7.276-16.94-26.977-24.807-43.929-17.534l-0.349,0.145l-44.709,19.195l-18.602,7.982
		L388.715,71.01l-18.606,7.985L334.673,94.21l-28.005,12.022l-35.905,15.41l-28.005,12.02l-62.161,26.687l-2.027,0.872l-20.67,8.872
		l-0.352,0.145c-8.213,3.529-14.271,9.986-17.528,17.632c-8.896-22.026-30.443-37.58-55.653-37.58
		c-33.162,0-60.042,26.879-60.042,60.041v121.605c0,15.521,5.938,29.625,15.61,40.282H20.525v115.525H0v33.438h171.767v-33.438
		h-23.563V372.229h-19.411c9.673-10.663,15.61-24.755,15.61-40.282V222.361c5.296,7.465,13.323,12.33,22.098,13.71l0.038-0.192
		c6.1,1.017,12.546,0.387,18.643-2.229l8.195-3.523l34.162-14.659l27.999-12.022l35.899-15.409l28.006-12.02l35.44-15.218
		l28.005-12.02l34.152-14.658l28.006-12.022l35.907-15.41l28.006-12.02l13.908-5.976l0.354-0.151
		C540.162,81.265,548.023,61.562,540.747,44.622z M167.659,229.897c-8.934-1.451-16.979-7.267-20.809-16.184l-0.896-2.095
		c-0.86-1.998-1.425-4.037-1.788-6.094c-0.089-1.102-0.216-2.19-0.363-3.275c-0.573-11.106,5.692-21.929,16.5-26.571l16.931-7.268
		l2.033-0.872L167.659,229.897z M228.874,208.279l-34.155,14.659l12.555-67.416l34.149-14.658L228.874,208.279z M292.778,180.841
		l-35.899,15.409l12.542-67.418l35.905-15.413L292.778,180.841z M356.23,153.604l-35.446,15.218L333.32,101.4l35.453-15.217
		L356.23,153.604z M418.381,126.926l-34.158,14.658l12.555-67.421l34.141-14.659L418.381,126.926z M482.283,99.488l-35.896,15.41
		l12.542-67.418l35.902-15.413L482.283,99.488z M520.466,83.104l-10.178,4.365l10.462-56.17c-6.916-3.357-15.179-3.836-22.769-0.574
		l0.349-0.15c7.489-3.216,15.622-2.787,22.473,0.446l-0.053,0.278c5.698,2.772,10.474,7.506,13.169,13.769l0.898,2.095
		C540.764,61.03,534.333,77.155,520.466,83.104z"/>
</g>
<g>
</g>
<g>
</g>
<g>
</g>
<g>
</g>
<g>
</g>
<g>
</g>
<g>
</g>
<g>
</g>
<g>
</g>
<g>
</g>
<g>
</g>
<g>
</g>
<g>
</g>
<g>
</g>
<g>
</g>
</svg>
