<?xml version="1.0" encoding="iso-8859-1"?>
<!-- Generator: Adobe Illustrator 16.0.0, SVG Export Plug-In . SVG Version: 6.00 Build 0)  -->
<!DOCTYPE svg PUBLIC "-//W3C//DTD SVG 1.1//EN" "http://www.w3.org/Graphics/SVG/1.1/DTD/svg11.dtd">
<svg version="1.1" id="Capa_1" xmlns="http://www.w3.org/2000/svg" xmlns:xlink="http://www.w3.org/1999/xlink" x="0px" y="0px"
	 width="571.618px" height="571.619px" viewBox="0 0 571.618 571.619" style="enable-background:new 0 0 571.618 571.619;"
	 xml:space="preserve">
<g>
	<path d="M538.181,123.925h-0.384h-48.646H468.9h-47.392h-20.251h-38.573h-30.476H293.15h-30.479h-67.643h-2.208h-22.493h-0.381
		c-12.354,0-23.132,6.75-28.918,16.736c-8.178-23.448-30.42-40.3-56.652-40.3c-33.162,0-60.044,26.879-60.044,60.044v121.605
		c0,15.521,5.938,29.625,15.61,40.282H20.525v115.52H0v33.443h171.77v-33.443h-23.563v-115.52h-19.411
		c9.67-10.657,15.61-24.761,15.61-40.282V181.079c2.237,2.657,4.841,5.006,7.799,6.865l0.109-0.166
		c5.208,3.343,11.381,5.311,18.013,5.311h8.917h37.169h30.473h39.07h30.476h38.573h30.471h37.173h30.476h39.064h30.476h15.132h0.384
		c18.436,0,33.438-15.004,33.438-33.443v-2.276C571.624,138.923,556.616,123.925,538.181,123.925z M155.698,182.731
		c-5.272-3.352-9.277-8.467-11.287-14.487v-7.837c0-3.088-0.31-6.097-0.756-9.061c2.751-12.197,13.66-21.338,26.672-21.338h18.424
		h2.205L155.698,182.731z M220.48,187.004h-37.176l38.124-56.997h37.17L220.48,187.004z M290.018,187.004h-39.062l38.118-56.997
		h39.067L290.018,187.004z M359.073,187.004h-38.58l38.125-56.997h38.573L359.073,187.004z M426.71,187.004h-37.167l38.124-56.997
		h37.167L426.71,187.004z M496.262,187.004h-39.07l38.125-56.997h39.063L496.262,187.004z M565.164,159.65
		c0,15.087-12.271,27.36-27.367,27.36h-11.06l31.759-47.487c-5.019-5.81-12.424-9.51-20.699-9.51h0.384
		c8.151,0,15.457,3.603,20.47,9.274l-0.154,0.242c4.144,4.793,6.674,11.027,6.674,17.851v2.27H565.164z"/>
</g>
<g>
</g>
<g>
</g>
<g>
</g>
<g>
</g>
<g>
</g>
<g>
</g>
<g>
</g>
<g>
</g>
<g>
</g>
<g>
</g>
<g>
</g>
<g>
</g>
<g>
</g>
<g>
</g>
<g>
</g>
</svg>
