<?xml version="1.0" encoding="iso-8859-1"?>
<!-- Generator: Adobe Illustrator 16.0.0, SVG Export Plug-In . SVG Version: 6.00 Build 0)  -->
<!DOCTYPE svg PUBLIC "-//W3C//DTD SVG 1.1//EN" "http://www.w3.org/Graphics/SVG/1.1/DTD/svg11.dtd">
<svg version="1.1" id="Capa_1" xmlns="http://www.w3.org/2000/svg" xmlns:xlink="http://www.w3.org/1999/xlink" x="0px" y="0px"
	 width="455.465px" height="455.466px" viewBox="0 0 455.465 455.466" style="enable-background:new 0 0 455.465 455.466;"
	 xml:space="preserve">
<g>
	<path d="M359.812,0H95.651C75.143,0,58.458,16.686,58.458,37.199v381.07c0,20.51,16.686,37.196,37.193,37.196h264.167
		c20.504,0,37.19-16.687,37.19-37.196V37.199C397.002,16.686,380.316,0,359.812,0z M359.812,438.814H95.651
		c-11.331,0-20.549-9.221-20.549-20.557V37.199c0-11.331,9.212-20.555,20.549-20.555h264.167c11.331,0,20.546,9.218,20.546,20.555
		v381.07C380.358,429.594,371.137,438.814,359.812,438.814z M349.539,58.256c0,4.586-3.735,8.322-8.322,8.322H114.243
		c-4.587,0-8.323-3.736-8.323-8.322c0-4.587,3.736-8.323,8.323-8.323h226.973C345.803,49.934,349.539,53.669,349.539,58.256z
		 M138.702,109.704c-4.586,0-8.322-3.736-8.322-8.323c0-4.586,3.736-8.322,8.322-8.322h178.05c4.587,0,8.322,3.736,8.322,8.322
		c0,4.587-3.735,8.323-8.322,8.323H138.702z M349.539,144.506c0,4.587-3.735,8.323-8.322,8.323H114.243
		c-4.587,0-8.323-3.736-8.323-8.323c0-4.586,3.736-8.322,8.323-8.322h226.973C345.803,136.184,349.539,139.919,349.539,144.506z
		 M349.539,184.604c0,4.587-3.735,8.323-8.322,8.323H114.243c-4.587,0-8.323-3.736-8.323-8.323c0-4.586,3.736-8.322,8.323-8.322
		h226.973C345.803,176.282,349.539,180.018,349.539,184.604z M349.539,227.729c0,4.587-3.735,8.322-8.322,8.322H114.243
		c-4.587,0-8.323-3.735-8.323-8.322c0-4.586,3.736-8.322,8.323-8.322h226.973C345.803,219.407,349.539,223.143,349.539,227.729z
		 M349.539,270.854c0,4.587-3.735,8.322-8.322,8.322H114.243c-4.587,0-8.323-3.735-8.323-8.322s3.736-8.322,8.323-8.322h226.973
		C345.803,262.532,349.539,266.268,349.539,270.854z M349.539,307.17c0,4.587-3.735,8.322-8.322,8.322H114.243
		c-4.587,0-8.323-3.735-8.323-8.322c0-4.586,3.736-8.322,8.323-8.322h226.973C345.803,298.848,349.539,302.584,349.539,307.17z
		 M349.539,350.295c0,4.587-3.735,8.322-8.322,8.322H114.243c-4.587,0-8.323-3.735-8.323-8.322c0-4.586,3.736-8.322,8.323-8.322
		h226.973C345.803,341.973,349.539,345.709,349.539,350.295z M349.539,393.42c0,4.587-3.735,8.322-8.322,8.322H114.243
		c-4.587,0-8.323-3.735-8.323-8.322c0-4.586,3.736-8.322,8.323-8.322h226.973C345.803,385.098,349.539,388.834,349.539,393.42z"/>
</g>
<g>
</g>
<g>
</g>
<g>
</g>
<g>
</g>
<g>
</g>
<g>
</g>
<g>
</g>
<g>
</g>
<g>
</g>
<g>
</g>
<g>
</g>
<g>
</g>
<g>
</g>
<g>
</g>
<g>
</g>
</svg>
