<?xml version="1.0" encoding="iso-8859-1"?>
<!-- Generator: Adobe Illustrator 16.0.0, SVG Export Plug-In . SVG Version: 6.00 Build 0)  -->
<!DOCTYPE svg PUBLIC "-//W3C//DTD SVG 1.1//EN" "http://www.w3.org/Graphics/SVG/1.1/DTD/svg11.dtd">
<svg version="1.1" id="Capa_1" xmlns="http://www.w3.org/2000/svg" xmlns:xlink="http://www.w3.org/1999/xlink" x="0px" y="0px"
	 width="410.716px" height="410.716px" viewBox="0 0 410.716 410.716" style="enable-background:new 0 0 410.716 410.716;"
	 xml:space="preserve">
<g>
	<path d="M405.951,325.837c-9.167-9.587-17.779-16.621-25.375-22.827c-17.034-13.902-27.319-22.308-27.319-45.962v-81.11
		c-0.319-66.553-45.447-125.923-108.025-143.035C242.477,19.302,231.861,0,205.357,0c-26.764,0-37.249,18.702-39.88,32.001
		C103.243,49.045,58.321,108.779,57.955,175.97v78.478c0,24.399-10.964,33.75-29.128,49.23
		c-7.247,6.165-15.451,13.163-24.051,22.159c-1.933,2.021-2.471,5.001-1.383,7.566c1.1,2.564,3.624,4.237,6.419,4.237h118.777
		c-0.91,1.52-1.259,3.328-0.881,5.089c8.73,39.39,41.381,67.986,77.638,67.986c36.28,0,68.938-28.597,77.649-67.986
		c0.379-1.761,0.042-3.563-0.88-5.089h118.776c2.796,0,5.32-1.667,6.419-4.237C408.416,330.838,407.877,327.858,405.951,325.837z
		 M177.902,66.378c-53.771,6.422-83.933,77.893-84.234,78.613c-1.117,2.687-3.712,4.309-6.449,4.309c-0.88,0-1.797-0.168-2.66-0.532
		c-3.559-1.478-5.255-5.557-3.777-9.114c1.348-3.257,33.674-79.757,95.465-87.137c3.866-0.458,7.3,2.275,7.761,6.103
		C184.463,62.45,181.738,65.926,177.902,66.378z"/>
</g>
<g>
</g>
<g>
</g>
<g>
</g>
<g>
</g>
<g>
</g>
<g>
</g>
<g>
</g>
<g>
</g>
<g>
</g>
<g>
</g>
<g>
</g>
<g>
</g>
<g>
</g>
<g>
</g>
<g>
</g>
</svg>
