<?xml version="1.0" encoding="iso-8859-1"?>
<!-- Generator: Adobe Illustrator 16.0.0, SVG Export Plug-In . SVG Version: 6.00 Build 0)  -->
<!DOCTYPE svg PUBLIC "-//W3C//DTD SVG 1.1//EN" "http://www.w3.org/Graphics/SVG/1.1/DTD/svg11.dtd">
<svg version="1.1" id="Capa_1" xmlns="http://www.w3.org/2000/svg" xmlns:xlink="http://www.w3.org/1999/xlink" x="0px" y="0px"
	 width="75.686px" height="75.686px" viewBox="0 0 75.686 75.686" style="enable-background:new 0 0 75.686 75.686;"
	 xml:space="preserve">
<g>
	<path d="M75.027,65.531L40.863,6.36c-0.625-1.083-1.78-1.75-3.03-1.75s-2.406,0.667-3.031,1.75L0.469,65.825
		c-0.625,1.083-0.625,2.417,0,3.5s1.781,1.75,3.031,1.75h68.666c0.007,0,0.015,0.001,0.02,0c1.934,0,3.5-1.566,3.5-3.5
		C75.686,66.812,75.441,66.106,75.027,65.531z M9.562,64.075L37.833,15.11l28.271,48.966L9.562,64.075L9.562,64.075z M29.573,35.055
		l-0.414-1.803l-0.413,1.803c-0.702,3.063,0.158,6.211,2.299,8.485c-0.681-0.158-1.388-0.244-2.112-0.244
		c-3.234,0-6.192,1.639-7.913,4.385l-0.982,1.567l1.566-0.981c1.35-0.846,2.905-1.293,4.5-1.293c4.679,0,8.486,3.808,8.486,8.486
		c0,1.596-0.447,3.15-1.292,4.5l-0.982,1.566l1.567-0.982c1.929-1.209,3.308-3.029,3.96-5.127c0.651,2.098,2.03,3.918,3.96,5.127
		l1.566,0.982l-0.981-1.566c-0.845-1.35-1.292-2.904-1.292-4.5c0-4.68,3.808-8.486,8.485-8.486c1.596,0,3.15,0.447,4.499,1.293
		l1.567,0.981l-0.981-1.567c-1.722-2.746-4.68-4.385-7.913-4.385c-0.727,0-1.434,0.086-2.112,0.244
		c2.14-2.273,3.001-5.422,2.298-8.485l-0.413-1.803l-0.414,1.803c-0.354,1.552-1.141,2.968-2.268,4.096
		c-1.604,1.602-3.734,2.484-6.001,2.484c-2.268,0-4.397-0.883-6.001-2.484C30.715,38.023,29.93,36.607,29.573,35.055z
		 M37.843,46.485c0.721,0,1.428-0.083,2.111-0.241c-0.953,1.015-1.685,2.242-2.111,3.603c-0.427-1.36-1.158-2.588-2.112-3.604
		C36.414,46.402,37.121,46.485,37.843,46.485z"/>
</g>
<g>
</g>
<g>
</g>
<g>
</g>
<g>
</g>
<g>
</g>
<g>
</g>
<g>
</g>
<g>
</g>
<g>
</g>
<g>
</g>
<g>
</g>
<g>
</g>
<g>
</g>
<g>
</g>
<g>
</g>
</svg>
