<?xml version="1.0" encoding="iso-8859-1"?>
<!-- Generator: Adobe Illustrator 16.0.0, SVG Export Plug-In . SVG Version: 6.00 Build 0)  -->
<!DOCTYPE svg PUBLIC "-//W3C//DTD SVG 1.1//EN" "http://www.w3.org/Graphics/SVG/1.1/DTD/svg11.dtd">
<svg version="1.1" id="Capa_1" xmlns="http://www.w3.org/2000/svg" xmlns:xlink="http://www.w3.org/1999/xlink" x="0px" y="0px"
	 width="468.062px" height="468.062px" viewBox="0 0 468.062 468.062" style="enable-background:new 0 0 468.062 468.062;"
	 xml:space="preserve">
<g>
	<g>
		<path d="M431.379,0.219h-394.7C16.458,0.219,0,16.668,0,36.892V431.16c0,20.227,16.458,36.683,36.679,36.683h394.7
			c20.228,0,36.683-16.456,36.683-36.683V36.892C468.056,16.668,451.594,0.219,431.379,0.219z M406.513,41.969
			c8.683,0,15.717,7.04,15.717,15.72c0,8.683-7.034,15.723-15.717,15.723s-15.717-7.045-15.717-15.729
			C390.796,49.009,397.83,41.969,406.513,41.969z M350.189,41.969c8.683,0,15.716,7.04,15.716,15.72
			c0,8.683-7.033,15.723-15.716,15.723c-8.689,0-15.723-7.04-15.723-15.723C334.479,49.009,341.506,41.969,350.189,41.969z
			 M426.143,425.924H41.913V112.429h384.229V425.924z"/>
		<path d="M55.502,297.3c18.752,11.673,32.353,25.599,38.677,25.599H115c-0.417-1.832,0.062-3.759,1.409-5.112l12.995-12.998
			c2.143-2.146,5.63-2.146,7.778,0l12.995,12.998c1.356,1.354,1.835,3.28,1.41,5.112h14.443l9.085-9.078
			c1.549-1.555,4.055-1.555,5.604,0l9.085,9.078h13.595c-0.284-1.803,0.26-3.658,1.581-4.977l13.654-13.653
			c2.264-2.271,5.925-2.271,8.189,0l13.651,13.653c1.324,1.324,1.867,3.174,1.584,4.977h34.271
			c12.082,23.91,36.824,40.348,65.444,40.348c40.518,0,73.364-32.847,73.364-73.365c0-40.512-32.847-73.361-73.364-73.361
			c-30.074,0-55.893,18.12-67.218,44.014H94.179c-6.411,0-20.052,14.973-38.828,27.521c-1.548,1.047-2.471,2.796-2.438,4.67
			C52.942,294.592,53.912,296.312,55.502,297.3z M348.356,266.345c0-6.076,4.918-10.994,11-10.994h10.392
			c6.082,0,11.006,4.918,11.006,10.994v47.073c0,6.082-4.924,11.006-11.006,11.006h-10.392c-6.082,0-11-4.924-11-11.006V266.345z"/>
	</g>
</g>
<g>
</g>
<g>
</g>
<g>
</g>
<g>
</g>
<g>
</g>
<g>
</g>
<g>
</g>
<g>
</g>
<g>
</g>
<g>
</g>
<g>
</g>
<g>
</g>
<g>
</g>
<g>
</g>
<g>
</g>
</svg>
