<?xml version="1.0" encoding="iso-8859-1"?>
<!-- Generator: Adobe Illustrator 16.0.0, SVG Export Plug-In . SVG Version: 6.00 Build 0)  -->
<!DOCTYPE svg PUBLIC "-//W3C//DTD SVG 1.1//EN" "http://www.w3.org/Graphics/SVG/1.1/DTD/svg11.dtd">
<svg version="1.1" id="Capa_1" xmlns="http://www.w3.org/2000/svg" xmlns:xlink="http://www.w3.org/1999/xlink" x="0px" y="0px"
	 width="500.854px" height="500.854px" viewBox="0 0 500.854 500.854" style="enable-background:new 0 0 500.854 500.854;"
	 xml:space="preserve">
<g>
	<path d="M500.801,400.579c0.012-0.195,0.053-0.373,0.053-0.568V138.997c0-0.121-0.023-0.236-0.023-0.354
		c-0.012-0.373-0.059-0.733-0.106-1.103c-0.035-0.31-0.076-0.618-0.142-0.913c-0.071-0.328-0.165-0.638-0.271-0.958
		c-0.095-0.311-0.189-0.624-0.308-0.913c-0.13-0.299-0.272-0.576-0.42-0.86c-0.147-0.277-0.289-0.559-0.461-0.818
		c-0.184-0.272-0.384-0.532-0.579-0.786c-0.189-0.23-0.36-0.458-0.562-0.671c-0.225-0.236-0.461-0.443-0.709-0.653
		c-0.225-0.201-0.449-0.387-0.698-0.564c-0.242-0.168-0.496-0.313-0.762-0.461c-0.284-0.157-0.568-0.313-0.869-0.44
		c-0.106-0.041-0.195-0.115-0.308-0.15c-17.897-6.715-176.348-64.454-225.603-24.979c-7.424,5.938-12.214,13.92-14.333,23.362
		c-1.368-0.449-2.772-0.762-4.279-0.762c-1.501,0-2.905,0.313-4.268,0.762c-2.119-9.442-6.925-17.419-14.334-23.362
		C182.578,64.897,24.119,122.636,6.215,129.351c-0.109,0.035-0.198,0.109-0.307,0.15c-0.296,0.127-0.582,0.284-0.866,0.44
		c-0.266,0.147-0.52,0.292-0.762,0.461c-0.249,0.171-0.473,0.369-0.698,0.556c-0.248,0.213-0.487,0.42-0.712,0.656
		c-0.195,0.21-0.375,0.44-0.559,0.671c-0.204,0.254-0.399,0.514-0.579,0.792c-0.172,0.254-0.311,0.535-0.461,0.812
		c-0.145,0.284-0.29,0.562-0.417,0.866c-0.127,0.29-0.213,0.603-0.311,0.913c-0.109,0.313-0.198,0.629-0.271,0.958
		c-0.065,0.295-0.104,0.603-0.139,0.913c-0.053,0.37-0.085,0.73-0.104,1.103C0.023,138.761,0,138.876,0,138.997V400.01
		c0,0.195,0.042,0.379,0.053,0.568c0.021,0.36,0.038,0.715,0.091,1.069c0.056,0.354,0.127,0.691,0.213,1.04
		c0.047,0.184,0.059,0.373,0.121,0.562c0.036,0.118,0.098,0.219,0.133,0.325c0.115,0.349,0.266,0.686,0.411,1.017
		c0.127,0.267,0.248,0.538,0.393,0.792c0.171,0.296,0.357,0.573,0.553,0.857c0.168,0.248,0.337,0.49,0.526,0.709
		c0.21,0.254,0.44,0.479,0.683,0.709c0.207,0.195,0.399,0.396,0.618,0.568c0.266,0.213,0.538,0.384,0.819,0.566
		c0.228,0.143,0.458,0.296,0.694,0.414c0.284,0.148,0.577,0.254,0.872,0.379c0.272,0.1,0.549,0.207,0.831,0.283
		c0.271,0.071,0.543,0.112,0.821,0.166c0.334,0.053,0.659,0.094,1.005,0.112c0.104,0,0.207,0.029,0.311,0.029h229.169h24.258h229.16
		c0.006,0,0.012,0,0.012,0c0.018,0,0.042-0.006,0.054-0.006c0.851-0.006,1.667-0.184,2.441-0.426
		c0.171-0.06,0.349-0.112,0.525-0.177c0.78-0.302,1.525-0.704,2.188-1.218c0.082-0.06,0.142-0.143,0.225-0.207
		c0.608-0.509,1.152-1.105,1.637-1.768c0.112-0.136,0.213-0.266,0.302-0.407c0.496-0.757,0.887-1.603,1.182-2.495
		c0.024-0.083,0.077-0.142,0.101-0.219c0.054-0.183,0.065-0.378,0.112-0.562c0.089-0.349,0.166-0.686,0.225-1.046
		C500.76,401.288,500.772,400.939,500.801,400.579z M271.682,138.997c0-7.97,2.542-13.728,7.997-18.096
		c33.84-27.133,152.444,7.312,202.923,25.469v239.644c-42.18-14.771-170.194-55.396-213.574-20.629
		c-1.253,0.999-2.311,2.14-3.398,3.239V148.537C269.153,147.127,271.682,143.404,271.682,138.997z M221.169,120.901
		c5.453,4.368,7.994,10.125,7.994,18.096c0,4.413,2.53,8.13,6.041,9.54v220.087c-1.1-1.105-2.143-2.246-3.39-3.239
		c-43.367-34.768-171.392,5.857-213.57,20.629V146.371C68.727,128.213,187.318,93.768,221.169,120.901z"/>
</g>
<g>
</g>
<g>
</g>
<g>
</g>
<g>
</g>
<g>
</g>
<g>
</g>
<g>
</g>
<g>
</g>
<g>
</g>
<g>
</g>
<g>
</g>
<g>
</g>
<g>
</g>
<g>
</g>
<g>
</g>
</svg>
