<?xml version="1.0" encoding="iso-8859-1"?>
<!-- Generator: Adobe Illustrator 16.0.0, SVG Export Plug-In . SVG Version: 6.00 Build 0)  -->
<!DOCTYPE svg PUBLIC "-//W3C//DTD SVG 1.1//EN" "http://www.w3.org/Graphics/SVG/1.1/DTD/svg11.dtd">
<svg version="1.1" id="Capa_1" xmlns="http://www.w3.org/2000/svg" xmlns:xlink="http://www.w3.org/1999/xlink" x="0px" y="0px"
	 width="75.888px" height="75.888px" viewBox="0 0 75.888 75.888" style="enable-background:new 0 0 75.888 75.888;"
	 xml:space="preserve">
<g>
	<path d="M15.683,60.581h51.694c0.157,0,0.311-0.022,0.458-0.058c0.012,0,0.021,0.002,0.033,0.002c1.104,0,2-0.896,2-2V2
		c0-1.104-0.896-2-2-2h-0.488H18.882h-3.196c-5.323,0-9.653,4.331-9.653,9.653c0,0.071,0.014,0.139,0.021,0.208
		c-0.007,4.916-0.068,50.088-0.007,56.027c-0.004,0.116-0.018,0.229-0.018,0.347c0,5.117,4.007,9.307,9.047,9.623
		c0.101,0.016,0.2,0.03,0.305,0.03h52.487c1.104,0,2-0.896,2-2v-7.528c0-1.104-0.896-2-2-2c-1.104,0-2,0.896-2,2v5.528H15.683
		c-3.039,0-5.52-2.413-5.642-5.422c0.003-0.054,0.013-0.104,0.012-0.159c-0.002-0.088-0.005-0.225-0.007-0.406
		C10.221,62.939,12.679,60.581,15.683,60.581z M16.984,33.309c0-2.841,1.616-5.339,4.081-6.529
		c0.214-10.391,8.732-18.779,19.174-18.779h1.074c10.575,0,19.179,8.604,19.179,19.178v0.509c2.079,1.313,3.401,3.633,3.401,6.144
		v10.184c0,4.004-3.257,7.262-7.261,7.262s-7.263-3.258-7.263-7.262V33.832c0-2.51,1.323-4.831,3.402-6.143V27.18
		c0-6.319-5.141-11.46-11.46-11.46h-1.074c-6.318,0-11.459,5.141-11.459,11.46v0.459c1.706,1.365,2.727,3.444,2.727,5.67v10.183
		c0,4.004-3.258,7.262-7.262,7.262c-4.004,0-7.261-3.258-7.261-7.262L16.984,33.309L16.984,33.309z"/>
</g>
<g>
</g>
<g>
</g>
<g>
</g>
<g>
</g>
<g>
</g>
<g>
</g>
<g>
</g>
<g>
</g>
<g>
</g>
<g>
</g>
<g>
</g>
<g>
</g>
<g>
</g>
<g>
</g>
<g>
</g>
</svg>
