<?xml version="1.0" encoding="iso-8859-1"?>
<!-- Generator: Adobe Illustrator 16.0.0, SVG Export Plug-In . SVG Version: 6.00 Build 0)  -->
<!DOCTYPE svg PUBLIC "-//W3C//DTD SVG 1.1//EN" "http://www.w3.org/Graphics/SVG/1.1/DTD/svg11.dtd">
<svg version="1.1" id="Capa_1" xmlns="http://www.w3.org/2000/svg" xmlns:xlink="http://www.w3.org/1999/xlink" x="0px" y="0px"
	 width="75.889px" height="75.889px" viewBox="0 0 75.889 75.889" style="enable-background:new 0 0 75.889 75.889;"
	 xml:space="preserve">
<g>
	<path d="M10.046,65.9c0.002,0.183,0.005,0.318,0.007,0.408c0.001,0.053-0.009,0.104-0.012,0.158
		c0.122,3.01,2.603,5.422,5.642,5.422h50.186v-5.527c0-1.104,0.896-2,2-2c1.104,0,2,0.896,2,2v7.527c0,1.104-0.896,2-2,2H15.381
		c-0.104,0-0.204-0.015-0.305-0.031c-5.04-0.314-9.047-4.504-9.047-9.623c0-0.117,0.014-0.229,0.018-0.346
		c-0.062-5.939,0-51.112,0.007-56.027c-0.008-0.07-0.021-0.137-0.021-0.208c0-5.323,4.33-9.653,9.653-9.653h0.017v46.468
		c0,0.536,0.179,1.025,0.465,1.271c0.286,0.246,0.63,0.205,0.891-0.104l7.033-8.304l6.66,8.283c0.151,0.188,0.332,0.285,0.514,0.285
		c0.132,0,0.264-0.051,0.385-0.152c0.291-0.243,0.475-0.738,0.475-1.28V0h35.253h0.488c1.104,0,2,0.896,2,2v56.527
		c0,1.104-0.896,2-2,2c-0.012,0-0.021-0.004-0.033-0.004c-0.147,0.035-0.301,0.059-0.458,0.059H15.683
		C12.679,60.582,10.221,62.939,10.046,65.9z"/>
</g>
<g>
</g>
<g>
</g>
<g>
</g>
<g>
</g>
<g>
</g>
<g>
</g>
<g>
</g>
<g>
</g>
<g>
</g>
<g>
</g>
<g>
</g>
<g>
</g>
<g>
</g>
<g>
</g>
<g>
</g>
</svg>
