<?xml version="1.0" encoding="iso-8859-1"?>
<!-- Generator: Adobe Illustrator 16.0.0, SVG Export Plug-In . SVG Version: 6.00 Build 0)  -->
<!DOCTYPE svg PUBLIC "-//W3C//DTD SVG 1.1//EN" "http://www.w3.org/Graphics/SVG/1.1/DTD/svg11.dtd">
<svg version="1.1" id="Capa_1" xmlns="http://www.w3.org/2000/svg" xmlns:xlink="http://www.w3.org/1999/xlink" x="0px" y="0px"
	 width="470.495px" height="470.495px" viewBox="0 0 470.495 470.495" style="enable-background:new 0 0 470.495 470.495;"
	 xml:space="preserve">
<g>
	<path d="M359.943,349.894c1.099,2.104,0.88,4.646-0.574,6.525c-0.531,0.703-1.211,1.259-1.968,1.644
		c-1.265,0.667-2.755,0.88-4.185,0.537l-123.444-28.709l-46.375,117.914c-0.866,2.211-2.935,3.707-5.308,3.83
		c-2.367,0.131-4.59-1.129-5.695-3.215L0.692,121.555c-1.548-2.956-0.411-6.614,2.548-8.169l176.826-92.894
		c2.961-1.549,6.623-0.414,8.178,2.548L359.943,349.894z M470.291,380.104L375.21,23.342c-0.869-3.233-4.168-5.148-7.406-4.286
		L230.243,55.715l144.784,276.452c2.376,4.539,3.428,9.511,3.357,14.458l83.412,40.477c1.324,0.65,2.826,0.78,4.203,0.408
		c0.815-0.225,1.602-0.615,2.287-1.183C470.119,384.821,470.899,382.391,470.291,380.104z M265.595,434.654
		c0.614,2.294,2.506,4.008,4.835,4.409c2.341,0.414,4.687-0.591,6.017-2.559l44.662-65.568l-77.312-18.087L265.595,434.654z"/>
</g>
<g>
</g>
<g>
</g>
<g>
</g>
<g>
</g>
<g>
</g>
<g>
</g>
<g>
</g>
<g>
</g>
<g>
</g>
<g>
</g>
<g>
</g>
<g>
</g>
<g>
</g>
<g>
</g>
<g>
</g>
</svg>
