<?xml version="1.0" encoding="iso-8859-1"?>
<!-- Generator: Adobe Illustrator 16.0.0, SVG Export Plug-In . SVG Version: 6.00 Build 0)  -->
<!DOCTYPE svg PUBLIC "-//W3C//DTD SVG 1.1//EN" "http://www.w3.org/Graphics/SVG/1.1/DTD/svg11.dtd">
<svg version="1.1" id="Capa_1" xmlns="http://www.w3.org/2000/svg" xmlns:xlink="http://www.w3.org/1999/xlink" x="0px" y="0px"
	 width="470.721px" height="470.722px" viewBox="0 0 470.721 470.722" style="enable-background:new 0 0 470.721 470.722;"
	 xml:space="preserve">
<g>
	<path d="M106.037,72.02V50.561c0-5.784-4.693-10.477-10.477-10.477c-5.787,0-10.471,4.693-10.471,10.477v212.805
		c0,0.846,0.127,1.662,0.313,2.453c-0.012,17.449-0.018,34.909-0.023,51.524H77.94c-15.737,0-28.611,12.354-29.524,27.869
		c0.012,0.946,0.024,1.661,0.036,2.128c0.006,0.284-0.042,0.55-0.059,0.828c0.636,15.77,13.63,28.406,29.548,28.406h7.457
		c0.006,7.855,0.018,14.919,0.03,20.954h-9.073c-0.544,0-1.064-0.077-1.596-0.159c-26.403-1.649-47.393-23.59-47.393-50.407
		c0-0.608,0.071-1.2,0.088-1.809c-0.319-31.114,0-267.743,0.039-293.496c-0.044-0.364-0.115-0.718-0.115-1.091
		C27.376,22.683,50.062,0,77.946,0h16.742h254.048h2.56c5.786,0,10.479,4.69,10.479,10.477v40.164H156.949
		C137.045,50.628,119.014,58.836,106.037,72.02z M130.035,418.399c0.012,0.945,0.023,1.667,0.035,2.128
		c0,0.283-0.047,0.556-0.059,0.839c0.635,15.759,13.63,28.401,29.554,28.401h262.89v-28.957c0-5.792,4.693-10.479,10.48-10.479
		c5.786,0,10.474,4.688,10.474,10.479v39.438c0,5.78-4.688,10.474-10.474,10.474H157.981c-0.553,0-1.073-0.077-1.599-0.166
		c-26.4-1.649-47.393-23.59-47.393-50.401c0-0.608,0.074-1.205,0.092-1.814c-0.322-31.114,0-267.739,0.036-293.493
		c-0.042-0.37-0.116-0.721-0.116-1.097c0-27.878,22.686-50.563,50.57-50.563h16.742h254.051h2.565
		c5.786,0,10.474,4.69,10.474,10.477v296.114c0,5.78-4.688,10.474-10.474,10.474c-0.06,0-0.125-0.018-0.184-0.018
		c-0.769,0.184-1.566,0.302-2.394,0.302H159.559C143.821,390.536,130.948,402.89,130.035,418.399z M166.708,336.553
		c0,5.787,4.69,10.48,10.477,10.48c5.786,0,10.477-4.693,10.477-10.48V123.75c0-5.787-4.69-10.477-10.477-10.477
		c-5.787,0-10.477,4.69-10.477,10.477V336.553z"/>
</g>
<g>
</g>
<g>
</g>
<g>
</g>
<g>
</g>
<g>
</g>
<g>
</g>
<g>
</g>
<g>
</g>
<g>
</g>
<g>
</g>
<g>
</g>
<g>
</g>
<g>
</g>
<g>
</g>
<g>
</g>
</svg>
