<?xml version="1.0" encoding="iso-8859-1"?>
<!-- Generator: Adobe Illustrator 16.0.0, SVG Export Plug-In . SVG Version: 6.00 Build 0)  -->
<!DOCTYPE svg PUBLIC "-//W3C//DTD SVG 1.1//EN" "http://www.w3.org/Graphics/SVG/1.1/DTD/svg11.dtd">
<svg version="1.1" id="Capa_1" xmlns="http://www.w3.org/2000/svg" xmlns:xlink="http://www.w3.org/1999/xlink" x="0px" y="0px"
	 width="459.319px" height="459.319px" viewBox="0 0 459.319 459.319" style="enable-background:new 0 0 459.319 459.319;"
	 xml:space="preserve">
<g>
	<path d="M127.389,366.674V0h280.434h2.955c6.679,0,12.105,5.423,12.105,12.105v342.139c0,6.679-5.427,12.104-12.105,12.104
		c-0.071,0-0.13-0.023-0.201-0.023c-0.893,0.213-1.82,0.354-2.778,0.354H127.389V366.674z M410.777,459.319
		c6.679,0,12.105-5.42,12.105-12.105v-45.565c0-6.68-5.427-12.105-12.105-12.105s-12.105,5.426-12.105,12.105v33.461H127.389v24.21
		H410.777z M94.924,435.109c-18.395,0-33.411-14.605-34.149-32.817c0.018-0.325,0.077-0.632,0.071-0.963
		c-0.012-0.532-0.03-1.359-0.042-2.459c1.058-17.922,15.936-32.196,34.12-32.196h8.254V0h-8.237
		c-32.22,0-58.428,26.214-58.428,58.425c0,0.432,0.085,0.842,0.127,1.259c-0.042,29.755-0.411,303.166-0.042,339.109
		c-0.023,0.703-0.109,1.389-0.109,2.099c0,30.973,24.252,56.329,54.757,58.245c0.612,0.094,1.212,0.183,1.847,0.183h10.084v-24.21
		H94.924z"/>
</g>
<g>
</g>
<g>
</g>
<g>
</g>
<g>
</g>
<g>
</g>
<g>
</g>
<g>
</g>
<g>
</g>
<g>
</g>
<g>
</g>
<g>
</g>
<g>
</g>
<g>
</g>
<g>
</g>
<g>
</g>
</svg>
