<?xml version="1.0" encoding="iso-8859-1"?>
<!-- Generator: Adobe Illustrator 16.0.0, SVG Export Plug-In . SVG Version: 6.00 Build 0)  -->
<!DOCTYPE svg PUBLIC "-//W3C//DTD SVG 1.1//EN" "http://www.w3.org/Graphics/SVG/1.1/DTD/svg11.dtd">
<svg version="1.1" id="Capa_1" xmlns="http://www.w3.org/2000/svg" xmlns:xlink="http://www.w3.org/1999/xlink" x="0px" y="0px"
	 width="449.401px" height="449.401px" viewBox="0 0 449.401 449.401" style="enable-background:new 0 0 449.401 449.401;"
	 xml:space="preserve">
<g>
	<path d="M363.911,0H85.49C72.138,0,61.28,10.857,61.28,24.21v400.98c0,13.353,10.858,24.211,24.21,24.211h278.421
		c13.353,0,24.211-10.858,24.211-24.211V24.21C388.122,10.863,377.264,0,363.911,0z M376.017,425.196
		c0,6.679-5.427,12.105-12.105,12.105H85.49c-6.676,0-12.105-5.427-12.105-12.105V24.21c0-6.676,5.429-12.105,12.105-12.105h278.421
		c6.679,0,12.105,5.429,12.105,12.105V425.196z M141.477,155.098c0-10.864,8.807-19.671,19.671-19.671
		c10.864,0,19.671,8.808,19.671,19.671s-8.807,19.671-19.671,19.671C150.284,174.769,141.477,165.962,141.477,155.098z
		 M161.148,108.19c0-10.864,8.807-19.671,19.671-19.671c10.864,0,19.671,8.807,19.671,19.671c0,10.864-8.807,19.671-19.671,19.671
		C169.955,127.861,161.148,119.054,161.148,108.19z M214.108,71.875c0-10.864,8.807-19.671,19.671-19.671
		c10.864,0,19.671,8.807,19.671,19.671s-8.807,19.671-19.671,19.671C222.916,91.546,214.108,82.738,214.108,71.875z M282.455,91.546
		c-10.864,0-19.671-8.808-19.671-19.671s8.807-19.671,19.671-19.671s19.671,8.807,19.671,19.671S293.319,91.546,282.455,91.546z
		 M214.108,181.186c0-10.864,8.807-19.671,19.671-19.671c10.864,0,19.671,8.807,19.671,19.671c0,10.864-8.807,19.671-19.671,19.671
		C222.916,200.856,214.108,192.043,214.108,181.186z M214.108,248.914c0-10.864,8.807-19.672,19.671-19.672
		c10.864,0,19.671,8.808,19.671,19.672c0,10.863-8.807,19.671-19.671,19.671C222.916,268.585,214.108,259.777,214.108,248.914z
		 M180.819,268.585c-10.864,0-19.671-8.808-19.671-19.671c0-10.864,8.807-19.672,19.671-19.672c10.864,0,19.671,8.808,19.671,19.672
		C200.49,259.777,191.683,268.585,180.819,268.585z M161.148,303.388c0,10.864-8.807,19.671-19.671,19.671
		c-10.864,0-19.671-8.807-19.671-19.671s8.807-19.671,19.671-19.671C152.341,283.717,161.148,292.523,161.148,303.388z
		 M161.148,368.453c0,10.864-8.807,19.671-19.671,19.671c-10.864,0-19.671-8.807-19.671-19.671s8.807-19.671,19.671-19.671
		C152.341,348.782,161.148,357.589,161.148,368.453z M220.161,368.453c0,10.864-8.807,19.671-19.671,19.671
		s-19.671-8.807-19.671-19.671s8.807-19.671,19.671-19.671S220.161,357.589,220.161,368.453z M273.122,368.453
		c0,10.864-8.808,19.671-19.672,19.671c-10.863,0-19.671-8.807-19.671-19.671s8.808-19.671,19.671-19.671
		C264.314,348.782,273.122,357.589,273.122,368.453z M327.85,368.453c0,10.864-8.808,19.671-19.671,19.671
		c-10.864,0-19.671-8.807-19.671-19.671s8.807-19.671,19.671-19.671C319.042,348.782,327.85,357.589,327.85,368.453z"/>
</g>
<g>
</g>
<g>
</g>
<g>
</g>
<g>
</g>
<g>
</g>
<g>
</g>
<g>
</g>
<g>
</g>
<g>
</g>
<g>
</g>
<g>
</g>
<g>
</g>
<g>
</g>
<g>
</g>
<g>
</g>
</svg>
