<?xml version="1.0" encoding="iso-8859-1"?>
<!-- Generator: Adobe Illustrator 16.0.0, SVG Export Plug-In . SVG Version: 6.00 Build 0)  -->
<!DOCTYPE svg PUBLIC "-//W3C//DTD SVG 1.1//EN" "http://www.w3.org/Graphics/SVG/1.1/DTD/svg11.dtd">
<svg version="1.1" id="Capa_1" xmlns="http://www.w3.org/2000/svg" xmlns:xlink="http://www.w3.org/1999/xlink" x="0px" y="0px"
	 width="437.775px" height="437.774px" viewBox="0 0 437.775 437.774" style="enable-background:new 0 0 437.775 437.774;"
	 xml:space="preserve">
<g>
	<path d="M437.775,150.801c0,110.478-218.893,257.212-218.893,257.212S0,266.569,0,150.801C0,67.584,54.202,29.761,121.041,29.761
		c30.946,0,59.093,11.7,80.463,30.818l-55.744,80.925c-1.392,2.021-1.906,4.527-1.421,6.936c0.484,2.403,1.924,4.522,3.992,5.849
		l82.958,53.309l-38.178,46.08c-1.921,2.317-2.568,5.433-1.726,8.322l21.359,73.672c1.144,3.955,4.764,6.55,8.709,6.55
		c0.703,0,1.425-0.089,2.137-0.255c4.72-1.135,7.705-5.786,6.789-10.551l-12.975-67.033l54.456-54.725
		c1.832-1.841,2.784-4.383,2.624-6.966c-0.159-2.598-1.424-4.995-3.476-6.593l-71.732-55.925l77.963-93.629
		c1.584-1.906,2.317-4.383,2.033-6.845c-0.142-1.265-0.562-2.471-1.194-3.552c12.129-4.111,25.104-6.387,38.633-6.387
		C383.574,29.761,437.775,83.962,437.775,150.801z"/>
</g>
<g>
</g>
<g>
</g>
<g>
</g>
<g>
</g>
<g>
</g>
<g>
</g>
<g>
</g>
<g>
</g>
<g>
</g>
<g>
</g>
<g>
</g>
<g>
</g>
<g>
</g>
<g>
</g>
<g>
</g>
</svg>
