<?xml version="1.0" encoding="iso-8859-1"?>
<!-- Generator: Adobe Illustrator 16.0.0, SVG Export Plug-In . SVG Version: 6.00 Build 0)  -->
<!DOCTYPE svg PUBLIC "-//W3C//DTD SVG 1.1//EN" "http://www.w3.org/Graphics/SVG/1.1/DTD/svg11.dtd">
<svg version="1.1" id="Capa_1" xmlns="http://www.w3.org/2000/svg" xmlns:xlink="http://www.w3.org/1999/xlink" x="0px" y="0px"
	 width="535.083px" height="535.083px" viewBox="0 0 535.083 535.083" style="enable-background:new 0 0 535.083 535.083;"
	 xml:space="preserve">
<g>
	<path d="M493.648,479.07c0.07,3.073-2.383,5.627-5.456,5.687c-0.106,0-0.372,0.012-0.78,0.012c-5.391,0-35.79-0.769-52.86-17.484
		c-2.601-2.554-4.758-5.32-6.489-8.322c-16.361,23.666-60.226,25.699-62.501,25.795c-0.018,0-0.035,0-0.053,0s-0.029,0-0.048,0
		c-0.101,0-0.366,0.012-0.78,0.012c-5.385,0-35.789-0.769-52.859-17.484c-2.601-2.554-4.765-5.32-6.484-8.322
		c-12.998,18.79-43.326,23.95-56.395,25.31c-0.662,0.296-1.383,0.473-2.157,0.485c-0.106,0-0.373,0.012-0.786,0.012
		c-0.538,0-1.389-0.024-2.394-0.048c-0.373,0.012-0.638,0.036-0.762,0.036c-0.515,0.035-1.005-0.036-1.484-0.131
		c-10.551-0.567-33.987-3.416-48.214-17.342c-2.601-2.554-4.758-5.32-6.484-8.322c-12.862,18.607-42.717,23.844-56.004,25.274
		c-0.68,0.325-1.431,0.508-2.229,0.526c-0.101,0-0.372,0.012-0.78,0.012c-0.579,0-1.501-0.03-2.612-0.065
		c-0.438,0.023-0.739,0.054-0.881,0.054c-0.544,0.035-1.064-0.042-1.561-0.148c-10.74-0.627-33.774-3.576-47.818-17.318
		c-2.595-2.554-4.752-5.319-6.478-8.322c-16.361,23.666-60.225,25.7-62.501,25.795c-3.097,0.2-5.674-2.282-5.792-5.355
		c-0.125-3.074,2.275-5.668,5.355-5.793c0.573-0.023,57.872-2.719,57.872-34.72c0-3.073,2.495-5.579,5.58-5.579
		c3.08,0,5.574,2.506,5.574,5.579c0,8.335,2.689,15.014,8.204,20.416c12.123,11.869,34.034,13.89,42.303,14.233
		c8.133-0.568,56.696-5.172,56.696-34.649c0-3.073,2.494-5.579,5.574-5.579c3.085,0,5.58,2.506,5.58,5.579
		c0,8.335,2.689,15.014,8.21,20.416c12.206,11.951,34.359,13.926,42.492,14.245c7.72-0.532,56.832-5.024,56.832-34.661
		c0-3.073,2.494-5.579,5.58-5.579c3.079,0,5.579,2.506,5.579,5.579c0,8.335,2.678,15.014,8.205,20.416
		c14.983,14.671,44.945,14.304,45.565,14.292c1.708-0.07,57.796-3.026,57.796-34.708c0-3.073,2.5-5.579,5.579-5.579
		c3.086,0,5.58,2.506,5.58,5.579c0,8.335,2.684,15.014,8.21,20.416c15.061,14.753,45.288,14.292,45.602,14.292
		C491.129,473.514,493.588,475.984,493.648,479.07z M535.083,427.611c0.064,3.073-2.389,5.627-5.462,5.698c-0.101,0-0.366,0-0.78,0
		c-5.385,0-35.79-0.77-52.86-17.484c-2.601-2.542-4.758-5.32-6.483-8.322c-16.361,23.666-60.226,25.711-62.501,25.794h-0.053
		c-0.024,0-0.036,0.013-0.054,0.013c-0.101,0-0.366,0-0.78,0c-3.228,0-15.444-0.32-28.383-4.139c0.041-0.1,0.07-0.188,0.112-0.283
		c-9.321-1.773-20.251-5.35-27.592-12.531c-5.526-5.42-8.21-12.093-8.21-20.415c0-3.086-2.5-5.58-5.58-5.58
		c-3.079,0-5.579,2.494-5.579,5.58c0,29.63-49.107,34.128-56.827,34.648c-8.139-0.319-30.292-2.281-42.499-14.233
		c-5.521-5.42-8.204-12.093-8.204-20.415c0-3.086-2.494-5.58-5.585-5.58c-3.08,0-5.574,2.494-5.574,5.58
		c0,20.025-22.373,28.525-39.301,32.131c0.006,0,0.006,0,0.006,0c-0.006,0-0.012,0-0.012,0c-0.55,0.118-1.111,0.248-1.644,0.354
		c-0.23-0.16-0.431-0.379-0.662-0.544c-11.343-0.839-32.592-4.138-45.897-17.165c-2.595-2.553-4.758-5.319-6.479-8.322
		c-16.367,23.667-60.23,25.7-62.506,25.795c-3.103,0.201-5.668-2.281-5.787-5.355c-0.124-3.073,2.27-5.662,5.349-5.793
		c0.58-0.023,57.867-2.719,57.867-34.719c0-3.074,2.5-5.58,5.585-5.58s5.58,2.506,5.58,5.58c0,8.334,2.678,15.013,8.204,20.415
		c6.562,6.437,15.93,9.913,24.488,11.846c-9.457-12.005-15.202-27.071-15.202-43.545v-27.03c0-36.286-2.376-43.296,28.596-44.111
		l55.514-190.646c-0.302-2.246-0.503-4.539-0.503-6.871c0-28.762,23.312-52.077,52.068-52.077c28.502,0,51.625,22.91,52.032,51.32
		l57.76,198.362c28.295,1.147,25.86,8.736,25.86,44.023v27.03c0,19.535-7.998,37.12-20.789,49.923
		c7.944,1.211,14.039,1.188,14.316,1.188c1.708-0.083,57.795-3.038,57.795-34.702c0-3.091,2.501-5.579,5.586-5.579
		c3.08,0,5.58,2.488,5.58,5.579c0,8.322,2.678,15.008,8.204,20.416c15.061,14.759,45.288,14.286,45.602,14.286
		C532.564,422.066,535.011,424.531,535.083,427.611z M370.562,299.797l-49.308-169.361c-9.257,14.434-25.398,24.021-43.816,24.021
		c-17.218,0-32.444-8.408-41.925-21.294l-48.521,166.634H370.562z"/>
</g>
<g>
</g>
<g>
</g>
<g>
</g>
<g>
</g>
<g>
</g>
<g>
</g>
<g>
</g>
<g>
</g>
<g>
</g>
<g>
</g>
<g>
</g>
<g>
</g>
<g>
</g>
<g>
</g>
<g>
</g>
</svg>
