<?xml version="1.0" encoding="iso-8859-1"?>
<!-- Generator: Adobe Illustrator 16.0.0, SVG Export Plug-In . SVG Version: 6.00 Build 0)  -->
<!DOCTYPE svg PUBLIC "-//W3C//DTD SVG 1.1//EN" "http://www.w3.org/Graphics/SVG/1.1/DTD/svg11.dtd">
<svg version="1.1" id="Capa_1" xmlns="http://www.w3.org/2000/svg" xmlns:xlink="http://www.w3.org/1999/xlink" x="0px" y="0px"
	 width="520.526px" height="520.525px" viewBox="0 0 520.526 520.525" style="enable-background:new 0 0 520.526 520.525;"
	 xml:space="preserve">
<g>
	<path d="M481.686,254.21C478.5,140.55,386.245,48.826,272.368,46.515V0h-12.105v46.601C147.92,50.611,57.426,141.655,54.272,254.21
		H0v12.105h54.272c3.154,112.554,93.647,203.603,205.99,207.61v46.6h12.105v-46.518c113.877-2.305,206.133-94.028,209.318-207.692
		h38.84V254.21H481.686z M260.263,58.706v61.779c-71.925,3.674-129.484,61.644-132.552,133.725H66.378
		C69.52,148.325,154.596,62.699,260.263,58.706z M260.263,461.82C154.596,457.824,69.52,372.201,66.378,266.315h61.333
		c3.068,72.082,60.626,130.049,132.552,133.726V461.82z M260.263,307.088v-40.27h-39.773v-13.116h39.773v-39.271h13.116v39.271
		h39.773v13.116h-39.773v40.27H260.263z M272.368,461.903v-61.792c73.033-2.494,131.869-60.91,134.967-133.796h62.246
		C466.407,373.307,379.572,459.598,272.368,461.903z M407.334,254.21c-3.104-72.885-61.934-131.299-134.967-133.787V58.626
		c107.204,2.3,194.039,88.594,197.213,195.584H407.334z M273.373,266.818h-13.116v-13.116h13.116V266.818z"/>
</g>
<g>
</g>
<g>
</g>
<g>
</g>
<g>
</g>
<g>
</g>
<g>
</g>
<g>
</g>
<g>
</g>
<g>
</g>
<g>
</g>
<g>
</g>
<g>
</g>
<g>
</g>
<g>
</g>
<g>
</g>
</svg>
