<?xml version="1.0" encoding="iso-8859-1"?>
<!-- Generator: Adobe Illustrator 16.0.0, SVG Export Plug-In . SVG Version: 6.00 Build 0)  -->
<!DOCTYPE svg PUBLIC "-//W3C//DTD SVG 1.1//EN" "http://www.w3.org/Graphics/SVG/1.1/DTD/svg11.dtd">
<svg version="1.1" id="Capa_1" xmlns="http://www.w3.org/2000/svg" xmlns:xlink="http://www.w3.org/1999/xlink" x="0px" y="0px"
	 width="506.961px" height="506.961px" viewBox="0 0 506.961 506.961" style="enable-background:new 0 0 506.961 506.961;"
	 xml:space="preserve">
<g>
	<path d="M140.858,259.578v-75.321c0,0,18.788,21.5,37.894,0c19.109-21.5,107.871,5.122,107.871,5.122v229.376H140.858v-92.857
		c-9.847,4.131-9.516-4.569-5.198-17.136c-0.375,0.49-0.583,0.757-0.583,0.757C108.609,326.174,127.875,284.456,140.858,259.578z
		 M183.208,150.932c1.108,1.38,2.778,2.178,4.545,2.178h11.573c-0.975,0-1.835-0.556-2.252-1.427
		c-7.628-16.21-8.946-30.384-3.91-42.129c6.735-15.729,22.34-21.092,22.999-21.308c1.028-0.346,2.172,0.018,2.808,0.907
		c0.624,0.884,0.612,2.08-0.059,2.94c-7.063,9.241-0.946,15.841-0.168,16.621c20.522,21.692,3.611,43.246,3.437,43.456
		c-0.479,0.582-1.188,0.928-1.938,0.928h16.816c2.264,0,4.321-1.306,5.284-3.354c17.969-38.192,21.075-71.582,9.224-99.244
		c-15.87-37.066-52.635-49.68-54.184-50.2c-2.438-0.81-5.113,0.062-6.597,2.143c-1.501,2.083-1.442,4.903,0.109,6.936
		c16.639,21.784,2.231,37.321,0.399,39.156C142.944,99.659,182.804,150.423,183.208,150.932z M418.528,455.023
		c-9.233,7.069-20.221,11.124-30.134,11.124c-8.547,0-15.723-3.05-20.693-8.411c-5.391,1.603-11.13,2.56-16.479,3.115
		c-0.586,4.321-1.33,9.209-1.33,14.387c0,17.525-14.198,31.724-31.718,31.724H106.703c-17.517,0-31.723-14.198-31.723-31.724
		c0-17.514-8.449-31.723,9.067-31.723h51.867v-13.093h153.068v13.093h42.428l0.012-0.207c5.456,0.325,19.157,0.201,29.672-2.577
		c-0.035-11.852,7.034-25.133,19.802-34.897c9.078-6.957,19.729-14.062,29.825-14.062c6.603,0,12.33,2.914,16.544,8.417
		C438.004,414.245,436.538,441.25,418.528,455.023z M412.865,411.218c-0.992-1.3-1.549-1.3-2.146-1.3
		c-3.528,0-9.859,3.469-18.808,10.326c-10.982,8.398-15.072,20.066-11.396,24.884c1.939,2.524,5.77,2.896,7.885,2.896
		c6.012,0,12.98-2.695,19.128-7.395C418.25,432.42,417.062,416.704,412.865,411.218z"/>
</g>
<g>
</g>
<g>
</g>
<g>
</g>
<g>
</g>
<g>
</g>
<g>
</g>
<g>
</g>
<g>
</g>
<g>
</g>
<g>
</g>
<g>
</g>
<g>
</g>
<g>
</g>
<g>
</g>
<g>
</g>
</svg>
