<?xml version="1.0" encoding="iso-8859-1"?>
<!-- Generator: Adobe Illustrator 16.0.0, SVG Export Plug-In . SVG Version: 6.00 Build 0)  -->
<!DOCTYPE svg PUBLIC "-//W3C//DTD SVG 1.1//EN" "http://www.w3.org/Graphics/SVG/1.1/DTD/svg11.dtd">
<svg version="1.1" id="Capa_1" xmlns="http://www.w3.org/2000/svg" xmlns:xlink="http://www.w3.org/1999/xlink" x="0px" y="0px"
	 width="497.676px" height="497.676px" viewBox="0 0 497.676 497.676" style="enable-background:new 0 0 497.676 497.676;"
	 xml:space="preserve">
<g>
	<path d="M346.755,225.06v272.616H173.514V387.321c-11.706,4.906-11.307-5.432-6.18-20.368c-0.443,0.579-0.691,0.898-0.691,0.898
		c-31.448,19.795-8.553-29.79,6.877-59.362v-89.518c0,0,22.328,25.549,45.037,0C241.266,193.425,346.755,225.06,346.755,225.06z
		 M223.853,179.369c1.318,1.64,3.304,2.592,5.411,2.592h13.745c-1.149,0-2.181-0.659-2.671-1.696
		c-9.058-19.266-10.627-36.109-4.652-50.067c8.006-18.695,26.551-25.07,27.337-25.324c1.224-0.411,2.583,0.026,3.34,1.084
		c0.739,1.046,0.722,2.477-0.07,3.499c-8.394,10.985-1.129,18.823-0.201,19.754c24.394,25.786,4.291,51.4,4.09,51.654
		c-0.567,0.698-1.406,1.103-2.305,1.103h19.984c2.689,0,5.142-1.552,6.283-3.99c21.355-45.389,25.056-85.083,10.97-117.952
		c-18.861-44.053-62.554-59.051-64.4-59.669c-2.899-0.96-6.076,0.068-7.844,2.551c-1.779,2.474-1.711,5.822,0.127,8.242
		c19.774,25.896,2.651,44.354,0.479,46.533C175.993,118.432,223.368,178.763,223.853,179.369z"/>
</g>
<g>
</g>
<g>
</g>
<g>
</g>
<g>
</g>
<g>
</g>
<g>
</g>
<g>
</g>
<g>
</g>
<g>
</g>
<g>
</g>
<g>
</g>
<g>
</g>
<g>
</g>
<g>
</g>
<g>
</g>
</svg>
