<?xml version="1.0" encoding="iso-8859-1"?>
<!-- Generator: Adobe Illustrator 16.0.0, SVG Export Plug-In . SVG Version: 6.00 Build 0)  -->
<!DOCTYPE svg PUBLIC "-//W3C//DTD SVG 1.1//EN" "http://www.w3.org/Graphics/SVG/1.1/DTD/svg11.dtd">
<svg version="1.1" id="Capa_1" xmlns="http://www.w3.org/2000/svg" xmlns:xlink="http://www.w3.org/1999/xlink" x="0px" y="0px"
	 width="95.893px" height="95.893px" viewBox="0 0 95.893 95.893" style="enable-background:new 0 0 95.893 95.893;"
	 xml:space="preserve">
<g>
	<path d="M45.213,32.149c-15.683,0-28.395,12.713-28.395,28.395c0,15.683,12.712,28.396,28.395,28.396
		c15.682,0,28.395-12.713,28.395-28.396C73.607,44.862,60.895,32.149,45.213,32.149z M50.43,34.466l-3.042,13.329h-3.043
		l-2.173-13.329C45.359,32.873,50.43,34.466,50.43,34.466z M45.213,71.086c-5.822,0-10.542-4.721-10.542-10.542
		c0-5.822,4.72-10.541,10.542-10.541c5.822,0,10.542,4.719,10.542,10.541C55.756,66.365,51.035,71.086,45.213,71.086z
		 M45.213,52.507c-4.433,0-8.038,3.604-8.038,8.037s3.605,8.038,8.038,8.038s8.037-3.605,8.037-8.038S49.646,52.507,45.213,52.507z
		 M45.213,66.285c-3.166,0-5.742-2.575-5.742-5.741s2.576-5.741,5.742-5.741s5.74,2.575,5.74,5.741S48.379,66.285,45.213,66.285z
		 M45.213,25.196c-19.49,0-35.348,15.857-35.348,35.348s15.857,35.349,35.348,35.349c19.491,0,35.347-15.857,35.347-35.349
		S64.703,25.196,45.213,25.196z M45.213,92.414c-17.574,0-31.871-14.297-31.871-31.87s14.297-31.87,31.871-31.87
		c17.573,0,31.871,14.297,31.871,31.87S62.786,92.414,45.213,92.414z M81.562,53.482c-0.204-9.389-5.348-17.577-12.936-22.066
		c0.071-0.424,0.191-0.867,0.381-1.334c1.688-3.339,5.517-2.994,6.127-7.943c1.037,5.738-6.41,8.059-2.545,10.225
		c3.59,1.442,7.428-9.627,3.479-14.349C72.813,14.148,68.276,9.278,72.479,0c-1.113,4.727-2.251,8.701,3.698,14.649
		c6.812,6.403,3.248,12.968,2.81,14.549c-1.5,3.698-4.896,9.114-0.003,9.947c3.802,0.176,1.391-6.505,1.391-6.505
		c-1.349-5.478,3.78-5.617,3.78-5.617c-6.069,2.248,1.614,6.657,1.835,12.679C86.35,45.167,84.01,49.999,81.562,53.482z"/>
</g>
<g>
</g>
<g>
</g>
<g>
</g>
<g>
</g>
<g>
</g>
<g>
</g>
<g>
</g>
<g>
</g>
<g>
</g>
<g>
</g>
<g>
</g>
<g>
</g>
<g>
</g>
<g>
</g>
<g>
</g>
</svg>
