<?xml version="1.0" encoding="iso-8859-1"?>
<!-- Generator: Adobe Illustrator 16.0.0, SVG Export Plug-In . SVG Version: 6.00 Build 0)  -->
<!DOCTYPE svg PUBLIC "-//W3C//DTD SVG 1.1//EN" "http://www.w3.org/Graphics/SVG/1.1/DTD/svg11.dtd">
<svg version="1.1" id="Capa_1" xmlns="http://www.w3.org/2000/svg" xmlns:xlink="http://www.w3.org/1999/xlink" x="0px" y="0px"
	 width="476.142px" height="476.142px" viewBox="0 0 476.142 476.142" style="enable-background:new 0 0 476.142 476.142;"
	 xml:space="preserve">
<g>
	<path d="M313.673,238.074c0,15.007-12.188,27.201-27.189,27.201c-15.002,0-27.202-12.206-27.202-27.201
		c0-14.999,12.212-27.202,27.202-27.202C301.484,210.872,313.673,223.069,313.673,238.074z M296.779,177.675l14.417-63.136
		c0,0-24.016-7.554-39.124,0l10.297,63.142h14.41V177.675z M336.423,238.074c0,27.585-22.36,49.939-49.939,49.939
		c-27.58,0-49.94-22.354-49.94-49.939c0-27.583,22.36-49.94,49.94-49.94C314.062,188.134,336.423,210.491,336.423,238.074z
		 M324.56,238.074c0-21.001-17.076-38.078-38.076-38.078c-21.008,0-38.078,17.076-38.078,38.078c0,21,17.07,38.076,38.078,38.076
		C307.483,276.15,324.56,259.074,324.56,238.074z M476.142,22.195v431.751H0V22.195H476.142z M79.689,42.368H25.215v391.405h54.474
		V42.368z M453.935,238.074c0-92.333-75.119-167.453-167.451-167.453c-92.335,0-167.452,75.12-167.452,167.453
		c0,92.332,75.117,167.451,167.452,167.451C378.815,405.525,453.935,330.406,453.935,238.074z M437.468,238.074
		c0,83.252-67.726,150.979-150.979,150.979c-83.256,0-150.985-67.727-150.985-150.979c0-83.254,67.723-150.977,150.979-150.977
		C369.736,87.098,437.468,154.82,437.468,238.074z M420.994,238.074c0-74.29-60.213-134.515-134.511-134.515
		c-74.299,0-134.509,60.225-134.509,134.515c0,74.292,60.216,134.511,134.515,134.511
		C360.781,372.585,420.994,312.366,420.994,238.074z"/>
</g>
<g>
</g>
<g>
</g>
<g>
</g>
<g>
</g>
<g>
</g>
<g>
</g>
<g>
</g>
<g>
</g>
<g>
</g>
<g>
</g>
<g>
</g>
<g>
</g>
<g>
</g>
<g>
</g>
<g>
</g>
</svg>
