<?xml version="1.0" encoding="iso-8859-1"?>
<!-- Generator: Adobe Illustrator 16.0.0, SVG Export Plug-In . SVG Version: 6.00 Build 0)  -->
<!DOCTYPE svg PUBLIC "-//W3C//DTD SVG 1.1//EN" "http://www.w3.org/Graphics/SVG/1.1/DTD/svg11.dtd">
<svg version="1.1" id="Capa_1" xmlns="http://www.w3.org/2000/svg" xmlns:xlink="http://www.w3.org/1999/xlink" x="0px" y="0px"
	 width="492.078px" height="492.077px" viewBox="0 0 492.078 492.077" style="enable-background:new 0 0 492.078 492.077;"
	 xml:space="preserve">
<g>
	<path d="M269.954,246.039c0,13.196-10.716,23.918-23.915,23.918c-13.19,0-23.921-10.723-23.921-23.918s10.731-23.921,23.921-23.921
		C259.238,222.118,269.954,232.843,269.954,246.039z M436.75,9.404v473.269c0,5.19-4.209,9.404-9.41,9.404H64.732
		c-5.187,0-9.404-4.208-9.404-9.404V9.404C55.328,4.211,59.539,0,64.732,0h362.607C432.541,0,436.75,4.211,436.75,9.404z
		 M70.979,38.396c0,12.117,9.824,21.94,21.941,21.94c12.117,0,21.94-9.823,21.94-21.94s-9.824-21.941-21.94-21.941
		C80.803,16.456,70.979,26.279,70.979,38.396z M114.861,452.114c0-12.116-9.824-21.94-21.94-21.94
		c-12.117,0-21.941,9.824-21.941,21.94c0,12.117,9.824,21.94,21.941,21.94C105.037,474.055,114.861,464.231,114.861,452.114z
		 M393.305,246.039c0-81.202-66.064-147.267-147.267-147.267S98.772,164.837,98.772,246.039
		c0,81.206,66.064,147.264,147.267,147.264S393.305,327.244,393.305,246.039z M425.153,452.114c0-12.116-9.824-21.94-21.941-21.94
		s-21.94,9.824-21.94,21.94c0,12.117,9.823,21.94,21.94,21.94S425.153,464.231,425.153,452.114z M425.153,38.396
		c0-12.117-9.824-21.941-21.941-21.941s-21.94,9.824-21.94,21.941s9.823,21.94,21.94,21.94S425.153,50.514,425.153,38.396z
		 M255.106,192.922l12.667-55.535c0,0-21.117-6.646-34.401,0l9.053,55.535H255.106z M289.961,246.039
		c0,24.249-19.671,43.92-43.923,43.92s-43.923-19.672-43.923-43.92c0-24.254,19.671-43.926,43.923-43.926
		S289.961,221.784,289.961,246.039z M279.529,246.039c0-18.474-15.025-33.49-33.49-33.49c-18.465,0-33.49,15.016-33.49,33.49
		c0,18.468,15.025,33.488,33.49,33.488C264.503,279.526,279.529,264.495,279.529,246.039z M378.824,246.039
		c0,73.213-59.568,132.783-132.785,132.783c-73.22,0-132.776-59.569-132.776-132.783S172.819,113.25,246.039,113.25
		C319.255,113.25,378.824,172.819,378.824,246.039z M364.336,246.039c0-65.34-52.96-118.301-118.298-118.301
		s-118.298,52.961-118.298,118.301s52.96,118.301,118.298,118.301S364.336,311.379,364.336,246.039z"/>
</g>
<g>
</g>
<g>
</g>
<g>
</g>
<g>
</g>
<g>
</g>
<g>
</g>
<g>
</g>
<g>
</g>
<g>
</g>
<g>
</g>
<g>
</g>
<g>
</g>
<g>
</g>
<g>
</g>
<g>
</g>
</svg>
