<?xml version="1.0" encoding="iso-8859-1"?>
<!-- Generator: Adobe Illustrator 16.0.0, SVG Export Plug-In . SVG Version: 6.00 Build 0)  -->
<!DOCTYPE svg PUBLIC "-//W3C//DTD SVG 1.1//EN" "http://www.w3.org/Graphics/SVG/1.1/DTD/svg11.dtd">
<svg version="1.1" id="Capa_1" xmlns="http://www.w3.org/2000/svg" xmlns:xlink="http://www.w3.org/1999/xlink" x="0px" y="0px"
	 width="492.272px" height="492.272px" viewBox="0 0 492.272 492.272" style="enable-background:new 0 0 492.272 492.272;"
	 xml:space="preserve">
<g>
	<path d="M246.136,48.415c-109.201,0-197.721,88.52-197.721,197.721c0,109.202,88.52,197.722,197.721,197.722
		c109.202,0,197.722-88.52,197.722-197.722C443.857,136.935,355.338,48.415,246.136,48.415z M309.394,318.277
		c-0.556,36.972-26.575,46.795-40.406,46.795c-3.239,0-6.431-0.396-9.563-1.176c-4.392,0.691-8.901,0.632-13.229-0.236
		c-4.235,0.845-8.698,0.945-13.019,0.283c-3.189,0.822-6.452,1.235-9.756,1.235c-13.866,0-39.948-9.829-40.542-46.813
		c-32.03-6.921-51.234-32.213-51.234-69.321c0-65.595,43.832-115.916,103.601-121.407l-10.282-63.085c22.195-11.101,57.5,0,57.5,0
		l-14.754,64.604c54.226,10.175,92.918,58.274,92.918,119.888C360.628,286.033,341.418,311.309,309.394,318.277z M246.136,0
		C110.416,0,0,110.419,0,246.136c0,135.718,110.416,246.137,246.136,246.137c135.718,0,246.137-110.419,246.137-246.137
		C492.272,110.419,381.854,0,246.136,0z M246.136,468.062c-122.373,0-221.925-99.555-221.925-221.926
		c0-122.37,99.552-221.925,221.925-221.925c122.371,0,221.926,99.555,221.926,221.925
		C468.062,368.507,368.501,468.062,246.136,468.062z M246.136,145.251c-54.922,0-96.333,44.632-96.333,103.793
		c0,33.526,18.648,52.837,51.223,53.079v14.954c0,29.116,20.094,29.95,22.396,29.95c3.098,0,6.1-0.691,8.854-1.934
		c2.033,0.716,4.223,1.129,6.561,1.129c2.208,0,4.744-0.349,7.371-1.4c2.79,1.117,5.355,1.4,7.259,1.4
		c2.399,0,4.646-0.438,6.727-1.188c2.73,1.205,5.721,1.892,8.795,1.892c2.281,0,22.26-0.828,22.26-29.85v-14.995
		c32.562-0.338,51.223-19.618,51.223-53.026C342.47,189.883,301.059,145.251,246.136,145.251z M290.366,287.057
		c-4.438,0-9.191-0.408-14.162-1.177c0,0,0,24.234,0,31.191c0,11.177-3.57,14.824-7.217,14.824c-3.807,0-7.696-3.966-7.696-7.489
		c0,0-3.333,6.773-7.825,6.773c-2.246,0-4.782-1.689-7.33-6.773c-2.547,5.096-5.065,6.773-7.311,6.773
		c-4.463,0-7.773-6.773-7.773-6.773c0,3.677-3.842,7.59-7.651,7.59c-3.686,0-7.341-3.7-7.341-14.919c0-6.88,0-31.269,0-31.269
		c-5.083,0.84-9.912,1.277-14.434,1.277c-22.067,0-36.789-10.533-36.789-38.03c0-49.059,32.25-88.765,81.299-88.765
		c49.06,0,81.297,39.706,81.297,88.765C327.427,276.777,312.544,287.057,290.366,287.057z M305.723,233.517
		c0.225,7.891-1.324,29.997-34.714,29.997c-13.73,0-16.598-4.397-16.598-18.377c0-8.647,8.074-16.97,23.005-27.907
		C297.182,202.722,305.291,218.385,305.723,233.517z M221.252,263.514c-33.39,0-34.936-22.106-34.711-29.997
		c0.438-15.132,8.541-30.795,28.315-16.287c14.931,10.944,22.999,19.266,22.999,27.907
		C237.849,259.128,234.985,263.514,221.252,263.514z M253.53,276.938c5.243,14.735,12.454,25.02,2.24,25.043
		c-7.977,0-9.635-7.997-9.635-7.997s-3.463,7.69-8.88,7.69c-12.1,0-3.015-11.515,2.06-26.025c1.64-4.699,6.814-2.938,6.814,2.122
		C246.136,272.475,251.065,270.004,253.53,276.938z"/>
</g>
<g>
</g>
<g>
</g>
<g>
</g>
<g>
</g>
<g>
</g>
<g>
</g>
<g>
</g>
<g>
</g>
<g>
</g>
<g>
</g>
<g>
</g>
<g>
</g>
<g>
</g>
<g>
</g>
<g>
</g>
</svg>
