<?xml version="1.0" encoding="iso-8859-1"?>
<!-- Generator: Adobe Illustrator 16.0.0, SVG Export Plug-In . SVG Version: 6.00 Build 0)  -->
<!DOCTYPE svg PUBLIC "-//W3C//DTD SVG 1.1//EN" "http://www.w3.org/Graphics/SVG/1.1/DTD/svg11.dtd">
<svg version="1.1" id="Capa_1" xmlns="http://www.w3.org/2000/svg" xmlns:xlink="http://www.w3.org/1999/xlink" x="0px" y="0px"
	 width="550.364px" height="550.364px" viewBox="0 0 550.364 550.364" style="enable-background:new 0 0 550.364 550.364;"
	 xml:space="preserve">
<g>
	<path d="M431.379,30.146h-394.7C16.456,30.146,0,46.595,0,66.819v394.269c0,20.221,16.456,36.676,36.679,36.676h291.794
		c-13.523-11.732-24.825-25.937-33.195-41.913H41.914V142.35h384.229v104.062c14.611,0.393,28.69,2.982,41.913,7.457V66.819
		C468.056,46.589,451.594,30.146,431.379,30.146z M350.189,103.327c-8.683,0-15.716-7.04-15.716-15.717
		c0-8.68,7.033-15.719,15.716-15.719c8.689,0,15.723,7.039,15.723,15.719C365.9,96.287,358.873,103.327,350.189,103.327z
		 M406.513,103.327c-8.683,0-15.717-7.04-15.717-15.717c0-8.68,7.034-15.719,15.717-15.719S422.23,78.93,422.23,87.61
		C422.23,96.287,415.196,103.327,406.513,103.327z M422.23,289.155c-56.85,0-102.931,46.08-102.931,102.93
		S365.38,495.01,422.23,495.01s102.93-46.075,102.93-102.925S479.08,289.155,422.23,289.155z M441.144,297.555l-11.029,48.314
		h-11.029l-7.873-48.314C422.762,291.779,441.144,297.555,441.144,297.555z M422.23,430.292c-21.102,0-38.22-17.1-38.22-38.207
		c0-21.102,17.118-38.207,38.22-38.207s38.207,17.105,38.207,38.207C460.437,413.192,443.332,430.292,422.23,430.292z
		 M422.23,362.945c-16.065,0-29.128,13.074-29.128,29.134c0,16.065,13.062,29.135,29.128,29.135s29.128-13.069,29.128-29.135
		C451.358,376.02,438.295,362.945,422.23,362.945z M422.23,412.903c-11.479,0-20.818-9.34-20.818-20.818s9.352-20.817,20.818-20.817
		c11.479,0,20.806,9.339,20.806,20.817S433.708,412.903,422.23,412.903z M422.23,263.952c-70.657,0-128.134,57.482-128.134,128.133
		s57.477,128.134,128.134,128.134c70.646,0,128.134-57.482,128.134-128.134S492.875,263.952,422.23,263.952z M422.23,507.617
		c-63.706,0-115.532-51.825-115.532-115.532c0-63.706,51.826-115.531,115.532-115.531s115.525,51.825,115.525,115.531
		C537.755,455.792,485.936,507.617,422.23,507.617z"/>
</g>
<g>
</g>
<g>
</g>
<g>
</g>
<g>
</g>
<g>
</g>
<g>
</g>
<g>
</g>
<g>
</g>
<g>
</g>
<g>
</g>
<g>
</g>
<g>
</g>
<g>
</g>
<g>
</g>
<g>
</g>
</svg>
