<?xml version="1.0" encoding="iso-8859-1"?>
<!-- Generator: Adobe Illustrator 16.0.0, SVG Export Plug-In . SVG Version: 6.00 Build 0)  -->
<!DOCTYPE svg PUBLIC "-//W3C//DTD SVG 1.1//EN" "http://www.w3.org/Graphics/SVG/1.1/DTD/svg11.dtd">
<svg version="1.1" id="Capa_1" xmlns="http://www.w3.org/2000/svg" xmlns:xlink="http://www.w3.org/1999/xlink" x="0px" y="0px"
	 width="527.666px" height="527.665px" viewBox="0 0 527.666 527.665" style="enable-background:new 0 0 527.666 527.665;"
	 xml:space="preserve">
<g>
	<path d="M246.136,66.111c-109.202,0-197.721,88.52-197.721,197.721c0,109.202,88.52,197.722,197.721,197.722
		c1.658,0,3.304-0.089,4.956-0.125V336.983c-1.646,0.107-3.287,0.249-4.956,0.249c-40.542,0-73.406-32.864-73.406-73.406
		s32.864-73.405,73.406-73.405c34.554,0,63.446,23.9,71.26,56.058h125.651C434.264,145.419,349.48,66.111,246.136,66.111z
		 M261.279,175.059h-21.184l-15.132-92.811c22.195-11.101,57.5,0,57.5,0L261.279,175.059z M282.759,247.858
		c-6.171-14.115-20.257-24.01-36.623-24.01c-22.044,0-39.978,17.934-39.978,39.978c0,22.042,17.939,39.975,39.978,39.975
		c1.682,0,3.333-0.13,4.956-0.343v16.083c-1.64,0.136-3.287,0.249-4.956,0.249c-30.869,0-55.969-25.104-55.969-55.97
		c0-30.869,25.1-55.969,55.969-55.969c24.813,0,45.861,16.234,53.185,38.621h-6.053
		C289.639,246.484,286.128,246.993,282.759,247.858z M269.72,508.821c-7.764,0.733-15.625,1.147-23.584,1.147
		C110.419,509.969,0,399.55,0,263.832C0,128.115,110.419,17.696,246.136,17.696c129.877,0,236.513,101.145,245.456,228.788h-24.275
		C458.427,132.2,362.661,41.907,246.136,41.907c-122.374,0-221.926,99.555-221.926,221.925
		c0,122.371,99.552,221.926,221.926,221.926c2.234,0,4.436-0.106,6.658-0.165C255.579,495.162,261.643,503.354,269.72,508.821z
		 M510.312,273.916H292.045c-9.57,0-17.36,7.79-17.36,17.36v185.189c0,9.57,7.79,17.36,17.36,17.36h218.267
		c9.563,0,17.354-7.79,17.354-17.36V291.276C527.666,281.706,519.875,273.916,510.312,273.916z M490.043,288.486
		c4.959,0,8.99,4.025,8.99,8.99s-4.031,8.984-8.99,8.984s-8.99-4.02-8.99-8.984S485.084,288.486,490.043,288.486z M453.97,287.995
		c4.965,0,8.984,4.025,8.984,8.984c0,4.966-4.02,8.984-8.984,8.984c-4.953,0-8.984-4.019-8.984-8.984
		C444.986,292.021,449.017,287.995,453.97,287.995z M512.783,476.466c0,1.371-1.111,2.482-2.471,2.482H292.045
		c-1.366,0-2.477-1.111-2.477-2.482V317.319h223.214V476.466z"/>
</g>
<g>
</g>
<g>
</g>
<g>
</g>
<g>
</g>
<g>
</g>
<g>
</g>
<g>
</g>
<g>
</g>
<g>
</g>
<g>
</g>
<g>
</g>
<g>
</g>
<g>
</g>
<g>
</g>
<g>
</g>
</svg>
