<?xml version="1.0" encoding="iso-8859-1"?>
<!-- Generator: Adobe Illustrator 16.0.0, SVG Export Plug-In . SVG Version: 6.00 Build 0)  -->
<!DOCTYPE svg PUBLIC "-//W3C//DTD SVG 1.1//EN" "http://www.w3.org/Graphics/SVG/1.1/DTD/svg11.dtd">
<svg version="1.1" id="Capa_1" xmlns="http://www.w3.org/2000/svg" xmlns:xlink="http://www.w3.org/1999/xlink" x="0px" y="0px"
	 width="464.551px" height="464.551px" viewBox="0 0 464.551 464.551" style="enable-background:new 0 0 464.551 464.551;"
	 xml:space="preserve">
<g>
	<path d="M388.347,68.092c0.059,0.029,0.117,0.053,0.177,0.08c-0.213-0.127-0.407-0.237-0.614-0.358
		c-0.958-0.624-20.782-15.102-57.523-15.43v-0.006c-0.013,0-0.03,0-0.042,0c-0.041,0-0.077,0-0.112,0v0.015
		c-62.914,4.9-117.94,69.724-188.16,18.985c0,61.502,0,123.009,0,184.511c22.768,16.455,43.935,20.74,64.303,18.879
		c0-0.012,0-0.012,0-0.023c14.325-2.164,41.053-10.628,40.906-10.557c46.647-17.845,91.746-47.425,145.883-8.299
		c0-61.508,0-123.009,0-184.511C391.55,70.217,389.942,69.132,388.347,68.092z M330.386,54.698
		c24.328-0.322,35.417,4.43,55.892,13.728c1.413,1.306,2.837,1.398,4.345,2.894c0,24.089,0,36.138,0,60.233
		c-24.087-23.962-36.145-25.487-60.23-22.304C330.386,87.139,330.386,75.132,330.386,54.698z M329.629,233.629
		c0-24.184,0-41.349,0-65.53c-24.601,3.494-36.907,11.523-61.508,24.539c0,24.178,0,36.266,0,60.438l-16.408,7.519
		c0,0-29.119,10.722-45.338,12.265c0-20.823,0-32.894,0-55.266c-24.606,3.721-36.91,2.479-61.513-21.84c0,24.181,0,36.274,0,60.45
		c-0.104-0.101-0.151-0.154-0.254-0.255c0.006-39.734,0-79.464,0-119.208c24.604,24.471,36.901,25.774,61.504,22.13
		c0-24.095,0-41.026,0-65.122c25.109-3.715,37.669-7.238,62.772-20.516c0,24.095,0,36.138,0,60.233
		c24.347-12.88,36.522-20.735,60.875-24.148c0,24.604,0,36.904,0,61.507c24.347-3.414,36.517-2.003,60.869,22.212
		c0,23.085,0,34.62,0,57.698C368.25,234.262,353.213,231.583,329.629,233.629z M206.487,158.828
		c24.601-3.766,36.904-11.857,61.504-24.879c0,24.604,0,36.904,0,61.508c-24.595,13.013-36.898,21.119-61.504,24.875
		C206.487,195.723,206.487,183.432,206.487,158.828z M142.071,35.352c0,12.005-6,22.597-15.144,28.986v380.015
		c0,11.153-9.043,20.197-20.2,20.197c-11.153,0-20.197-9.044-20.197-20.197V64.333c-9.144-6.389-15.144-16.976-15.144-28.986
		C71.387,15.82,87.216,0,106.734,0C126.242,0.006,142.071,15.829,142.071,35.352z"/>
</g>
<g>
</g>
<g>
</g>
<g>
</g>
<g>
</g>
<g>
</g>
<g>
</g>
<g>
</g>
<g>
</g>
<g>
</g>
<g>
</g>
<g>
</g>
<g>
</g>
<g>
</g>
<g>
</g>
<g>
</g>
</svg>
