<?xml version="1.0" encoding="iso-8859-1"?>
<!-- Generator: Adobe Illustrator 16.0.0, SVG Export Plug-In . SVG Version: 6.00 Build 0)  -->
<!DOCTYPE svg PUBLIC "-//W3C//DTD SVG 1.1//EN" "http://www.w3.org/Graphics/SVG/1.1/DTD/svg11.dtd">
<svg version="1.1" id="Capa_1" xmlns="http://www.w3.org/2000/svg" xmlns:xlink="http://www.w3.org/1999/xlink" x="0px" y="0px"
	 width="81.998px" height="81.998px" viewBox="0 0 81.998 81.998" style="enable-background:new 0 0 81.998 81.998;"
	 xml:space="preserve">
<g>
	<path d="M40.999,0C18.392,0,0,18.392,0,40.999c0,22.606,18.392,40.999,40.999,40.999c22.606,0,40.999-18.393,40.999-40.999
		C81.998,18.392,63.607,0,40.999,0z M40.999,77.998C20.598,77.998,4,61.4,4,40.999C4,20.598,20.598,4,40.999,4
		s36.999,16.598,36.999,36.999C77.998,61.4,61.4,77.998,40.999,77.998z M45.708,12.744c0.376,0.387,0.581,0.908,0.567,1.447
		l-1.319,41.372c-0.028,1.084-0.915,1.949-2,1.949h-3.915c-1.084,0-1.972-0.865-2-1.949l-1.319-41.372
		c-0.014-0.539,0.191-1.061,0.567-1.447c0.376-0.386,0.893-0.604,1.432-0.604h6.555C44.814,12.141,45.332,12.358,45.708,12.744z
		 M46.191,63.002v7.49c0,1.104-0.896,2-2,2h-6.385c-1.104,0-2-0.896-2-2v-7.49c0-1.104,0.896-2,2-2h6.385
		C45.296,61.002,46.191,61.896,46.191,63.002z"/>
</g>
<g>
</g>
<g>
</g>
<g>
</g>
<g>
</g>
<g>
</g>
<g>
</g>
<g>
</g>
<g>
</g>
<g>
</g>
<g>
</g>
<g>
</g>
<g>
</g>
<g>
</g>
<g>
</g>
<g>
</g>
</svg>
