<?xml version="1.0" encoding="iso-8859-1"?>
<!-- Generator: Adobe Illustrator 16.0.0, SVG Export Plug-In . SVG Version: 6.00 Build 0)  -->
<!DOCTYPE svg PUBLIC "-//W3C//DTD SVG 1.1//EN" "http://www.w3.org/Graphics/SVG/1.1/DTD/svg11.dtd">
<svg version="1.1" id="Capa_1" xmlns="http://www.w3.org/2000/svg" xmlns:xlink="http://www.w3.org/1999/xlink" x="0px" y="0px"
	 width="453.107px" height="453.107px" viewBox="0 0 453.107 453.107" style="enable-background:new 0 0 453.107 453.107;"
	 xml:space="preserve">
<g>
	<path d="M372.147,30.056L372.147,30.056h-61.566l2.223,10.025c0.184,0.839,0.284,1.608,0.284,2.334v43.956
		c0,6.059-4.936,10.985-10.994,10.985H151.008c-6.059,0-10.985-4.927-10.985-10.985V42.415c0-0.732,0.091-1.495,0.277-2.334
		l2.223-10.025H80.959c-10.604,0-19.233,8.624-19.233,19.231v384.586c0,10.604,8.629,19.234,19.233,19.234h123.662h43.86h123.665
		c10.604,0,19.234-8.63,19.234-19.234V49.287C391.375,38.68,382.751,30.056,372.147,30.056z M374.89,433.873
		c0,1.514-1.235,2.749-2.749,2.749H248.482h-43.86H80.959c-1.513,0-2.746-1.235-2.746-2.749V49.287c0-1.513,1.232-2.749,2.746-2.749
		h42.575v39.833c0,15.144,12.324,27.473,27.473,27.473h151.085c15.149,0,27.473-12.324,27.473-27.473V46.538h42.575
		c1.514,0,2.749,1.235,2.749,2.749V433.873z M150.396,77.363V38.68c0-5.343,4.321-9.67,9.667-9.67h35.923
		c0-16.021,13.606-29.01,30.396-29.01c16.781,0,30.387,12.988,30.387,29.01h36.263c5.35,0,9.676,4.327,9.676,9.67v38.683
		c0,5.34-4.326,9.673-9.676,9.673H160.057C154.717,87.036,150.396,82.709,150.396,77.363z M189.812,183.526l11.257,11.257
		l-62.681,62.689l-38.659-38.665l11.26-11.257l27.399,27.403L189.812,183.526z M189.812,268.064l11.257,11.254l-62.681,62.684
		L99.729,303.34l11.26-11.26l27.399,27.396L189.812,268.064z M218.296,203.348h130.131v17.147H218.296V203.348z M218.296,296.46
		h130.131v17.142H218.296V296.46z"/>
</g>
<g>
</g>
<g>
</g>
<g>
</g>
<g>
</g>
<g>
</g>
<g>
</g>
<g>
</g>
<g>
</g>
<g>
</g>
<g>
</g>
<g>
</g>
<g>
</g>
<g>
</g>
<g>
</g>
<g>
</g>
</svg>
