<?xml version="1.0" encoding="iso-8859-1"?>
<!-- Generator: Adobe Illustrator 16.0.0, SVG Export Plug-In . SVG Version: 6.00 Build 0)  -->
<!DOCTYPE svg PUBLIC "-//W3C//DTD SVG 1.1//EN" "http://www.w3.org/Graphics/SVG/1.1/DTD/svg11.dtd">
<svg version="1.1" id="Capa_1" xmlns="http://www.w3.org/2000/svg" xmlns:xlink="http://www.w3.org/1999/xlink" x="0px" y="0px"
	 width="74.86px" height="74.86px" viewBox="0 0 74.86 74.86" style="enable-background:new 0 0 74.86 74.86;" xml:space="preserve"
	>
<g>
	<path d="M54.804,59.891l2.724-2.724v14.517c0,1.752-1.426,3.177-3.178,3.177H33.918h-7.247H6.241c-1.752,0-3.178-1.425-3.178-3.177
		V8.143c0-1.752,1.426-3.177,3.178-3.177h10.171l-0.367,1.656c-0.031,0.139-0.046,0.266-0.046,0.386v7.262
		c0,1.001,0.814,1.815,1.815,1.815h24.962c1.002,0,1.816-0.814,1.816-1.815V7.008c0-0.121-0.016-0.247-0.047-0.386l-0.367-1.656
		h10.171h0.001c1.752,0,3.178,1.425,3.178,3.177v21.581l-2.725,2.724V8.143c0-0.25-0.204-0.454-0.454-0.454h-7.034v6.581
		c0,2.502-2.035,4.539-4.539,4.539H17.813c-2.503,0-4.539-2.036-4.539-4.539V7.689H6.241c-0.25,0-0.454,0.204-0.454,0.454v63.541
		c0,0.25,0.204,0.455,0.454,0.455h20.431h7.247H54.35c0.25,0,0.454-0.205,0.454-0.455V59.891z M19.31,14.38h21.97
		c0.883,0,1.598-0.715,1.598-1.598V6.391c0-0.883-0.715-1.598-1.598-1.598h-5.991C35.289,2.146,33.04,0,30.268,0
		c-2.774,0-5.022,2.146-5.022,4.793h-5.935c-0.883,0-1.597,0.715-1.597,1.598v6.391C17.714,13.664,18.428,14.38,19.31,14.38z
		 M26.525,42.852l-8.604-8.604l-3.535,3.535l12.139,12.139l19.68-19.681l-3.534-3.535L26.525,42.852z M71.193,35.546l-6.181-6.182
		c-0.91-0.909-2.521-0.777-3.595,0.296l-3.402,3.403l9.48,9.479l3.401-3.403C71.972,38.067,72.103,36.455,71.193,35.546z
		 M56.437,34.642l9.479,9.479L43.312,66.727c-0.104,0.104-0.391,0.392-0.795,0.494c-0.047,0.021-0.094,0.041-0.142,0.057
		l-11.797,3.759c-0.33,0.104-0.662,0.038-0.877-0.179c-0.215-0.215-0.283-0.547-0.179-0.877l3.76-11.795
		c0.016-0.049,0.035-0.096,0.057-0.143c0.103-0.404,0.39-0.691,0.495-0.796L56.437,34.642z M40.396,65.998l-5.836-5.836
		l-1.565,4.915l2.487,2.487L40.396,65.998z M56.072,38.41c-0.336-0.336-0.879-0.336-1.215,0L37.236,56.032
		c-0.336,0.335-0.336,0.88,0,1.215c0.335,0.335,0.879,0.335,1.215,0l17.621-17.622C56.408,39.289,56.408,38.745,56.072,38.41z"/>
</g>
<g>
</g>
<g>
</g>
<g>
</g>
<g>
</g>
<g>
</g>
<g>
</g>
<g>
</g>
<g>
</g>
<g>
</g>
<g>
</g>
<g>
</g>
<g>
</g>
<g>
</g>
<g>
</g>
<g>
</g>
</svg>
