<?xml version="1.0" encoding="iso-8859-1"?>
<!-- Generator: Adobe Illustrator 16.0.0, SVG Export Plug-In . SVG Version: 6.00 Build 0)  -->
<!DOCTYPE svg PUBLIC "-//W3C//DTD SVG 1.1//EN" "http://www.w3.org/Graphics/SVG/1.1/DTD/svg11.dtd">
<svg version="1.1" id="Capa_1" xmlns="http://www.w3.org/2000/svg" xmlns:xlink="http://www.w3.org/1999/xlink" x="0px" y="0px"
	 width="480.622px" height="480.622px" viewBox="0 0 480.622 480.622" style="enable-background:new 0 0 480.622 480.622;"
	 xml:space="preserve">
<g>
	<path d="M405.136,49.287v174.134H187.889v229.687H94.721c-10.604,0-19.234-8.63-19.234-19.233V49.287
		c0-10.604,8.63-19.228,19.234-19.228h61.563l-2.223,10.022c-0.186,0.842-0.277,1.61-0.277,2.338v43.952
		c0,6.059,4.926,10.985,10.985,10.985h151.085c6.059,0,10.994-4.927,10.994-10.985V42.419c0-0.733-0.101-1.496-0.284-2.338
		l-2.223-10.022h61.561h0.006C396.519,30.059,405.136,38.683,405.136,49.287z M173.83,87.039h132.975c5.35,0,9.676-4.33,9.676-9.673
		V38.683c0-5.343-4.326-9.673-9.676-9.673h-36.263c0-16.021-13.606-29.01-30.387-29.01c-16.79,0-30.396,12.989-30.396,29.01h-35.923
		c-5.346,0-9.667,4.33-9.667,9.673v38.683C164.163,82.709,168.484,87.039,173.83,87.039z M210.084,241.579h193.651v239.043H210.084
		V241.579z M222.189,468.522h169.44V253.684h-169.44V468.522z M347.3,320.263h25.28v25.28v6v19.121v6.171v19.115v5.993v19.293v5.994
		v25.108h-31.274V427.23v-5.994v-19.293l-69.688,0.019v19.274v5.994v25.114h-31.12V427.23v-5.994v-19.127v-6.159v-19.115v-6.005
		v-19.287v-6v-25.108h25.114v-25.286h25.28v-25.274h31.12v24.949h25.275v25.439H347.3z M341.3,326.097h-25.292v-24.955h-19.281
		v25.286h-25.108v19.115v6v19.287l69.682-0.013v-19.274v-6V326.097z"/>
</g>
<g>
</g>
<g>
</g>
<g>
</g>
<g>
</g>
<g>
</g>
<g>
</g>
<g>
</g>
<g>
</g>
<g>
</g>
<g>
</g>
<g>
</g>
<g>
</g>
<g>
</g>
<g>
</g>
<g>
</g>
</svg>
