<?xml version="1.0" encoding="iso-8859-1"?>
<!-- Generator: Adobe Illustrator 16.0.0, SVG Export Plug-In . SVG Version: 6.00 Build 0)  -->
<!DOCTYPE svg PUBLIC "-//W3C//DTD SVG 1.1//EN" "http://www.w3.org/Graphics/SVG/1.1/DTD/svg11.dtd">
<svg version="1.1" id="Capa_1" xmlns="http://www.w3.org/2000/svg" xmlns:xlink="http://www.w3.org/1999/xlink" x="0px" y="0px"
	 width="453.107px" height="453.107px" viewBox="0 0 453.107 453.107" style="enable-background:new 0 0 453.107 453.107;"
	 xml:space="preserve">
<g>
	<path d="M372.147,30.059L372.147,30.059h-61.566l2.223,10.022c0.184,0.842,0.284,1.611,0.284,2.337v43.953
		c0,6.059-4.936,10.985-10.994,10.985H151.008c-6.059,0-10.985-4.927-10.985-10.985V42.418c0-0.732,0.091-1.495,0.277-2.337
		l2.223-10.022H80.959c-10.604,0-19.233,8.624-19.233,19.228v384.586c0,10.604,8.629,19.234,19.233,19.234h123.662h43.86h123.665
		c10.604,0,19.234-8.63,19.234-19.234v-208.07V49.287C391.375,38.683,382.751,30.059,372.147,30.059z M150.396,77.372V38.683
		c0-5.343,4.321-9.673,9.667-9.673h35.923c0-16.021,13.606-29.01,30.396-29.01c16.781,0,30.387,12.988,30.387,29.01h36.263
		c5.35,0,9.676,4.33,9.676,9.673v38.683c0,5.337-4.326,9.673-9.676,9.673H160.057C154.717,87.039,150.396,82.709,150.396,77.372z"/>
</g>
<g>
</g>
<g>
</g>
<g>
</g>
<g>
</g>
<g>
</g>
<g>
</g>
<g>
</g>
<g>
</g>
<g>
</g>
<g>
</g>
<g>
</g>
<g>
</g>
<g>
</g>
<g>
</g>
<g>
</g>
</svg>
