<?xml version="1.0" encoding="iso-8859-1"?>
<!-- Generator: Adobe Illustrator 16.0.0, SVG Export Plug-In . SVG Version: 6.00 Build 0)  -->
<!DOCTYPE svg PUBLIC "-//W3C//DTD SVG 1.1//EN" "http://www.w3.org/Graphics/SVG/1.1/DTD/svg11.dtd">
<svg version="1.1" id="Capa_1" xmlns="http://www.w3.org/2000/svg" xmlns:xlink="http://www.w3.org/1999/xlink" x="0px" y="0px"
	 width="453.107px" height="453.107px" viewBox="0 0 453.107 453.107" style="enable-background:new 0 0 453.107 453.107;"
	 xml:space="preserve">
<g>
	<path d="M372.153,30.056L372.153,30.056h-61.572l2.223,10.025c0.189,0.842,0.284,1.611,0.284,2.335v43.956
		c0,6.059-4.93,10.985-10.988,10.985H151.014c-6.059,0-10.985-4.926-10.985-10.985V42.416c0-0.73,0.091-1.493,0.277-2.335
		l2.223-10.025H80.96c-10.604,0-19.234,8.627-19.234,19.231v384.586c0,10.604,8.63,19.234,19.234,19.234h123.662h43.86h123.665
		c10.604,0,19.233-8.63,19.233-19.234V225.8V49.287C391.375,38.683,382.758,30.056,372.153,30.056z M374.891,433.873
		c0,1.514-1.229,2.755-2.743,2.755H248.482h-43.86H80.96c-1.513,0-2.746-1.241-2.746-2.755V49.287c0-1.513,1.232-2.749,2.746-2.749
		h42.575v39.833c0,15.143,12.324,27.473,27.473,27.473h151.085c15.148,0,27.473-12.324,27.473-27.473V46.538h42.575
		c1.514,0,2.749,1.235,2.749,2.749v174.643V433.873L374.891,433.873z M150.402,77.366V38.683c0-5.346,4.321-9.673,9.667-9.673
		h35.923c0-16.021,13.606-29.01,30.396-29.01c16.775,0,30.393,12.989,30.393,29.01h36.257c5.344,0,9.67,4.327,9.67,9.673v38.683
		c0,5.337-4.326,9.67-9.67,9.67H160.063C154.723,87.036,150.402,82.709,150.402,77.366z"/>
</g>
<g>
</g>
<g>
</g>
<g>
</g>
<g>
</g>
<g>
</g>
<g>
</g>
<g>
</g>
<g>
</g>
<g>
</g>
<g>
</g>
<g>
</g>
<g>
</g>
<g>
</g>
<g>
</g>
<g>
</g>
</svg>
