<?xml version="1.0" encoding="iso-8859-1"?>
<!-- Generator: Adobe Illustrator 16.0.0, SVG Export Plug-In . SVG Version: 6.00 Build 0)  -->
<!DOCTYPE svg PUBLIC "-//W3C//DTD SVG 1.1//EN" "http://www.w3.org/Graphics/SVG/1.1/DTD/svg11.dtd">
<svg version="1.1" id="Capa_1" xmlns="http://www.w3.org/2000/svg" xmlns:xlink="http://www.w3.org/1999/xlink" x="0px" y="0px"
	 width="435.789px" height="435.789px" viewBox="0 0 435.789 435.789" style="enable-background:new 0 0 435.789 435.789;"
	 xml:space="preserve">
<g>
	<path d="M369.21,435.789c-6.68,0-12.105-5.426-12.105-12.104V24.21H78.684v399.474c0,6.679-5.423,12.104-12.105,12.104
		c-6.682,0-12.105-5.426-12.105-12.104V12.105C54.474,5.423,59.897,0,66.579,0H369.21c6.679,0,12.104,5.423,12.104,12.105v411.579
		C381.315,430.363,375.889,435.789,369.21,435.789z M341.973,45.395v378.289H93.816V45.395H341.973z M154.342,237.565
		c0-10.863-7.451-19.67-16.645-19.67c-9.194,0-16.645,8.807-16.645,19.67c0,10.864,7.451,19.672,16.645,19.672
		C146.891,257.237,154.342,248.429,154.342,237.565z"/>
</g>
<g>
</g>
<g>
</g>
<g>
</g>
<g>
</g>
<g>
</g>
<g>
</g>
<g>
</g>
<g>
</g>
<g>
</g>
<g>
</g>
<g>
</g>
<g>
</g>
<g>
</g>
<g>
</g>
<g>
</g>
</svg>
