<?xml version="1.0" encoding="iso-8859-1"?>
<!-- Generator: Adobe Illustrator 16.0.0, SVG Export Plug-In . SVG Version: 6.00 Build 0)  -->
<!DOCTYPE svg PUBLIC "-//W3C//DTD SVG 1.1//EN" "http://www.w3.org/Graphics/SVG/1.1/DTD/svg11.dtd">
<svg version="1.1" id="Capa_1" xmlns="http://www.w3.org/2000/svg" xmlns:xlink="http://www.w3.org/1999/xlink" x="0px" y="0px"
	 width="492.272px" height="492.272px" viewBox="0 0 492.272 492.272" style="enable-background:new 0 0 492.272 492.272;"
	 xml:space="preserve">
<g>
	<g>
		<path d="M246.136,48.415c-109.201,0-197.721,88.52-197.721,197.721c0,109.202,88.52,197.722,197.721,197.722
			c109.202,0,197.722-88.52,197.722-197.722C443.857,136.935,355.338,48.415,246.136,48.415z M282.464,64.552l-21.185,92.811
			h-21.184l-15.131-92.811C247.159,53.451,282.464,64.552,282.464,64.552z M246.136,319.542c-40.542,0-73.405-32.864-73.405-73.406
			c0-40.542,32.864-73.405,73.405-73.405c40.542,0,73.406,32.864,73.406,73.405C319.542,286.678,286.678,319.542,246.136,319.542z
			 M246.136,190.167c-30.869,0-55.969,25.1-55.969,55.969c0,30.866,25.1,55.97,55.969,55.97c30.866,0,55.97-25.104,55.97-55.97
			C302.105,215.267,277.002,190.167,246.136,190.167z M246.136,286.116c-22.044,0-39.977-17.933-39.977-39.98
			c0-22.044,17.939-39.977,39.977-39.977c22.048,0,39.969,17.933,39.969,39.977C286.104,268.184,268.184,286.116,246.136,286.116z
			 M246.136,0C110.419,0,0,110.419,0,246.136c0,135.718,110.419,246.137,246.136,246.137c135.718,0,246.137-110.419,246.137-246.137
			C492.272,110.419,381.854,0,246.136,0z M246.136,468.062c-122.37,0-221.925-99.555-221.925-221.926
			c0-122.37,99.555-221.925,221.925-221.925c122.371,0,221.926,99.555,221.926,221.925
			C468.062,368.507,368.507,468.062,246.136,468.062z"/>
		<path d="M246.136,48.415c-109.201,0-197.721,88.52-197.721,197.721c0,109.202,88.52,197.722,197.721,197.722
			c109.202,0,197.722-88.52,197.722-197.722C443.857,136.935,355.338,48.415,246.136,48.415z M282.464,64.552l-21.185,92.811
			h-21.184l-15.131-92.811C247.159,53.451,282.464,64.552,282.464,64.552z M246.136,319.542c-40.542,0-73.405-32.864-73.405-73.406
			c0-40.542,32.864-73.405,73.405-73.405c40.542,0,73.406,32.864,73.406,73.405C319.542,286.678,286.678,319.542,246.136,319.542z
			 M246.136,190.167c-30.869,0-55.969,25.1-55.969,55.969c0,30.866,25.1,55.97,55.969,55.97c30.866,0,55.97-25.104,55.97-55.97
			C302.105,215.267,277.002,190.167,246.136,190.167z M246.136,286.116c-22.044,0-39.977-17.933-39.977-39.98
			c0-22.044,17.939-39.977,39.977-39.977c22.048,0,39.969,17.933,39.969,39.977C286.104,268.184,268.184,286.116,246.136,286.116z
			 M246.136,0C110.419,0,0,110.419,0,246.136c0,135.718,110.419,246.137,246.136,246.137c135.718,0,246.137-110.419,246.137-246.137
			C492.272,110.419,381.854,0,246.136,0z M246.136,468.062c-122.37,0-221.925-99.555-221.925-221.926
			c0-122.37,99.555-221.925,221.925-221.925c122.371,0,221.926,99.555,221.926,221.925
			C468.062,368.507,368.507,468.062,246.136,468.062z"/>
	</g>
</g>
<g>
</g>
<g>
</g>
<g>
</g>
<g>
</g>
<g>
</g>
<g>
</g>
<g>
</g>
<g>
</g>
<g>
</g>
<g>
</g>
<g>
</g>
<g>
</g>
<g>
</g>
<g>
</g>
<g>
</g>
</svg>
