<?xml version="1.0" encoding="iso-8859-1"?>
<!-- Generator: Adobe Illustrator 16.0.0, SVG Export Plug-In . SVG Version: 6.00 Build 0)  -->
<!DOCTYPE svg PUBLIC "-//W3C//DTD SVG 1.1//EN" "http://www.w3.org/Graphics/SVG/1.1/DTD/svg11.dtd">
<svg version="1.1" id="Capa_1" xmlns="http://www.w3.org/2000/svg" xmlns:xlink="http://www.w3.org/1999/xlink" x="0px" y="0px"
	 width="488.643px" height="488.643px" viewBox="0 0 488.643 488.643" style="enable-background:new 0 0 488.643 488.643;"
	 xml:space="preserve">
<g>
	<path d="M488.643,244.318c0,1.552-0.721,3.015-1.95,3.963L364.21,342.458c-0.898,0.691-1.975,1.034-3.051,1.034
		c-1.058,0-2.115-0.343-3.002-1.005c-1.797-1.359-2.471-3.741-1.644-5.828l24.636-62.358H274.301v106.837l62.353-24.63
		c2.093-0.827,4.475-0.153,5.828,1.637c1.359,1.791,1.348,4.268-0.029,6.053l-94.176,122.495c-0.94,1.235-2.406,1.956-3.955,1.944
		c-1.548,0-3.014-0.721-3.957-1.944l-94.179-122.489c-0.691-0.898-1.034-1.974-1.034-3.043c0-1.059,0.337-2.123,1.001-3.009
		c1.357-1.791,3.742-2.465,5.831-1.644l62.353,24.636V274.301H107.502l24.633,62.353c0.825,2.087,0.154,4.475-1.64,5.828
		c-1.791,1.354-4.268,1.342-6.053-0.029L1.951,248.282c-1.235-0.943-1.957-2.406-1.951-3.958c0-1.548,0.721-3.011,1.951-3.957
		l122.486-94.179c0.896-0.688,1.974-1.035,3.044-1.035c1.061,0,2.119,0.34,3.009,1.005c1.791,1.356,2.465,3.739,1.64,5.828
		l-24.633,62.355h106.84V107.499l-62.353,24.636c-2.089,0.822-4.474,0.151-5.831-1.64c-1.354-1.794-1.341-4.268,0.033-6.053
		L240.358,1.954c0.943-1.232,2.409-1.954,3.957-1.948c1.549,0,3.015,0.721,3.961,1.948l94.176,122.489
		c0.691,0.896,1.034,1.971,1.034,3.044c0,1.058-0.337,2.119-1.005,3.009c-1.354,1.791-3.735,2.462-5.828,1.64l-62.353-24.636
		v106.843h106.837l-24.636-62.355c-0.827-2.089-0.153-4.472,1.644-5.828c1.785-1.356,4.262-1.345,6.053,0.03l122.482,94.173
		C487.928,241.307,488.649,242.77,488.643,244.318z"/>
</g>
<g>
</g>
<g>
</g>
<g>
</g>
<g>
</g>
<g>
</g>
<g>
</g>
<g>
</g>
<g>
</g>
<g>
</g>
<g>
</g>
<g>
</g>
<g>
</g>
<g>
</g>
<g>
</g>
<g>
</g>
</svg>
