<?xml version="1.0" encoding="iso-8859-1"?>
<!-- Generator: Adobe Illustrator 16.0.0, SVG Export Plug-In . SVG Version: 6.00 Build 0)  -->
<!DOCTYPE svg PUBLIC "-//W3C//DTD SVG 1.1//EN" "http://www.w3.org/Graphics/SVG/1.1/DTD/svg11.dtd">
<svg version="1.1" id="Capa_1" xmlns="http://www.w3.org/2000/svg" xmlns:xlink="http://www.w3.org/1999/xlink" x="0px" y="0px"
	 width="78px" height="78px" viewBox="0 0 78 78" style="enable-background:new 0 0 78 78;" xml:space="preserve">
<g>
	<path d="M9.484,68.5h59v-59h-59V68.5z M11.484,11.5h55v55h-55V11.5z M77.869,10v1h-8v-1H77.869z M68.286,8h-1V0h1V8z M0.182,10h8v1
		h-8V10z M10.765,8h-1V0h1V8z M69.819,67h8v1h-8V67z M67.235,70h1v8h-1V70z M0.131,67h8v1h-8V67z M9.714,70h1v8h-1V70z M13.624,39
		l5.127-5.126v10.253L13.624,39z M58.374,33.874L63.5,39l-5.127,5.126V33.874z M39,14.062l5.127,5.127H33.874L39,14.062z
		 M33.874,58.812h10.254L39,63.938L33.874,58.812z"/>
</g>
<g>
</g>
<g>
</g>
<g>
</g>
<g>
</g>
<g>
</g>
<g>
</g>
<g>
</g>
<g>
</g>
<g>
</g>
<g>
</g>
<g>
</g>
<g>
</g>
<g>
</g>
<g>
</g>
<g>
</g>
</svg>
