<?xml version="1.0" encoding="utf-8"?>
<svg version="1.1" id="Capa_1" x="0px" y="0px" width="100px" height="100px" viewBox="0 0 100 100" style="enable-background:new 0 0 348.333 348.334;" xmlns="http://www.w3.org/2000/svg">
  <g>
    <path d="M 96.62 19.697 L 66.32 49.999 L 96.62 80.301 C 101.127 84.809 101.127 92.113 96.62 96.621 C 94.368 98.873 91.416 100 88.465 100 C 85.509 100 82.556 98.875 80.306 96.621 L 50 66.317 L 19.696 96.621 C 17.445 98.873 14.492 100 11.539 100 C 8.586 100 5.635 98.875 3.382 96.621 C -1.125 92.114 -1.125 84.811 3.382 80.3 L 33.68 49.999 L 3.38 19.697 C -1.127 15.19 -1.127 7.885 3.38 3.378 C 7.886 -1.126 15.187 -1.126 19.695 3.378 L 50 33.68 L 80.303 3.378 C 84.811 -1.126 92.113 -1.126 96.618 3.378 C 101.127 7.885 101.127 15.19 96.62 19.697 Z"/>
  </g>
</svg>