<?xml version="1.0" encoding="iso-8859-1"?>
<!-- Generator: Adobe Illustrator 16.0.0, SVG Export Plug-In . SVG Version: 6.00 Build 0)  -->
<!DOCTYPE svg PUBLIC "-//W3C//DTD SVG 1.1//EN" "http://www.w3.org/Graphics/SVG/1.1/DTD/svg11.dtd">
<svg version="1.1" id="Capa_1" xmlns="http://www.w3.org/2000/svg" xmlns:xlink="http://www.w3.org/1999/xlink" x="0px" y="0px"
	 width="77.749px" height="77.749px" viewBox="0 0 77.749 77.749" style="enable-background:new 0 0 77.749 77.749;"
	 xml:space="preserve">
<g>
	<path d="M54.04,0H14.908c-2.627,0-4.767,2.141-4.767,4.768V72.98c0,2.631,2.14,4.769,4.767,4.769H62.84
		c2.63,0,4.768-2.138,4.768-4.769V14.743L54.04,0z M55.165,7.135l5.947,6.463h-5.947V7.135z M63.604,72.98
		c0,0.42-0.344,0.765-0.766,0.765h-47.93c-0.421,0-0.763-0.345-0.763-0.765V4.768c0-0.421,0.342-0.762,0.763-0.762h36.25v11.595
		c0,1.104,0.899,1.999,2.004,1.999h10.441V72.98z M38.874,4.975l4.253,7.354h-8.508L38.874,4.975z M34.62,64.809h8.509l-4.255,7.354
		L34.62,64.809z"/>
</g>
<g>
</g>
<g>
</g>
<g>
</g>
<g>
</g>
<g>
</g>
<g>
</g>
<g>
</g>
<g>
</g>
<g>
</g>
<g>
</g>
<g>
</g>
<g>
</g>
<g>
</g>
<g>
</g>
<g>
</g>
</svg>
