<?xml version="1.0" encoding="iso-8859-1"?>
<!-- Generator: Adobe Illustrator 16.0.0, SVG Export Plug-In . SVG Version: 6.00 Build 0)  -->
<!DOCTYPE svg PUBLIC "-//W3C//DTD SVG 1.1//EN" "http://www.w3.org/Graphics/SVG/1.1/DTD/svg11.dtd">
<svg version="1.1" id="Capa_1" xmlns="http://www.w3.org/2000/svg" xmlns:xlink="http://www.w3.org/1999/xlink" x="0px" y="0px"
	 width="470.586px" height="470.586px" viewBox="0 0 470.586 470.586" style="enable-background:new 0 0 470.586 470.586;"
	 xml:space="preserve">
<g>
	<path d="M327.081,0H90.234c-15.9,0-28.854,12.959-28.854,28.859v412.863c0,15.924,12.953,28.863,28.854,28.863H380.35
		c15.917,0,28.855-12.939,28.855-28.863V89.234L327.081,0z M333.891,43.184l35.996,39.121h-35.996V43.184z M384.972,441.723
		c0,2.542-2.081,4.629-4.634,4.629H90.234c-2.551,0-4.62-2.087-4.62-4.629V28.859c0-2.548,2.069-4.613,4.62-4.613h219.41v70.181
		c0,6.682,5.444,12.099,12.129,12.099h63.198V441.723z M303.864,167.96l-17,16.991c-9.817-6.842-20.989-11.833-33.035-14.57v-23.138
		h-37.072v22.183c-12.729,2.167-24.568,6.845-35.015,13.545l-15.01-15.005l-26.214,26.208l14.502,14.502
		c-7.317,10.5-12.569,22.522-15.161,35.532H119.8v37.072h20.058c2.586,13.01,7.844,25.038,15.155,35.535l-14.496,14.5l26.214,26.214
		l15.01-15.008c10.453,6.703,22.292,11.379,35.015,13.548v22.184h37.072v-23.141c12.046-2.737,23.218-7.738,33.035-14.57l17,16.993
		l26.208-26.214l-17.502-17.508c6.266-9.776,10.829-20.741,13.169-32.521h25.056v-37.072h-25.056
		c-2.34-11.789-6.903-22.756-13.169-32.53l17.502-17.51L303.864,167.96z M235.29,317.396c-30.189,0-54.66-24.471-54.66-54.657
		c0-30.192,24.471-54.663,54.66-54.663c30.189,0,54.66,24.471,54.66,54.663C289.95,292.926,265.485,317.396,235.29,317.396z"/>
</g>
<g>
</g>
<g>
</g>
<g>
</g>
<g>
</g>
<g>
</g>
<g>
</g>
<g>
</g>
<g>
</g>
<g>
</g>
<g>
</g>
<g>
</g>
<g>
</g>
<g>
</g>
<g>
</g>
<g>
</g>
</svg>
