<?xml version="1.0" encoding="iso-8859-1"?>
<!-- Generator: Adobe Illustrator 16.0.0, SVG Export Plug-In . SVG Version: 6.00 Build 0)  -->
<!DOCTYPE svg PUBLIC "-//W3C//DTD SVG 1.1//EN" "http://www.w3.org/Graphics/SVG/1.1/DTD/svg11.dtd">
<svg version="1.1" id="Capa_1" xmlns="http://www.w3.org/2000/svg" xmlns:xlink="http://www.w3.org/1999/xlink" x="0px" y="0px"
	 width="471.549px" height="471.549px" viewBox="0 0 471.549 471.549" style="enable-background:new 0 0 471.549 471.549;"
	 xml:space="preserve">
<g>
	<path d="M327.749,0H90.417c-15.924,0-28.9,12.995-28.9,28.921v413.712c0,15.947,12.983,28.916,28.9,28.916h290.718
		c15.947,0,28.898-12.969,28.898-28.916V89.427L327.749,0z M334.582,43.275l36.067,39.209h-36.067V43.275z M385.768,442.633
		c0,2.554-2.092,4.635-4.634,4.635H246.842V316.592c0-6.1-4.965-11.053-11.065-11.053c-6.111,0-11.053,4.953-11.053,11.053v130.676
		H90.417c-2.542,0-4.622-2.081-4.622-4.635V28.921c0-2.556,2.081-4.631,4.622-4.631h134.302v132.073
		c0,6.108,4.938,11.059,11.053,11.059c6.101,0,11.065-4.95,11.065-11.059V24.296h63.428v70.338c0,6.694,5.462,12.117,12.165,12.117
		h63.327v335.882H385.768z M276.869,228.324c0.521,0.52,0.815,1.229,0.815,1.954c0,0.739-0.295,1.431-0.815,1.962l-8.263,8.263
		c-0.532,0.544-1.242,0.804-1.951,0.804s-1.412-0.26-1.95-0.804c-1.088-1.082-1.088-2.843,0-3.919l1.997-2.004h-25.215v25.068
		l2.01-2.01c1.094-1.076,2.831-1.076,3.913,0c1.075,1.081,1.075,2.837,0,3.912l-8.264,8.264c-0.521,0.525-1.229,0.81-1.962,0.81
		c-0.73,0-1.425-0.296-1.945-0.815l-8.263-8.264c-1.088-1.081-1.088-2.831,0-3.906c1.079-1.076,2.84-1.076,3.91,0l2.009,2.021
		v-25.08h-28.028l1.986,2.004c1.076,1.088,1.076,2.837,0,3.919c-0.535,0.544-1.229,0.804-1.938,0.804
		c-0.707,0-1.427-0.26-1.948-0.804l-8.275-8.263c-0.508-0.532-0.816-1.224-0.816-1.962c0-0.724,0.308-1.434,0.816-1.954l8.275-8.254
		c1.076-1.091,2.825-1.067,3.893,0c1.075,1.082,1.075,2.831,0,3.907l-1.986,2.004h28.029v-28.191l-2.01,2.009
		c-0.532,0.538-1.253,0.816-1.948,0.816c-0.709,0-1.416-0.272-1.962-0.81c-1.088-1.084-1.088-2.834,0-3.91l8.263-8.27
		c1.029-1.034,2.873-1.04,3.913-0.012l8.258,8.27c1.081,1.081,1.081,2.837,0,3.916c-1.088,1.082-2.825,1.082-3.907,0l-2.01-2.009
		v28.185h25.216l-1.998-2.003c-1.088-1.082-1.088-2.832,0-3.91c1.075-1.064,2.825-1.088,3.901,0L276.869,228.324z"/>
</g>
<g>
</g>
<g>
</g>
<g>
</g>
<g>
</g>
<g>
</g>
<g>
</g>
<g>
</g>
<g>
</g>
<g>
</g>
<g>
</g>
<g>
</g>
<g>
</g>
<g>
</g>
<g>
</g>
<g>
</g>
</svg>
