<?xml version="1.0" encoding="iso-8859-1"?>
<!-- Generator: Adobe Illustrator 16.0.0, SVG Export Plug-In . SVG Version: 6.00 Build 0)  -->
<!DOCTYPE svg PUBLIC "-//W3C//DTD SVG 1.1//EN" "http://www.w3.org/Graphics/SVG/1.1/DTD/svg11.dtd">
<svg version="1.1" id="Capa_1" xmlns="http://www.w3.org/2000/svg" xmlns:xlink="http://www.w3.org/1999/xlink" x="0px" y="0px"
	 width="77.749px" height="77.749px" viewBox="0 0 77.749 77.749" style="enable-background:new 0 0 77.749 77.749;"
	 xml:space="preserve">
<g>
	<path d="M54.04,0H14.908c-2.627,0-4.767,2.141-4.767,4.768V72.98c0,2.631,2.14,4.769,4.767,4.769H62.84
		c2.63,0,4.768-2.138,4.768-4.769V14.743L54.04,0z M55.165,7.135l5.947,6.463h-5.947V7.135z M63.606,72.98
		c0,0.42-0.345,0.765-0.766,0.765H14.908c-0.421,0-0.763-0.345-0.763-0.765V4.768c0-0.421,0.342-0.762,0.763-0.762h36.25v11.595
		c0,1.104,0.899,1.999,2.004,1.999h10.441v55.38H63.606z M53.25,46.423L58.7,31.306l-1.6,1.004l-1.064-1.693l5.541-3.479
		l1.451,6.912l-1.957,0.41l-0.51-2.424L53.847,50.66l-7.33-10.126L38.9,50.227l-3.722-10.021l-5.235,26.501l-6.391-13.491
		l-4.431,9.416l-1.811-0.852l6.235-13.25l5.61,11.844l5.433-27.499l4.944,13.312l7.049-8.974L53.25,46.423z"/>
</g>
<g>
</g>
<g>
</g>
<g>
</g>
<g>
</g>
<g>
</g>
<g>
</g>
<g>
</g>
<g>
</g>
<g>
</g>
<g>
</g>
<g>
</g>
<g>
</g>
<g>
</g>
<g>
</g>
<g>
</g>
</svg>
