<?xml version="1.0" encoding="iso-8859-1"?>
<!-- Generator: Adobe Illustrator 16.0.0, SVG Export Plug-In . SVG Version: 6.00 Build 0)  -->
<!DOCTYPE svg PUBLIC "-//W3C//DTD SVG 1.1//EN" "http://www.w3.org/Graphics/SVG/1.1/DTD/svg11.dtd">
<svg version="1.1" id="Capa_1" xmlns="http://www.w3.org/2000/svg" xmlns:xlink="http://www.w3.org/1999/xlink" x="0px" y="0px"
	 width="470.586px" height="470.586px" viewBox="0 0 470.586 470.586" style="enable-background:new 0 0 470.586 470.586;"
	 xml:space="preserve">
<g>
	<path d="M327.081,0H90.234c-15.9,0-28.854,12.959-28.854,28.859v412.863c0,15.924,12.953,28.863,28.854,28.863H380.35
		c15.917,0,28.855-12.939,28.855-28.863V89.234L327.081,0z M333.891,43.184l35.996,39.121h-35.996V43.184z M384.972,441.723
		c0,2.542-2.081,4.629-4.634,4.629H90.234c-2.551,0-4.62-2.087-4.62-4.629V28.859c0-2.548,2.069-4.613,4.62-4.613h219.41v70.181
		c0,6.682,5.444,12.099,12.129,12.099h63.198V441.723z M313.073,235.325v-1.507h-176.15v18.678
		c0,39.572,28.738,72.354,66.458,78.826c-43.385,0.537-75.797,2.659-75.797,5.201c0,2.092,21.941,3.895,53.88,4.775v2.896h87.077
		v-2.896c31.93-0.887,53.871-2.684,53.871-4.775c0-2.542-32.326-4.664-75.616-5.195c14.925-2.619,28.419-9.352,39.288-19.004
		c2.087,0.592,4.469,0.917,7.199,0.917c19.098,0,41.198-8.967,44.639-28.798l5-33.023l0.071-0.898
		c0-7.258-3.239-15.915-18.726-15.915c-3.203,0-6.673,0.319-10.036,0.624C313.848,235.26,313.463,235.29,313.073,235.325z
		 M324.279,246.621c6.313,0,6.68,1.223,6.709,3.463l-4.912,32.438c-2.181,12.537-17.803,17.774-29.542,18.577
		c10.332-13.482,16.539-30.298,16.539-48.604v-5.119c0.75-0.07,1.513-0.118,2.246-0.183
		C318.559,246.898,321.614,246.621,324.279,246.621z M206.206,150.736c-0.954-5.134,0.721-9.475,2.545-12.318
		c1.85-2.949,4.004-4.897,5.955-6.46c1.918-1.572,3.765-2.643,5.302-3.455c3.056-1.628,4.992-2.113,4.992-2.113
		s-1.07,1.69-2.698,4.516c-0.81,1.431-1.726,3.16-2.657,5.083c-0.854,1.945-1.726,4.155-2.096,6.301
		c-0.434,2.157-0.156,4.063,0.624,5.127c0.369,0.571,0.807,1.067,1.542,1.617c0.316,0.254,0.771,0.623,1.12,0.804l1.599,0.91
		l2.172,1.253c0.842,0.47,1.679,1.034,2.536,1.561c1.69,1.12,3.343,2.367,4.989,3.783c3.269,2.79,6.463,6.377,8.674,11.245
		c1.064,2.432,1.809,5.234,1.936,8.178c0.109,2.94-0.502,5.925-1.554,8.529c-2.205,5.222-5.908,8.727-9.522,11.112
		c-0.955,0.629-2.033,1.277-2.681,1.59c-0.473,0.26-0.594,0.34-0.715,0.346c-0.174,0.018-0.254,0.127-0.405,0.156
		c-0.532,0.236-1.017,0.68-1.531,1.419c-0.981,1.519-1.599,4.016-1.841,6.425c-0.532,4.936-0.133,9.638,0.08,12.895
		c0.283,3.333,0.44,5.233,0.44,5.233s-1.421-1.368-3.393-4.164c-0.969-1.403-2.158-3.153-3.209-5.319
		c-1.097-2.16-2.258-4.696-3.038-7.785c-0.751-3.08-1.369-6.747-0.278-11.269c0.532-2.258,1.726-4.702,3.605-6.797
		c0.485-0.497,0.958-1.052,1.507-1.478l1.368-1.105c0.795-0.594,1.132-0.928,1.563-1.345c1.856-1.812,3.207-3.783,3.617-5.405
		c0.387-1.599,0.287-2.837-0.556-4.753c-0.842-1.894-2.523-4.09-4.637-6.173c-1.017-1.058-2.22-2.034-3.39-3.056
		c-0.618-0.484-1.186-0.999-1.838-1.469l-0.934-0.709l-0.739-0.55l-0.514-0.408l-1.041-0.883l-1.439-1.33
		c-0.946-0.928-1.658-1.788-2.409-2.805C207.788,155.704,206.691,153.21,206.206,150.736z"/>
</g>
<g>
</g>
<g>
</g>
<g>
</g>
<g>
</g>
<g>
</g>
<g>
</g>
<g>
</g>
<g>
</g>
<g>
</g>
<g>
</g>
<g>
</g>
<g>
</g>
<g>
</g>
<g>
</g>
<g>
</g>
</svg>
