<?xml version="1.0" encoding="iso-8859-1"?>
<!-- Generator: Adobe Illustrator 16.0.0, SVG Export Plug-In . SVG Version: 6.00 Build 0)  -->
<!DOCTYPE svg PUBLIC "-//W3C//DTD SVG 1.1//EN" "http://www.w3.org/Graphics/SVG/1.1/DTD/svg11.dtd">
<svg version="1.1" id="Capa_1" xmlns="http://www.w3.org/2000/svg" xmlns:xlink="http://www.w3.org/1999/xlink" x="0px" y="0px"
	 width="470.586px" height="470.585px" viewBox="0 0 470.586 470.585" style="enable-background:new 0 0 470.586 470.585;"
	 xml:space="preserve">
<g>
	<path d="M381.345,61.377H28.859C12.941,61.377,0,74.325,0,90.237v290.108c0,15.9,12.941,28.863,28.859,28.863h412.864
		c15.899,0,28.862-12.963,28.862-28.863V143.499L381.345,61.377z M388.278,136.689v-35.993l39.117,35.993H388.278z M364.056,85.611
		v63.195c0,6.682,5.414,12.129,12.094,12.129h70.185v219.41c0,2.554-2.069,4.623-4.61,4.623H28.859
		c-2.548,0-4.631-2.069-4.631-4.623V90.23c0-2.542,2.083-4.625,4.631-4.625h335.196V85.611z"/>
</g>
<g>
</g>
<g>
</g>
<g>
</g>
<g>
</g>
<g>
</g>
<g>
</g>
<g>
</g>
<g>
</g>
<g>
</g>
<g>
</g>
<g>
</g>
<g>
</g>
<g>
</g>
<g>
</g>
<g>
</g>
</svg>
