<?xml version="1.0" encoding="iso-8859-1"?>
<!-- Generator: Adobe Illustrator 16.0.0, SVG Export Plug-In . SVG Version: 6.00 Build 0)  -->
<!DOCTYPE svg PUBLIC "-//W3C//DTD SVG 1.1//EN" "http://www.w3.org/Graphics/SVG/1.1/DTD/svg11.dtd">
<svg version="1.1" id="Capa_1" xmlns="http://www.w3.org/2000/svg" xmlns:xlink="http://www.w3.org/1999/xlink" x="0px" y="0px"
	 width="525.822px" height="525.822px" viewBox="0 0 525.822 525.822" style="enable-background:new 0 0 525.822 525.822;"
	 xml:space="preserve">
<g>
	<path d="M448.134,376.221c3.759,3.753,3.759,9.835,0,13.589c-1.874,1.886-4.339,2.813-6.798,2.813
		c-2.471,0-4.917-0.928-6.797-2.813l-29.459-29.454v39.36c0,41.612-24.211,77.579-59.25,94.814v-22.035
		c24.033-15.345,40.028-42.203,40.028-72.779v-39.36l-29.46,29.454c-3.747,3.753-9.835,3.753-13.583,0
		c-3.753-3.754-3.753-9.836,0-13.589l45.868-45.861c3.759-3.754,9.835-3.754,13.583,0L448.134,376.221z M121.871,200.55
		c3.756,3.753,9.836,3.753,13.586,0l45.862-45.856c3.759-3.753,3.759-9.83,0-13.583c-3.753-3.757-9.83-3.757-13.583,0
		l-29.462,29.447v-39.354c0-30.591,15.995-57.435,40.037-72.788V36.39c-35.039,17.225-59.255,53.197-59.255,94.815v39.354
		l-29.456-29.447c-1.883-1.88-4.342-2.814-6.797-2.814c-2.459,0-4.915,0.934-6.797,2.814c-3.753,3.753-3.753,9.829,0,13.583
		L121.871,200.55z M469.17,70.829v279.786c0,7.719-3.871,14.528-9.735,18.689l-15.024-15.014h1.855c2.021,0,3.677-1.654,3.677-3.664
		V84.545h-50.171c-5.308,0-9.622-4.297-9.622-9.605V19.237H215.988c-2.021,0-3.662,1.64-3.662,3.662v115.594H193.09V22.904
		C193.09,10.279,203.375,0,215.988,0H403.98L469.17,70.829z M437.961,65.314l-28.578-31.049v31.049H437.961z M267.545,152.303
		l65.187,70.829v279.792c0,12.637-10.272,22.898-22.904,22.898H79.55c-12.614,0-22.898-10.262-22.898-22.898V175.213
		c0-5.012,1.673-9.62,4.413-13.394c1.194,3.012,2.973,5.79,5.34,8.157l9.478,9.484v323.464c0,2.021,1.64,3.664,3.667,3.664h230.271
		c2.021,0,3.665-1.643,3.665-3.664V236.859h-50.167c-5.296,0-9.623-4.303-9.623-9.599v-55.708h-63.189l1.572-1.582
		c4.54-4.534,7.04-10.565,7.04-16.985c0-0.228-0.053-0.452-0.059-0.683H267.545z M272.944,217.629h28.579l-28.579-31.049V217.629z"
		/>
</g>
<g>
</g>
<g>
</g>
<g>
</g>
<g>
</g>
<g>
</g>
<g>
</g>
<g>
</g>
<g>
</g>
<g>
</g>
<g>
</g>
<g>
</g>
<g>
</g>
<g>
</g>
<g>
</g>
<g>
</g>
</svg>
