<?xml version="1.0" encoding="iso-8859-1"?>
<!-- Generator: Adobe Illustrator 16.0.0, SVG Export Plug-In . SVG Version: 6.00 Build 0)  -->
<!DOCTYPE svg PUBLIC "-//W3C//DTD SVG 1.1//EN" "http://www.w3.org/Graphics/SVG/1.1/DTD/svg11.dtd">
<svg version="1.1" id="Capa_1" xmlns="http://www.w3.org/2000/svg" xmlns:xlink="http://www.w3.org/1999/xlink" x="0px" y="0px"
	 width="471.549px" height="471.549px" viewBox="0 0 471.549 471.549" style="enable-background:new 0 0 471.549 471.549;"
	 xml:space="preserve">
<g>
	<path d="M327.749,0H90.417c-15.924,0-28.9,12.995-28.9,28.921v413.712c0,15.947,12.983,28.916,28.9,28.916h290.706
		c15.959,0,28.91-12.969,28.91-28.916V89.427L327.749,0z M334.576,43.275l36.073,39.209h-36.073V43.275z M381.134,447.268H90.422
		c-2.542,0-4.622-2.093-4.622-4.641V239.794h83.617c6.112,0,11.056-4.96,11.056-11.065c0-6.1-4.944-11.059-11.056-11.059H85.8
		V28.921c0-2.556,2.081-4.631,4.622-4.631h219.865v70.338c0,6.694,5.45,12.117,12.153,12.117h63.334v110.918h-92.853
		c-6.111,0-11.065,4.959-11.065,11.059c0,6.105,4.954,11.064,11.065,11.064h92.853v202.84
		C385.768,445.187,383.688,447.268,381.134,447.268z M275.037,228.324c0.508,0.52,0.804,1.229,0.804,1.954
		c0,0.739-0.296,1.431-0.804,1.962l-8.27,8.263c-0.538,0.544-1.247,0.804-1.956,0.804c-0.71,0-1.419-0.26-1.951-0.804
		c-1.087-1.082-1.087-2.843,0-3.919l2.01-2.004h-25.215v25.068l1.998-2.01c1.087-1.076,2.837-1.076,3.912,0
		c1.076,1.081,1.076,2.837,0,3.912l-8.269,8.264c-0.515,0.525-1.218,0.81-1.954,0.81c-0.732,0-1.43-0.296-1.95-0.815l-8.26-8.264
		c-1.079-1.081-1.079-2.831,0-3.906c1.087-1.076,2.837-1.076,3.91,0l2.001,2.021v-25.08h-28.035l2.01,2.004
		c1.079,1.088,1.079,2.837,0,3.919c-0.544,0.544-1.248,0.804-1.954,0.804c-0.709,0-1.413-0.26-1.957-0.804l-8.26-8.263
		c-0.523-0.532-0.818-1.224-0.818-1.962c0-0.724,0.295-1.434,0.818-1.954l8.26-8.254c1.084-1.091,2.834-1.067,3.91,0
		c1.079,1.082,1.079,2.831,0,3.907l-2.01,2.004h28.035v-28.191l-2.001,2.009c-0.541,0.538-1.241,0.816-1.95,0.816
		c-0.707,0-1.416-0.272-1.959-0.81c-1.079-1.084-1.079-2.834,0-3.91l8.26-8.27c1.034-1.034,2.876-1.04,3.91-0.012l8.269,8.27
		c1.076,1.081,1.076,2.837,0,3.916c-1.081,1.082-2.831,1.082-3.906,0l-2.01-2.009v28.185h25.215l-2.01-2.003
		c-1.081-1.082-1.081-2.832,0-3.91c1.088-1.064,2.838-1.088,3.913,0L275.037,228.324z"/>
</g>
<g>
</g>
<g>
</g>
<g>
</g>
<g>
</g>
<g>
</g>
<g>
</g>
<g>
</g>
<g>
</g>
<g>
</g>
<g>
</g>
<g>
</g>
<g>
</g>
<g>
</g>
<g>
</g>
<g>
</g>
</svg>
