<?xml version="1.0" encoding="iso-8859-1"?>
<!-- Generator: Adobe Illustrator 16.0.0, SVG Export Plug-In . SVG Version: 6.00 Build 0)  -->
<!DOCTYPE svg PUBLIC "-//W3C//DTD SVG 1.1//EN" "http://www.w3.org/Graphics/SVG/1.1/DTD/svg11.dtd">
<svg version="1.1" id="Capa_1" xmlns="http://www.w3.org/2000/svg" xmlns:xlink="http://www.w3.org/1999/xlink" x="0px" y="0px"
	 width="537.926px" height="537.927px" viewBox="0 0 537.926 537.927" style="enable-background:new 0 0 537.926 537.927;"
	 xml:space="preserve">
<g>
	<path d="M389.688,67.338H195.446c-1.191,8.391-3.789,16.553-7.723,24.246h184.54v70.182c0,6.682,5.438,12.099,12.123,12.099h63.204
		v335.199c0,2.548-2.087,4.629-4.634,4.629H152.841c-2.547,0-4.619-2.081-4.619-4.629V187.985l-24.234-32.072v353.15
		c0,15.918,12.953,28.863,28.853,28.863h290.116c15.917,0,28.861-12.945,28.861-28.863V156.579L389.688,67.338z M396.498,149.643
		v-39.118l36.002,39.118H396.498z M166.586,91.85c12.977-16.166,16.58-38.863,7.329-58.957C160.879,4.548,127.33-7.853,98.997,5.183
		c-28.345,13.045-40.74,46.588-27.704,74.925c9.437,20.501,29.598,32.595,50.759,32.816l67.808,89.737L166.586,91.85z
		 M151.511,21.979c-1.091,4.897-9.904,7.102-19.692,4.921c-9.792-2.172-16.843-7.909-15.761-12.8
		c1.091-4.897,9.903-7.102,19.698-4.921C145.535,11.351,152.593,17.082,151.511,21.979z"/>
</g>
<g>
</g>
<g>
</g>
<g>
</g>
<g>
</g>
<g>
</g>
<g>
</g>
<g>
</g>
<g>
</g>
<g>
</g>
<g>
</g>
<g>
</g>
<g>
</g>
<g>
</g>
<g>
</g>
<g>
</g>
</svg>
