<?xml version="1.0" encoding="iso-8859-1"?>
<!-- Generator: Adobe Illustrator 16.0.0, SVG Export Plug-In . SVG Version: 6.00 Build 0)  -->
<!DOCTYPE svg PUBLIC "-//W3C//DTD SVG 1.1//EN" "http://www.w3.org/Graphics/SVG/1.1/DTD/svg11.dtd">
<svg version="1.1" id="Capa_1" xmlns="http://www.w3.org/2000/svg" xmlns:xlink="http://www.w3.org/1999/xlink" x="0px" y="0px"
	 width="470.586px" height="470.586px" viewBox="0 0 470.586 470.586" style="enable-background:new 0 0 470.586 470.586;"
	 xml:space="preserve">
<g>
	<path d="M327.081,0H90.234c-15.9,0-28.854,12.959-28.854,28.859v412.863c0,15.924,12.953,28.863,28.854,28.863H380.35
		c15.917,0,28.855-12.939,28.855-28.863V89.234L327.081,0z M333.891,43.184l35.996,39.121h-35.996V43.184z M384.972,441.723
		c0,2.542-2.081,4.629-4.634,4.629H90.234c-2.551,0-4.62-2.087-4.62-4.629V28.859c0-2.548,2.069-4.613,4.62-4.613h219.41v70.181
		c0,6.682,5.444,12.099,12.129,12.099h63.198V441.723z M140.851,126.337h219.662v12.105H140.851v62.547h219.662v12.105H140.851
		v60.526h219.662v12.105H140.851v56.991h219.662v12.105H140.851v33.792h-12.105v-33.792h-22.177v-12.105h22.177v-56.991h-22.177
		v-12.105h22.177v-60.526h-22.177v-12.105h22.177v-62.547h-22.177v-12.105h22.177V85.984h12.105V126.337z"/>
</g>
<g>
</g>
<g>
</g>
<g>
</g>
<g>
</g>
<g>
</g>
<g>
</g>
<g>
</g>
<g>
</g>
<g>
</g>
<g>
</g>
<g>
</g>
<g>
</g>
<g>
</g>
<g>
</g>
<g>
</g>
</svg>
