<?xml version="1.0" encoding="iso-8859-1"?>
<!-- Generator: Adobe Illustrator 16.0.0, SVG Export Plug-In . SVG Version: 6.00 Build 0)  -->
<!DOCTYPE svg PUBLIC "-//W3C//DTD SVG 1.1//EN" "http://www.w3.org/Graphics/SVG/1.1/DTD/svg11.dtd">
<svg version="1.1" id="Capa_1" xmlns="http://www.w3.org/2000/svg" xmlns:xlink="http://www.w3.org/1999/xlink" x="0px" y="0px"
	 width="470.586px" height="470.586px" viewBox="0 0 470.586 470.586" style="enable-background:new 0 0 470.586 470.586;"
	 xml:space="preserve">
<g>
	<path d="M327.081,0H90.234c-15.9,0-28.854,12.959-28.854,28.859v412.863c0,15.924,12.953,28.863,28.854,28.863H380.35
		c15.917,0,28.855-12.939,28.855-28.863V89.234L327.081,0z M333.891,43.184l35.996,39.121h-35.996V43.184z M384.972,441.723
		c0,2.542-2.081,4.629-4.634,4.629H90.234c-2.551,0-4.62-2.087-4.62-4.629V28.859c0-2.548,2.069-4.613,4.62-4.613h219.41v70.181
		c0,6.682,5.444,12.099,12.129,12.099h63.198V441.723z M344.459,391.009h10.51v26.268h-26.268v-10.516h15.758V391.009z
		 M179.256,406.761h37.362v10.504h-37.362V406.761z M253.977,406.761h37.356v10.504h-37.356V406.761z M126.13,406.761h15.761v10.504
		h-26.267v-26.268h10.506V406.761z M126.13,353.635h-10.506v-37.355h10.506V353.635z M126.13,278.917h-10.506v-37.362h10.506
		V278.917z M115.624,177.917h26.267v10.506H126.13v15.761h-10.506V177.917z M216.612,188.429h-37.356v-10.506h37.356V188.429z
		 M253.977,177.917h37.356v10.506h-37.356V177.917z M354.969,177.917v26.268h-10.51v-15.761h-15.758v-10.506H354.969z
		 M344.459,316.273h10.51v37.361h-10.51V316.273z M344.459,241.555h10.51v37.356h-10.51V241.555z"/>
</g>
<g>
</g>
<g>
</g>
<g>
</g>
<g>
</g>
<g>
</g>
<g>
</g>
<g>
</g>
<g>
</g>
<g>
</g>
<g>
</g>
<g>
</g>
<g>
</g>
<g>
</g>
<g>
</g>
<g>
</g>
</svg>
