<?xml version="1.0" encoding="iso-8859-1"?>
<!-- Generator: Adobe Illustrator 16.0.0, SVG Export Plug-In . SVG Version: 6.00 Build 0)  -->
<!DOCTYPE svg PUBLIC "-//W3C//DTD SVG 1.1//EN" "http://www.w3.org/Graphics/SVG/1.1/DTD/svg11.dtd">
<svg version="1.1" id="Capa_1" xmlns="http://www.w3.org/2000/svg" xmlns:xlink="http://www.w3.org/1999/xlink" x="0px" y="0px"
	 width="466.519px" height="466.519px" viewBox="0 0 466.519 466.519" style="enable-background:new 0 0 466.519 466.519;"
	 xml:space="preserve">
<g>
	<path d="M313.743,450.678l15.692,10.77c-3.563,3.115-8.174,5.071-13.275,5.071H27.624c-11.186,0-20.289-9.103-20.289-20.292V20.289
		C7.335,9.103,16.438,0,27.624,0H316.16c11.195,0,20.292,9.103,20.292,20.289v222.543l-15.835,10.432V20.289
		c0-2.45-1.998-4.448-4.457-4.448H27.624c-2.45,0-4.442,1.998-4.442,4.448v425.938c0,2.453,1.998,4.451,4.442,4.451H313.743z
		 M51.122,76.379h241.561c5.929,0,10.758-4.823,10.758-10.758c0-5.929-4.829-10.755-10.758-10.755H51.122
		c-5.934,0-10.757,4.826-10.757,10.755C40.364,71.556,45.188,76.379,51.122,76.379z M51.122,141.063h198.661
		c5.929,0,10.752-4.826,10.752-10.755s-4.823-10.758-10.752-10.758H51.122c-5.934,0-10.757,4.823-10.757,10.758
		C40.364,136.231,45.188,141.063,51.122,141.063z M292.671,189.508H51.113c-5.931,0-10.754,4.823-10.754,10.755
		c0,5.925,4.823,10.757,10.754,10.757h241.558c5.935,0,10.758-4.826,10.758-10.757C303.44,194.331,298.605,189.508,292.671,189.508z
		 M183.777,254.187H51.122c-5.934,0-10.757,4.823-10.757,10.757c0,5.929,4.823,10.752,10.757,10.752h132.655
		c5.932,0,10.755-4.823,10.755-10.752C194.532,259.01,189.708,254.187,183.777,254.187z M51.122,341.701h132.655
		c5.154,0,9.593-3.677,10.604-9.274l-0.05-3.493c-0.96-5.071-5.399-8.748-10.554-8.748H51.122c-5.934,0-10.757,4.823-10.757,10.758
		C40.364,336.872,45.188,341.701,51.122,341.701z M183.777,386.186H51.122c-5.934,0-10.757,4.823-10.757,10.752
		c0,5.928,4.823,10.752,10.757,10.752h132.655c5.932,0,10.755-4.824,10.755-10.752C194.532,391.009,189.708,386.186,183.777,386.186
		z M360.344,244.268l-93.84,61.791c-3.931,0-7.306,1.018-9.037,3.488H218.76c-5.411,0-9.794,4.386-9.794,9.788v67.466
		c0,5.408,4.383,9.8,9.794,9.8h38.228c1.549,3.003,5.226,4.167,9.511,4.167l93.846,64.374c5.691,0,10.302-4.616,10.302-10.309
		V254.564C370.646,248.873,366.035,244.268,360.344,244.268z M425.592,354.693c0-19.742-16.064-35.808-35.807-35.808
		c-1.797,0-3.275,1.466-3.275,3.274c0,1.797,1.467,3.263,3.275,3.263c16.136,0,29.27,13.134,29.27,29.271
		c0,16.147-13.134,29.281-29.27,29.281c-1.797,0-3.275,1.466-3.275,3.263c0,1.81,1.467,3.263,3.275,3.263
		C409.527,390.5,425.592,374.441,425.592,354.693z M400.826,296.348c-1.797,0-3.263,1.46-3.263,3.263s1.466,3.263,3.263,3.263
		c28.584,0,51.831,23.247,51.831,51.832c0,28.578-23.24,51.819-51.831,51.819c-1.797,0-3.263,1.466-3.263,3.263
		c0,1.809,1.466,3.269,3.263,3.269c32.178,0,58.357-26.173,58.357-58.351C459.184,322.526,432.998,296.348,400.826,296.348z"/>
</g>
<g>
</g>
<g>
</g>
<g>
</g>
<g>
</g>
<g>
</g>
<g>
</g>
<g>
</g>
<g>
</g>
<g>
</g>
<g>
</g>
<g>
</g>
<g>
</g>
<g>
</g>
<g>
</g>
<g>
</g>
</svg>
