<?xml version="1.0" encoding="iso-8859-1"?>
<!-- Generator: Adobe Illustrator 16.0.0, SVG Export Plug-In . SVG Version: 6.00 Build 0)  -->
<!DOCTYPE svg PUBLIC "-//W3C//DTD SVG 1.1//EN" "http://www.w3.org/Graphics/SVG/1.1/DTD/svg11.dtd">
<svg version="1.1" id="Capa_1" xmlns="http://www.w3.org/2000/svg" xmlns:xlink="http://www.w3.org/1999/xlink" x="0px" y="0px"
	 width="470.586px" height="470.585px" viewBox="0 0 470.586 470.585" style="enable-background:new 0 0 470.586 470.585;"
	 xml:space="preserve">
<g>
	<path d="M381.345,61.377H28.859C12.941,61.377,0,74.325,0,90.237v290.108c0,15.9,12.941,28.863,28.859,28.863h412.864
		c15.899,0,28.862-12.963,28.862-28.863V143.499L381.345,61.377z M388.278,100.696l39.117,35.993h-39.117V100.696z M446.334,380.345
		c0,2.554-2.069,4.623-4.61,4.623H28.859c-2.548,0-4.631-2.069-4.631-4.623V90.23c0-2.542,2.083-4.625,4.631-4.625h335.196V148.8
		c0,6.682,5.42,12.129,12.105,12.129h70.179v219.416H446.334z M80.729,224.972l-25.287-99.673h18.374l11.683,49.795
		c1.652,6.954,3.233,14.006,4.596,20.517c1.549-6.683,3.425-13.775,5.27-20.724l13.122-49.582h16.863l11.972,49.928
		c1.549,6.52,3.094,13.243,4.395,19.742c1.338-5.786,2.813-11.718,4.344-17.83l0.559-2.216l12.989-49.618h17.995l-28.25,99.673
		h-16.819l-12.395-51.175c-1.531-6.286-2.87-12.049-3.978-17.691c-1.288,5.618-2.79,11.367-4.643,17.795l-13.961,51.071H80.729
		V224.972z M186.366,156.1c0-5.012,4.061-9.079,9.079-9.079h143.247c5.019,0,9.079,4.067,9.079,9.079
		c0,5.013-4.061,9.079-9.079,9.079H195.445C190.427,165.179,186.366,161.113,186.366,156.1z M192.419,208.05h212.345
		c5.018,0,9.078,4.067,9.078,9.079s-4.061,9.079-9.078,9.079H192.419c-5.018,0-9.079-4.066-9.079-9.079
		S187.401,208.05,192.419,208.05z M413.842,271.599c0,5.013-4.061,9.079-9.078,9.079H61.277c-5.018,0-9.079-4.066-9.079-9.079
		c0-5.012,4.061-9.078,9.079-9.078h343.487C409.781,262.521,413.842,266.587,413.842,271.599z M413.842,324.56
		c0,5.012-4.061,9.079-9.078,9.079H61.277c-5.018,0-9.079-4.067-9.079-9.079c0-5.013,4.061-9.079,9.079-9.079h343.487
		C409.781,315.481,413.842,319.547,413.842,324.56z"/>
</g>
<g>
</g>
<g>
</g>
<g>
</g>
<g>
</g>
<g>
</g>
<g>
</g>
<g>
</g>
<g>
</g>
<g>
</g>
<g>
</g>
<g>
</g>
<g>
</g>
<g>
</g>
<g>
</g>
<g>
</g>
</svg>
