<?xml version="1.0" encoding="iso-8859-1"?>
<!-- Generator: Adobe Illustrator 16.0.0, SVG Export Plug-In . SVG Version: 6.00 Build 0)  -->
<!DOCTYPE svg PUBLIC "-//W3C//DTD SVG 1.1//EN" "http://www.w3.org/Graphics/SVG/1.1/DTD/svg11.dtd">
<svg version="1.1" id="Capa_1" xmlns="http://www.w3.org/2000/svg" xmlns:xlink="http://www.w3.org/1999/xlink" x="0px" y="0px"
	 width="511.571px" height="511.571px" viewBox="0 0 511.571 511.571" style="enable-background:new 0 0 511.571 511.571;"
	 xml:space="preserve">
<g>
	<path d="M347.574,40.988H247.056c-8.899-23.551-31.413-40.444-57.932-40.929c-0.198,0-0.375-0.06-0.573-0.06
		c-0.115,0-0.201,0.018-0.292,0.018c-0.112,0-0.198-0.018-0.29-0.018c-0.198,0-0.381,0.06-0.585,0.06
		c-26.495,0.484-48.79,17.425-57.689,40.929h-18.968c-15.903,0-28.853,12.957-28.853,28.859v412.867
		c0,15.918,12.95,28.856,28.853,28.856h290.116c15.917,0,28.855-12.938,28.855-28.856V130.221L347.574,40.988z M354.383,84.167
		l35.996,39.117h-35.996V84.167z M188.258,27.769c11.012,0.095,20.835,5.234,27.287,13.219h-54.347
		C167.597,33.03,177.273,27.864,188.258,27.769z M405.464,482.709c0,2.547-2.081,4.628-4.635,4.628H110.727
		c-2.55,0-4.619-2.081-4.619-4.628V69.839c0-2.547,2.069-4.61,4.619-4.61h112.686v115.225c0,19.55-15.9,35.468-35.444,35.468
		c-19.562,0-35.461-15.918-35.461-35.468v-64.826c0-0.036-0.023-0.048-0.023-0.089c0-0.035,0.023-0.056,0.023-0.098
		c0-6.266,5.095-11.36,11.361-11.36c6.271,0,11.36,5.095,11.36,11.36v54.007c0,7.663,6.215,13.873,13.884,13.873
		c7.657,0,13.873-6.209,13.873-13.873V115.44c0-21.565-17.54-39.117-39.117-39.117c-21.578,0-39.112,17.546-39.112,39.117v65.004
		c0,34.864,28.339,63.233,63.212,63.233c34.853,0,63.195-28.369,63.195-63.219V65.234h78.974v70.179
		c0,6.682,5.443,12.099,12.129,12.099h63.198V482.709z"/>
</g>
<g>
</g>
<g>
</g>
<g>
</g>
<g>
</g>
<g>
</g>
<g>
</g>
<g>
</g>
<g>
</g>
<g>
</g>
<g>
</g>
<g>
</g>
<g>
</g>
<g>
</g>
<g>
</g>
<g>
</g>
</svg>
