<?xml version="1.0" encoding="iso-8859-1"?>
<!-- Generator: Adobe Illustrator 16.0.0, SVG Export Plug-In . SVG Version: 6.00 Build 0)  -->
<!DOCTYPE svg PUBLIC "-//W3C//DTD SVG 1.1//EN" "http://www.w3.org/Graphics/SVG/1.1/DTD/svg11.dtd">
<svg version="1.1" id="Capa_1" xmlns="http://www.w3.org/2000/svg" xmlns:xlink="http://www.w3.org/1999/xlink" x="0px" y="0px"
	 width="471.549px" height="471.549px" viewBox="0 0 471.549 471.549" style="enable-background:new 0 0 471.549 471.549;"
	 xml:space="preserve">
<g>
	<path d="M327.743,0H90.417C74.487,0,61.51,12.995,61.51,28.921v413.712c0,15.947,12.983,28.916,28.906,28.916h290.712
		c15.947,0,28.91-12.969,28.91-28.916V89.427L327.743,0z M334.57,43.275l36.079,39.209H334.57V43.275z M381.128,447.268H246.836
		V316.592c0-6.105-4.953-11.053-11.065-11.053c-6.105,0-11.059,4.947-11.059,11.053v130.676H90.417
		c-2.547,0-4.628-2.093-4.628-4.641V239.794h83.623c6.112,0,11.062-4.96,11.062-11.065c0-6.1-4.95-11.059-11.062-11.059H85.789
		V28.921c0-2.556,2.081-4.631,4.628-4.631h134.296v132.073c0,6.108,4.953,11.059,11.059,11.059c6.112,0,11.065-4.95,11.065-11.059
		V24.296h63.446v70.338c0,6.694,5.449,12.117,12.152,12.117h63.328V217.67h-85.476c-6.106,0-11.06,4.959-11.06,11.059
		c0,6.105,4.953,11.065,11.06,11.065h85.476v202.839C385.763,445.187,383.682,447.268,381.128,447.268z M276.869,228.324
		c0.515,0.52,0.804,1.229,0.804,1.954c0,0.739-0.289,1.431-0.804,1.962l-8.269,8.263c-0.538,0.544-1.248,0.804-1.951,0.804
		c-0.709,0-1.418-0.26-1.962-0.804c-1.076-1.082-1.076-2.843,0-3.919l2.01-2.004h-25.213v25.068l2.007-2.01
		c1.082-1.076,2.831-1.076,3.913,0c1.087,1.081,1.087,2.837,0,3.912l-8.267,8.264c-0.52,0.525-1.223,0.81-1.956,0.81
		s-1.434-0.296-1.954-0.815l-8.263-8.264c-1.076-1.081-1.076-2.831,0-3.906c1.084-1.076,2.834-1.076,3.91,0l2.009,2.021v-25.08
		h-28.041l2.016,2.004c1.076,1.088,1.076,2.837,0,3.919c-0.541,0.544-1.247,0.804-1.957,0.804c-0.707,0-1.416-0.26-1.954-0.804
		l-8.269-8.263c-0.514-0.532-0.81-1.224-0.81-1.962c0-0.724,0.29-1.434,0.81-1.954l8.269-8.254c1.082-1.091,2.831-1.067,3.91,0
		c1.076,1.082,1.076,2.831,0,3.907l-2.01,2.004h28.035v-28.191l-2.009,2.009c-0.538,0.538-1.248,0.816-1.954,0.816
		c-0.709,0-1.418-0.272-1.956-0.81c-1.076-1.084-1.076-2.834,0-3.91l8.263-8.27c1.034-1.034,2.873-1.04,3.91-0.012l8.267,8.27
		c1.087,1.081,1.087,2.837,0,3.916c-1.082,1.076-2.831,1.082-3.913,0l-2.007-2.009v28.185h25.213l-1.998-2.003
		c-1.088-1.082-1.088-2.832,0-3.91c1.075-1.064,2.825-1.088,3.907,0L276.869,228.324z"/>
</g>
<g>
</g>
<g>
</g>
<g>
</g>
<g>
</g>
<g>
</g>
<g>
</g>
<g>
</g>
<g>
</g>
<g>
</g>
<g>
</g>
<g>
</g>
<g>
</g>
<g>
</g>
<g>
</g>
<g>
</g>
</svg>
