<?xml version="1.0" encoding="iso-8859-1"?>
<!-- Generator: Adobe Illustrator 16.0.0, SVG Export Plug-In . SVG Version: 6.00 Build 0)  -->
<!DOCTYPE svg PUBLIC "-//W3C//DTD SVG 1.1//EN" "http://www.w3.org/Graphics/SVG/1.1/DTD/svg11.dtd">
<svg version="1.1" id="Capa_1" xmlns="http://www.w3.org/2000/svg" xmlns:xlink="http://www.w3.org/1999/xlink" x="0px" y="0px"
	 width="470.586px" height="470.586px" viewBox="0 0 470.586 470.586" style="enable-background:new 0 0 470.586 470.586;"
	 xml:space="preserve">
<g>
	<path d="M327.081,0H90.234c-15.9,0-28.854,12.959-28.854,28.859v412.863c0,15.924,12.953,28.863,28.854,28.863H380.35
		c15.917,0,28.855-12.939,28.855-28.863V89.234L327.081,0z M333.891,43.184l35.996,39.121h-35.996V43.184z M384.972,441.723
		c0,2.542-2.081,4.629-4.634,4.629H90.234c-2.551,0-4.62-2.087-4.62-4.629V28.859c0-2.548,2.069-4.613,4.62-4.613h219.41v70.181
		c0,6.682,5.444,12.099,12.129,12.099h63.198V441.723z M294.886,148.942h-28.827l-8.429,56.356h-29.462l8.092-56.356h-28.83
		l-8.086,56.356h-32.072v30.124h27.533l-5.181,36.271h-31.413v29.79h26.238l-8.42,57.973h29.137l8.098-57.973h29.471l-8.091,57.973
		h29.134l8.109-57.973h31.741v-29.79h-26.877l5.185-36.271h30.434v-30.124h-25.906L294.886,148.942z M247.912,271.694h-29.468
		l5.184-36.271h29.468L247.912,271.694z"/>
</g>
<g>
</g>
<g>
</g>
<g>
</g>
<g>
</g>
<g>
</g>
<g>
</g>
<g>
</g>
<g>
</g>
<g>
</g>
<g>
</g>
<g>
</g>
<g>
</g>
<g>
</g>
<g>
</g>
<g>
</g>
</svg>
