<?xml version="1.0" encoding="iso-8859-1"?>
<!-- Generator: Adobe Illustrator 16.0.0, SVG Export Plug-In . SVG Version: 6.00 Build 0)  -->
<!DOCTYPE svg PUBLIC "-//W3C//DTD SVG 1.1//EN" "http://www.w3.org/Graphics/SVG/1.1/DTD/svg11.dtd">
<svg version="1.1" id="Capa_1" xmlns="http://www.w3.org/2000/svg" xmlns:xlink="http://www.w3.org/1999/xlink" x="0px" y="0px"
	 width="470.586px" height="470.586px" viewBox="0 0 470.586 470.586" style="enable-background:new 0 0 470.586 470.586;"
	 xml:space="preserve">
<g>
	<path d="M327.081,0H90.234c-15.9,0-28.854,12.959-28.854,28.859v412.863c0,15.924,12.953,28.863,28.854,28.863H380.35
		c15.917,0,28.855-12.939,28.855-28.863V89.234L327.081,0z M333.891,43.184l35.996,39.121h-35.996V43.184z M384.972,441.723
		c0,2.542-2.081,4.629-4.634,4.629H90.234c-2.551,0-4.62-2.087-4.62-4.629V28.859c0-2.548,2.069-4.613,4.62-4.613h219.41v70.181
		c0,6.682,5.444,12.099,12.129,12.099h63.198V441.723z M325.297,260.801l20.599,16.313h20.155c3.352,0,6.053,2.701,6.053,6.053
		c0,3.346-2.701,6.053-6.053,6.053h-22.266c-1.359,0-2.684-0.461-3.753-1.307l-17.916-14.186l-12.873,13.595
		c-1.336,1.412-3.287,2.104-5.196,1.844c-1.921-0.26-3.611-1.418-4.527-3.133l-10.243-19.009l-14.694,45.809
		c-0.863,2.672-3.511,4.397-6.254,4.179c-2.802-0.225-5.071-2.347-5.497-5.125L242.638,178.88l-25.056,219.955
		c-0.34,2.973-2.811,5.261-5.798,5.36c-0.074,0.006-0.148,0.006-0.213,0.006c-2.905,0-5.423-2.08-5.949-4.953l-22.553-121.986
		l-8.467,56.867c-0.426,2.832-2.778,4.983-5.642,5.148c-2.881,0.201-5.441-1.689-6.191-4.456l-15.586-57.689l-11.154,25.187
		c-0.969,2.181-3.142,3.6-5.533,3.6h-25.96c-3.346,0-6.053-2.708-6.053-6.053c0-3.346,2.707-6.053,6.053-6.053h22.026l16.474-37.203
		c1.043-2.346,3.493-3.807,5.993-3.582c2.56,0.189,4.708,1.975,5.388,4.451l12.487,46.217l9.542-64.079
		c0.438-2.926,2.926-5.106,5.884-5.163c3.112,0.109,5.521,2.048,6.059,4.956l21.767,117.749l25.62-224.914
		c0.346-3.014,2.87-5.308,5.902-5.37c2.914,0.23,5.645,2.143,6.094,5.145l23.171,152.572l11.165-34.803
		c0.739-2.317,2.79-3.955,5.207-4.18c2.471-0.23,4.729,1.023,5.882,3.15l13.021,24.164l10.929-11.538
		C319.303,259.104,322.826,258.867,325.297,260.801z"/>
</g>
<g>
</g>
<g>
</g>
<g>
</g>
<g>
</g>
<g>
</g>
<g>
</g>
<g>
</g>
<g>
</g>
<g>
</g>
<g>
</g>
<g>
</g>
<g>
</g>
<g>
</g>
<g>
</g>
<g>
</g>
</svg>
