<?xml version="1.0" encoding="iso-8859-1"?>
<!-- Generator: Adobe Illustrator 16.0.0, SVG Export Plug-In . SVG Version: 6.00 Build 0)  -->
<!DOCTYPE svg PUBLIC "-//W3C//DTD SVG 1.1//EN" "http://www.w3.org/Graphics/SVG/1.1/DTD/svg11.dtd">
<svg version="1.1" id="Capa_1" xmlns="http://www.w3.org/2000/svg" xmlns:xlink="http://www.w3.org/1999/xlink" x="0px" y="0px"
	 width="470.586px" height="470.586px" viewBox="0 0 470.586 470.586" style="enable-background:new 0 0 470.586 470.586;"
	 xml:space="preserve">
<g>
	<path d="M327.081,0H90.234C74.331,0,61.381,12.959,61.381,28.859v412.863c0,15.924,12.95,28.863,28.853,28.863H380.35
		c15.917,0,28.855-12.939,28.855-28.863V89.234L327.081,0z M333.891,43.184l35.996,39.121h-35.996V43.184z M384.972,441.723
		c0,2.542-2.081,4.629-4.635,4.629H90.234c-2.55,0-4.619-2.087-4.619-4.629V28.859c0-2.548,2.069-4.613,4.619-4.613h219.411v70.181
		c0,6.682,5.443,12.099,12.129,12.099h63.198V441.723z M123.408,224.015l84.027-58.504v27.81l-63.546,41.715v0.508l63.546,41.718
		v27.822l-84.027-58.511V224.015z M263.168,165.51l84.016,57.709v24.134l-84.016,57.713V277.25l64.941-41.718v-0.509l-64.941-41.715
		V165.51z"/>
</g>
<g>
</g>
<g>
</g>
<g>
</g>
<g>
</g>
<g>
</g>
<g>
</g>
<g>
</g>
<g>
</g>
<g>
</g>
<g>
</g>
<g>
</g>
<g>
</g>
<g>
</g>
<g>
</g>
<g>
</g>
</svg>
