<?xml version="1.0" encoding="iso-8859-1"?>
<!-- Generator: Adobe Illustrator 16.0.0, SVG Export Plug-In . SVG Version: 6.00 Build 0)  -->
<!DOCTYPE svg PUBLIC "-//W3C//DTD SVG 1.1//EN" "http://www.w3.org/Graphics/SVG/1.1/DTD/svg11.dtd">
<svg version="1.1" id="Capa_1" xmlns="http://www.w3.org/2000/svg" xmlns:xlink="http://www.w3.org/1999/xlink" x="0px" y="0px"
	 width="457.877px" height="457.877px" viewBox="0 0 457.877 457.877" style="enable-background:new 0 0 457.877 457.877;"
	 xml:space="preserve">
<g>
	<path d="M249.671,432.145v6.053c0,10.03-8.128,18.157-18.158,18.157h-60.526C76.707,456.355,0,379.651,0,285.369
		c0-94.28,76.707-170.987,170.986-170.987h111.666l-76.911-76.905c-8.254-8.254-8.254-21.698,0-29.953
		c7.995-8.003,21.958-8.003,29.956,0l113.067,113.07c4.002,3.999,6.206,9.321,6.206,14.978c0,5.66-2.204,10.982-6.206,14.981
		L235.703,263.617c-7.997,8.003-21.946,8.015-29.961,0c-8.254-8.257-8.254-21.698,0-29.956l76.911-76.911H170.986
		c-70.917,0-128.618,57.701-128.618,128.618c0,70.923,57.701,128.618,128.618,128.618h60.526
		C241.543,413.987,249.671,422.125,249.671,432.145z M451.665,120.594L338.598,7.524c-7.997-8.003-21.958-8.003-29.955,0
		c-8.258,8.255-8.258,21.699,0,29.953l76.904,76.905l20.582,20.392l-20.582,21.977l-76.904,76.905
		c-8.258,8.257-8.258,21.699,0,29.956c8.015,8.015,21.964,8.003,29.962,0l113.066-113.07c4.002-4.001,6.206-9.321,6.206-14.981
		C457.877,129.901,455.667,124.587,451.665,120.594z"/>
</g>
<g>
</g>
<g>
</g>
<g>
</g>
<g>
</g>
<g>
</g>
<g>
</g>
<g>
</g>
<g>
</g>
<g>
</g>
<g>
</g>
<g>
</g>
<g>
</g>
<g>
</g>
<g>
</g>
<g>
</g>
</svg>
