<?xml version="1.0" encoding="utf-8"?>
<svg version="1.1" x="0px" y="0px" width="100px" height="100px" viewBox="0 0 100 100" style="enable-background:new 0 0 528.807 528.807;" id="Capa_1" xmlns="http://www.w3.org/2000/svg">
  <g style="">
    <path d="M 97.875 24.522 L 89.836 32.561 L 67.439 10.166 L 75.48 2.125 C 78.014 -0.408 81.82 -0.721 83.97 1.426 L 98.574 16.033 C 100.721 18.179 100.408 21.988 97.875 24.522 Z M 63.706 13.896 L 86.104 36.294 L 32.696 89.701 C 32.451 89.946 31.771 90.626 30.817 90.869 C 30.707 90.923 30.594 90.968 30.482 91.003 L 2.609 99.886 C 1.829 100.133 1.045 99.973 0.536 99.464 C 0.026 98.955 -0.131 98.171 0.113 97.391 L 8.996 69.52 C 9.033 69.406 9.079 69.295 9.13 69.187 C 9.374 68.231 10.052 67.553 10.3 67.306 L 63.706 13.896 Z M 25.807 87.98 L 12.019 74.194 L 8.321 85.804 L 14.197 91.682 L 25.807 87.98 Z M 62.846 22.798 C 62.053 22.005 60.767 22.005 59.976 22.798 L 18.34 64.431 C 17.548 65.224 17.548 66.511 18.34 67.304 C 19.132 68.096 20.419 68.096 21.211 67.304 L 62.846 25.67 C 63.639 24.876 63.639 23.591 62.846 22.798 Z" style=""/>
  </g>
</svg>