<?xml version="1.0" encoding="iso-8859-1"?>
<!-- Generator: Adobe Illustrator 16.0.0, SVG Export Plug-In . SVG Version: 6.00 Build 0)  -->
<!DOCTYPE svg PUBLIC "-//W3C//DTD SVG 1.1//EN" "http://www.w3.org/Graphics/SVG/1.1/DTD/svg11.dtd">
<svg version="1.1" id="Capa_1" xmlns="http://www.w3.org/2000/svg" xmlns:xlink="http://www.w3.org/1999/xlink" x="0px" y="0px"
	 width="468.062px" height="468.062px" viewBox="0 0 468.062 468.062" style="enable-background:new 0 0 468.062 468.062;"
	 xml:space="preserve">
<g>
	<path d="M431.379,0.225h-394.7C16.458,0.225,0,16.668,0,36.897v394.269c0,20.215,16.458,36.671,36.679,36.671h394.7
		c20.228,0,36.683-16.456,36.683-36.671V36.897C468.062,16.668,451.606,0.225,431.379,0.225z M406.519,41.969
		c8.689,0,15.723,7.04,15.723,15.726c0,8.677-7.033,15.716-15.723,15.716c-8.688,0-15.723-7.039-15.723-15.716
		C390.796,49.009,397.83,41.969,406.519,41.969z M350.189,41.969c8.688,0,15.723,7.04,15.723,15.726
		c0,8.677-7.034,15.716-15.723,15.716c-8.684,0-15.711-7.039-15.711-15.716C334.479,49.009,341.506,41.969,350.189,41.969z
		 M426.148,425.924H41.913V112.429h384.229v313.495H426.148z M132.649,405.018H61.531v-36.316h71.118V405.018z M132.649,350.041
		H61.531v-36.315h71.118V350.041z M132.649,294.557H61.531v-36.315h71.118V294.557z M407.789,405.018h-71.118v-36.316h71.118
		V405.018z M407.789,350.041h-71.118v-36.315h71.118V350.041z M407.789,294.557h-71.118v-36.315h71.118V294.557z M221.925,405.271
		h-71.118v-36.316h71.118V405.271z M221.925,350.295h-71.118v-36.315h71.118V350.295z M221.925,294.811h-71.118v-36.315h71.118
		V294.811z M221.925,240.083h-71.118v-36.315h71.118V240.083z M314.73,405.271h-71.118v-36.316h71.118V405.271z M314.73,350.295
		h-71.118v-36.315h71.118V350.295z M314.73,294.811h-71.118v-36.315h71.118V294.811z M314.73,240.083h-71.118v-36.315h71.118
		V240.083z M314.73,189.139h-71.118v-36.316h71.118V189.139z"/>
</g>
<g>
</g>
<g>
</g>
<g>
</g>
<g>
</g>
<g>
</g>
<g>
</g>
<g>
</g>
<g>
</g>
<g>
</g>
<g>
</g>
<g>
</g>
<g>
</g>
<g>
</g>
<g>
</g>
<g>
</g>
</svg>
