<?xml version="1.0" encoding="iso-8859-1"?>
<!-- Generator: Adobe Illustrator 16.0.0, SVG Export Plug-In . SVG Version: 6.00 Build 0)  -->
<!DOCTYPE svg PUBLIC "-//W3C//DTD SVG 1.1//EN" "http://www.w3.org/Graphics/SVG/1.1/DTD/svg11.dtd">
<svg version="1.1" id="Capa_1" xmlns="http://www.w3.org/2000/svg" xmlns:xlink="http://www.w3.org/1999/xlink" x="0px" y="0px"
	 width="393.213px" height="393.213px" viewBox="0 0 393.213 393.213" style="enable-background:new 0 0 393.213 393.213;"
	 xml:space="preserve">
<g>
	<path d="M393.213,45.568v96.842h-59.704L118.708,357.199H0v-96.842h78.598l214.8-214.789H393.213z M182.152,36.038L99.274,46.869
		c-1.214,0.154-2.16,1.103-2.329,2.309c-0.171,1.203,0.485,2.373,1.596,2.863l33.278,14.429L76.6,121.681
		c-1.052,1.064-1.052,2.772,0,3.83l19.116,19.116c1.052,1.058,2.766,1.052,3.83,0l55.218-55.218l14.425,33.271
		c0.482,1.111,1.652,1.773,2.861,1.602c0.606-0.088,1.138-0.366,1.54-0.768c0.399-0.405,0.683-0.949,0.768-1.56l10.826-82.878
		c0.109-0.837-0.163-1.664-0.769-2.264C183.825,36.217,182.982,35.928,182.152,36.038z"/>
</g>
<g>
</g>
<g>
</g>
<g>
</g>
<g>
</g>
<g>
</g>
<g>
</g>
<g>
</g>
<g>
</g>
<g>
</g>
<g>
</g>
<g>
</g>
<g>
</g>
<g>
</g>
<g>
</g>
<g>
</g>
</svg>
