<?xml version="1.0" encoding="iso-8859-1"?>
<!-- Generator: Adobe Illustrator 16.0.0, SVG Export Plug-In . SVG Version: 6.00 Build 0)  -->
<!DOCTYPE svg PUBLIC "-//W3C//DTD SVG 1.1//EN" "http://www.w3.org/Graphics/SVG/1.1/DTD/svg11.dtd">
<svg version="1.1" id="Capa_1" xmlns="http://www.w3.org/2000/svg" xmlns:xlink="http://www.w3.org/1999/xlink" x="0px" y="0px"
	 width="393.214px" height="393.214px" viewBox="0 0 393.214 393.214" style="enable-background:new 0 0 393.214 393.214;"
	 xml:space="preserve">
<g>
	<path d="M393.214,40.787v96.842h-59.705l-214.8,214.797H0v-96.843h78.599l214.8-214.797H393.214z M141.25,41.582
		c-1.052-1.055-2.767-1.055-3.818,0L82.213,96.798L67.776,63.535c-0.485-1.114-1.652-1.773-2.849-1.611
		c-0.605,0.097-1.138,0.37-1.537,0.768c-0.414,0.411-0.686,0.958-0.771,1.561l-10.841,82.881c-0.106,0.839,0.178,1.664,0.771,2.27
		c0.591,0.58,1.428,0.878,2.27,0.769l82.878-10.84c1.203-0.154,2.148-1.102,2.317-2.305c0.177-1.206-0.485-2.367-1.596-2.864
		l-33.278-14.425l55.219-55.218c1.052-1.064,1.064-2.766,0-3.83L141.25,41.582z"/>
</g>
<g>
</g>
<g>
</g>
<g>
</g>
<g>
</g>
<g>
</g>
<g>
</g>
<g>
</g>
<g>
</g>
<g>
</g>
<g>
</g>
<g>
</g>
<g>
</g>
<g>
</g>
<g>
</g>
<g>
</g>
</svg>
