<?xml version="1.0" encoding="iso-8859-1"?>
<!-- Generator: Adobe Illustrator 16.0.0, SVG Export Plug-In . SVG Version: 6.00 Build 0)  -->
<!DOCTYPE svg PUBLIC "-//W3C//DTD SVG 1.1//EN" "http://www.w3.org/Graphics/SVG/1.1/DTD/svg11.dtd">
<svg version="1.1" id="Capa_1" xmlns="http://www.w3.org/2000/svg" xmlns:xlink="http://www.w3.org/1999/xlink" x="0px" y="0px"
	 width="477.141px" height="477.141px" viewBox="0 0 477.141 477.141" style="enable-background:new 0 0 477.141 477.141;"
	 xml:space="preserve">
<g>
	<path d="M326.711,341.99h-64.628v-64.634c0-0.686-0.142-1.323-0.213-1.997c65.409-11.119,115.378-68.161,115.378-136.681
		C377.249,62.208,315.044,0,238.571,0C162.103,0,99.892,62.208,99.892,138.678c0,68.521,49.973,125.562,115.375,136.681
		c-0.059,0.674-0.204,1.312-0.204,1.997v64.634h-64.631c-12.983,0-23.501,10.527-23.501,23.502c0,12.98,10.518,23.507,23.501,23.507
		h64.637v64.64c0,12.98,10.524,23.502,23.501,23.502c12.979,0,23.513-10.527,23.513-23.502v-64.64h64.628
		c12.986,0,23.508-10.526,23.508-23.507C350.219,352.518,339.698,341.99,326.711,341.99z M146.904,138.678
		c0-50.546,41.121-91.673,91.667-91.673c50.549,0,91.676,41.122,91.676,91.673s-41.127,91.667-91.676,91.667
		C188.031,230.346,146.904,189.224,146.904,138.678z"/>
</g>
<g>
</g>
<g>
</g>
<g>
</g>
<g>
</g>
<g>
</g>
<g>
</g>
<g>
</g>
<g>
</g>
<g>
</g>
<g>
</g>
<g>
</g>
<g>
</g>
<g>
</g>
<g>
</g>
<g>
</g>
</svg>
