<?xml version="1.0" encoding="iso-8859-1"?>
<!-- Generator: Adobe Illustrator 16.0.0, SVG Export Plug-In . SVG Version: 6.00 Build 0)  -->
<!DOCTYPE svg PUBLIC "-//W3C//DTD SVG 1.1//EN" "http://www.w3.org/Graphics/SVG/1.1/DTD/svg11.dtd">
<svg version="1.1" id="Capa_1" xmlns="http://www.w3.org/2000/svg" xmlns:xlink="http://www.w3.org/1999/xlink" x="0px" y="0px"
	 width="481.443px" height="481.444px" viewBox="0 0 481.443 481.444" style="enable-background:new 0 0 481.443 481.444;"
	 xml:space="preserve">
<g>
	<path d="M471.384,147.226l-0.485-6.898c0-63.431-54.639-114.831-121.998-114.831h-6.407H141.134H127.8
		c-67.383,0-122.028,51.4-122.028,114.831v17.812C2.092,169.285,0,181.154,0,193.519c0,62.087,50.327,112.423,112.438,112.423
		c62.107,0,112.452-50.336,112.452-112.423c0-40.687-21.681-76.205-54.042-95.952c41.491-7.61,88.859-9.576,139.852-0.08
		c-32.444,19.757-54.148,55.31-54.148,96.032c0,62.087,50.324,112.423,112.446,112.423c62.099,0,112.446-50.336,112.446-112.423
		C481.438,177.001,477.779,161.368,471.384,147.226z M186.887,193.519c0,41.041-33.411,74.41-74.449,74.41
		c-41.018,0-74.434-33.369-74.434-74.41c0-41.056,33.417-74.417,74.434-74.417C153.482,119.096,186.887,152.463,186.887,193.519z
		 M368.997,267.929c-41.032,0-74.44-33.369-74.44-74.41c0-41.056,33.408-74.417,74.44-74.417c41.033,0,74.435,33.366,74.435,74.417
		C443.432,234.56,410.03,267.929,368.997,267.929z M349.634,13.725c0,0,44.686-42.055,90.175,37.409
		C439.809,51.134,409.326,13.057,349.634,13.725z M28.209,49.763c45.469-79.467,90.175-37.418,90.175-37.418
		C58.685,11.68,28.209,49.763,28.209,49.763z M149.167,196.545c0,20.735-16.804,37.542-37.539,37.542
		c-20.729,0-37.54-16.807-37.54-37.542c0-2.164,0.225-4.273,0.577-6.339c5.754,0.304,13.636-2.746,20.826-8.671
		c8.795-7.252,13.619-16.349,12.451-22.34c1.209-0.124,2.432-0.188,3.68-0.188C132.357,159.012,149.167,175.813,149.167,196.545z
		 M408.931,185.971c0.36,2.062,0.579,4.176,0.579,6.336c0,20.735-16.805,37.545-37.533,37.545c-20.735,0-37.54-16.81-37.54-37.545
		c0-20.729,16.805-37.539,37.54-37.539c1.241,0,2.471,0.068,3.676,0.189c-1.164,5.985,3.653,15.09,12.454,22.334
		C395.3,183.228,403.173,186.272,408.931,185.971z M158.94,344.35h-21.808v-21.527h-26.838v21.811H88.487v21.812h-21.66v21.656
		v5.178v16.633v5.178v16.492v5.313v16.491v5.172v21.656h26.838v-21.656v-5.172v-16.497h21.805v-0.148h16.488h5.175h16.639v16.64
		v5.172v21.662h26.977v-21.662v-5.172v-16.64v-5.166v-16.497v-5.308v-16.497v-5.172v-21.805H158.94V344.35z M153.771,388.101v5.178
		v16.491h-21.813v0.142H115.47h-5.175h-16.63v-16.633v-5.178v-16.49h21.66v-21.812h16.633v21.527h21.813V388.101z M281.885,322.823
		h-21.806h-5.172h-16.49h-5.175h-16.63h-5.178h-21.66v21.811v5.313v16.498v5.166v16.49v5.32v16.49v5.178v16.634v5.172v16.491v5.172
		v21.656h21.66h5.178h16.63h5.175h16.49h5.172h21.806v-21.656h21.811v-21.811v-5.166V409.77h-21.811v-16.491h21.811v-21.668v-5.314
		v-21.663h-21.811V322.823z M276.719,431.575v5.166v16.64h-16.64h-5.172h-16.49h-5.175h-16.63v-16.491v-5.179v-16.633h16.63h5.175
		h16.49h5.172h16.64V431.575z M276.719,366.296v5.314v16.49h-16.64h-5.172h-16.49h-5.175h-16.63v-16.49v-5.166v-16.498v-0.147h16.63
		h5.175h16.49h5.172h16.64V366.296z M404.834,344.633h21.805v26.978h-26.977v-21.812h-16.633h-5.178H361.36h-5.172h-16.627v16.646
		v5.166v16.49v5.178v16.633v5.178v16.492h0.136v21.805h16.491h5.172h16.491h5.319h16.491v-21.805h26.977v26.977h-21.805v21.656
		h-21.663h-5.319H361.36h-5.172H334.39v-21.656h-21.663v-21.811v-5.166v-16.492v-5.178v-16.633v-5.178v-16.49v-5.166v-21.812h21.663
		v-21.811h21.805h5.178h16.485h5.172h21.811v21.811H404.834z"/>
</g>
<g>
</g>
<g>
</g>
<g>
</g>
<g>
</g>
<g>
</g>
<g>
</g>
<g>
</g>
<g>
</g>
<g>
</g>
<g>
</g>
<g>
</g>
<g>
</g>
<g>
</g>
<g>
</g>
<g>
</g>
</svg>
