<?xml version="1.0" encoding="iso-8859-1"?>
<!-- Generator: Adobe Illustrator 16.0.0, SVG Export Plug-In . SVG Version: 6.00 Build 0)  -->
<!DOCTYPE svg PUBLIC "-//W3C//DTD SVG 1.1//EN" "http://www.w3.org/Graphics/SVG/1.1/DTD/svg11.dtd">
<svg version="1.1" id="Capa_1" xmlns="http://www.w3.org/2000/svg" xmlns:xlink="http://www.w3.org/1999/xlink" x="0px" y="0px"
	 width="521.92px" height="521.92px" viewBox="0 0 521.92 521.92" style="enable-background:new 0 0 521.92 521.92;"
	 xml:space="preserve">
<g>
	<path d="M230.088,104.839c0-4.422,1.732-8.589,4.862-11.715l88.428-88.425c6.253-6.265,17.17-6.265,23.424,0
		c6.461,6.455,6.461,16.97,0,23.431l-60.153,60.142h87.337c73.737,0,133.726,59.988,133.726,133.726
		c0,69.604-69.771,124.74-118.015,129.321c-6.703,0.018-14.865-5.68-12.88-18.914c2.418-8.559,19.252-12.359,20.292-12.602
		c44.337-10.48,77.467-50.301,77.467-97.806c0-55.467-45.123-100.59-100.59-100.59H286.66l60.142,60.154
		c6.461,6.454,6.461,16.964,0,23.424c-6.266,6.271-17.171,6.254-23.424,0l-88.428-88.431
		C231.82,113.427,230.088,109.266,230.088,104.839z M232.311,350.697h-46.849l49.812,49.811h-87.331
		c-55.473,0-100.596-45.129-100.596-100.59c0-16.248,3.975-31.521,10.894-45.075c-1.132-2.896-2.196-5.798-3.121-8.677
		c-3.047-9.481-4.688-19.305-5.612-29.241c-20.555,22.325-35.299,51.081-35.299,82.993c0,73.743,59.988,133.731,133.729,133.731
		h87.331l-60.151,60.142c-6.452,6.455-6.452,16.965,0,23.431c6.254,6.266,17.171,6.266,23.424,0l88.438-88.431
		c3.126-3.121,4.853-7.294,4.853-11.709c0-4.428-1.732-8.589-4.853-11.722L232.311,350.697z M307.809,282.014
		c12.105-16.42,19.843-35.051,23.33-54.296c-14.098-11.106-26.941-23.933-38.261-37.569c4.374,28-4.008,57.612-25.54,79.146
		c-35.813,35.813-94.079,35.813-129.883,0c-35.816-35.813-35.816-94.076,0-129.883c21.092-21.101,49.925-29.43,77.416-25.629
		c1.782-14.333,6.345-28.105,17.803-35.979c-40.202-10.485-92.249,3.127-122.979,33.857c-51.107,51.104-51.107,134.275,0,185.391
		c46.388,46.388,119.099,50.52,170.363,12.72L444.772,474.48c7.661,7.673,20.091,7.673,27.758,0c7.66-7.66,7.66-20.084,0-27.75
		L307.809,282.014z"/>
</g>
<g>
</g>
<g>
</g>
<g>
</g>
<g>
</g>
<g>
</g>
<g>
</g>
<g>
</g>
<g>
</g>
<g>
</g>
<g>
</g>
<g>
</g>
<g>
</g>
<g>
</g>
<g>
</g>
<g>
</g>
</svg>
