<?xml version="1.0" encoding="iso-8859-1"?>
<!-- Generator: Adobe Illustrator 16.0.0, SVG Export Plug-In . SVG Version: 6.00 Build 0)  -->
<!DOCTYPE svg PUBLIC "-//W3C//DTD SVG 1.1//EN" "http://www.w3.org/Graphics/SVG/1.1/DTD/svg11.dtd">
<svg version="1.1" id="Capa_1" xmlns="http://www.w3.org/2000/svg" xmlns:xlink="http://www.w3.org/1999/xlink" x="0px" y="0px"
	 width="481.443px" height="481.443px" viewBox="0 0 481.443 481.443" style="enable-background:new 0 0 481.443 481.443;"
	 xml:space="preserve">
<g>
	<path d="M122.294,128.789c-2.518-2.518-3.904-5.866-3.904-9.425c0-3.558,1.386-6.913,3.904-9.425l71.136-71.136
		c5.036-5.036,13.819-5.036,18.853,0c5.195,5.192,5.195,13.648,0,18.85l-48.383,48.382h70.252
		c56.741,0,103.247,44.192,107.195,99.942c0,0-0.449,12.782-15.457,10.542c-10.314-1.537-11.928-15.687-11.928-15.687
		c-6.165-38.556-39.555-68.139-79.816-68.139h-70.247l48.383,48.382c5.195,5.196,5.195,13.657,0,18.85
		c-5.042,5.042-13.816,5.036-18.853,0L122.294,128.789z M481.443,333.993c0,62.087-50.348,112.423-112.446,112.423
		c-62.116,0-112.446-50.336-112.446-112.423c0-40.72,21.704-76.272,54.148-96.029c-50.992-9.496-98.355-7.533-139.852,0.08
		c32.364,19.747,54.042,55.266,54.042,95.949c0,62.087-50.345,112.423-112.449,112.423C50.327,446.416,0,396.08,0,333.993
		c0-12.359,2.089-24.234,5.775-35.376v-17.814c0-63.24,54.323-114.495,121.434-114.796l55.854,55.854
		c6.342,6.348,15.241,9.986,24.408,9.986l0,0c9.165,0,18.063-3.644,24.4-9.98c6.516-6.514,10.101-15.182,10.101-24.406
		c0-9.224-3.585-17.889-10.095-24.403l-7.081-7.075h37.82c17.957,7.982,31.635,24.598,34.985,44.801
		c1.91,14.919,11.793,30.973,29.779,33.65c2.204,0.33,4.38,0.496,6.478,0.496c20.907,0,32.74-16.104,33.272-31.253l0.035-1.12
		l-0.083-1.114c-1.135-16.074-5.308-31.274-11.81-45.158c64.38,3.142,115.626,53.117,115.626,114.524l0.485,6.903
		C477.791,301.845,481.443,317.479,481.443,333.993z M112.446,259.576c-41.021,0-74.437,33.373-74.437,74.417
		s33.417,74.411,74.437,74.411c41.036,0,74.446-33.367,74.446-74.411C186.893,292.938,153.482,259.576,112.446,259.576z
		 M443.438,333.993c0-41.056-33.396-74.417-74.435-74.417c-41.026,0-74.439,33.373-74.439,74.417s33.413,74.411,74.439,74.411
		C410.042,408.404,443.438,375.037,443.438,333.993z M439.814,191.615c-45.483-79.464-90.169-37.413-90.169-37.413
		C409.332,153.538,439.814,191.615,439.814,191.615z M118.39,152.828c0,0-44.706-42.052-90.172,37.418
		C28.218,190.24,58.691,152.157,118.39,152.828z M111.628,299.486c-1.247,0-2.468,0.076-3.68,0.189
		c1.162,5.993-3.656,15.09-12.451,22.342c-7.19,5.923-15.075,8.967-20.826,8.672c-0.358,2.062-0.574,4.173-0.574,6.336
		c0,20.741,16.801,37.545,37.537,37.545c20.738,0,37.539-16.804,37.539-37.545C149.173,316.297,132.366,299.486,111.628,299.486z
		 M388.112,317.78c-8.801-7.253-13.618-16.355-12.46-22.337c-1.205-0.124-2.429-0.184-3.67-0.184
		c-20.729,0-37.54,16.799-37.54,37.539c0,20.735,16.811,37.539,37.54,37.539c20.729,0,37.533-16.804,37.533-37.539
		c0-2.163-0.219-4.279-0.573-6.342C403.185,326.758,395.3,323.703,388.112,317.78z"/>
</g>
<g>
</g>
<g>
</g>
<g>
</g>
<g>
</g>
<g>
</g>
<g>
</g>
<g>
</g>
<g>
</g>
<g>
</g>
<g>
</g>
<g>
</g>
<g>
</g>
<g>
</g>
<g>
</g>
<g>
</g>
</svg>
