<?xml version="1.0" encoding="iso-8859-1"?>
<!-- Generator: Adobe Illustrator 16.0.0, SVG Export Plug-In . SVG Version: 6.00 Build 0)  -->
<!DOCTYPE svg PUBLIC "-//W3C//DTD SVG 1.1//EN" "http://www.w3.org/Graphics/SVG/1.1/DTD/svg11.dtd">
<svg version="1.1" id="Capa_1" xmlns="http://www.w3.org/2000/svg" xmlns:xlink="http://www.w3.org/1999/xlink" x="0px" y="0px"
	 width="496.304px" height="496.304px" viewBox="0 0 496.304 496.304" style="enable-background:new 0 0 496.304 496.304;"
	 xml:space="preserve">
<g>
	<path d="M248.158,0C111.324,0,0,111.317,0,248.152C0,384.98,111.324,496.304,248.158,496.304
		c136.834,0,248.146-111.312,248.146-248.152S384.992,0,248.158,0z M248.158,472.093c-123.488,0-223.947-100.459-223.947-223.941
		S124.67,24.211,248.158,24.211c123.476,0,223.935,100.459,223.935,223.941S371.634,472.093,248.158,472.093z M389.39,194.771
		v106.761c0,3.688-2.991,6.679-6.68,6.679h-74.499v74.512c0,3.682-2.99,6.673-6.679,6.673H194.766c-3.685,0-6.67-2.985-6.67-6.673
		v-74.512h-74.508c-3.686,0-6.67-2.984-6.67-6.679V194.771c0-3.686,2.979-6.676,6.67-6.676h74.514v-74.509
		c0-3.685,2.979-6.673,6.67-6.673h106.761c3.688,0,6.685,2.982,6.685,6.673v74.509h74.506
		C386.398,188.096,389.39,191.08,389.39,194.771z"/>
</g>
<g>
</g>
<g>
</g>
<g>
</g>
<g>
</g>
<g>
</g>
<g>
</g>
<g>
</g>
<g>
</g>
<g>
</g>
<g>
</g>
<g>
</g>
<g>
</g>
<g>
</g>
<g>
</g>
<g>
</g>
</svg>
