<?xml version="1.0" encoding="iso-8859-1"?>
<!-- Generator: Adobe Illustrator 16.0.0, SVG Export Plug-In . SVG Version: 6.00 Build 0)  -->
<!DOCTYPE svg PUBLIC "-//W3C//DTD SVG 1.1//EN" "http://www.w3.org/Graphics/SVG/1.1/DTD/svg11.dtd">
<svg version="1.1" id="Capa_1" xmlns="http://www.w3.org/2000/svg" xmlns:xlink="http://www.w3.org/1999/xlink" x="0px" y="0px"
	 width="438.544px" height="438.544px" viewBox="0 0 438.544 438.544" style="enable-background:new 0 0 438.544 438.544;"
	 xml:space="preserve">
<g>
	<path d="M304.404,383.214l48.663-48.669v36.564c0,6.679-5.42,12.104-12.105,12.104H304.404z M56.997,357.491h119.581l-8.195,25.723
		H12.105C5.417,383.214,0,377.788,0,371.109V42.246c0-6.683,5.417-12.105,12.105-12.105h328.863c6.68,0,12.105,5.423,12.105,12.105
		v109.086l-2.264,2.264l-0.006-0.006l-54.722,54.728v-1.64H57.003v150.813H56.997z M67.578,150.188h217.894V48.305H67.578V150.188z
		 M223.941,136.073h30.275V63.436h-30.275V136.073z M272.498,231.898H78.926v12.105h181.466L272.498,231.898z M230.13,274.267
		H78.926v12.105h139.101L230.13,274.267z M78.926,327.228h107.295l1.362-4.256c0.186-0.556,0.375-1.063,0.55-1.543
		c0.715-2.192,1.714-4.285,2.893-6.307H78.932v12.105H78.926z M434.891,193.308l-37.415-37.424c-5.51-5.494-15.262-4.696-21.752,1.8
		l-20.594,20.59l57.37,57.373l20.594-20.594C439.595,208.566,440.388,198.811,434.891,193.308z M345.566,187.837l57.376,57.373
		L266.126,382.032c-0.627,0.627-2.364,2.364-4.812,2.984c-0.283,0.137-0.567,0.249-0.856,0.35l-71.411,22.744
		c-1.998,0.633-4.005,0.225-5.308-1.076c-1.3-1.312-1.711-3.321-1.082-5.319l22.756-71.396c0.104-0.296,0.207-0.58,0.346-0.852
		c0.624-2.453,2.361-4.19,2.997-4.823L345.566,187.837z M248.477,377.623L213.154,342.3l-9.466,29.743l15.049,15.049
		L248.477,377.623z M343.356,210.644c-2.033-2.036-5.32-2.036-7.354,0l-106.65,106.654c-2.033,2.033-2.033,5.325,0,7.353
		c2.03,2.033,5.316,2.033,7.35,0l106.654-106.654C345.39,215.963,345.39,212.671,343.356,210.644z"/>
</g>
<g>
</g>
<g>
</g>
<g>
</g>
<g>
</g>
<g>
</g>
<g>
</g>
<g>
</g>
<g>
</g>
<g>
</g>
<g>
</g>
<g>
</g>
<g>
</g>
<g>
</g>
<g>
</g>
<g>
</g>
</svg>
