<?xml version="1.0" encoding="iso-8859-1"?>
<!-- Generator: Adobe Illustrator 16.0.0, SVG Export Plug-In . SVG Version: 6.00 Build 0)  -->
<!DOCTYPE svg PUBLIC "-//W3C//DTD SVG 1.1//EN" "http://www.w3.org/Graphics/SVG/1.1/DTD/svg11.dtd">
<svg version="1.1" id="Capa_1" xmlns="http://www.w3.org/2000/svg" xmlns:xlink="http://www.w3.org/1999/xlink" x="0px" y="0px"
	 width="492.077px" height="492.077px" viewBox="0 0 492.077 492.077" style="enable-background:new 0 0 492.077 492.077;"
	 xml:space="preserve">
<g>
	<path d="M330.654,123.018h-169.24v79.14h169.252v-79.14H330.654z M306.373,191.189h-23.507v-56.421h23.507V191.189z
		 M153.189,363.176h185.699V246.033H153.189V363.176z M170.227,265.618h151.62v9.41h-151.62V265.618z M170.227,298.529h151.62v9.41
		h-151.62V298.529z M170.227,330.27h151.62v9.404h-151.62V330.27z M427.342,0H64.729c-5.187,0-9.398,4.206-9.398,9.407v473.266
		c0,5.19,4.212,9.404,9.398,9.404h362.613c5.189,0,9.404-4.202,9.404-9.404V9.398C436.741,4.206,432.532,0,427.342,0z M92.923,16.45
		c12.117,0,21.94,9.824,21.94,21.941s-9.823,21.94-21.94,21.94s-21.941-9.823-21.941-21.94S80.806,16.45,92.923,16.45z
		 M92.923,474.055c-12.117,0-21.941-9.823-21.941-21.94c0-12.116,9.824-21.94,21.941-21.94s21.94,9.824,21.94,21.94
		C114.864,464.231,105.041,474.055,92.923,474.055z M373.755,383.159H118.313c-5.192,0-9.398-4.208-9.398-9.409V118.31
		c0-5.193,4.206-9.407,9.398-9.407h255.442c5.195,0,9.41,4.208,9.41,9.407v255.44C383.154,378.951,378.945,383.159,373.755,383.159z
		 M403.208,474.055c-12.116,0-21.94-9.823-21.94-21.94c0-12.116,9.824-21.94,21.94-21.94c12.123,0,21.941,9.824,21.941,21.94
		C425.15,464.231,415.332,474.055,403.208,474.055z M403.208,60.331c-12.116,0-21.94-9.823-21.94-21.94s9.824-21.941,21.94-21.941
		c12.123,0,21.941,9.824,21.941,21.941S415.332,60.331,403.208,60.331z"/>
</g>
<g>
</g>
<g>
</g>
<g>
</g>
<g>
</g>
<g>
</g>
<g>
</g>
<g>
</g>
<g>
</g>
<g>
</g>
<g>
</g>
<g>
</g>
<g>
</g>
<g>
</g>
<g>
</g>
<g>
</g>
</svg>
