<?xml version="1.0" encoding="iso-8859-1"?>
<!-- Generator: Adobe Illustrator 16.0.0, SVG Export Plug-In . SVG Version: 6.00 Build 0)  -->
<!DOCTYPE svg PUBLIC "-//W3C//DTD SVG 1.1//EN" "http://www.w3.org/Graphics/SVG/1.1/DTD/svg11.dtd">
<svg version="1.1" id="Capa_1" xmlns="http://www.w3.org/2000/svg" xmlns:xlink="http://www.w3.org/1999/xlink" x="0px" y="0px"
	 width="73.714px" height="73.714px" viewBox="0 0 73.714 73.714" style="enable-background:new 0 0 73.714 73.714;"
	 xml:space="preserve">
<g>
	<path d="M28.021,33.518c0-3.235,2.633-5.868,5.868-5.868h24.444V8.481c0-1.104-0.896-2-2-2H2c-1.104,0-2,0.896-2,2v54.334
		c0,1.104,0.896,2,2,2h26.067c-0.027-0.23-0.046-0.464-0.046-0.701v-3.549H9.418V35.648h18.604L28.021,33.518L28.021,33.518z
		 M11.167,9.482h36v16.833h-36V9.482z M37.001,11.982h5.001v12.001h-5.001V11.982z M28.021,41.815H13.042v-2h14.979V41.815z
		 M28.021,48.815H13.042v-2h14.979V48.815z M13.042,53.565h14.979v2H13.042V53.565z M70.845,30.899h-36.06
		c-1.581,0-2.868,1.287-2.868,2.868v30.597c0,1.581,1.287,2.868,2.868,2.868h36.061c1.581,0,2.868-1.287,2.868-2.868V33.768
		C73.713,32.187,72.426,30.899,70.845,30.899z M67.498,33.307c0.82,0,1.484,0.665,1.484,1.486c0,0.82-0.664,1.484-1.484,1.484
		c-0.819,0-1.485-0.664-1.485-1.484C66.012,33.972,66.678,33.307,67.498,33.307z M61.538,33.226c0.819,0,1.485,0.665,1.485,1.485
		s-0.666,1.484-1.485,1.484s-1.485-0.664-1.485-1.484S60.718,33.226,61.538,33.226z M71.254,64.364c0,0.227-0.184,0.41-0.409,0.41
		h-36.06c-0.226,0-0.409-0.184-0.409-0.41V38.07h36.879L71.254,64.364L71.254,64.364z"/>
</g>
<g>
</g>
<g>
</g>
<g>
</g>
<g>
</g>
<g>
</g>
<g>
</g>
<g>
</g>
<g>
</g>
<g>
</g>
<g>
</g>
<g>
</g>
<g>
</g>
<g>
</g>
<g>
</g>
<g>
</g>
</svg>
