<?xml version="1.0" encoding="iso-8859-1"?>
<!-- Generator: Adobe Illustrator 16.0.0, SVG Export Plug-In . SVG Version: 6.00 Build 0)  -->
<!DOCTYPE svg PUBLIC "-//W3C//DTD SVG 1.1//EN" "http://www.w3.org/Graphics/SVG/1.1/DTD/svg11.dtd">
<svg version="1.1" id="Capa_1" xmlns="http://www.w3.org/2000/svg" xmlns:xlink="http://www.w3.org/1999/xlink" x="0px" y="0px"
	 width="473.109px" height="473.109px" viewBox="0 0 473.109 473.109" style="enable-background:new 0 0 473.109 473.109;"
	 xml:space="preserve">
<g>
	<path d="M340.963,101.878H12.105C5.423,101.878,0,107.301,0,113.983v328.862c0,6.68,5.423,12.105,12.105,12.105h328.857
		c6.685,0,12.104-5.426,12.104-12.105V113.983C353.067,107.301,347.647,101.878,340.963,101.878z M67.584,120.042h217.895v101.884
		H67.584V120.042z M296.076,429.228H56.998V278.414h239.079V429.228z M223.947,135.173h30.269v72.638h-30.269V135.173z
		 M274.13,315.741H78.933v-12.105H274.13V315.741z M274.13,358.109H78.933v-12.105H274.13V358.109z M274.13,398.965H78.933v-12.105
		H274.13V398.965z M473.109,30.263v328.863c0,6.68-5.426,12.105-12.105,12.105H384.59v-25.724h31.528V194.694H384.59v-56.489h20.93
		V36.321H187.625v43.361h-67.583v-49.42c0-6.682,5.423-12.105,12.105-12.105H461.01C467.695,18.158,473.109,23.581,473.109,30.263z
		 M343.989,51.453h30.269v31.321c-3.18-1.918-6.868-3.092-10.853-3.092h-19.416V51.453z M394.177,232.021h-9.581v-12.105h9.581
		V232.021z M384.59,262.284h9.581v12.105h-9.581V262.284z M384.59,303.14h9.581v12.104h-9.581V303.14z"/>
</g>
<g>
</g>
<g>
</g>
<g>
</g>
<g>
</g>
<g>
</g>
<g>
</g>
<g>
</g>
<g>
</g>
<g>
</g>
<g>
</g>
<g>
</g>
<g>
</g>
<g>
</g>
<g>
</g>
<g>
</g>
</svg>
