<?xml version="1.0" encoding="iso-8859-1"?>
<!-- Generator: Adobe Illustrator 16.0.0, SVG Export Plug-In . SVG Version: 6.00 Build 0)  -->
<!DOCTYPE svg PUBLIC "-//W3C//DTD SVG 1.1//EN" "http://www.w3.org/Graphics/SVG/1.1/DTD/svg11.dtd">
<svg version="1.1" id="Capa_1" xmlns="http://www.w3.org/2000/svg" xmlns:xlink="http://www.w3.org/1999/xlink" x="0px" y="0px"
	 width="411.667px" height="411.667px" viewBox="0 0 411.667 411.667" style="enable-background:new 0 0 411.667 411.667;"
	 xml:space="preserve">
<g>
	<path d="M394.42,160.758h-0.916v-42.421c0-14.641-11.916-26.551-26.563-26.551H135.017l-17.209-45.167
		c-1.797-4.69-6.289-7.793-11.31-7.793H12.105c-3.227,0-6.312,1.283-8.588,3.57C1.248,44.683-0.023,47.773,0,51.001l0.074,67.335
		v227.955c0,14.641,11.916,26.551,26.551,26.551h340.321c0.261,0,0.509-0.07,0.763-0.076h26.717c9.522,0,17.241-7.714,17.241-17.242
		V177.991C411.655,168.472,403.942,160.758,394.42,160.758z M369.287,160.758H68.891c-9.52,0-17.236,7.714-17.236,17.239v170.635
		H26.614c-1.289,0-2.344-1.053-2.344-2.341V118.266l-0.157-55.23h74.029l17.215,45.164c1.785,4.69,6.289,7.796,11.313,7.796h240.258
		c1.295,0,2.347,1.052,2.347,2.341v42.421H369.287z"/>
</g>
<g>
</g>
<g>
</g>
<g>
</g>
<g>
</g>
<g>
</g>
<g>
</g>
<g>
</g>
<g>
</g>
<g>
</g>
<g>
</g>
<g>
</g>
<g>
</g>
<g>
</g>
<g>
</g>
<g>
</g>
</svg>
