<?xml version="1.0" encoding="iso-8859-1"?>
<!-- Generator: Adobe Illustrator 16.0.0, SVG Export Plug-In . SVG Version: 6.00 Build 0)  -->
<!DOCTYPE svg PUBLIC "-//W3C//DTD SVG 1.1//EN" "http://www.w3.org/Graphics/SVG/1.1/DTD/svg11.dtd">
<svg version="1.1" id="Capa_1" xmlns="http://www.w3.org/2000/svg" xmlns:xlink="http://www.w3.org/1999/xlink" x="0px" y="0px"
	 width="455.348px" height="455.348px" viewBox="0 0 455.348 455.348" style="enable-background:new 0 0 455.348 455.348;"
	 xml:space="preserve">
<g>
	<path d="M416.263,121.938h-0.922V79.514c0-14.641-11.91-26.554-26.558-26.554H156.857L139.651,7.796
		C137.854,3.105,133.362,0,128.337,0H33.949c-3.228,0-6.313,1.285-8.588,3.573c-2.27,2.288-3.541,5.378-3.517,8.606l0.071,67.335
		v227.952c0,14.647,11.919,26.552,26.554,26.552H388.79c0.26,0,0.508-0.071,0.762-0.071h26.717c9.522,0,17.236-7.714,17.236-17.242
		V139.175C433.492,129.655,425.785,121.938,416.263,121.938z M391.124,121.938H90.733c-9.52,0-17.239,7.711-17.239,17.236v170.632
		H48.457c-1.289,0-2.344-1.053-2.344-2.341V79.446l-0.157-55.23h74.036l17.215,45.167c1.785,4.69,6.286,7.794,11.311,7.794h240.26
		c1.295,0,2.347,1.055,2.347,2.343V121.938z M270.361,426.598h84.412v21.184h-84.412c-3.304,4.563-8.636,7.566-14.7,7.566h-66.579
		c-6.059,0-11.396-3.003-14.697-7.566h-73.822v-21.184h73.822c3.301-4.569,8.633-7.566,14.697-7.566h15.131V403.9
		c0-6.059,3.003-11.402,7.566-14.7v-39.018h21.184V389.2c4.563,3.298,7.566,8.63,7.566,14.7v15.131h15.131
		C261.72,419.031,267.058,422.028,270.361,426.598z"/>
</g>
<g>
</g>
<g>
</g>
<g>
</g>
<g>
</g>
<g>
</g>
<g>
</g>
<g>
</g>
<g>
</g>
<g>
</g>
<g>
</g>
<g>
</g>
<g>
</g>
<g>
</g>
<g>
</g>
<g>
</g>
</svg>
