<?xml version="1.0" encoding="iso-8859-1"?>
<!-- Generator: Adobe Illustrator 16.0.0, SVG Export Plug-In . SVG Version: 6.00 Build 0)  -->
<!DOCTYPE svg PUBLIC "-//W3C//DTD SVG 1.1//EN" "http://www.w3.org/Graphics/SVG/1.1/DTD/svg11.dtd">
<svg version="1.1" id="Capa_1" xmlns="http://www.w3.org/2000/svg" xmlns:xlink="http://www.w3.org/1999/xlink" x="0px" y="0px"
	 width="475.462px" height="475.462px" viewBox="0 0 475.462 475.462" style="enable-background:new 0 0 475.462 475.462;"
	 xml:space="preserve">
<g>
	<path d="M444.745,274.218H411.65v-64.324c0-9.519-7.708-17.239-17.236-17.239h-0.922v-42.421c0-14.641-11.91-26.551-26.557-26.551
		H135.014l-17.206-45.167c-1.797-4.69-6.289-7.793-11.313-7.793H12.106c-3.228,0-6.313,1.283-8.588,3.57
		C1.248,76.581-0.023,79.671,0,82.899l0.071,67.335v227.955c0,14.641,11.919,26.551,26.554,26.551h340.321
		c0.26,0,0.508-0.07,0.763-0.076h26.717c9.522,0,17.235-7.714,17.235-17.242v-51.79h33.095c16.935,0,30.706-13.772,30.706-30.712
		C475.462,287.985,461.678,274.218,444.745,274.218z M51.658,209.895V380.53H26.62c-1.289,0-2.344-1.053-2.344-2.341v-228.02
		l-0.156-55.23h74.029l17.215,45.164c1.785,4.69,6.286,7.796,11.311,7.796h240.261c1.294,0,2.347,1.052,2.347,2.341v42.421H68.891
		C59.371,192.662,51.658,200.375,51.658,209.895z M444.745,329.59h-52.353v0.095h-6.903c-6.484,0-11.732-5.107-12.046-11.514v16.774
		h-17.496v-31.356h-32.94v31.356H305.51v-31.356h-34.359v31.356h-17.502v-31.356h-25.907h-1.004h-1.315v31.356h-17.496v-31.356
		h-32.94v31.356H157.49v-31.356h-34.356v31.356h-17.505v-31.356H78.714v-4.155v-6.721v-28.792h17.499v28.792h34.359v-28.792h17.505
		v28.792h32.932v-28.792h17.499v28.792h28.23v-28.792h17.498v28.792h34.363v-28.792H296.1v28.792h32.935v-28.792h17.496v28.792
		h26.864v-0.337c0-6.686,5.421-12.105,12.105-12.105h6.904v0.012h52.352c13.595,0,24.653,11.065,24.653,24.66
		C469.398,318.526,458.339,329.59,444.745,329.59z M459.025,305.073c0,8.777-7.111,15.888-15.889,15.888h-29.252v-31.775h29.252
		C451.914,289.185,459.025,296.295,459.025,305.073z"/>
</g>
<g>
</g>
<g>
</g>
<g>
</g>
<g>
</g>
<g>
</g>
<g>
</g>
<g>
</g>
<g>
</g>
<g>
</g>
<g>
</g>
<g>
</g>
<g>
</g>
<g>
</g>
<g>
</g>
<g>
</g>
</svg>
