<?xml version="1.0" encoding="iso-8859-1"?>
<!-- Generator: Adobe Illustrator 16.0.0, SVG Export Plug-In . SVG Version: 6.00 Build 0)  -->
<!DOCTYPE svg PUBLIC "-//W3C//DTD SVG 1.1//EN" "http://www.w3.org/Graphics/SVG/1.1/DTD/svg11.dtd">
<svg version="1.1" id="Capa_1" xmlns="http://www.w3.org/2000/svg" xmlns:xlink="http://www.w3.org/1999/xlink" x="0px" y="0px"
	 width="502.379px" height="502.379px" viewBox="0 0 502.379 502.379" style="enable-background:new 0 0 502.379 502.379;"
	 xml:space="preserve">
<g>
	<g>
		<path d="M485.144,159.207h-0.923v-42.422c0-14.641-11.91-26.551-26.557-26.551H225.741l-17.209-45.167
			c-1.797-4.69-6.289-7.793-11.313-7.793H102.83c-3.228,0-6.313,1.283-8.588,3.57c-2.27,2.288-3.541,5.379-3.517,8.606
			l-0.109,63.481h24.21l0.018-51.447h74.029l17.215,45.164c1.785,4.69,6.289,7.796,11.313,7.796h240.258
			c1.294,0,2.353,1.052,2.353,2.34v42.422H392.25c-1.49,0-2.902,0.248-4.28,0.606l2.317,6.085h-0.715
			c14.646,0,26.557,11.91,26.557,26.551v42.425h0.922c9.517,0,17.236,7.71,17.236,17.232v119.19h23.377
			c0.26,0,0.508-0.071,0.763-0.077h26.717c9.516,0,17.235-7.707,17.235-17.235V176.439
			C502.374,166.92,494.66,159.207,485.144,159.207z"/>
		<path d="M394.354,253.022h-0.922v-42.421c0-14.641-11.91-26.551-26.557-26.551H134.952l-17.209-45.167
			c-1.797-4.69-6.289-7.793-11.313-7.793H12.191c-3.225,0-6.313,1.282-8.588,3.57c-2.27,2.288-3.541,5.378-3.517,8.606L0,210.601
			v227.955c0,14.641,11.919,26.551,26.554,26.551h340.321c0.26,0,0.508-0.07,0.762-0.076h26.717c9.517,0,17.236-7.714,17.236-17.242
			V270.252C411.584,260.736,403.871,253.022,394.354,253.022z M369.215,253.022H68.825c-9.519,0-17.236,7.714-17.236,17.242v170.632
			H26.548c-1.289,0-2.344-1.052-2.344-2.341V210.53l-0.157-55.23h74.029l17.215,45.164c1.785,4.69,6.289,7.797,11.31,7.797h240.261
			c1.294,0,2.346,1.052,2.346,2.34v42.421H369.215z"/>
	</g>
</g>
<g>
</g>
<g>
</g>
<g>
</g>
<g>
</g>
<g>
</g>
<g>
</g>
<g>
</g>
<g>
</g>
<g>
</g>
<g>
</g>
<g>
</g>
<g>
</g>
<g>
</g>
<g>
</g>
<g>
</g>
</svg>
