<?xml version="1.0" encoding="iso-8859-1"?>
<!-- Generator: Adobe Illustrator 16.0.0, SVG Export Plug-In . SVG Version: 6.00 Build 0)  -->
<!DOCTYPE svg PUBLIC "-//W3C//DTD SVG 1.1//EN" "http://www.w3.org/Graphics/SVG/1.1/DTD/svg11.dtd">
<svg version="1.1" id="Capa_1" xmlns="http://www.w3.org/2000/svg" xmlns:xlink="http://www.w3.org/1999/xlink" x="0px" y="0px"
	 width="461.838px" height="461.838px" viewBox="0 0 461.838 461.838" style="enable-background:new 0 0 461.838 461.838;"
	 xml:space="preserve">
<g>
	<path d="M411.65,210.521v-53.563c0-9.522-7.708-17.239-17.236-17.239h-0.922V97.294c0-14.641-11.91-26.551-26.557-26.551H135.014
		L117.808,25.58c-1.797-4.693-6.289-7.796-11.313-7.796H12.105c-3.227,0-6.312,1.283-8.588,3.57C1.248,23.641-0.023,26.735,0,29.959
		l0.071,67.335V325.25c0,14.641,11.919,26.551,26.554,26.551h164.074V243.013c0-17.916,14.576-32.492,32.492-32.492H411.65z
		 M68.89,139.725c-9.519,0-17.238,7.711-17.238,17.239v170.638H26.614c-1.289,0-2.344-1.059-2.344-2.347V97.23L24.113,42h74.029
		l17.215,45.164c1.785,4.69,6.286,7.796,11.31,7.796h240.261c1.294,0,2.346,1.052,2.346,2.34v42.425H68.89z M444.478,224.14H226.217
		c-9.57,0-17.36,7.791-17.36,17.36v185.19c0,9.575,7.79,17.365,17.36,17.365h218.267c9.569,0,17.354-7.79,17.354-17.365V241.5
		C461.833,231.93,454.042,224.14,444.478,224.14z M424.216,238.715c4.965,0,8.99,4.025,8.99,8.984c0,4.965-4.025,8.99-8.99,8.99
		c-4.953,0-8.984-4.025-8.984-8.99C415.226,242.735,419.257,238.715,424.216,238.715z M388.142,238.219
		c4.966,0,8.99,4.025,8.99,8.984c0,4.977-4.024,8.99-8.99,8.99c-4.953,0-8.984-4.025-8.984-8.99
		C379.152,242.245,383.177,238.219,388.142,238.219z M446.949,426.69c0,1.377-1.111,2.482-2.471,2.482H226.217
		c-1.368,0-2.477-1.111-2.477-2.482V267.542h223.214V426.69H446.949z"/>
</g>
<g>
</g>
<g>
</g>
<g>
</g>
<g>
</g>
<g>
</g>
<g>
</g>
<g>
</g>
<g>
</g>
<g>
</g>
<g>
</g>
<g>
</g>
<g>
</g>
<g>
</g>
<g>
</g>
<g>
</g>
</svg>
