<?xml version="1.0" encoding="iso-8859-1"?>
<!-- Generator: Adobe Illustrator 16.0.0, SVG Export Plug-In . SVG Version: 6.00 Build 0)  -->
<!DOCTYPE svg PUBLIC "-//W3C//DTD SVG 1.1//EN" "http://www.w3.org/Graphics/SVG/1.1/DTD/svg11.dtd">
<svg version="1.1" id="Capa_1" xmlns="http://www.w3.org/2000/svg" xmlns:xlink="http://www.w3.org/1999/xlink" x="0px" y="0px"
	 width="467.092px" height="467.092px" viewBox="0 0 467.092 467.092" style="enable-background:new 0 0 467.092 467.092;"
	 xml:space="preserve">
<g>
	<path d="M57.083,88.368l-0.062-56.764c-0.018-2.716,1.046-5.326,2.961-7.256c1.918-1.924,4.519-3.008,7.238-3.008h79.568
		c4.238,0,8.021,2.616,9.534,6.573l14.502,38.071h195.501c12.342,0,22.379,10.042,22.379,22.384v35.757h0.779
		c8.027,0,14.523,6.508,14.523,14.529v79.973c-23.395,2.784-43.876,16.919-54.698,38.316c-2.63,5.178-5.231,9.972-7.826,14.363
		c-11.957-22.248-35.458-37.403-62.436-37.403H106.985c-1.791,0-3.535,0.213-5.234,0.526v-12.037h-1.182v-83.738
		c0-8.027,6.501-14.529,14.529-14.529h253.214V88.368c0-1.09-0.887-1.974-1.975-1.974H163.808c-4.238,0-8.033-2.616-9.534-6.573
		L139.766,41.75H77.345l0.139,46.556v134.086H57.077V88.368H57.083z M461.383,316.252
		c-22.071,43.586-71.805,116.773-156.937,117.122l-195.597,0.183c-2.802,0-5.47-1.11-7.45-3.085
		c-1.975-1.975-3.086-4.658-3.086-7.441l0.024-156.901c0-5.816,4.714-10.539,10.53-10.539h172.077
		c29.052,0,52.677,23.625,52.677,52.671c0,2.92-0.23,5.805-0.697,8.63c11.686-9.635,22.981-25.511,34.483-48.22
		c9.014-17.827,27.03-28.898,47.015-28.898c8.198,0,16.426,1.969,23.778,5.692c12.537,6.354,21.87,17.212,26.256,30.588
		C468.83,289.423,467.73,303.697,461.383,316.252z M444.425,282.62c-2.631-8.027-8.223-14.541-15.765-18.348
		c-4.486-2.27-9.273-3.428-14.245-3.428c-11.998,0-22.803,6.644-28.218,17.342c-15.285,30.175-37.456,65.326-73.624,70.551
		c-0.112,0.012-0.225,0.035-0.349,0.06c-0.189,0.023-0.373,0.077-0.562,0.101c-0.131,0.018-0.261-0.018-0.385-0.006
		c-0.325,0.023-0.632,0.094-0.963,0.094H188.465c-5.816,0-10.536-4.717-10.536-10.532c0-5.816,4.72-10.533,10.536-10.533H305.48
		c4.504-5.592,7.069-12.39,7.069-19.653c0-17.431-14.181-31.605-31.611-31.605H119.4l-0.018,135.807l185.016-0.166
		c73.879-0.307,118.292-66.271,138.188-105.566C446.398,299.205,447.043,290.641,444.425,282.62z M0,244.081h85.47v201.67H0V244.081
		z M26.347,283.099c0,9.055,7.341,16.391,16.391,16.391c9.055,0,16.396-7.336,16.396-16.391c0-9.056-7.341-16.391-16.396-16.391
		S26.347,274.043,26.347,283.099z"/>
</g>
<g>
</g>
<g>
</g>
<g>
</g>
<g>
</g>
<g>
</g>
<g>
</g>
<g>
</g>
<g>
</g>
<g>
</g>
<g>
</g>
<g>
</g>
<g>
</g>
<g>
</g>
<g>
</g>
<g>
</g>
</svg>
