<?xml version="1.0" encoding="iso-8859-1"?>
<!-- Generator: Adobe Illustrator 16.0.0, SVG Export Plug-In . SVG Version: 6.00 Build 0)  -->
<!DOCTYPE svg PUBLIC "-//W3C//DTD SVG 1.1//EN" "http://www.w3.org/Graphics/SVG/1.1/DTD/svg11.dtd">
<svg version="1.1" id="Capa_1" xmlns="http://www.w3.org/2000/svg" xmlns:xlink="http://www.w3.org/1999/xlink" x="0px" y="0px"
	 width="506.73px" height="506.73px" viewBox="0 0 506.73 506.73" style="enable-background:new 0 0 506.73 506.73;"
	 xml:space="preserve">
<g>
	<path d="M505.4,236.212l-93.815,177.536c-5.894,12.472-17.821,17.241-23.295,17.241l-361.739,0.077
		C11.91,431.066,0,419.156,0,404.515l0.458-227.957l-0.221-67.335c-0.021-3.227,1.244-6.319,3.514-8.606
		c2.276-2.287,5.37-3.57,8.591-3.57h94.088c5.024,0,9.519,3.104,11.31,7.793l17.209,45.167h102.948
		c-10.184,6.655-19.798,14.753-28.877,24.21h-82.411c-5.024,0-9.522-3.106-11.313-7.796l-17.207-45.164H24.205l0.012,55.23v228.028
		c0,1.289,1.052,2.342,2.34,2.342H55l84.35-170.645c4.764-9.543,13.763-17.238,23.288-17.238h13.444h100.637h20.841
		c-14.014,10.226-20.09,28.927-13.576,45.882c5.804,15.097,20.563,25.233,36.723,25.233c4.823,0,9.564-0.881,14.104-2.619
		l105.944-40.695c12.614-4.85,21.309-15.536,24.188-27.801h23.217C497.687,218.979,511.004,225.41,505.4,236.212z M210.169,203.528
		h54.291c0.484,0,0.893,0.104,1.354,0.133c10.243-9.386,21.143-16.095,32.681-19.792c33.301-10.669,66.709,4.055,85.776,15.433
		l-63.528,24.4c-10.923,4.193-16.385,16.449-12.188,27.37c3.239,8.429,11.267,13.595,19.783,13.595c2.53,0,5.096-0.455,7.596-1.407
		l105.938-40.695c10.929-4.194,16.379-16.453,12.183-27.37l-40.69-105.938c-4.185-10.926-16.467-16.361-27.366-12.185
		c-10.93,4.194-16.373,16.453-12.183,27.37l19.831,51.631c-26.682-13.485-66.07-25.851-107.741-12.664
		C256.781,152.648,231.501,172.763,210.169,203.528z"/>
</g>
<g>
</g>
<g>
</g>
<g>
</g>
<g>
</g>
<g>
</g>
<g>
</g>
<g>
</g>
<g>
</g>
<g>
</g>
<g>
</g>
<g>
</g>
<g>
</g>
<g>
</g>
<g>
</g>
<g>
</g>
</svg>
