<?xml version="1.0" encoding="iso-8859-1"?>
<!-- Generator: Adobe Illustrator 16.0.0, SVG Export Plug-In . SVG Version: 6.00 Build 0)  -->
<!DOCTYPE svg PUBLIC "-//W3C//DTD SVG 1.1//EN" "http://www.w3.org/Graphics/SVG/1.1/DTD/svg11.dtd">
<svg version="1.1" id="Capa_1" xmlns="http://www.w3.org/2000/svg" xmlns:xlink="http://www.w3.org/1999/xlink" x="0px" y="0px"
	 width="467.27px" height="467.27px" viewBox="0 0 467.27 467.27" style="enable-background:new 0 0 467.27 467.27;"
	 xml:space="preserve">
<g>
	<path d="M393.427,111.022v1.906h-24.211v-1.906c0-1.292-1.052-2.344-2.347-2.344H126.608c-5.021,0-9.525-3.106-11.31-7.796
		L98.083,55.718H24.199l0.012,55.23v228.025c0,1.289,1.055,2.342,2.343,2.342h25.038V170.676c0-9.522,7.714-17.238,17.239-17.238
		h151.328v212.087H26.554C11.919,365.525,0,353.609,0,338.967V111.022l0.074-67.335c-0.023-3.227,1.247-6.319,3.517-8.609
		c2.275-2.288,5.361-3.57,8.588-3.57h94.25c5.024,0,9.516,3.106,11.313,7.796l17.209,45.165h231.917
		C381.517,84.468,393.427,96.381,393.427,111.022z M467.27,186.254v230.629c0,10.409-8.464,18.879-18.879,18.879H258.572
		c-10.415,0-18.879-8.47-18.879-18.879V146.75c0-10.412,8.464-18.879,18.879-18.879h154.963L467.27,186.254z M417.985,181.715
		h23.555l-23.555-25.597V181.715z M451.411,197.574H410.06c-4.368,0-7.927-3.553-7.927-7.93v-45.915H258.572
		c-1.667,0-3.026,1.357-3.026,3.021v270.134c0,1.661,1.354,3.021,3.026,3.021h189.812c1.661,0,3.026-1.359,3.026-3.021V197.574z
		 M270.713,225.233c0,5.382,4.38,9.759,9.753,9.759H418.27c5.379,0,9.753-4.383,9.753-9.759c0-5.373-4.381-9.75-9.753-9.75H280.478
		C275.099,215.477,270.713,219.86,270.713,225.233z M418.27,272.07H280.478c-5.379,0-9.753,4.368-9.753,9.747
		c0,5.373,4.374,9.74,9.753,9.74H418.27c5.385,0,9.753-4.367,9.753-9.74C428.022,276.438,423.648,272.07,418.27,272.07z
		 M418.27,327.731H280.478c-5.379,0-9.753,4.375-9.753,9.753c0,5.367,4.374,9.747,9.753,9.747H418.27
		c5.385,0,9.753-4.38,9.753-9.747C428.022,332.106,423.648,327.731,418.27,327.731z"/>
</g>
<g>
</g>
<g>
</g>
<g>
</g>
<g>
</g>
<g>
</g>
<g>
</g>
<g>
</g>
<g>
</g>
<g>
</g>
<g>
</g>
<g>
</g>
<g>
</g>
<g>
</g>
<g>
</g>
<g>
</g>
</svg>
