<?xml version="1.0" encoding="iso-8859-1"?>
<!-- Generator: Adobe Illustrator 16.0.0, SVG Export Plug-In . SVG Version: 6.00 Build 0)  -->
<!DOCTYPE svg PUBLIC "-//W3C//DTD SVG 1.1//EN" "http://www.w3.org/Graphics/SVG/1.1/DTD/svg11.dtd">
<svg version="1.1" id="Capa_1" xmlns="http://www.w3.org/2000/svg" xmlns:xlink="http://www.w3.org/1999/xlink" x="0px" y="0px"
	 width="520.344px" height="520.344px" viewBox="0 0 520.344 520.344" style="enable-background:new 0 0 520.344 520.344;"
	 xml:space="preserve">
<g>
	<path d="M459.568,342.178l-47.983,87.468c-7.578,11.969-12.253,17.235-21.781,17.235l-363.252,0.077
		C11.91,446.958,0,435.048,0,420.406l0.458-227.951L0.236,125.12c-0.021-3.227,1.244-6.319,3.514-8.606
		c2.275-2.288,5.37-3.57,8.591-3.57h94.087c5.024,0,9.52,3.104,11.31,7.793l17.209,45.167h83.167l-9.301,24.21h-82.207
		c-5.024,0-9.522-3.106-11.313-7.796l-17.206-45.164H24.205l0.012,55.23v228.022c0,1.289,1.052,2.341,2.341,2.341H55l84.35-170.638
		c4.764-9.543,13.763-17.238,23.289-17.238h53.669h184.686v-0.659c0.206,0.225,0.419,0.438,0.62,0.659h11.964
		C439.489,256.752,450.578,297.097,459.568,342.178z M519.674,324.534C493.23,221.267,450.353,159.559,392.25,141.129
		c-41.665-13.189-81.055-0.824-107.736,12.664l19.831-51.631c4.196-10.926-1.253-23.176-12.176-27.37
		c-10.918-4.176-23.183,1.259-27.373,12.185L224.11,192.916c-4.105,10.669,1.052,22.564,11.476,27.019h117.949l-59.651-22.916
		c19.074-11.373,52.487-26.1,85.777-15.428c42.533,13.625,76.757,66.694,98.97,153.452c2.459,9.576,11.064,15.936,20.516,15.936
		c1.738,0,3.512-0.219,5.272-0.668C515.755,347.408,522.583,335.865,519.674,324.534z"/>
</g>
<g>
</g>
<g>
</g>
<g>
</g>
<g>
</g>
<g>
</g>
<g>
</g>
<g>
</g>
<g>
</g>
<g>
</g>
<g>
</g>
<g>
</g>
<g>
</g>
<g>
</g>
<g>
</g>
<g>
</g>
</svg>
