<?xml version="1.0" encoding="iso-8859-1"?>
<!-- Generator: Adobe Illustrator 16.0.0, SVG Export Plug-In . SVG Version: 6.00 Build 0)  -->
<!DOCTYPE svg PUBLIC "-//W3C//DTD SVG 1.1//EN" "http://www.w3.org/Graphics/SVG/1.1/DTD/svg11.dtd">
<svg version="1.1" id="Capa_1" xmlns="http://www.w3.org/2000/svg" xmlns:xlink="http://www.w3.org/1999/xlink" x="0px" y="0px"
	 width="370.215px" height="370.215px" viewBox="0 0 370.215 370.215" style="enable-background:new 0 0 370.215 370.215;"
	 xml:space="preserve">
<g>
	<path d="M346.784,342.528v27.687H23.43v-27.687h96.177c-15.903-5.508-29.956-13.334-42.008-23.678
		c-25.845-22.166-38.76-54.994-38.76-98.509V0h77.038v215.92c0,23.561,5.804,41.512,17.419,53.859
		c11.615,12.354,28.304,18.524,50.055,18.524c21.917,0,39.023-5.722,51.282-17.177c12.271-11.443,18.406-28.703,18.406-51.772V0
		h76.799v216.417c0,44.324-12.318,78.021-36.937,101.086c-11.722,10.988-26.374,19.28-43.758,25.025H346.784z"/>
</g>
<g>
</g>
<g>
</g>
<g>
</g>
<g>
</g>
<g>
</g>
<g>
</g>
<g>
</g>
<g>
</g>
<g>
</g>
<g>
</g>
<g>
</g>
<g>
</g>
<g>
</g>
<g>
</g>
<g>
</g>
</svg>
