<?xml version="1.0" encoding="iso-8859-1"?>
<!-- Generator: Adobe Illustrator 16.0.0, SVG Export Plug-In . SVG Version: 6.00 Build 0)  -->
<!DOCTYPE svg PUBLIC "-//W3C//DTD SVG 1.1//EN" "http://www.w3.org/Graphics/SVG/1.1/DTD/svg11.dtd">
<svg version="1.1" id="Capa_1" xmlns="http://www.w3.org/2000/svg" xmlns:xlink="http://www.w3.org/1999/xlink" x="0px" y="0px"
	 width="468.062px" height="468.062px" viewBox="0 0 468.062 468.062" style="enable-background:new 0 0 468.062 468.062;"
	 xml:space="preserve">
<g>
	<path d="M431.379,0.222h-394.7C16.458,0.222,0,16.671,0,36.895v394.268c0,20.221,16.458,36.677,36.679,36.677h394.7
		c20.228,0,36.683-16.456,36.683-36.677V36.895C468.062,16.665,451.606,0.222,431.379,0.222z M406.519,41.966
		c8.689,0,15.723,7.04,15.723,15.72c0,8.683-7.033,15.717-15.723,15.717c-8.688,0-15.723-7.04-15.723-15.717
		C390.796,49.006,397.83,41.966,406.519,41.966z M350.189,41.966c8.688,0,15.723,7.04,15.723,15.72
		c0,8.683-7.034,15.717-15.723,15.717c-8.684,0-15.711-7.04-15.711-15.717C334.479,49.006,341.506,41.966,350.189,41.966z
		 M426.148,425.921H41.913V112.426h384.229v313.495H426.148z M118.321,347.278h-2.872c-9.419,0-14.133-1.496-14.133-4.486
		c0-2.678,2.946-8.653,8.842-17.922l14.381-22.856h70.838l4.395,23.317c1.303,7.052,1.951,12.531,1.951,16.438
		c0,3.677-5.55,5.515-16.663,5.515h-3.555l-1.499,7.122h63.765l1.489-7.122l-2.866-0.112c-5.976-0.308-9.98-1.809-12.008-4.486
		c-2.027-2.684-4.037-9.233-6.035-19.647l-27.207-141.554h-8.393L99.936,325.101c-7.356,11.49-11.895,17.939-13.612,19.364
		c-1.726,1.418-6.186,2.316-13.391,2.695l-2.178,0.118l-1.38,7.128h47.46L118.321,347.278z M178.461,212.046l14.812,79.967h-64.158
		L178.461,212.046z M288.209,357.268c10.096,0,20.995-5.036,32.687-15.132c11.709-10.096,22.324-23.537,31.835-40.347
		l-10.485,52.605h43.94l1.377-7.122l-2.062-0.112c-8.121-0.544-12.909-1.076-14.363-1.62c-1.46-0.531-2.187-2.027-2.187-4.48
		c0-4.675,0.649-10.154,1.95-16.443l18.702-95.001h-22.592c-4.663-0.948-8.683-1.67-12.046-2.148
		c-3.369-0.479-6.111-0.721-8.257-0.721c-20.34,0-39.271,10.71-56.785,32.143s-26.268,44.603-26.268,69.511
		c0,9.581,2.045,16.792,6.142,21.621C273.887,354.855,280.028,357.268,288.209,357.268z M293.729,286.497
		c4.049-13.777,8.89-24.818,14.54-33.082c7.081-10.344,16.35-15.51,27.793-15.51c4.953,0,9.753,0.556,14.41,1.69
		c4.658,1.123,9.191,2.86,13.618,5.201l-7.943,39.874c-23.708,37.066-42.865,55.597-57.465,55.597c-3.677,0-6.425-1.377-8.264-4.132
		c-1.832-2.76-2.742-6.897-2.742-12.406C287.677,312.694,289.687,300.287,293.729,286.497z"/>
</g>
<g>
</g>
<g>
</g>
<g>
</g>
<g>
</g>
<g>
</g>
<g>
</g>
<g>
</g>
<g>
</g>
<g>
</g>
<g>
</g>
<g>
</g>
<g>
</g>
<g>
</g>
<g>
</g>
<g>
</g>
</svg>
