<?xml version="1.0" encoding="iso-8859-1"?>
<!-- Generator: Adobe Illustrator 16.0.0, SVG Export Plug-In . SVG Version: 6.00 Build 0)  -->
<!DOCTYPE svg PUBLIC "-//W3C//DTD SVG 1.1//EN" "http://www.w3.org/Graphics/SVG/1.1/DTD/svg11.dtd">
<svg version="1.1" id="Capa_1" xmlns="http://www.w3.org/2000/svg" xmlns:xlink="http://www.w3.org/1999/xlink" x="0px" y="0px"
	 width="467.399px" height="467.399px" viewBox="0 0 467.399 467.399" style="enable-background:new 0 0 467.399 467.399;"
	 xml:space="preserve">
<g>
	<path d="M0,357.796l2.016-10.392l3.183-0.165c10.507-0.567,17.026-1.88,19.544-3.942c2.506-2.069,9.132-11.484,19.863-28.26
		l129.649-209.619h12.25l39.717,206.604c2.905,15.202,5.84,24.767,8.798,28.667c2.971,3.913,8.811,6.101,17.528,6.55l4.186,0.165
		l-2.176,10.392h-93.077l2.187-10.392h5.187c16.219,0,24.32-2.684,24.32-8.051c0-5.703-0.946-13.707-2.846-23.997l-6.417-34.034
		H80.522l-20.995,33.372c-8.609,13.536-12.912,22.26-12.912,26.161c0,4.362,6.883,6.549,20.628,6.549h4.188l-2.172,10.392H0z
		 M87.192,266.735h93.647l-21.616-116.717L87.192,266.735z M398.273,357.796l15.309-76.793
		c-13.896,24.53-29.389,44.153-46.477,58.883c-17.064,14.735-32.97,22.095-47.712,22.095c-11.945,0-20.9-3.522-26.864-10.568
		c-5.976-7.046-8.954-17.566-8.954-31.558c0-36.363,12.772-70.185,38.337-101.467c25.558-31.274,53.19-46.914,82.875-46.914
		c3.126,0,7.14,0.357,12.052,1.055c4.918,0.695,10.77,1.75,17.591,3.142h32.97l-27.302,138.67
		c-1.897,9.174-2.854,17.165-2.854,23.998c0,3.569,1.069,5.757,3.191,6.537c2.116,0.792,9.103,1.572,20.96,2.353l3.014,0.165
		l-2.009,10.403H398.273L398.273,357.796z M418.564,256.018l11.609-58.194c-6.461-3.417-13.087-5.946-19.872-7.592
		c-6.798-1.646-13.808-2.474-21.043-2.474c-16.709,0-30.228,7.548-40.571,22.641c-8.239,12.07-15.309,28.17-21.22,48.296
		c-5.904,20.121-8.842,38.231-8.842,54.338c0,8.051,1.336,14.086,4.013,18.111c2.666,4.024,6.686,6.034,12.047,6.034
		C356.005,337.167,383.963,310.12,418.564,256.018z"/>
</g>
<g>
</g>
<g>
</g>
<g>
</g>
<g>
</g>
<g>
</g>
<g>
</g>
<g>
</g>
<g>
</g>
<g>
</g>
<g>
</g>
<g>
</g>
<g>
</g>
<g>
</g>
<g>
</g>
<g>
</g>
</svg>
