<?xml version="1.0" encoding="iso-8859-1"?>
<!-- Generator: Adobe Illustrator 16.0.0, SVG Export Plug-In . SVG Version: 6.00 Build 0)  -->
<!DOCTYPE svg PUBLIC "-//W3C//DTD SVG 1.1//EN" "http://www.w3.org/Graphics/SVG/1.1/DTD/svg11.dtd">
<svg version="1.1" id="Capa_1" xmlns="http://www.w3.org/2000/svg" xmlns:xlink="http://www.w3.org/1999/xlink" x="0px" y="0px"
	 width="494.306px" height="494.306px" viewBox="0 0 494.306 494.306" style="enable-background:new 0 0 494.306 494.306;"
	 xml:space="preserve">
<g>
	<path d="M166.829,113.688c-0.6-0.769-0.89-1.69-0.89-2.615c0-0.907,0.29-1.817,0.872-2.586c1.156-1.537,3.201-2.116,4.992-1.404
		l53.543,21.149V4.291c0-2.373,1.918-4.285,4.291-4.285L272.546,0c2.37,0,4.291,1.918,4.291,4.291v123.946l53.539-21.149
		c1.791-0.707,3.843-0.127,5.001,1.404c1.158,1.537,1.146,3.67-0.023,5.195l-80.865,105.176c-0.81,1.058-2.069,1.67-3.399,1.67
		c-1.335,0-2.588-0.618-3.41-1.67L166.829,113.688z M250.558,275.441c-0.816-1.058-2.069-1.666-3.404-1.666
		c-1.333,0-2.593,0.614-3.402,1.666l-80.856,105.176c-1.176,1.525-1.188,3.659-0.024,5.196c1.156,1.536,3.207,2.116,4.998,1.4
		l53.543-21.148v123.948c0,2.377,1.918,4.292,4.291,4.292l42.906-0.006c2.377,0,4.292-1.909,4.292-4.286V366.065l53.539,21.148
		c1.797,0.71,3.843,0.13,4.995-1.4c0.585-0.769,0.869-1.673,0.869-2.583c0-0.922-0.296-1.85-0.887-2.619L250.558,275.441z
		 M494.3,229.63c0-2.374-1.909-4.292-4.285-4.292H366.065l21.148-53.542c0.71-1.791,0.131-3.836-1.4-4.992
		c-0.769-0.582-1.673-0.872-2.583-0.872c-0.922,0-1.851,0.296-2.618,0.89l-105.171,80.862c-1.058,0.815-1.667,2.081-1.667,3.405
		c0,1.335,0.615,2.594,1.667,3.404l105.177,80.859c1.524,1.17,3.652,1.182,5.195,0.023c1.537-1.158,2.116-3.21,1.4-5.001
		l-21.148-53.539h123.949c2.376,0,4.291-1.921,4.291-4.292L494.3,229.63z M220.54,247.152c0-1.33-0.618-2.589-1.669-3.404
		l-105.183-80.854c-1.528-1.176-3.655-1.188-5.195-0.023c-1.537,1.155-2.116,3.207-1.404,4.998l21.149,53.542H4.292
		c-2.374,0-4.292,1.918-4.292,4.292l0.006,42.907c0,2.375,1.912,4.291,4.286,4.291h123.946l-21.155,53.539
		c-0.707,1.797-0.127,3.842,1.404,4.995c0.769,0.585,1.673,0.868,2.586,0.868c0.919,0,1.844-0.295,2.615-0.887l105.176-80.847
		C219.922,249.742,220.54,248.482,220.54,247.152z"/>
</g>
<g>
</g>
<g>
</g>
<g>
</g>
<g>
</g>
<g>
</g>
<g>
</g>
<g>
</g>
<g>
</g>
<g>
</g>
<g>
</g>
<g>
</g>
<g>
</g>
<g>
</g>
<g>
</g>
<g>
</g>
</svg>
