<?xml version="1.0" encoding="iso-8859-1"?>
<!-- Generator: Adobe Illustrator 16.0.0, SVG Export Plug-In . SVG Version: 6.00 Build 0)  -->
<!DOCTYPE svg PUBLIC "-//W3C//DTD SVG 1.1//EN" "http://www.w3.org/Graphics/SVG/1.1/DTD/svg11.dtd">
<svg version="1.1" id="Capa_1" xmlns="http://www.w3.org/2000/svg" xmlns:xlink="http://www.w3.org/1999/xlink" x="0px" y="0px"
	 width="528.091px" height="528.091px" viewBox="0 0 528.091 528.091" style="enable-background:new 0 0 528.091 528.091;"
	 xml:space="preserve">
<g>
	<path d="M313.698,468.576c0,17.455,5.899,33.484,15.723,46.376H200.708c-32.285,0-77.679-57.973-77.679-87.733s0-160.395,0-189.145
		s-32.288-78.211-32.288-78.211V83.2h32.288h40.344h241.683l0.337,310.203c-4.864-0.964-9.889-1.489-15.025-1.489
		C348.028,391.914,313.698,426.237,313.698,468.576z M423.562,59.471V26.879c0-3.349-2.708-6.053-6.053-6.053h-76.249V6.052
		c0-3.348-2.707-6.052-6.053-6.052H193.305c-3.348,0-6.052,2.704-6.052,6.052v14.774H82.251c-3.346,0-6.053,2.704-6.053,6.053
		v32.592c0,3.349,2.707,6.053,6.053,6.053H417.51C420.854,65.524,423.562,62.82,423.562,59.471z M451.893,469.586
		c0,32.261-26.25,58.505-58.505,58.505c-32.261,0-58.505-26.244-58.505-58.505s26.244-58.505,58.505-58.505
		C425.643,411.082,451.893,437.326,451.893,469.586z M427.682,469.586c0-18.908-15.38-34.294-34.294-34.294
		c-18.902,0-34.294,15.386-34.294,34.294c0,18.909,15.392,34.294,34.294,34.294C412.302,503.88,427.682,488.496,427.682,469.586z"/>
</g>
<g>
</g>
<g>
</g>
<g>
</g>
<g>
</g>
<g>
</g>
<g>
</g>
<g>
</g>
<g>
</g>
<g>
</g>
<g>
</g>
<g>
</g>
<g>
</g>
<g>
</g>
<g>
</g>
<g>
</g>
</svg>
