<?xml version="1.0" encoding="iso-8859-1"?>
<!-- Generator: Adobe Illustrator 16.0.0, SVG Export Plug-In . SVG Version: 6.00 Build 0)  -->
<!DOCTYPE svg PUBLIC "-//W3C//DTD SVG 1.1//EN" "http://www.w3.org/Graphics/SVG/1.1/DTD/svg11.dtd">
<svg version="1.1" id="Capa_1" xmlns="http://www.w3.org/2000/svg" xmlns:xlink="http://www.w3.org/1999/xlink" x="0px" y="0px"
	 width="472.306px" height="472.306px" viewBox="0 0 472.306 472.306" style="enable-background:new 0 0 472.306 472.306;"
	 xml:space="preserve">
<g>
	<path d="M411.915,0H60.378C47.142,0,36.417,10.725,36.417,23.968v2.663c0,13.243,10.725,37.956,23.962,37.956h15.259L96.015,457.15
		c0.443,8.5,7.45,15.155,15.962,15.155h250.33c8.535,0,15.551-6.703,15.965-15.227l18.536-392.492h15.107
		c13.24,0,23.975-24.713,23.975-37.956v-2.663C435.89,10.731,425.149,0,411.915,0z M159.987,290.101
		c-9.481,5.521-13.589-2.968-13.589-2.968c-1.011-4.717-1.587-9.623-1.587-14.67c0-36.156,27.328-65.613,61.229-66.523
		l-23.927-15.761c-4.54-2.994-5.932-9.307-3.118-14.115c2.822-4.823,8.783-6.286,13.305-3.304l41.254,27.172
		c2.172,1.433,3.715,3.721,4.303,6.372c0.582,2.645,0.15,5.435-1.203,7.743l-25.629,43.746c-1.821,3.121-4.974,4.835-8.207,4.835
		c-1.744,0-3.5-0.496-5.089-1.537c-4.54-2.99-5.925-9.303-3.112-14.127l12.046-20.557c-23.54,0.538-42.528,20.971-42.528,46.057
		c0,2.382,0.23,4.681,0.559,6.957C164.695,279.42,166.873,286.488,159.987,290.101z M284.344,341.418
		c-3.423,3.404-7.235,6.537-11.473,9.268c-30.399,19.576-69.978,12.566-89.094-15.439l-0.289,28.65
		c-0.068,5.42-4.614,10.03-10.188,10.255c-5.568,0.236-10.034-3.978-9.975-9.398l0.497-49.39c0.036-2.613,1.126-5.154,3.026-7.082
		c1.912-1.902,4.492-3.073,7.167-3.186l50.646-2.134c3.615-0.153,6.774,1.561,8.518,4.279c0.943,1.466,1.478,3.21,1.454,5.107
		c-0.062,5.438-4.613,10.024-10.181,10.261l-23.824,1.017c13.208,19.494,40.666,24.388,61.762,10.805
		c1.992-1.288,3.812-2.73,5.551-4.231c0,0,4.752-5.663,11.525-1.833C289.243,333.361,284.344,341.418,284.344,341.418z
		 M345.23,285.053l-41.258,27.16c-2.175,1.424-4.894,1.944-7.554,1.436c-2.66-0.52-5.06-2.004-6.632-4.161l-30.062-40.831
		c-2.14-2.902-2.482-6.49-1.205-9.457c0.686-1.608,1.85-3.021,3.428-4.067c4.546-2.984,10.899-1.772,14.21,2.72l14.126,19.197
		c8.808-21.834-2.458-47.351-25.517-57.272c-2.181-0.937-4.386-1.64-6.608-2.24c0,0-7.353-0.792-7.949-8.547
		c-1.324-10.888,8.098-11.31,8.098-11.31c4.74,0.942,9.463,2.355,14.103,4.344c33.213,14.292,49.485,51.04,36.931,82.532
		l23.927-15.758c4.54-2.985,10.894-1.768,14.198,2.719C350.774,276.021,349.77,282.085,345.23,285.053z M358.163,83.049H111.007
		l-3.384-18.462h257.189L358.163,83.049z"/>
</g>
<g>
</g>
<g>
</g>
<g>
</g>
<g>
</g>
<g>
</g>
<g>
</g>
<g>
</g>
<g>
</g>
<g>
</g>
<g>
</g>
<g>
</g>
<g>
</g>
<g>
</g>
<g>
</g>
<g>
</g>
</svg>
