<?xml version="1.0" encoding="iso-8859-1"?>
<!-- Generator: Adobe Illustrator 16.0.0, SVG Export Plug-In . SVG Version: 6.00 Build 0)  -->
<!DOCTYPE svg PUBLIC "-//W3C//DTD SVG 1.1//EN" "http://www.w3.org/Graphics/SVG/1.1/DTD/svg11.dtd">
<svg version="1.1" id="Capa_1" xmlns="http://www.w3.org/2000/svg" xmlns:xlink="http://www.w3.org/1999/xlink" x="0px" y="0px"
	 width="472.306px" height="472.306px" viewBox="0 0 472.306 472.306" style="enable-background:new 0 0 472.306 472.306;"
	 xml:space="preserve">
<g>
	<path d="M149.031,259.837c-9.475,5.521-13.589-2.967-13.589-2.967c-1.011-4.717-1.587-9.623-1.587-14.671
		c0-36.156,27.328-65.612,61.229-66.522l-23.933-15.761c-4.54-2.994-5.932-9.306-3.112-14.115c2.816-4.823,8.784-6.286,13.312-3.304
		l41.248,27.172c2.172,1.433,3.724,3.721,4.303,6.372c0.583,2.646,0.157,5.435-1.203,7.743l-25.635,43.743
		c-1.82,3.121-4.979,4.841-8.207,4.841c-1.743,0-3.499-0.497-5.083-1.543c-4.54-2.991-5.932-9.304-3.118-14.121l12.052-20.561
		c-23.54,0.538-42.534,20.972-42.534,46.057c0,2.382,0.23,4.682,0.559,6.957C153.745,249.156,155.917,256.226,149.031,259.837z
		 M336.509,241.266c-3.304-4.486-9.652-5.704-14.197-2.719l-23.933,15.758c12.56-31.496-3.7-68.234-36.931-82.532
		c-4.635-1.989-9.352-3.401-14.104-4.344c0,0-9.419,0.422-8.095,11.313c0.606,7.752,7.947,8.544,7.947,8.544
		c2.223,0.6,4.427,1.304,6.614,2.24c23.052,9.921,34.317,35.433,25.511,57.272l-14.127-19.195
		c-3.315-4.492-9.664-5.707-14.203-2.725c-1.584,1.049-2.743,2.465-3.435,4.069c-1.276,2.964-0.934,6.549,1.218,9.458l30.05,40.832
		c1.572,2.151,3.973,3.641,6.639,4.161c2.665,0.515,5.372-0.012,7.56-1.437l41.257-27.16
		C338.808,251.822,339.825,245.758,336.509,241.266z M268.529,298.109c-6.774-3.83-11.538,1.826-11.538,1.826
		c-1.737,1.514-3.553,2.949-5.55,4.238c-21.096,13.583-48.56,8.694-61.762-10.799l23.823-1.017
		c5.568-0.237,10.119-4.829,10.181-10.262c0.018-1.897-0.508-3.646-1.46-5.118c-1.744-2.707-4.909-4.434-8.517-4.268l-50.652,2.128
		c-2.669,0.118-5.249,1.282-7.161,3.18c-1.906,1.933-2.997,4.475-3.026,7.081l-0.497,49.391c-0.053,5.426,4.407,9.646,9.98,9.41
		c5.568-0.236,10.119-4.836,10.181-10.262l0.29-28.655c19.121,28.017,58.688,35.027,89.087,15.451
		c4.238-2.737,8.051-5.876,11.473-9.274C273.388,311.154,278.294,303.098,268.529,298.109z M435.893,23.968v2.663
		c0,13.243-10.729,37.956-23.968,37.956h-15.108L378.28,457.079c-0.402,8.523-7.424,15.227-15.959,15.227H111.982
		c-8.505,0-15.513-6.655-15.956-15.155L75.634,64.593h-15.25c-13.237,0-23.971-24.713-23.971-37.956v-2.669
		C36.414,10.725,47.147,0,60.385,0h351.533C425.164,0,435.893,10.731,435.893,23.968z M364.827,64.587H107.641l7.82,150.621
		c-1.814,7.116-2.79,14.561-2.79,22.228c0,6.324,0.692,12.761,2.06,19.115l0.532,2.506l1.114,2.294
		c2.646,5.443,8.054,11.479,15.761,14.611c-0.207,1.371-0.438,2.754-0.455,4.161l-0.497,49.379
		c-0.085,8.203,3.032,15.923,8.783,21.728c5.805,5.863,13.592,9.097,21.941,9.097l1.318-0.029
		c12.566-0.521,23.194-8.223,27.896-19.045c10.35,4.362,21.698,6.691,33.422,6.691h0.006c17.233,0,34.117-5.001,48.846-14.494
		c5.296-3.416,10.32-7.471,14.919-12.046l1.82-1.809l1.336-2.198c1.359-2.211,5.071-9.387,4.149-18.613
		c3.18-0.857,6.271-2.087,9.05-3.907l41.228-27.142c6.969-4.575,11.804-11.881,13.27-20.05c1.063-5.958,0.242-12.105-2.157-17.629
		L364.827,64.587z"/>
</g>
<g>
</g>
<g>
</g>
<g>
</g>
<g>
</g>
<g>
</g>
<g>
</g>
<g>
</g>
<g>
</g>
<g>
</g>
<g>
</g>
<g>
</g>
<g>
</g>
<g>
</g>
<g>
</g>
<g>
</g>
</svg>
