<?xml version="1.0" encoding="iso-8859-1"?>
<!-- Generator: Adobe Illustrator 16.0.0, SVG Export Plug-In . SVG Version: 6.00 Build 0)  -->
<!DOCTYPE svg PUBLIC "-//W3C//DTD SVG 1.1//EN" "http://www.w3.org/Graphics/SVG/1.1/DTD/svg11.dtd">
<svg version="1.1" id="Capa_1" xmlns="http://www.w3.org/2000/svg" xmlns:xlink="http://www.w3.org/1999/xlink" x="0px" y="0px"
	 width="89.312px" height="89.312px" viewBox="0 0 89.312 89.312" style="enable-background:new 0 0 89.312 89.312;"
	 xml:space="preserve">
<g>
	<path d="M71.519,15.681v-0.44c0-2.188-1.773-3.96-3.961-3.96h-9.627c0.023-0.009,0.039-0.018,0.064-0.026
		c2.213-0.728,0.77-0.764,0.77-0.764L51.72,3.393L47.964,3.82c0,0-0.184,1.97-1.42,2.983c-0.188,0.155-0.318,0.314-0.426,0.475
		c0.059-0.167-0.455-0.181-0.455-0.181L38.62,0l-3.758,0.428c0,0-0.184,1.97-1.418,2.983C32.21,4.424,32.917,5.66,32.917,5.66
		l-1.395,1.384l0.863,0.871c0,0-1.826,1.795-2.145,3.365h-2.77c0.822-2.003,0.711-5.785,0.711-5.785s-3.457,1.734-2.414-0.35
		c1.041-2.084,0-1.084,0-1.084h-10l-2.344,2.968c0,0,1.27,1.518,1.119,3.108c-0.047,0.494,0.061,0.858,0.221,1.143H9.476
		c-2.186,0-3.959,1.772-3.959,3.96v0.44c0,2.188,1.773,6.271,3.959,6.271h2.521l3.367,64.857c0.074,1.404,1.232,2.505,2.637,2.505
		H59.36c1.41,0,2.569-1.107,2.637-2.517L65.06,21.95h2.496C69.745,21.951,71.519,17.868,71.519,15.681z M44.894,7.861
		c0.792-0.261,1.113-0.432,1.201-0.545c-0.555,0.875-0.078,1.736-0.078,1.736L45.556,9.51C44.622,9.097,43.378,8.361,44.894,7.861z
		 M45.155,10.974l0.305,0.307h-0.648C44.931,11.176,45.046,11.073,45.155,10.974z M25.935,59.21c-1.566,0.911-2.244-0.49-2.244-0.49
		c-0.168-0.78-0.262-1.59-0.262-2.425c0-5.973,4.514-10.84,10.115-10.99l-3.953-2.604c-0.75-0.495-0.98-1.538-0.514-2.332
		c0.465-0.797,1.451-1.039,2.197-0.546l6.816,4.489c0.359,0.237,0.615,0.615,0.711,1.053c0.096,0.437,0.025,0.897-0.199,1.279
		l-4.234,7.227c-0.301,0.516-0.822,0.8-1.355,0.8c-0.289,0-0.578-0.082-0.842-0.255c-0.75-0.494-0.979-1.537-0.514-2.333l1.99-3.397
		c-3.889,0.09-7.025,3.465-7.025,7.609c0,0.395,0.037,0.773,0.092,1.15C26.714,57.445,27.073,58.613,25.935,59.21z M46.481,67.688
		c-0.565,0.563-1.195,1.08-1.896,1.532c-5.021,3.234-11.561,2.076-14.719-2.552l-0.047,4.734c-0.012,0.896-0.762,1.656-1.684,1.694
		c-0.92,0.039-1.658-0.657-1.648-1.554l0.082-8.16c0.006-0.432,0.186-0.852,0.5-1.17c0.316-0.314,0.742-0.507,1.184-0.525
		l8.369-0.353c0.596-0.026,1.119,0.258,1.406,0.706c0.156,0.242,0.244,0.531,0.24,0.845c-0.01,0.897-0.762,1.656-1.682,1.695
		l-3.936,0.168c2.182,3.221,6.719,4.028,10.205,1.784c0.328-0.213,0.629-0.45,0.916-0.699c0,0,0.787-0.936,1.906-0.303
		C47.292,66.357,46.481,67.688,46.481,67.688z M56.54,58.376l-6.814,4.487c-0.361,0.235-0.809,0.321-1.25,0.236
		c-0.439-0.085-0.834-0.33-1.096-0.688l-4.965-6.745c-0.355-0.479-0.412-1.072-0.201-1.563c0.115-0.265,0.307-0.498,0.568-0.672
		c0.75-0.492,1.799-0.292,2.346,0.45l2.334,3.172c1.455-3.608-0.406-7.823-4.215-9.463c-0.359-0.155-0.725-0.271-1.092-0.37
		c0,0-1.215-0.131-1.314-1.412c-0.217-1.799,1.34-1.869,1.34-1.869c0.783,0.156,1.563,0.389,2.328,0.718
		c5.488,2.362,8.176,8.432,6.102,13.636l3.953-2.604c0.75-0.492,1.801-0.291,2.346,0.45C57.456,56.883,57.29,57.885,56.54,58.376z
		 M58.679,25.001H17.843l-0.559-3.05h42.493L58.679,25.001z M83.796,80.906c0,0-2.975,3.131-5.008,3.711s-0.445,1.897-0.445,1.897
		l-1.607-0.377l-0.973,0.722l-0.854-1.15c0,0-3.551-0.146-6.301-1.479S69.835,79,69.835,79l-0.863-0.871l1.395-1.384
		c0,0-0.707-1.235,0.527-2.249s1.418-2.983,1.418-2.983l3.758-0.428l7.043,7.098c0,0,1.445,0.036-0.77,0.765
		C80.13,79.674,83.796,80.906,83.796,80.906z"/>
</g>
<g>
</g>
<g>
</g>
<g>
</g>
<g>
</g>
<g>
</g>
<g>
</g>
<g>
</g>
<g>
</g>
<g>
</g>
<g>
</g>
<g>
</g>
<g>
</g>
<g>
</g>
<g>
</g>
<g>
</g>
</svg>
