<?xml version="1.0" encoding="iso-8859-1"?>
<!-- Generator: Adobe Illustrator 16.0.0, SVG Export Plug-In . SVG Version: 6.00 Build 0)  -->
<!DOCTYPE svg PUBLIC "-//W3C//DTD SVG 1.1//EN" "http://www.w3.org/Graphics/SVG/1.1/DTD/svg11.dtd">
<svg version="1.1" id="Capa_1" xmlns="http://www.w3.org/2000/svg" xmlns:xlink="http://www.w3.org/1999/xlink" x="0px" y="0px"
	 width="472.3px" height="472.3px" viewBox="0 0 472.3 472.3" style="enable-background:new 0 0 472.3 472.3;" xml:space="preserve"
	>
<g>
	<path d="M411.915,0H60.379C47.142,0,36.411,10.725,36.411,23.968v2.663c0,13.243,10.731,37.956,23.968,37.956h15.252
		l20.392,392.552c0.44,8.5,7.451,15.161,15.953,15.161h250.336c8.535,0,15.557-6.697,15.965-15.232l18.53-392.486h15.114
		c13.239,0,23.968-24.713,23.968-37.956v-2.657C435.884,10.731,425.149,0,411.915,0z M347.074,440.34H127.144L107.632,64.587h257.18
		L347.074,440.34z M154.315,255.073c-9.472,5.521-13.589-2.968-13.589-2.968c-1.011-4.717-1.584-9.622-1.584-14.67
		c0-36.156,27.325-65.613,61.227-66.523l-23.933-15.758c-4.54-2.997-5.932-9.31-3.109-14.115c2.814-4.826,8.781-6.289,13.309-3.307
		l41.248,27.172c2.175,1.434,3.724,3.721,4.306,6.372c0.579,2.645,0.157,5.435-1.206,7.743l-25.632,43.742
		c-1.824,3.121-4.983,4.841-8.207,4.841c-1.744,0-3.5-0.496-5.086-1.542c-4.54-2.991-5.932-9.303-3.115-14.121l12.049-20.561
		c-23.54,0.538-42.531,20.971-42.531,46.057c0,2.382,0.23,4.682,0.556,6.957C159.023,244.393,161.205,251.462,154.315,255.073z
		 M339.562,250.025l-41.257,27.16c-2.175,1.43-4.895,1.95-7.554,1.436c-2.66-0.514-5.06-2.004-6.644-4.16l-30.051-40.829
		c-2.151-2.905-2.488-6.49-1.212-9.46c0.691-1.605,1.851-3.021,3.435-4.067c4.539-2.985,10.888-1.767,14.197,2.722l14.133,19.194
		c8.807-21.834-2.465-47.351-25.511-57.271c-2.181-0.938-4.392-1.641-6.614-2.24c0,0-7.354-0.792-7.95-8.544
		c-1.317-10.891,8.104-11.313,8.104-11.313c4.735,0.942,9.464,2.355,14.098,4.348c33.219,14.289,49.479,51.033,36.925,82.529
		l23.938-15.759c4.539-2.985,10.894-1.767,14.197,2.725C345.106,240.994,344.096,247.059,339.562,250.025z M278.669,306.391
		c-3.422,3.404-7.229,6.537-11.473,9.268c-30.396,19.576-69.969,12.566-89.081-15.438l-0.293,28.649
		c-0.059,5.42-4.61,10.03-10.178,10.255c-5.577,0.236-10.036-3.978-9.983-9.397l0.496-49.391c0.033-2.613,1.12-5.154,3.026-7.081
		c1.915-1.903,4.492-3.074,7.161-3.187L219,267.935c3.608-0.153,6.773,1.561,8.515,4.28c0.951,1.465,1.478,3.209,1.46,5.106
		c-0.06,5.438-4.614,10.024-10.182,10.261l-23.823,1.017c13.202,19.494,40.669,24.388,61.759,10.806
		c1.998-1.289,3.818-2.731,5.556-4.232c0,0,4.765-5.663,11.538-1.832C283.575,298.328,278.669,306.391,278.669,306.391z"/>
</g>
<g>
</g>
<g>
</g>
<g>
</g>
<g>
</g>
<g>
</g>
<g>
</g>
<g>
</g>
<g>
</g>
<g>
</g>
<g>
</g>
<g>
</g>
<g>
</g>
<g>
</g>
<g>
</g>
<g>
</g>
</svg>
