<?xml version="1.0" encoding="iso-8859-1"?>
<!-- Generator: Adobe Illustrator 16.0.0, SVG Export Plug-In . SVG Version: 6.00 Build 0)  -->
<!DOCTYPE svg PUBLIC "-//W3C//DTD SVG 1.1//EN" "http://www.w3.org/Graphics/SVG/1.1/DTD/svg11.dtd">
<svg version="1.1" id="Capa_1" xmlns="http://www.w3.org/2000/svg" xmlns:xlink="http://www.w3.org/1999/xlink" x="0px" y="0px"
	 width="521.956px" height="521.956px" viewBox="0 0 521.956 521.956" style="enable-background:new 0 0 521.956 521.956;"
	 xml:space="preserve">
<g>
	<path d="M279.168,152.764c0,10.048-8.145,18.193-18.196,18.193c-10.048,0-18.188-8.145-18.188-18.193
		c0-10.054,8.139-18.193,18.188-18.193C271.023,134.571,279.168,142.71,279.168,152.764z M422.25,7.947v400.227
		c0,4.393-3.563,7.944-7.95,7.944H107.659c-4.401,0-7.953-3.559-7.953-7.944V7.947c0-4.395,3.559-7.947,7.953-7.947H414.3
		C418.687,0,422.25,3.559,422.25,7.947z M112.937,32.468c0,10.246,8.311,18.551,18.551,18.551c10.247,0,18.557-8.305,18.557-18.551
		c0-10.241-8.311-18.551-18.557-18.551C121.248,13.917,112.937,22.228,112.937,32.468z M150.051,382.332
		c0-10.249-8.311-18.548-18.557-18.548c-10.24,0-18.551,8.299-18.551,18.548c0,10.244,8.311,18.555,18.551,18.555
		C141.74,400.887,150.051,392.576,150.051,382.332z M156.449,322.03c14.266,0,25.845-11.567,25.845-25.842
		c0-14.28-11.573-25.848-25.845-25.848s-25.845,11.567-25.845,25.848C130.604,310.463,142.178,322.03,156.449,322.03z
		 M350.322,369.08h-179.07v29.152h179.07V369.08z M356.363,350.863c10.095,0,19.576-3.931,26.716-11.064
		c14.719-14.725,14.719-38.687-0.012-53.416c-2.163-2.157-4.622-4.061-7.329-5.68l-44.23-33.464
		c29.548-21.705,48.734-56.681,48.734-96.153c0-65.87-53.397-119.271-119.27-119.271c-65.87,0-119.268,53.401-119.268,119.271
		c0,65.873,53.398,119.261,119.268,119.261c6.573,0,13.006-0.55,19.284-1.578l42.31,61.117c1.838,3.706,4.22,7.04,7.099,9.913
		C336.792,346.927,346.279,350.863,356.363,350.863z M412.438,382.332c0-10.249-8.311-18.548-18.542-18.548
		c-10.255,0-18.56,8.299-18.56,18.548c0,10.244,8.305,18.555,18.56,18.555C404.128,400.887,412.438,392.576,412.438,382.332z
		 M412.438,32.468c0-10.241-8.311-18.551-18.542-18.551c-10.255,0-18.56,8.311-18.56,18.551c0,10.246,8.305,18.551,18.56,18.551
		C404.128,51.025,412.438,42.714,412.438,32.468z M274.41,255c0.608,0.878,0.703,2.013,0.26,2.982
		c-0.443,0.97-1.377,1.641-2.435,1.744c-3.739,0.387-7.528,0.585-11.257,0.585c-59.303,0-107.549-48.244-107.549-107.546
		c0-59.303,48.241-107.549,107.543-107.549c59.299,0,107.555,48.252,107.555,107.555c0,35.299-17.372,68.381-46.471,88.501
		c-1.075,0.745-2.5,0.707-3.546-0.079l-68.344-51.708c-0.26-0.192-0.538-0.352-0.815-0.508c-0.502-0.29-0.896-0.709-1.173-1.191
		c-0.316,0.112-0.467,0.21-1.038,0.163c-0.215-0.012-0.428-0.012-0.647-0.056c-2.819-0.55-5.792,0.299-7.85,2.264
		c-3.171,3.044-3.662,7.882-1.162,11.497L274.41,255z M260.972,184.771c17.64,0,32.003-14.357,32.003-32.006
		c0-17.644-14.363-32.001-32.003-32.001c-17.644,0-32.001,14.357-32.001,32.001c0,12.625,7.415,24.045,18.92,29.211
		c0.818,0.192,1.501,0.712,1.912,1.41c0.298-0.104,0.612-0.15,0.928-0.15c0.278,0,0.562,0.041,0.854,0.124
		C254.618,184.298,257.783,184.771,260.972,184.771z M266.431,254.11L232.5,205.089c-4.2-6.07-3.384-14.194,1.956-19.301
		c1.1-1.061,2.335-1.921,3.674-2.586c-9.448-7.093-15.217-18.291-15.217-30.437c0-20.986,17.07-38.054,38.054-38.054
		c20.98,0,38.05,17.067,38.05,38.054c0,20.658-16.532,37.524-37.069,38.047l58.442,44.219c26.386-19.095,42.073-49.68,42.073-82.266
		c0-55.969-45.524-101.502-101.503-101.502c-55.963,0-101.497,45.527-101.497,101.502
		C159.476,210.536,208.127,257.346,266.431,254.11z M375.632,295.752c-1.69-1.68-3.559-3.057-5.526-4.186l-124.307-94.043
		l88.104,127.285c1.253,2.707,2.955,5.255,5.178,7.489c10.096,10.089,26.456,10.089,36.552,0
		C385.722,322.208,385.722,305.847,375.632,295.752z M156.449,279.674c-9.126,0-16.518,7.389-16.518,16.515
		c0,9.132,7.391,16.521,16.518,16.521c9.12,0,16.518-7.395,16.518-16.521C172.967,287.074,165.569,279.674,156.449,279.674z
		 M296.197,481.355c0-4.404-2.589-7.95-5.774-7.95h-13.039v-33.939c0-4.397-2.578-7.95-5.77-7.95h-17.93
		c-3.183,0-5.769,3.564-5.769,7.95v33.939h-15.202c-3.183,0-5.769,3.559-5.769,7.95v9.126h-60.665v14.647h60.659v8.883
		c0,4.393,2.586,7.944,5.769,7.944h15.202h27.316h15.197c3.186,0,5.774-3.558,5.774-7.944v-8.883h62.997v-14.647h-62.997V481.355z"
		/>
</g>
<g>
</g>
<g>
</g>
<g>
</g>
<g>
</g>
<g>
</g>
<g>
</g>
<g>
</g>
<g>
</g>
<g>
</g>
<g>
</g>
<g>
</g>
<g>
</g>
<g>
</g>
<g>
</g>
<g>
</g>
</svg>
