<?xml version="1.0" encoding="iso-8859-1"?>
<!-- Generator: Adobe Illustrator 16.0.0, SVG Export Plug-In . SVG Version: 6.00 Build 0)  -->
<!DOCTYPE svg PUBLIC "-//W3C//DTD SVG 1.1//EN" "http://www.w3.org/Graphics/SVG/1.1/DTD/svg11.dtd">
<svg version="1.1" id="Capa_1" xmlns="http://www.w3.org/2000/svg" xmlns:xlink="http://www.w3.org/1999/xlink" x="0px" y="0px"
	 width="411px" height="410.999px" viewBox="0 0 411 410.999" style="enable-background:new 0 0 411 410.999;" xml:space="preserve"
	>
<g>
	<g>
		<path d="M356.931,0H54.07c-4.333,0-7.848,3.521-7.848,7.857v395.277c0,4.354,3.519,7.865,7.848,7.865h302.859
			c4.334,0,7.848-3.521,7.848-7.865V7.857C364.785,3.521,361.265,0.005,356.931,0z M84.499,390.463
			c-9.79,0-17.736-7.939-17.736-17.734c0-9.798,7.946-17.738,17.736-17.738c9.796,0,17.737,7.94,17.737,17.738
			C102.235,382.521,94.294,390.463,84.499,390.463z M84.499,56.011c-9.79,0-17.736-7.937-17.736-17.736
			c0-9.796,7.941-17.737,17.736-17.737c9.796,0,17.737,7.941,17.737,17.737C102.235,48.075,94.294,56.011,84.499,56.011z
			 M272.777,384.344H137.873v-21.967h134.904V384.344L272.777,384.344z M300.615,300.604c-5.104,5.104-11.879,7.914-19.09,7.914
			c-7.209,0-13.984-2.812-19.078-7.902c-3.359-3.355-21.254-26.447-38.924-49.514c-5.857,1.059-11.863,1.696-18.023,1.696
			c-55.848,0-101.121-45.272-101.121-101.119c0-55.848,45.273-101.121,101.121-101.121c55.843,0,101.121,45.273,101.121,101.121
			c0,33.834-16.68,63.711-42.201,82.068c17.98,13.849,33.5,25.989,36.195,28.685C311.136,272.963,311.136,290.088,300.615,300.604z
			 M326.5,390.463c-9.791,0-17.736-7.939-17.736-17.734c0-9.798,7.945-17.738,17.736-17.738c9.795,0,17.736,7.94,17.736,17.738
			C344.236,382.521,336.294,390.463,326.5,390.463z M326.5,56.011c-9.791,0-17.736-7.937-17.736-17.736
			c0-9.796,7.941-17.737,17.736-17.737s17.736,7.941,17.736,17.737C344.236,48.075,336.294,56.011,326.5,56.011z"/>
		<path d="M199.894,199.894c0,0,65.459,86.345,71.23,92.11c5.768,5.764,15.113,5.764,20.879,0c5.764-5.768,5.764-15.111,0-20.885
			C286.238,265.361,199.894,199.894,199.894,199.894z"/>
		<path d="M226.701,151.68c0-11.709-9.494-21.201-21.201-21.201c-11.709,0-21.201,9.492-21.201,21.201s9.492,21.201,21.201,21.201
			C217.207,172.879,226.701,163.389,226.701,151.68z"/>
	</g>
</g>
<g>
</g>
<g>
</g>
<g>
</g>
<g>
</g>
<g>
</g>
<g>
</g>
<g>
</g>
<g>
</g>
<g>
</g>
<g>
</g>
<g>
</g>
<g>
</g>
<g>
</g>
<g>
</g>
<g>
</g>
</svg>
