<?xml version="1.0" encoding="iso-8859-1"?>
<!-- Generator: Adobe Illustrator 16.0.0, SVG Export Plug-In . SVG Version: 6.00 Build 0)  -->
<!DOCTYPE svg PUBLIC "-//W3C//DTD SVG 1.1//EN" "http://www.w3.org/Graphics/SVG/1.1/DTD/svg11.dtd">
<svg version="1.1" id="Capa_1" xmlns="http://www.w3.org/2000/svg" xmlns:xlink="http://www.w3.org/1999/xlink" x="0px" y="0px"
	 width="473.109px" height="473.109px" viewBox="0 0 473.109 473.109" style="enable-background:new 0 0 473.109 473.109;"
	 xml:space="preserve">
<g>
	<path d="M159.892,82.05c0-10.03,8.127-18.158,18.158-18.158h276.901c10.031,0,18.158,8.127,18.158,18.158
		c0,10.028-8.127,18.158-18.158,18.158H178.05C168.02,100.208,159.892,92.072,159.892,82.05z M454.951,372.901H178.05
		c-10.03,0-18.158,8.127-18.158,18.158c0,10.03,8.127,18.157,18.158,18.157h276.901c10.031,0,18.158-8.127,18.158-18.157
		C473.109,381.028,464.982,372.901,454.951,372.901z M49.432,100.208h63.547c10.03,0,18.158-8.13,18.158-18.158
		c0-10.03-8.127-18.158-18.158-18.158H49.432c-10.03,0-18.158,8.127-18.158,18.158C31.274,92.078,39.401,100.208,49.432,100.208z
		 M112.979,372.901H49.432c-10.03,0-18.158,8.127-18.158,18.158c0,10.03,8.127,18.157,18.158,18.157h63.547
		c10.03,0,18.158-8.127,18.158-18.157C131.136,381.028,123.009,372.901,112.979,372.901z M178.05,203.969h183.352
		c10.031,0,18.158-8.131,18.158-18.158c0-10.03-8.127-18.158-18.158-18.158H178.05c-10.03,0-18.158,8.127-18.158,18.158
		C159.892,195.838,168.02,203.969,178.05,203.969z M178.05,303.976h183.352c10.031,0,18.158-8.133,18.158-18.158
		c0-10.03-8.127-18.157-18.158-18.157H178.05c-10.03,0-18.158,8.127-18.158,18.157C159.892,295.843,168.02,303.976,178.05,303.976z
		 M93.446,181.487c-7.093-7.087-18.581-7.087-25.676,0c-7.093,7.09-7.093,18.589,0,25.682l7.518,7.524h-57.13
		C8.127,214.693,0,222.821,0,232.852c0,10.03,8.127,18.157,18.158,18.157h57.13l-7.518,7.525c-7.093,7.08-7.093,18.583,0,25.676
		c3.549,3.547,8.195,5.32,12.838,5.32c4.643,0,9.292-1.773,12.838-5.32l38.521-38.526c3.407-3.404,5.319-8.021,5.319-12.832
		c0-4.82-1.912-9.437-5.319-12.844L93.446,181.487z"/>
</g>
<g>
</g>
<g>
</g>
<g>
</g>
<g>
</g>
<g>
</g>
<g>
</g>
<g>
</g>
<g>
</g>
<g>
</g>
<g>
</g>
<g>
</g>
<g>
</g>
<g>
</g>
<g>
</g>
<g>
</g>
</svg>
