<?xml version="1.0" encoding="iso-8859-1"?>
<!-- Generator: Adobe Illustrator 16.0.0, SVG Export Plug-In . SVG Version: 6.00 Build 0)  -->
<!DOCTYPE svg PUBLIC "-//W3C//DTD SVG 1.1//EN" "http://www.w3.org/Graphics/SVG/1.1/DTD/svg11.dtd">
<svg version="1.1" id="Capa_1" xmlns="http://www.w3.org/2000/svg" xmlns:xlink="http://www.w3.org/1999/xlink" x="0px" y="0px"
	 width="482.626px" height="482.626px" viewBox="0 0 482.626 482.626" style="enable-background:new 0 0 482.626 482.626;"
	 xml:space="preserve">
<g>
	<path d="M459.94,259.204H164.257c-9.141-46.352-41.801-80.693-80.815-80.693C37.356,178.511,0,226.376,0,285.437
		s37.356,106.926,83.442,106.926c40.977,0,74.981-37.864,82.038-87.764h177.497c-0.626,2.436-1.069,4.941-1.069,7.566v52.652
		l20.174-0.035v-25.369h14.12v25.712h15.386v-32.272h14.121v32.272h11.851v-25.712h14.121v26.469l23.708,0.166v-53.883
		c0-2.625-0.443-5.131-1.075-7.566h5.615c12.53,0,22.697-10.154,22.697-22.697C482.638,269.371,472.471,259.204,459.94,259.204z
		 M83.448,342.782c-20.434,0-37.013-25.676-37.013-57.346s16.574-57.35,37.013-57.35s37.004,25.68,37.004,57.35
		S103.888,342.782,83.448,342.782z M219.136,208.913l44.768-44.777l-44.768-44.771c-6.659-6.658-6.659-17.457,0-24.106
		c6.658-6.653,17.448-6.659,24.104,0l44.78,44.776l44.78-44.776c6.655-6.659,17.442-6.659,24.104,0
		c6.656,6.655,6.656,17.454,0,24.106l-44.768,44.771l44.768,44.777c6.656,6.659,6.656,17.458,0,24.107
		c-3.327,3.334-7.689,4.995-12.058,4.995c-4.362,0-8.718-1.661-12.046-4.995l-44.78-44.771l-44.78,44.771
		c-3.324,3.334-7.684,4.995-12.052,4.995c-4.359,0-8.724-1.661-12.052-4.995C212.477,226.37,212.477,215.571,219.136,208.913z"/>
</g>
<g>
</g>
<g>
</g>
<g>
</g>
<g>
</g>
<g>
</g>
<g>
</g>
<g>
</g>
<g>
</g>
<g>
</g>
<g>
</g>
<g>
</g>
<g>
</g>
<g>
</g>
<g>
</g>
<g>
</g>
</svg>
