<?xml version="1.0" encoding="iso-8859-1"?>
<!-- Generator: Adobe Illustrator 16.0.0, SVG Export Plug-In . SVG Version: 6.00 Build 0)  -->
<!DOCTYPE svg PUBLIC "-//W3C//DTD SVG 1.1//EN" "http://www.w3.org/Graphics/SVG/1.1/DTD/svg11.dtd">
<svg version="1.1" id="Capa_1" xmlns="http://www.w3.org/2000/svg" xmlns:xlink="http://www.w3.org/1999/xlink" x="0px" y="0px"
	 width="502.102px" height="502.102px" viewBox="0 0 502.102 502.102" style="enable-background:new 0 0 502.102 502.102;"
	 xml:space="preserve">
<g>
	<path d="M39.62,288.938v-7.14v-22.78h30.118v-0.201h22.777h7.146h22.978v22.976v7.14v29.927h37.259v-29.921v-7.14v-22.976v-7.146
		v-22.78v-7.342v-22.774v-7.149v-30.124H129.78v-30.311H99.656v-29.731H62.583v30.125H32.468v30.118H2.548v29.923v7.149v22.969
		v7.146v22.78v7.341v22.78v7.14v29.927H39.62V288.938z M39.62,198.782v-7.149V168.85h29.926v-30.124h22.969v29.731h30.13v23.176
		v7.149v22.774h-30.13v0.195H69.738h-7.149H39.62V198.782z M209.445,318.865h22.969h7.149h22.769h7.151h30.134v-29.927h30.109
		v-30.121v-7.14V221.55h-30.109v-22.777h30.109v-29.929v-7.341v-29.921h-30.109v-30.121h-30.134h-7.151h-22.769h-7.149h-22.969
		h-7.155h-29.917v30.121v7.339v22.78v7.143v22.783v7.341v22.777v7.146v22.969v7.146v22.786v7.14v29.927h29.917h7.155V318.865z
		 M209.445,168.85v-7.14v-22.783v-0.201h22.969h7.149h22.769h7.151h22.97v22.783v7.341v22.783h-22.97h-7.151h-22.769h-7.149h-22.969
		V168.85z M209.445,259.019v-7.152v-22.969h22.969h7.149h22.769h7.151h22.97v22.78v7.14v22.976h-22.97h-7.151h-22.769h-7.149
		h-22.969V259.019z M372.118,288.938h-29.914v-30.121v-7.14v-22.78v-7.146v-22.969v-7.149V168.85v-7.14v-30.118h29.926v-30.125
		h30.115h7.158h22.769h7.14h30.134v30.125h30.115v37.258h-37.268v-30.124h-22.981h-7.14h-22.769h-7.158h-22.975v22.984v7.14v22.783
		v7.149v22.969v7.146v22.78h0.201v30.121h22.773h7.158h22.769h7.347h22.774v-30.121h37.268v37.261h-30.115v29.927h-29.927h-7.347
		h-22.769h-7.158H372.13v-29.927H372.118z M33.479,333.695v33.467H0v-33.467H33.479z M33.479,367.162h33.47v33.479h-33.47V367.162z
		 M100.418,333.695v33.467h-33.47v-33.467H100.418z M100.418,367.162h33.479v33.479h-33.479V367.162z M167.366,333.695v33.467
		h-33.476v-33.467H167.366z M167.366,367.162h33.473v33.479h-33.473V367.162z M234.309,333.695v33.467h-33.47v-33.467H234.309z
		 M234.309,367.162h33.479v33.479h-33.479V367.162z M301.26,333.695v33.467h-33.473v-33.467H301.26z M301.26,367.162h33.479v33.479
		H301.26V367.162z M368.205,333.695v33.467h-33.467v-33.467H368.205z M368.205,367.162h33.479v33.479h-33.479V367.162z
		 M435.15,333.695v33.467h-33.467v-33.467H435.15z M502.102,333.695v33.467h-33.473v-33.467H502.102z M435.15,367.162h33.473v33.479
		H435.15V367.162z"/>
</g>
<g>
</g>
<g>
</g>
<g>
</g>
<g>
</g>
<g>
</g>
<g>
</g>
<g>
</g>
<g>
</g>
<g>
</g>
<g>
</g>
<g>
</g>
<g>
</g>
<g>
</g>
<g>
</g>
<g>
</g>
</svg>
