<?xml version="1.0" encoding="iso-8859-1"?>
<!-- Generator: Adobe Illustrator 16.0.0, SVG Export Plug-In . SVG Version: 6.00 Build 0)  -->
<!DOCTYPE svg PUBLIC "-//W3C//DTD SVG 1.1//EN" "http://www.w3.org/Graphics/SVG/1.1/DTD/svg11.dtd">
<svg version="1.1" id="Capa_1" xmlns="http://www.w3.org/2000/svg" xmlns:xlink="http://www.w3.org/1999/xlink" x="0px" y="0px"
	 width="525.68px" height="525.68px" viewBox="0 0 525.68 525.68" style="enable-background:new 0 0 525.68 525.68;"
	 xml:space="preserve">
<g>
	<path d="M504.486,202.314h-6.354c-21.178-82.52-84.612-148.242-165.779-172.718v-8.411C332.353,9.502,322.854,0,311.169,0h-92.3
		c-11.68,0-21.184,9.502-21.184,21.185v6.765c-83.9,23.055-149.855,89.906-171.53,174.365h-4.968
		c-11.683,0-21.184,9.501-21.184,21.184v92.303c0,11.68,9.501,21.184,21.184,21.184h8.925
		c24.979,77.981,88.242,138.945,167.579,160.75v6.762c0,11.68,9.504,21.184,21.184,21.184h92.306
		c11.68,0,21.185-9.504,21.185-21.184v-8.411c76.639-23.111,137.437-83.017,161.812-159.101h10.314
		c11.686,0,21.185-9.504,21.185-21.184v-92.303C525.671,211.815,516.166,202.314,504.486,202.314z M484.839,190.983l-67.104,11.481
		c-16.681-40.793-49.113-73.533-89.708-90.583l11.774-68.861C408.354,66.807,462.401,121.821,484.839,190.983z M262.139,414.546
		c-82.219,0-149.099-66.874-149.099-149.093c0-82.216,66.88-149.105,149.099-149.105c82.224,0,149.111,66.896,149.111,149.105
		C411.25,347.672,344.363,414.546,262.139,414.546z M203.738,21.185c0-8.349,6.792-15.132,15.131-15.132h92.3
		c8.346,0,15.132,6.783,15.132,15.132v6.679c-20.452-5.592-41.955-8.636-64.162-8.636c-20.129,0-39.679,2.5-58.401,7.131V21.185z
		 M182.651,44.904l11.591,69.439c-38.29,17.759-68.71,49.645-84.536,88.957l-67.058-11.47
		C64.335,124.059,116.338,69.75,182.651,44.904z M21.187,330.932c-8.343,0-15.131-6.785-15.131-15.131v-92.303
		c0-8.346,6.789-15.131,15.131-15.131h3.57c-4.025,17.528-6.221,35.742-6.221,54.473c0,23.638,3.449,46.471,9.756,68.092H21.187z
		 M184.729,480.829c-63.021-22.922-113.348-72.396-137.499-134.807l65.932-11.006c16.772,36.044,46.077,65.083,82.299,81.516
		L184.729,480.829z M326.301,504.496c0,8.346-6.786,15.131-15.132,15.131h-92.3c-8.34,0-15.131-6.785-15.131-15.131v-5.178
		c18.722,4.628,38.272,7.128,58.401,7.128c22.207,0,43.709-3.044,64.162-8.642V504.496z M337.661,482.649l-10.899-63.706
		c38.496-15.805,69.788-45.637,87.479-83.117l65.97,11.006C455.256,410.621,402.904,460.732,337.661,482.649z M519.618,315.801
		c0,8.346-6.786,15.131-15.132,15.131h-8.5c6.312-21.621,9.759-44.454,9.759-68.092c0-18.731-2.192-36.945-6.212-54.473h4.953
		c8.346,0,15.132,6.786,15.132,15.131V315.801z"/>
</g>
<g>
</g>
<g>
</g>
<g>
</g>
<g>
</g>
<g>
</g>
<g>
</g>
<g>
</g>
<g>
</g>
<g>
</g>
<g>
</g>
<g>
</g>
<g>
</g>
<g>
</g>
<g>
</g>
<g>
</g>
</svg>
