<?xml version="1.0" encoding="iso-8859-1"?>
<!-- Generator: Adobe Illustrator 16.0.0, SVG Export Plug-In . SVG Version: 6.00 Build 0)  -->
<!DOCTYPE svg PUBLIC "-//W3C//DTD SVG 1.1//EN" "http://www.w3.org/Graphics/SVG/1.1/DTD/svg11.dtd">
<svg version="1.1" id="Capa_1" xmlns="http://www.w3.org/2000/svg" xmlns:xlink="http://www.w3.org/1999/xlink" x="0px" y="0px"
	 width="484.665px" height="484.665px" viewBox="0 0 484.665 484.665" style="enable-background:new 0 0 484.665 484.665;"
	 xml:space="preserve">
<g>
	<path d="M334.635,428.466h-26.149l-17.07-272.658h18.714v-27.642h-19.334l-0.124-5.423c0.225-1.859,0.378-3.736,0.378-5.654v-60.78
		c0-23.655-17.531-43.158-40.288-46.37V6.597c0-3.641-2.952-6.597-6.602-6.597c-3.642,0-6.591,2.956-6.591,6.597v3.342
		c-22.769,3.207-40.291,22.715-40.291,46.37v60.78c0,1.924,0.151,3.807,0.375,5.677l-0.121,5.399h-19.334v27.642h18.71
		l-12.531,272.664h-17.49v28.1h-43.344v28.094h262.917v-28.094h-51.826V428.466z M247.93,70.835c0-9.108,7.383-16.494,16.497-16.494
		s16.497,7.386,16.497,16.494v21.681h-32.988V70.835H247.93z M206.779,270.146l2.154-42.717h69.756l2.843,42.717H206.779z
		 M206.779,210.778l2.154-42.721h69.756l2.843,42.721H206.779z M448.665,51.199v57.798L296.937,95.312V60.328L448.665,51.199z
		 M187.726,95.312L36,109.003V51.205l151.72,9.129v34.978H187.726z"/>
</g>
<g>
</g>
<g>
</g>
<g>
</g>
<g>
</g>
<g>
</g>
<g>
</g>
<g>
</g>
<g>
</g>
<g>
</g>
<g>
</g>
<g>
</g>
<g>
</g>
<g>
</g>
<g>
</g>
<g>
</g>
</svg>
