<?xml version="1.0" encoding="iso-8859-1"?>
<!-- Generator: Adobe Illustrator 16.0.0, SVG Export Plug-In . SVG Version: 6.00 Build 0)  -->
<!DOCTYPE svg PUBLIC "-//W3C//DTD SVG 1.1//EN" "http://www.w3.org/Graphics/SVG/1.1/DTD/svg11.dtd">
<svg version="1.1" id="Capa_1" xmlns="http://www.w3.org/2000/svg" xmlns:xlink="http://www.w3.org/1999/xlink" x="0px" y="0px"
	 width="468.759px" height="468.759px" viewBox="0 0 468.759 468.759" style="enable-background:new 0 0 468.759 468.759;"
	 xml:space="preserve">
<g>
	<path d="M234.374,0c-72.256,0-131.033,59.728-131.033,133.146c0,29.205,16.976,55.49,31.951,78.672
		c8.825,13.66,17.153,26.563,19.024,36.209c5.267,27.225,8.281,91.806,8.311,92.456c0.207,4.516,3.922,8.068,8.449,8.068h126.611
		c2.323,0,4.54-0.952,6.142-2.642c1.596-1.697,2.43-3.967,2.299-6.283c-1.572-28.307-0.49-78.489,9.127-92.699
		c1.666-2.459,3.582-5.178,5.65-8.156c16.645-23.759,44.514-63.541,44.514-105.632C365.406,59.734,306.63,0,234.374,0z
		 M307.05,229.092c-2.134,3.047-4.091,5.85-5.805,8.367c-13.246,19.588-13.068,72.359-12.377,94.193h-109.76
		c-0.993-18.535-3.783-64.025-8.189-86.822c-2.489-12.874-11.26-26.451-21.427-42.183c-13.71-21.226-29.247-45.273-29.247-69.496
		c0-64.096,51.199-116.235,114.128-116.235c62.929,0,114.128,52.139,114.128,116.235
		C348.502,169.911,322.554,206.956,307.05,229.092z M168.853,361.118h131.033v65.521c0,12.318-7.979,22.662-19.021,26.445
		c-2.046,8.973-10.031,15.675-19.618,15.675h-53.759c-9.587,0-17.572-6.702-19.618-15.675
		c-11.038-3.783-19.024-14.127-19.024-26.445v-65.521H168.853z"/>
</g>
<g>
</g>
<g>
</g>
<g>
</g>
<g>
</g>
<g>
</g>
<g>
</g>
<g>
</g>
<g>
</g>
<g>
</g>
<g>
</g>
<g>
</g>
<g>
</g>
<g>
</g>
<g>
</g>
<g>
</g>
</svg>
