<?xml version="1.0" encoding="iso-8859-1"?>
<!-- Generator: Adobe Illustrator 16.0.0, SVG Export Plug-In . SVG Version: 6.00 Build 0)  -->
<!DOCTYPE svg PUBLIC "-//W3C//DTD SVG 1.1//EN" "http://www.w3.org/Graphics/SVG/1.1/DTD/svg11.dtd">
<svg version="1.1" id="Capa_1" xmlns="http://www.w3.org/2000/svg" xmlns:xlink="http://www.w3.org/1999/xlink" x="0px" y="0px"
	 width="67.708px" height="67.708px" viewBox="0 0 67.708 67.708" style="enable-background:new 0 0 67.708 67.708;"
	 xml:space="preserve">
<g>
	<path d="M0,11.73c0-1.458,1.184-2.639,2.64-2.639h43.405c1.457,0,2.639,1.182,2.639,2.639c0,1.458-1.182,2.64-2.639,2.64H2.64
		C1.184,14.371,0,13.188,0,11.73z M2.64,27.273h28.157c1.456,0,2.638-1.181,2.638-2.639s-1.182-2.639-2.638-2.639H2.64
		c-1.456,0-2.64,1.181-2.64,2.639S1.184,27.273,2.64,27.273z M46.648,40.433H3.245c-1.456,0-2.64,1.182-2.64,2.639
		c0,1.459,1.184,2.641,2.64,2.641h43.403c1.457,0,2.64-1.182,2.64-2.641C49.288,41.615,48.105,40.433,46.648,40.433z M31.401,53.337
		H3.245c-1.456,0-2.64,1.182-2.64,2.639c0,1.459,1.184,2.641,2.64,2.641h28.156c1.457,0,2.64-1.182,2.64-2.641
		C34.041,54.519,32.858,53.337,31.401,53.337z M57.939,24.231c0.299,0.3,0.707,0.469,1.131,0.469c0.425,0,0.832-0.169,1.133-0.469
		l3.395-3.394c0.625-0.625,0.625-1.638,0-2.263s-1.64-0.625-2.265,0l-0.662,0.663v-5.034c0-0.883-0.717-1.6-1.601-1.6
		c-0.883,0-1.6,0.716-1.6,1.6v5.035l-0.662-0.663c-0.625-0.625-1.639-0.625-2.264,0c-0.312,0.313-0.469,0.722-0.469,1.131
		c0,0.41,0.156,0.819,0.469,1.132L57.939,24.231z M60.202,42.088c-0.3-0.3-0.707-0.469-1.132-0.469
		c-0.424,0-0.832,0.168-1.133,0.469l-3.393,3.394c-0.625,0.625-0.625,1.639,0,2.263c0.625,0.625,1.639,0.625,2.264,0l0.662-0.663
		v5.035c0,0.884,0.717,1.6,1.6,1.6c0.884,0,1.601-0.716,1.601-1.6v-5.035l0.662,0.663c0.625,0.625,1.64,0.625,2.265,0
		c0.312-0.312,0.469-0.722,0.469-1.132c0-0.409-0.157-0.818-0.469-1.131L60.202,42.088z M52.436,30.376h13.271
		c1.104,0,2.002-0.896,2.002-2.003s-0.896-2.002-2.002-2.002H52.436c-1.104,0-2.002,0.896-2.002,2.002
		C50.434,29.48,51.331,30.376,52.436,30.376z M65.706,35.136H52.436c-1.104,0-2.002,0.895-2.002,2.002
		c0,1.106,0.896,2.002,2.002,2.002h13.271c1.104,0,2.002-0.896,2.002-2.002C67.708,36.031,66.811,35.136,65.706,35.136z"/>
</g>
<g>
</g>
<g>
</g>
<g>
</g>
<g>
</g>
<g>
</g>
<g>
</g>
<g>
</g>
<g>
</g>
<g>
</g>
<g>
</g>
<g>
</g>
<g>
</g>
<g>
</g>
<g>
</g>
<g>
</g>
</svg>
