<?xml version="1.0" encoding="iso-8859-1"?>
<!-- Generator: Adobe Illustrator 16.0.0, SVG Export Plug-In . SVG Version: 6.00 Build 0)  -->
<!DOCTYPE svg PUBLIC "-//W3C//DTD SVG 1.1//EN" "http://www.w3.org/Graphics/SVG/1.1/DTD/svg11.dtd">
<svg version="1.1" id="Capa_1" xmlns="http://www.w3.org/2000/svg" xmlns:xlink="http://www.w3.org/1999/xlink" x="0px" y="0px"
	 width="409.811px" height="409.812px" viewBox="0 0 409.811 409.812" style="enable-background:new 0 0 409.811 409.812;"
	 xml:space="preserve">
<g>
	<path d="M276.505,48.758c0,8.825-7.152,15.977-15.971,15.977H15.979C7.167,64.734,0,57.583,0,48.758s7.167-15.974,15.979-15.974
		h244.555C269.353,32.784,276.505,39.939,276.505,48.758z M260.535,111.56H15.979C7.167,111.56,0,118.712,0,127.53
		c0,8.825,7.167,15.98,15.979,15.98h244.555c8.818,0,15.971-7.155,15.971-15.98C276.505,118.706,269.353,111.56,260.535,111.56z
		 M260.535,190.353H15.979C7.167,190.353,0,197.505,0,206.324c0,8.824,7.167,15.982,15.979,15.982h244.555
		c8.818,0,15.971-7.158,15.971-15.982C276.505,197.505,269.353,190.353,260.535,190.353z M260.535,266.277H15.979
		C7.167,266.277,0,273.435,0,282.248c0,8.824,7.167,15.977,15.979,15.977h244.555c8.818,0,15.971-7.152,15.971-15.977
		C276.505,273.435,269.353,266.277,260.535,266.277z M260.535,345.073H15.979C7.167,345.073,0,352.226,0,361.044
		c0,8.831,7.167,15.983,15.979,15.983h244.555c8.818,0,15.971-7.152,15.971-15.983C276.505,352.226,269.353,345.073,260.535,345.073
		z M350.685,130.48c1.809,1.815,4.279,2.837,6.845,2.837c2.571,0,5.036-1.022,6.856-2.837l20.546-20.542
		c3.783-3.783,3.783-9.916,0-13.698c-3.782-3.783-9.924-3.783-13.707,0l-4.007,4.013V69.776c0-5.343-4.339-9.682-9.688-9.682
		c-5.343,0-9.682,4.333-9.682,9.682v30.476l-4.007-4.013c-3.783-3.783-9.919-3.783-13.701,0c-1.892,1.894-2.838,4.371-2.838,6.844
		c0,2.483,0.946,4.959,2.838,6.854L350.685,130.48z M364.38,238.562c-1.814-1.821-4.279-2.837-6.851-2.837
		c-2.565,0-5.036,1.016-6.856,2.837l-20.533,20.546c-3.783,3.782-3.783,9.906,0,13.689c3.782,3.782,9.918,3.782,13.701,0
		l4.007-4.014v30.47c0,5.355,4.339,9.688,9.682,9.688c5.35,0,9.688-4.332,9.688-9.688v-30.47l4.007,4.014
		c3.783,3.782,9.925,3.782,13.707,0c1.886-1.892,2.838-4.375,2.838-6.846c0-2.482-0.952-4.959-2.838-6.844L364.38,238.562z
		 M317.373,167.674h80.321c6.685,0,12.117-5.424,12.117-12.123c0-6.7-5.42-12.12-12.117-12.12h-80.321
		c-6.686,0-12.117,5.426-12.117,12.12C305.255,162.244,310.687,167.674,317.373,167.674z M397.694,196.471h-80.321
		c-6.686,0-12.117,5.423-12.117,12.123c0,6.691,5.426,12.117,12.117,12.117h80.321c6.685,0,12.117-5.426,12.117-12.117
		C409.811,201.894,404.378,196.471,397.694,196.471z"/>
</g>
<g>
</g>
<g>
</g>
<g>
</g>
<g>
</g>
<g>
</g>
<g>
</g>
<g>
</g>
<g>
</g>
<g>
</g>
<g>
</g>
<g>
</g>
<g>
</g>
<g>
</g>
<g>
</g>
<g>
</g>
</svg>
