<?xml version="1.0" encoding="iso-8859-1"?>
<!-- Generator: Adobe Illustrator 16.0.0, SVG Export Plug-In . SVG Version: 6.00 Build 0)  -->
<!DOCTYPE svg PUBLIC "-//W3C//DTD SVG 1.1//EN" "http://www.w3.org/Graphics/SVG/1.1/DTD/svg11.dtd">
<svg version="1.1" id="Capa_1" xmlns="http://www.w3.org/2000/svg" xmlns:xlink="http://www.w3.org/1999/xlink" x="0px" y="0px"
	 width="400.732px" height="400.731px" viewBox="0 0 400.732 400.731" style="enable-background:new 0 0 400.732 400.731;"
	 xml:space="preserve">
<g>
	<path d="M140.638,46.361c0-7.791,6.325-14.103,14.103-14.103h231.894c7.785,0,14.098,6.312,14.098,14.103
		s-6.312,14.103-14.098,14.103H154.741C146.962,60.464,140.638,54.151,140.638,46.361z M154.741,129.41h150.432
		c7.784,0,14.104-6.315,14.104-14.104c0-7.79-6.319-14.103-14.104-14.103H154.741c-7.778,0-14.103,6.307-14.103,14.103
		C140.638,123.101,146.962,129.41,154.741,129.41z M386.64,278.255H154.741c-7.778,0-14.103,6.312-14.103,14.103
		c0,7.791,6.325,14.104,14.103,14.104h231.894c7.785,0,14.098-6.312,14.098-14.104C400.738,284.562,394.425,278.255,386.64,278.255z
		 M305.172,347.198H154.741c-7.778,0-14.103,6.301-14.103,14.103c0,7.791,6.325,14.098,14.103,14.098h150.432
		c7.784,0,14.104-6.312,14.104-14.098C319.276,353.511,312.957,347.198,305.172,347.198z M99.939,27.435
		c0-4.909-3.975-8.887-8.884-8.887H8.878C3.969,18.548,0,22.525,0,27.435s3.969,8.878,8.878,8.878h32.521
		c-0.181,0.715-0.313,1.454-0.313,2.223v82.177c0,0.768,0.127,1.507,0.313,2.219H8.878c-4.909,0-8.878,3.978-8.878,8.887
		c0,4.909,3.969,8.884,8.878,8.884h82.177c4.909,0,8.884-3.975,8.884-8.884c0-4.909-3.975-8.887-8.884-8.887H58.534
		c0.189-0.712,0.322-1.451,0.322-2.219V38.535c0-0.769-0.127-1.507-0.322-2.223h32.521C95.964,36.312,99.939,32.337,99.939,27.435z
		 M91.061,277.8H78.533c0.174,0.715,0.307,1.448,0.307,2.223v82.177c0,0.769-0.127,1.508-0.307,2.223h12.528
		c4.909,0,8.878,3.973,8.878,8.884c0,4.912-3.969,8.878-8.878,8.878H8.878C3.969,382.184,0,378.206,0,373.3
		c0-4.905,3.969-8.89,8.878-8.89H20.3c-0.177-0.709-0.311-1.442-0.311-2.217v-82.171c0-0.769,0.127-1.508,0.311-2.223H8.878
		C3.969,277.8,0,273.822,0,268.916s3.969-8.89,8.878-8.89h82.183c4.909,0,8.878,3.983,8.878,8.89S95.97,277.8,91.061,277.8z
		 M61.07,362.199v-82.177c0-0.769,0.127-1.508,0.322-2.223H37.441c0.18,0.715,0.313,1.448,0.313,2.223v82.177
		c0,0.769-0.127,1.508-0.313,2.223h23.951C61.197,363.707,61.07,362.968,61.07,362.199z"/>
</g>
<g>
</g>
<g>
</g>
<g>
</g>
<g>
</g>
<g>
</g>
<g>
</g>
<g>
</g>
<g>
</g>
<g>
</g>
<g>
</g>
<g>
</g>
<g>
</g>
<g>
</g>
<g>
</g>
<g>
</g>
</svg>
