<?xml version="1.0" encoding="iso-8859-1"?>
<!-- Generator: Adobe Illustrator 16.0.0, SVG Export Plug-In . SVG Version: 6.00 Build 0)  -->
<!DOCTYPE svg PUBLIC "-//W3C//DTD SVG 1.1//EN" "http://www.w3.org/Graphics/SVG/1.1/DTD/svg11.dtd">
<svg version="1.1" id="Capa_1" xmlns="http://www.w3.org/2000/svg" xmlns:xlink="http://www.w3.org/1999/xlink" x="0px" y="0px"
	 width="476.433px" height="476.433px" viewBox="0 0 476.433 476.433" style="enable-background:new 0 0 476.433 476.433;"
	 xml:space="preserve">
<g>
	<path d="M453.227,301.716l20.238-159.582L328.284,87.038l-137.605,65.725l4.989,14.993l115.062-54.95l-14.375,154.67l0.804,8.287
		l-121.895,18.383l-8.118-71.819l-19.296-31.093l11.907,105.248l-3.62,0.543L38.692,278.83l0.694-5.786L21.38,131.179
		l120.866,51.036l-14.301-23.049l-14.189-5.984c-20.404-0.872-39.221-8.984-53.445-22.57L2.4,106.153l21.184,166.956l-0.399,3.321
		l-0.298-0.041l-2.409,15.491l0.866,0.125L3.249,444.036l161.222,30.233l164.44-31.32l145.121,33.484L453.227,301.716z
		 M327.209,104.929l1.785-0.848l127.365,48.327l-17.295,136.27l-123.665-15.664l-2.707,0.396l-0.592-5.887L327.209,104.929z
		 M147.616,455.16L20.535,431.328l16.311-136.923l119.256,18.483l5.417-0.822l0.606,5.326L147.616,455.16z M164.447,458.316
		l-1.375-0.266l14.812-140.724l-0.098-0.851l-0.769-6.75l121.67-18.342l13.405,137.172l15.604-1.537l-13.494-137.976l1.365-0.2
		l121.572,15.396l0.296-2.375l18.371,154.276L329.2,426.924L164.447,458.316z M51.885,101.602
		C34.794,66.551,49.344,24.271,84.395,7.168c35.051-17.106,77.322-2.548,94.434,32.503c13.571,27.834,7.143,60.181-13.63,80.904
		l40.382,121.307c0.958,2.89-0.37,6.023-3.085,7.353c-0.024,0.018-0.062,0.029-0.086,0.047c-2.778,1.301-6.1,0.319-7.716-2.287
		l-66.417-106.997C97.838,145.687,66.127,130.792,51.885,101.602z"/>
</g>
<g>
</g>
<g>
</g>
<g>
</g>
<g>
</g>
<g>
</g>
<g>
</g>
<g>
</g>
<g>
</g>
<g>
</g>
<g>
</g>
<g>
</g>
<g>
</g>
<g>
</g>
<g>
</g>
<g>
</g>
</svg>
