<?xml version="1.0" encoding="iso-8859-1"?>
<!-- Generator: Adobe Illustrator 16.0.0, SVG Export Plug-In . SVG Version: 6.00 Build 0)  -->
<!DOCTYPE svg PUBLIC "-//W3C//DTD SVG 1.1//EN" "http://www.w3.org/Graphics/SVG/1.1/DTD/svg11.dtd">
<svg version="1.1" id="Capa_1" xmlns="http://www.w3.org/2000/svg" xmlns:xlink="http://www.w3.org/1999/xlink" x="0px" y="0px"
	 width="482.626px" height="482.625px" viewBox="0 0 482.626 482.625" style="enable-background:new 0 0 482.626 482.625;"
	 xml:space="preserve">
<g>
	<path d="M459.94,284.852H164.257c-9.141-46.355-41.801-80.697-80.815-80.697C37.356,204.155,0,252.023,0,311.083
		s37.356,106.926,83.442,106.926c40.977,0,74.981-37.864,82.038-87.763h177.497c-0.626,2.429-1.069,4.936-1.069,7.565v52.653
		l20.174-0.041v-25.363h14.12v25.711h15.386V358.5h14.121v32.272h11.851v-25.711h14.121v26.468l23.708,0.16v-53.877
		c0-2.63-0.443-5.137-1.075-7.565h5.615c12.53,0,22.697-10.161,22.697-22.697C482.638,295.018,472.471,284.852,459.94,284.852z
		 M83.448,368.43c-20.434,0-37.013-25.677-37.013-57.347c0-31.676,16.574-57.353,37.013-57.353s37.004,25.677,37.004,57.353
		C120.453,342.753,103.888,368.43,83.448,368.43z M271.056,64.617c8.062-0.006,14.588,6.525,14.588,14.582v145.511l44.945-44.948
		c5.698-5.695,14.931-5.695,20.629,0c5.698,5.692,5.698,14.928,0,20.623l-69.842,69.844c-5.698,5.692-14.931,5.692-20.629,0
		l-69.841-69.844c-2.849-2.849-4.268-6.579-4.279-10.314c0-3.733,1.43-7.463,4.279-10.309c5.695-5.695,14.934-5.695,20.628,0
		l44.945,44.948V79.198C256.479,71.142,263.005,64.611,271.056,64.617z"/>
</g>
<g>
</g>
<g>
</g>
<g>
</g>
<g>
</g>
<g>
</g>
<g>
</g>
<g>
</g>
<g>
</g>
<g>
</g>
<g>
</g>
<g>
</g>
<g>
</g>
<g>
</g>
<g>
</g>
<g>
</g>
</svg>
