<?xml version="1.0" encoding="iso-8859-1"?>
<!-- Generator: Adobe Illustrator 16.0.0, SVG Export Plug-In . SVG Version: 6.00 Build 0)  -->
<!DOCTYPE svg PUBLIC "-//W3C//DTD SVG 1.1//EN" "http://www.w3.org/Graphics/SVG/1.1/DTD/svg11.dtd">
<svg version="1.1" id="Capa_1" xmlns="http://www.w3.org/2000/svg" xmlns:xlink="http://www.w3.org/1999/xlink" x="0px" y="0px"
	 width="541.512px" height="541.511px" viewBox="0 0 541.512 541.511" style="enable-background:new 0 0 541.512 541.511;"
	 xml:space="preserve">
<g>
	<path d="M353.826,163.506c-1.312-1.309-3.435-1.309-4.735,0L17.816,494.785c-1.315,1.306-1.303,3.422,0,4.734l41.018,41.009
		c1.301,1.312,3.414,1.312,4.726,0l331.281-331.266c1.312-1.306,1.312-3.425,0-4.738L353.826,163.506z M63.572,516.081
		L42.27,494.785l61.528-61.531l21.293,21.296L63.572,516.081z M314.395,265.26l-21.302-21.296l61.531-61.525l21.29,21.302
		L314.395,265.26z M355.037,78.424c-0.697-1.277-0.484-2.853,0.509-3.898l12.282-12.897l-8.47-15.654
		c-0.68-1.277-0.473-2.855,0.52-3.904c1.005-1.046,2.571-1.336,3.884-0.706l16.048,7.692l12.271-12.891
		c1.005-1.055,2.565-1.339,3.865-0.715c1.318,0.636,2.075,2.027,1.886,3.467l-2.364,17.638l16.048,7.687
		c1.312,0.635,2.069,2.033,1.886,3.469c-0.201,1.434-1.289,2.589-2.719,2.85l-17.514,3.209l-2.353,17.649
		c-0.189,1.434-1.289,2.583-2.719,2.844c-0.704,0.127-1.425,0.029-2.046-0.272c-0.614-0.295-1.141-0.786-1.501-1.427l-8.458-15.652
		l-17.514,3.201C357.153,80.389,355.723,79.701,355.037,78.424z M432.61,135.052c0.26,0.901-0.089,1.876-0.869,2.402l-9.552,6.47
		l3.216,11.083c0.26,0.901-0.095,1.882-0.875,2.403c-0.769,0.526-1.797,0.49-2.542-0.086l-9.114-7.087l-9.54,6.484
		c-0.792,0.532-1.809,0.49-2.553-0.086c-0.373-0.29-0.633-0.683-0.757-1.114c-0.124-0.429-0.124-0.896,0.047-1.336l3.907-10.861
		l-9.091-7.054c-0.745-0.583-1.04-1.569-0.721-2.453c0.325-0.884,1.17-1.46,2.122-1.434l11.52,0.381l3.925-10.852
		c0.319-0.884,1.171-1.466,2.104-1.431c0.945,0.029,1.762,0.662,2.021,1.563l3.203,11.089l11.526,0.375
		C431.534,133.521,432.351,134.163,432.61,135.052z M517.678,167.458c0.166,0.713-0.147,1.451-0.792,1.827l-7.79,4.59l1.95,8.831
		c0.16,0.718-0.153,1.457-0.792,1.832c-0.325,0.189-0.686,0.261-1.028,0.225c-0.349-0.035-0.674-0.174-0.957-0.416l-6.774-5.988
		l-7.79,4.59c-0.633,0.375-1.442,0.296-1.986-0.189c-0.556-0.491-0.732-1.283-0.438-1.954l3.624-8.299l-6.774-5.987
		c-0.556-0.481-0.732-1.265-0.438-1.941c0.296-0.68,0.993-1.097,1.715-1.017l9.008,0.872l3.617-8.287
		c0.284-0.677,0.981-1.09,1.714-1.017c0.733,0.08,1.336,0.612,1.49,1.333l1.962,8.825l8.99,0.863
		C516.922,166.199,517.519,166.737,517.678,167.458z M524.677,118.067l-41.258,17.094l-1.412-3.955L524.677,118.067z
		 M433.828,51.725L453.05,0l-15.232,53.031L433.828,51.725z M457.873,218.911l6.963,46.361l-11.077-45.551L457.873,218.911z
		 M338.617,109.127l-54.261-6.18l54.58,1.986L338.617,109.127z"/>
</g>
<g>
</g>
<g>
</g>
<g>
</g>
<g>
</g>
<g>
</g>
<g>
</g>
<g>
</g>
<g>
</g>
<g>
</g>
<g>
</g>
<g>
</g>
<g>
</g>
<g>
</g>
<g>
</g>
<g>
</g>
</svg>
