<?xml version="1.0" encoding="iso-8859-1"?>
<!-- Generator: Adobe Illustrator 16.0.0, SVG Export Plug-In . SVG Version: 6.00 Build 0)  -->
<!DOCTYPE svg PUBLIC "-//W3C//DTD SVG 1.1//EN" "http://www.w3.org/Graphics/SVG/1.1/DTD/svg11.dtd">
<svg version="1.1" id="Capa_1" xmlns="http://www.w3.org/2000/svg" xmlns:xlink="http://www.w3.org/1999/xlink" x="0px" y="0px"
	 width="80.631px" height="80.631px" viewBox="0 0 80.631 80.631" style="enable-background:new 0 0 80.631 80.631;"
	 xml:space="preserve">
<g>
	<path d="M79.467,73.842l-31.801-31.8c7.605-10.331,6.767-24.973-2.576-34.316c-10.301-10.301-27.062-10.301-37.363,0
		c-10.301,10.301-10.301,27.063,0,37.363c9.343,9.343,23.985,10.183,34.316,2.577l31.8,31.8c1.553,1.554,4.07,1.554,5.624,0
		C81.02,77.913,81.02,75.395,79.467,73.842z M39.466,39.465c-7.2,7.2-18.915,7.2-26.116,0c-7.2-7.2-7.2-18.915,0-26.115
		c7.201-7.201,18.916-7.201,26.116,0C46.666,20.55,46.666,32.265,39.466,39.465z M37.626,23.572c1.485,0,2.689,1.205,2.689,2.69
		c0,1.485-1.205,2.69-2.689,2.69h-8.673v8.672c0,1.486-1.204,2.69-2.69,2.69s-2.69-1.206-2.69-2.69v-8.672h-8.673
		c-1.485,0-2.689-1.205-2.689-2.69c0-1.485,1.205-2.69,2.689-2.69h8.673v-8.673c0-1.486,1.205-2.69,2.69-2.69s2.69,1.204,2.69,2.69
		v8.673H37.626z"/>
</g>
<g>
</g>
<g>
</g>
<g>
</g>
<g>
</g>
<g>
</g>
<g>
</g>
<g>
</g>
<g>
</g>
<g>
</g>
<g>
</g>
<g>
</g>
<g>
</g>
<g>
</g>
<g>
</g>
<g>
</g>
</svg>
