<?xml version="1.0" encoding="iso-8859-1"?>
<!-- Generator: Adobe Illustrator 16.0.0, SVG Export Plug-In . SVG Version: 6.00 Build 0)  -->
<!DOCTYPE svg PUBLIC "-//W3C//DTD SVG 1.1//EN" "http://www.w3.org/Graphics/SVG/1.1/DTD/svg11.dtd">
<svg version="1.1" id="Capa_1" xmlns="http://www.w3.org/2000/svg" xmlns:xlink="http://www.w3.org/1999/xlink" x="0px" y="0px"
	 width="393.739px" height="393.739px" viewBox="0 0 393.739 393.739" style="enable-background:new 0 0 393.739 393.739;"
	 xml:space="preserve">
<g>
	<path d="M370.907,0h-93.048c-9.091,0-16.455,7.365-16.455,16.45c0,9.085,7.364,16.453,16.455,16.453h43.19L217.25,136.704
		c-21.049-12.879-45.768-20.318-72.194-20.318c-76.468,0-138.679,62.208-138.679,138.676c0,76.474,62.211,138.678,138.679,138.678
		s138.678-62.204,138.678-138.678c0-33.07-11.655-63.455-31.037-87.314L354.462,65.985v49.231c0,9.085,7.365,16.452,16.444,16.452
		c9.09,0,16.455-7.367,16.455-16.452V16.45C387.362,7.365,379.997,0,370.907,0z M145.056,346.737
		c-50.546,0-91.673-41.127-91.673-91.676c0-50.543,41.121-91.667,91.673-91.667c50.546,0,91.664,41.124,91.664,91.667
		C236.72,305.61,195.602,346.737,145.056,346.737z"/>
</g>
<g>
</g>
<g>
</g>
<g>
</g>
<g>
</g>
<g>
</g>
<g>
</g>
<g>
</g>
<g>
</g>
<g>
</g>
<g>
</g>
<g>
</g>
<g>
</g>
<g>
</g>
<g>
</g>
<g>
</g>
</svg>
