<?xml version="1.0" encoding="iso-8859-1"?>
<!-- Generator: Adobe Illustrator 16.0.0, SVG Export Plug-In . SVG Version: 6.00 Build 0)  -->
<!DOCTYPE svg PUBLIC "-//W3C//DTD SVG 1.1//EN" "http://www.w3.org/Graphics/SVG/1.1/DTD/svg11.dtd">
<svg version="1.1" id="Capa_1" xmlns="http://www.w3.org/2000/svg" xmlns:xlink="http://www.w3.org/1999/xlink" x="0px" y="0px"
	 width="471.632px" height="471.632px" viewBox="0 0 471.632 471.632" style="enable-background:new 0 0 471.632 471.632;"
	 xml:space="preserve">
<g>
	<path d="M18.941,246.083L0.842,398.107l161.225,30.239l164.438-31.326l145.127,33.49l-20.8-174.717L471.07,96.218L325.896,41.121
		l-174.16,83.188L0,60.23l21.184,166.956l-0.399,3.322l-0.295-0.041l-2.409,15.486L18.941,246.083z M157.356,250.563l-3.617,0.543
		L36.292,232.917l0.698-5.787L18.988,85.263l125.678,53.07L157.356,250.563z M436.664,242.761l-123.665-15.666l-2.707,0.398
		l-0.592-5.89l15.108-162.591l1.785-0.854l127.365,48.323L436.664,242.761z M160.681,412.14l14.81-140.723l-0.098-0.852l-0.769-6.75
		l121.67-18.348L309.7,382.64l15.604-1.531l-13.488-137.975l1.359-0.207l121.573,15.397l0.295-2.37l18.371,154.271l-126.609-29.211
		l-164.759,31.386L160.681,412.14z M160.353,137.564l147.982-70.678l-14.375,154.67l0.804,8.287l-121.895,18.38L160.353,137.564z
		 M34.454,248.488l119.252,18.483l5.417-0.822l0.606,5.326l-14.502,137.768L18.146,385.411L34.454,248.488z"/>
</g>
<g>
</g>
<g>
</g>
<g>
</g>
<g>
</g>
<g>
</g>
<g>
</g>
<g>
</g>
<g>
</g>
<g>
</g>
<g>
</g>
<g>
</g>
<g>
</g>
<g>
</g>
<g>
</g>
<g>
</g>
</svg>
