<?xml version="1.0" encoding="iso-8859-1"?>
<!-- Generator: Adobe Illustrator 16.0.0, SVG Export Plug-In . SVG Version: 6.00 Build 0)  -->
<!DOCTYPE svg PUBLIC "-//W3C//DTD SVG 1.1//EN" "http://www.w3.org/Graphics/SVG/1.1/DTD/svg11.dtd">
<svg version="1.1" id="Capa_1" xmlns="http://www.w3.org/2000/svg" xmlns:xlink="http://www.w3.org/1999/xlink" x="0px" y="0px"
	 width="454.745px" height="454.745px" viewBox="0 0 454.745 454.745" style="enable-background:new 0 0 454.745 454.745;"
	 xml:space="preserve">
<g>
	<path d="M263.538,329.421c-15.941,3.995-29.929,12.749-39.395,24.665c-5.47,6.887-9.147,14.576-10.973,22.503H26.628
		c-14.635,0-26.554-11.917-26.554-26.558v-227.96L0,54.735c-0.024-3.224,1.247-6.318,3.517-8.605c2.276-2.288,5.364-3.57,8.588-3.57
		h94.398c5.024,0,9.517,3.103,11.313,7.796l17.206,45.164h231.918c14.652,0,26.562,11.911,26.562,26.552v2.311l-24.21,3.925v-6.241
		c0-1.289-1.053-2.341-2.353-2.341H126.683c-5.024,0-9.525-3.106-11.313-7.796L98.158,66.764H24.128l0.156,55.23V350.02
		c0,1.289,1.052,2.341,2.344,2.341h25.038V181.731c0-9.52,7.71-17.236,17.239-17.236h204.444v163.128
		C270.075,328.014,266.8,328.611,263.538,329.421z M297.294,160.24V349.57c-8.252-2.902-18.081-3.393-28.13-0.893
		c-22.343,5.592-36.954,23.992-32.669,41.115c2.507,15.877,25.866,26.48,48.155,20.877c19.642-4.858,33.302-19.73,33.407-34.873
		h0.019l0.531-159.939l115.36-21.093v128.573c-8.387-2.961-18.43-3.48-28.619-0.951c-22.562,5.65-37.327,24.211-33.006,41.547
		c4.32,17.295,26.102,26.74,48.669,21.154c20.552-5.189,33.732-19.293,33.732-36.966V134.708L297.294,160.24z"/>
</g>
<g>
</g>
<g>
</g>
<g>
</g>
<g>
</g>
<g>
</g>
<g>
</g>
<g>
</g>
<g>
</g>
<g>
</g>
<g>
</g>
<g>
</g>
<g>
</g>
<g>
</g>
<g>
</g>
<g>
</g>
</svg>
