<?xml version="1.0" encoding="iso-8859-1"?>
<!-- Generator: Adobe Illustrator 16.0.0, SVG Export Plug-In . SVG Version: 6.00 Build 0)  -->
<!DOCTYPE svg PUBLIC "-//W3C//DTD SVG 1.1//EN" "http://www.w3.org/Graphics/SVG/1.1/DTD/svg11.dtd">
<svg version="1.1" id="Capa_1" xmlns="http://www.w3.org/2000/svg" xmlns:xlink="http://www.w3.org/1999/xlink" x="0px" y="0px"
	 width="470.586px" height="470.586px" viewBox="0 0 470.586 470.586" style="enable-background:new 0 0 470.586 470.586;"
	 xml:space="preserve">
<g>
	<path d="M327.072,0H90.231C74.328,0,61.384,12.959,61.384,28.859v412.863c0,15.924,12.944,28.863,28.847,28.863H380.34
		c15.93,0,28.862-12.939,28.862-28.863V89.234L327.072,0z M333.882,43.184l36.008,39.121h-36.008V43.184z M384.975,441.723
		c0,2.542-2.081,4.629-4.635,4.629H90.231c-2.544,0-4.613-2.087-4.613-4.629V28.859c0-2.548,2.069-4.613,4.613-4.613h219.417v70.181
		c0,6.682,5.438,12.099,12.117,12.099h63.21V441.723z M179.971,167.257l135.611-21.994V329.07c0,15.226-11.349,27.36-29.058,31.841
		c-19.423,4.817-38.195-3.321-41.919-18.217c-3.724-14.931,8.996-30.925,28.431-35.79c8.777-2.169,17.419-1.726,24.648,0.828
		V196.988l-99.366,18.163l-0.461,137.769h-0.018c-0.091,13.039-11.851,25.854-28.768,30.038
		c-19.198,4.835-39.318-4.303-41.485-17.986c-3.685-14.759,8.896-30.594,28.138-35.411c8.663-2.151,17.124-1.72,24.234,0.774
		V167.257H179.971z"/>
</g>
<g>
</g>
<g>
</g>
<g>
</g>
<g>
</g>
<g>
</g>
<g>
</g>
<g>
</g>
<g>
</g>
<g>
</g>
<g>
</g>
<g>
</g>
<g>
</g>
<g>
</g>
<g>
</g>
<g>
</g>
</svg>
