<?xml version="1.0" encoding="iso-8859-1"?>
<!-- Generator: Adobe Illustrator 16.0.0, SVG Export Plug-In . SVG Version: 6.00 Build 0)  -->
<!DOCTYPE svg PUBLIC "-//W3C//DTD SVG 1.1//EN" "http://www.w3.org/Graphics/SVG/1.1/DTD/svg11.dtd">
<svg version="1.1" id="Capa_1" xmlns="http://www.w3.org/2000/svg" xmlns:xlink="http://www.w3.org/1999/xlink" x="0px" y="0px"
	 width="471.612px" height="471.612px" viewBox="0 0 471.612 471.612" style="enable-background:new 0 0 471.612 471.612;"
	 xml:space="preserve">
<g>
	<path d="M376.215,141.114c2.53,2.53,2.524,6.629,0,9.159l-132.123,132.12l79.612,34.513c2.666,1.171,4.238,3.96,3.824,6.851
		c-0.396,2.879-2.666,5.143-5.562,5.503l-198.295,25.925c-1.992,0.26-4.001-0.426-5.417-1.838c-1.431-1.425-2.102-3.429-1.841-5.426
		l25.918-198.298c0.192-1.451,0.86-2.751,1.838-3.732c0.969-0.97,2.24-1.635,3.683-1.842c2.873-0.404,5.671,1.171,6.827,3.833
		l34.522,79.615L321.328,95.386c2.523-2.518,6.62-2.53,9.155,0.006L376.215,141.114z M402.625,402.624
		c-91.99,91.983-241.656,91.983-333.64,0c-91.98-91.977-91.98-241.658,0-333.639c91.983-91.98,241.662-91.98,333.64,0
		C494.607,160.966,494.607,310.642,402.625,402.624z M384.331,87.276c-81.899-81.896-215.155-81.896-297.055,0
		c-81.891,81.894-81.896,215.154,0,297.055c81.899,81.887,215.155,81.887,297.055,0C466.225,302.431,466.219,169.17,384.331,87.276z
		"/>
</g>
<g>
</g>
<g>
</g>
<g>
</g>
<g>
</g>
<g>
</g>
<g>
</g>
<g>
</g>
<g>
</g>
<g>
</g>
<g>
</g>
<g>
</g>
<g>
</g>
<g>
</g>
<g>
</g>
<g>
</g>
</svg>
