<?xml version="1.0" encoding="iso-8859-1"?>
<!-- Generator: Adobe Illustrator 16.0.0, SVG Export Plug-In . SVG Version: 6.00 Build 0)  -->
<!DOCTYPE svg PUBLIC "-//W3C//DTD SVG 1.1//EN" "http://www.w3.org/Graphics/SVG/1.1/DTD/svg11.dtd">
<svg version="1.1" id="Capa_1" xmlns="http://www.w3.org/2000/svg" xmlns:xlink="http://www.w3.org/1999/xlink" x="0px" y="0px"
	 width="457.896px" height="457.896px" viewBox="0 0 457.896 457.896" style="enable-background:new 0 0 457.896 457.896;"
	 xml:space="preserve">
<g>
	<path d="M403.107,403.883c12.354,12.354,12.354,32.391,0,44.744c-12.354,12.359-32.386,12.359-44.751,0L164.073,254.34
		c-6.174-6.177-9.262-14.269-9.262-22.366s3.094-16.195,9.262-22.369L358.356,15.32c12.365-12.359,32.397-12.359,44.751,0
		c12.354,12.354,12.354,32.394,0,44.748L231.201,231.974L403.107,403.883z M108.065,0H51.576c-3.346,0-6.053,2.707-6.053,6.053
		v436.291c0,3.352,2.707,6.053,6.053,6.053h56.489c3.348,0,6.052-2.701,6.052-6.053V6.053C114.118,2.707,111.414,0,108.065,0z"/>
</g>
<g>
</g>
<g>
</g>
<g>
</g>
<g>
</g>
<g>
</g>
<g>
</g>
<g>
</g>
<g>
</g>
<g>
</g>
<g>
</g>
<g>
</g>
<g>
</g>
<g>
</g>
<g>
</g>
<g>
</g>
</svg>
