<?xml version="1.0" encoding="iso-8859-1"?>
<!-- Generator: Adobe Illustrator 16.0.0, SVG Export Plug-In . SVG Version: 6.00 Build 0)  -->
<!DOCTYPE svg PUBLIC "-//W3C//DTD SVG 1.1//EN" "http://www.w3.org/Graphics/SVG/1.1/DTD/svg11.dtd">
<svg version="1.1" id="Capa_1" xmlns="http://www.w3.org/2000/svg" xmlns:xlink="http://www.w3.org/1999/xlink" x="0px" y="0px"
	 width="77.956px" height="77.956px" viewBox="0 0 77.956 77.956" style="enable-background:new 0 0 77.956 77.956;"
	 xml:space="preserve">
<g>
	<path d="M59.971,38.537c0.288,0.383,0.287,0.912-0.008,1.294L39.826,66.025c-0.202,0.263-0.518,0.418-0.848,0.418
		c-0.333,0-0.646-0.155-0.848-0.418L17.992,39.831c-0.147-0.192-0.222-0.422-0.222-0.651c0-0.227,0.071-0.451,0.216-0.645
		c0.288-0.383,0.799-0.525,1.245-0.352l13.335,5.27l-0.001-30.87c0.001-0.59,0.479-1.069,1.07-1.069H44.32
		c0.591,0,1.068,0.479,1.068,1.069v30.87l13.334-5.27C59.17,38.01,59.682,38.152,59.971,38.537z M77.956,38.979
		c0,21.492-17.485,38.978-38.978,38.978C17.485,77.956,0,60.471,0,38.979C0,17.486,17.486,0,38.978,0
		C60.471,0,77.956,17.486,77.956,38.979z M73.682,38.979c0-19.136-15.568-34.704-34.704-34.704
		c-19.136,0-34.703,15.567-34.703,34.704c0,19.135,15.567,34.703,34.703,34.703C58.113,73.682,73.682,58.113,73.682,38.979z"/>
</g>
<g>
</g>
<g>
</g>
<g>
</g>
<g>
</g>
<g>
</g>
<g>
</g>
<g>
</g>
<g>
</g>
<g>
</g>
<g>
</g>
<g>
</g>
<g>
</g>
<g>
</g>
<g>
</g>
<g>
</g>
</svg>
