<?xml version="1.0" encoding="iso-8859-1"?>
<!-- Generator: Adobe Illustrator 16.0.0, SVG Export Plug-In . SVG Version: 6.00 Build 0)  -->
<!DOCTYPE svg PUBLIC "-//W3C//DTD SVG 1.1//EN" "http://www.w3.org/Graphics/SVG/1.1/DTD/svg11.dtd">
<svg version="1.1" id="Capa_1" xmlns="http://www.w3.org/2000/svg" xmlns:xlink="http://www.w3.org/1999/xlink" x="0px" y="0px"
	 width="471.618px" height="471.618px" viewBox="0 0 471.618 471.618" style="enable-background:new 0 0 471.618 471.618;"
	 xml:space="preserve">
<g>
	<path d="M376.226,321.329c2.519,2.523,2.53,6.632-0.006,9.161l-45.726,45.726c-2.529,2.53-6.632,2.524-9.161,0L189.227,244.093
		l-34.513,79.618c-1.167,2.654-3.966,4.238-6.851,3.83c-2.881-0.402-5.145-2.672-5.509-5.568L116.43,123.679
		c-0.26-1.998,0.425-4.002,1.841-5.42c1.421-1.431,3.419-2.104,5.423-1.845l198.295,25.919c1.453,0.189,2.754,0.857,3.741,1.838
		c0.97,0.969,1.625,2.234,1.832,3.676c0.408,2.879-1.17,5.675-3.83,6.833l-79.63,34.531L376.226,321.329z M402.636,402.637
		c-91.99,91.979-241.656,91.972-333.646-0.006c-91.986-91.982-91.986-241.667,0-333.645c91.989-91.983,241.662-91.978,333.646,0.006
		C494.612,160.97,494.612,310.648,402.636,402.637z M384.336,87.28c-81.894-81.888-215.149-81.894-297.049,0
		c-81.896,81.899-81.891,215.157,0,297.052c81.905,81.899,215.155,81.894,297.049,0C466.235,302.432,466.235,169.186,384.336,87.28z
		"/>
</g>
<g>
</g>
<g>
</g>
<g>
</g>
<g>
</g>
<g>
</g>
<g>
</g>
<g>
</g>
<g>
</g>
<g>
</g>
<g>
</g>
<g>
</g>
<g>
</g>
<g>
</g>
<g>
</g>
<g>
</g>
</svg>
