<?xml version="1.0" encoding="iso-8859-1"?>
<!-- Generator: Adobe Illustrator 16.0.0, SVG Export Plug-In . SVG Version: 6.00 Build 0)  -->
<!DOCTYPE svg PUBLIC "-//W3C//DTD SVG 1.1//EN" "http://www.w3.org/Graphics/SVG/1.1/DTD/svg11.dtd">
<svg version="1.1" id="Capa_1" xmlns="http://www.w3.org/2000/svg" xmlns:xlink="http://www.w3.org/1999/xlink" x="0px" y="0px"
	 width="457.896px" height="457.896px" viewBox="0 0 457.896 457.896" style="enable-background:new 0 0 457.896 457.896;"
	 xml:space="preserve">
<g>
	<path d="M226.693,231.974L54.788,60.068c-12.354-12.354-12.354-32.394,0-44.748c12.354-12.359,32.388-12.359,44.748,0
		l194.293,194.284c6.171,6.18,9.256,14.271,9.256,22.369s-3.091,16.195-9.256,22.366L99.535,448.627
		c-12.359,12.359-32.394,12.359-44.748,0c-12.354-12.354-12.354-32.391,0-44.744L226.693,231.974z M343.78,6.053v436.291
		c0,3.352,2.701,6.053,6.052,6.053h56.489c3.346,0,6.053-2.701,6.053-6.053V6.053c0-3.346-2.707-6.053-6.053-6.053h-56.489
		C346.481,0,343.78,2.707,343.78,6.053z"/>
</g>
<g>
</g>
<g>
</g>
<g>
</g>
<g>
</g>
<g>
</g>
<g>
</g>
<g>
</g>
<g>
</g>
<g>
</g>
<g>
</g>
<g>
</g>
<g>
</g>
<g>
</g>
<g>
</g>
<g>
</g>
</svg>
