<?xml version="1.0" encoding="iso-8859-1"?>
<!-- Generator: Adobe Illustrator 16.0.0, SVG Export Plug-In . SVG Version: 6.00 Build 0)  -->
<!DOCTYPE svg PUBLIC "-//W3C//DTD SVG 1.1//EN" "http://www.w3.org/Graphics/SVG/1.1/DTD/svg11.dtd">
<svg version="1.1" id="Capa_1" xmlns="http://www.w3.org/2000/svg" xmlns:xlink="http://www.w3.org/1999/xlink" x="0px" y="0px"
	 width="381.304px" height="381.304px" viewBox="0 0 381.304 381.304" style="enable-background:new 0 0 381.304 381.304;"
	 xml:space="preserve">
<g>
	<path d="M121.203,37.858c0-7.791,6.319-14.103,14.104-14.103H367.2c7.784,0,14.104,6.312,14.104,14.103
		s-6.312,14.103-14.104,14.103H135.307C127.522,51.961,121.203,45.649,121.203,37.858z M135.307,120.908h150.426
		c7.79,0,14.104-6.315,14.104-14.104c0-7.79-6.313-14.103-14.104-14.103H135.307c-7.785,0-14.104,6.307-14.104,14.103
		C121.203,114.598,127.522,120.908,135.307,120.908z M367.2,269.75H135.307c-7.785,0-14.104,6.312-14.104,14.104
		c0,7.79,6.319,14.103,14.104,14.103H367.2c7.784,0,14.104-6.312,14.104-14.103C381.304,276.062,374.984,269.75,367.2,269.75z
		 M285.727,338.693h-150.42c-7.785,0-14.104,6.307-14.104,14.104c0,7.79,6.319,14.103,14.104,14.103h150.426
		c7.79,0,14.104-6.312,14.104-14.103C299.836,345.005,293.517,338.693,285.727,338.693z M33.866,127.838h22.387V14.405H37.921
		c-0.521,5.925-0.068,10.689-4.696,14.277c-4.631,3.591-14.363,5.382-23.158,5.382H6.871v15.681h26.995V127.838z M25.603,345.147
		l28.115-20.912c9.69-6.655,16.056-12.826,19.109-18.524c3.05-5.697,4.569-11.821,4.569-18.377c0-10.716-3.585-19.357-10.737-25.941
		c-7.161-6.579-16.568-9.865-28.23-9.865c-11.245,0-20.241,3.328-26.982,9.989c-6.75,6.655-10.113,16.691-10.113,30.115H23.02
		c0-8.015,1.416-13.548,4.253-16.621c2.834-3.067,6.721-4.604,11.665-4.604s8.854,1.561,11.741,4.676
		c2.888,3.12,4.327,6.998,4.327,11.632c0,4.628-1.336,8.808-4.02,12.555c-2.675,3.747-10.125,10.071-22.352,18.962
		c-10.453,7.648-24.154,16.964-28.393,23.726L0,364.96h77.632v-19.813H25.603L25.603,345.147z"/>
</g>
<g>
</g>
<g>
</g>
<g>
</g>
<g>
</g>
<g>
</g>
<g>
</g>
<g>
</g>
<g>
</g>
<g>
</g>
<g>
</g>
<g>
</g>
<g>
</g>
<g>
</g>
<g>
</g>
<g>
</g>
</svg>
