<?xml version="1.0" encoding="iso-8859-1"?>
<!-- Generator: Adobe Illustrator 16.0.0, SVG Export Plug-In . SVG Version: 6.00 Build 0)  -->
<!DOCTYPE svg PUBLIC "-//W3C//DTD SVG 1.1//EN" "http://www.w3.org/Graphics/SVG/1.1/DTD/svg11.dtd">
<svg version="1.1" id="Capa_1" xmlns="http://www.w3.org/2000/svg" xmlns:xlink="http://www.w3.org/1999/xlink" x="0px" y="0px"
	 width="77.333px" height="77.333px" viewBox="0 0 77.333 77.333" style="enable-background:new 0 0 77.333 77.333;"
	 xml:space="preserve">
<g>
	<path d="M71.271,0.037H6.061C2.719,0.037,0,2.755,0,6.096v65.14c0,3.341,2.719,6.06,6.061,6.06h65.21
		c3.343,0,6.062-2.719,6.062-6.06V6.096C77.332,2.754,74.613,0.037,71.271,0.037z M67.164,6.934c1.434,0,2.596,1.163,2.596,2.597
		c0,1.435-1.162,2.597-2.596,2.597c-1.436,0-2.598-1.163-2.598-2.597C64.566,8.097,65.729,6.934,67.164,6.934z M57.857,6.934
		c1.436,0,2.598,1.163,2.598,2.597c0,1.435-1.162,2.597-2.598,2.597c-1.435,0-2.596-1.163-2.596-2.597
		C55.262,8.097,56.424,6.934,57.857,6.934z M70.406,70.37H6.926V18.575h63.48V70.37z M20.602,41.271
		c-0.525-0.383-0.745-1.06-0.545-1.678c0.201-0.618,0.777-1.036,1.427-1.036H33.52l3.72-11.448c0.201-0.618,0.777-1.036,1.427-1.036
		s1.226,0.418,1.427,1.036l3.721,11.448H55.85c0.649,0,1.227,0.418,1.428,1.036c0.199,0.618-0.021,1.295-0.545,1.678l-9.737,7.076
		l3.719,11.446c0.2,0.618-0.021,1.296-0.545,1.679c-0.263,0.189-0.571,0.285-0.882,0.285s-0.621-0.095-0.885-0.285l-9.736-7.076
		l-9.737,7.076c-0.525,0.381-1.238,0.381-1.764,0c-0.525-0.383-0.745-1.061-0.545-1.679l3.719-11.446L20.602,41.271z"/>
</g>
<g>
</g>
<g>
</g>
<g>
</g>
<g>
</g>
<g>
</g>
<g>
</g>
<g>
</g>
<g>
</g>
<g>
</g>
<g>
</g>
<g>
</g>
<g>
</g>
<g>
</g>
<g>
</g>
<g>
</g>
</svg>
