<?xml version="1.0" encoding="iso-8859-1"?>
<!-- Generator: Adobe Illustrator 16.0.0, SVG Export Plug-In . SVG Version: 6.00 Build 0)  -->
<!DOCTYPE svg PUBLIC "-//W3C//DTD SVG 1.1//EN" "http://www.w3.org/Graphics/SVG/1.1/DTD/svg11.dtd">
<svg version="1.1" id="Capa_1" xmlns="http://www.w3.org/2000/svg" xmlns:xlink="http://www.w3.org/1999/xlink" x="0px" y="0px"
	 width="408.628px" height="408.628px" viewBox="0 0 408.628 408.628" style="enable-background:new 0 0 408.628 408.628;"
	 xml:space="preserve">
<g>
	<path d="M376.793,1.214c0,0-0.006,0-0.012,0H53.341c-15.016,0-27.236,12.221-27.236,27.237V318.64h0.088
		c0.443,4.699,4.268,8.382,8.99,8.382c4.72,0,8.544-3.683,8.987-8.382h0.092V28.451c0-5.004,4.072-9.079,9.079-9.079h278.418
		c5.006,0,9.079,4.075,9.079,9.079v351.726c0,5.001-4.073,9.079-9.079,9.079h-36.315c-3.328-1.431-16.716-7.797-16.716-17.638
		c0-11.325,17.46-18.353,17.602-18.406c4.103-1.542,6.514-5.804,5.734-10.119c-0.793-4.315-4.552-7.459-8.938-7.459H35.775
		C16.044,335.634,0,351.682,0,371.411c0,19.736,16.044,35.778,35.775,35.778h247.563c-0.012,0.07-0.012,0.142-0.029,0.225h48.45
		c15.02,0,27.236-12.224,27.236-27.237V31.823c0.131-12.788,15.688-12.451,17.449-12.451h0.07c7.696,0,13.956,6.26,13.956,13.952
		c0,7.693-6.26,13.958-13.956,13.958c-5.012,0-9.078,4.061-9.078,9.079c0,5.016,4.066,9.079,9.078,9.079
		c17.709,0,32.113-14.407,32.113-32.116C408.628,15.622,394.224,1.214,376.793,1.214z M266.197,389.031H35.775
		c-9.714,0-17.617-7.908-17.617-17.62c0-9.711,7.903-17.62,17.617-17.62h230.658c-3.451,4.859-5.863,10.775-5.863,17.827
		C260.576,378.51,262.875,384.285,266.197,389.031z"/>
</g>
<g>
</g>
<g>
</g>
<g>
</g>
<g>
</g>
<g>
</g>
<g>
</g>
<g>
</g>
<g>
</g>
<g>
</g>
<g>
</g>
<g>
</g>
<g>
</g>
<g>
</g>
<g>
</g>
<g>
</g>
</svg>
