<?xml version="1.0" encoding="iso-8859-1"?>
<!-- Generator: Adobe Illustrator 16.0.0, SVG Export Plug-In . SVG Version: 6.00 Build 0)  -->
<!DOCTYPE svg PUBLIC "-//W3C//DTD SVG 1.1//EN" "http://www.w3.org/Graphics/SVG/1.1/DTD/svg11.dtd">
<svg version="1.1" id="Capa_1" xmlns="http://www.w3.org/2000/svg" xmlns:xlink="http://www.w3.org/1999/xlink" x="0px" y="0px"
	 width="77.332px" height="77.332px" viewBox="0 0 77.332 77.332" style="enable-background:new 0 0 77.332 77.332;"
	 xml:space="preserve">
<g>
	<path d="M71.271,0.037H6.06C2.719,0.037,0,2.754,0,6.096v65.14c0,3.341,2.719,6.06,6.06,6.06h65.211
		c3.342,0,6.061-2.719,6.061-6.06V6.096C77.332,2.753,74.613,0.037,71.271,0.037z M67.164,6.934c1.436,0,2.598,1.163,2.598,2.597
		c0,1.435-1.162,2.597-2.598,2.597s-2.598-1.163-2.598-2.597C64.566,8.097,65.729,6.934,67.164,6.934z M57.857,6.934
		c1.436,0,2.598,1.163,2.598,2.597c0,1.435-1.162,2.597-2.598,2.597c-1.435,0-2.596-1.163-2.596-2.597
		C55.262,8.097,56.423,6.934,57.857,6.934z M70.407,70.37H6.925V18.575h63.481L70.407,70.37L70.407,70.37z M25.401,53.939
		l-2.395,2.396l4.332,4.331l2.48-2.479c1.727,1.106,3.683,1.879,5.785,2.237v3.665h6.125v-3.822
		c1.989-0.453,3.836-1.278,5.457-2.408l2.809,2.807l4.331-4.331l-2.892-2.894c1.034-1.613,1.789-3.426,2.176-5.373h4.14v-6.125
		h-4.14c-0.387-1.946-1.142-3.758-2.176-5.374l2.892-2.893l-4.331-4.33l-2.809,2.807c-1.621-1.13-3.467-1.955-5.457-2.407v-3.823
		h-6.125v3.665c-2.103,0.358-4.059,1.131-5.785,2.238l-2.48-2.479l-4.331,4.33l2.396,2.396c-1.209,1.735-2.077,3.721-2.505,5.871
		h-3.314v6.125h3.314C23.324,50.218,24.193,52.205,25.401,53.939z M38.666,35.976c4.988,0,9.031,4.043,9.031,9.031
		c0,4.988-4.043,9.031-9.031,9.031c-4.988,0-9.031-4.043-9.031-9.031C29.635,40.019,33.678,35.976,38.666,35.976z"/>
</g>
<g>
</g>
<g>
</g>
<g>
</g>
<g>
</g>
<g>
</g>
<g>
</g>
<g>
</g>
<g>
</g>
<g>
</g>
<g>
</g>
<g>
</g>
<g>
</g>
<g>
</g>
<g>
</g>
<g>
</g>
</svg>
