<?xml version="1.0" encoding="utf-8"?>
<svg version="1.1" id="Capa_1" x="0px" y="0px" width="100px" height="100px" viewBox="0 0 100 100" style="enable-background:new 0 0 459.325 459.325;" xmlns="http://www.w3.org/2000/svg">
  <g>
    <path d="M 100 50.001 C 100 54.835 96.083 58.752 91.247 58.752 L 58.749 58.752 L 58.749 91.25 C 58.749 96.084 54.831 100.001 49.998 100 C 47.581 100 45.394 99.022 43.812 97.439 C 42.227 95.854 41.248 93.667 41.249 91.252 L 41.248 58.75 L 8.747 58.75 C 6.331 58.75 4.146 57.772 2.56 56.187 C 0.979 54.606 0 52.418 0 50.001 C -0.001 45.169 3.916 41.251 8.751 41.251 L 41.249 41.251 L 41.249 8.752 C 41.249 3.918 45.169 0 50.002 0 C 54.833 0.001 58.749 3.916 58.752 8.749 L 58.752 41.251 L 91.253 41.251 C 96.085 41.253 99.998 45.169 100 50.001 Z"/>
  </g>
</svg>