<?xml version="1.0" encoding="iso-8859-1"?>
<!-- Generator: Adobe Illustrator 16.0.0, SVG Export Plug-In . SVG Version: 6.00 Build 0)  -->
<!DOCTYPE svg PUBLIC "-//W3C//DTD SVG 1.1//EN" "http://www.w3.org/Graphics/SVG/1.1/DTD/svg11.dtd">
<svg version="1.1" id="Capa_1" xmlns="http://www.w3.org/2000/svg" xmlns:xlink="http://www.w3.org/1999/xlink" x="0px" y="0px"
	 width="526.578px" height="526.578px" viewBox="0 0 526.578 526.578" style="enable-background:new 0 0 526.578 526.578;"
	 xml:space="preserve">
<g>
	<path d="M373.619,237.347l84.867-127.049v322.075l-84.441-143.194c12.897-1.644,22.91-12.543,22.91-25.89
		C396.949,249.798,386.729,238.807,373.619,237.347z M68.092,0v526.578h43.882V0H68.092z M458.486,0v89.392L357.3,240.864
		c-6.591,3.954-11.248,10.672-12.419,18.595l-1.04,1.549l0.757,1.277c-0.012,0.343-0.106,0.662-0.106,1.004
		c0,10.227,5.911,18.998,14.446,23.324l99.549,168.794v71.171H125.592V0H458.486z M310.197,212.853H156.866v80.7h153.332V212.853z"
		/>
</g>
<g>
</g>
<g>
</g>
<g>
</g>
<g>
</g>
<g>
</g>
<g>
</g>
<g>
</g>
<g>
</g>
<g>
</g>
<g>
</g>
<g>
</g>
<g>
</g>
<g>
</g>
<g>
</g>
<g>
</g>
</svg>
