<?xml version="1.0" encoding="iso-8859-1"?>
<!-- Generator: Adobe Illustrator 16.0.0, SVG Export Plug-In . SVG Version: 6.00 Build 0)  -->
<!DOCTYPE svg PUBLIC "-//W3C//DTD SVG 1.1//EN" "http://www.w3.org/Graphics/SVG/1.1/DTD/svg11.dtd">
<svg version="1.1" id="Capa_1" xmlns="http://www.w3.org/2000/svg" xmlns:xlink="http://www.w3.org/1999/xlink" x="0px" y="0px"
	 width="488.241px" height="488.241px" viewBox="0 0 488.241 488.241" style="enable-background:new 0 0 488.241 488.241;"
	 xml:space="preserve">
<g>
	<path d="M457.978,81.457h-53.463V46.151H83.726v35.305H30.263C13.551,81.457,0,95.001,0,111.72v157.368
		c0,16.722,13.551,30.263,30.263,30.263h11.095v-70.616h42.368V442.09h320.789V228.735h42.369v70.616h11.094
		c16.716,0,30.264-13.541,30.264-30.263V111.72C488.241,95.001,474.693,81.457,457.978,81.457z M76.663,145.009H36.31v-8.074h40.353
		V145.009z M386.357,423.932H101.884V228.735h284.474V423.932z M386.357,119.788H101.884V81.457V64.31h284.474V119.788z
		 M340.206,274.13H148.035v-13.364h192.171V274.13z M340.206,321.037H148.035v-13.363h192.171V321.037z M340.206,364.919H148.035
		v-13.364h192.171V364.919z"/>
</g>
<g>
</g>
<g>
</g>
<g>
</g>
<g>
</g>
<g>
</g>
<g>
</g>
<g>
</g>
<g>
</g>
<g>
</g>
<g>
</g>
<g>
</g>
<g>
</g>
<g>
</g>
<g>
</g>
<g>
</g>
</svg>
