<?xml version="1.0" encoding="iso-8859-1"?>
<!-- Generator: Adobe Illustrator 16.0.0, SVG Export Plug-In . SVG Version: 6.00 Build 0)  -->
<!DOCTYPE svg PUBLIC "-//W3C//DTD SVG 1.1//EN" "http://www.w3.org/Graphics/SVG/1.1/DTD/svg11.dtd">
<svg version="1.1" id="Capa_1" xmlns="http://www.w3.org/2000/svg" xmlns:xlink="http://www.w3.org/1999/xlink" x="0px" y="0px"
	 width="488.241px" height="488.241px" viewBox="0 0 488.241 488.241" style="enable-background:new 0 0 488.241 488.241;"
	 xml:space="preserve">
<g>
	<path d="M457.978,137.316h-53.463V6.682H83.726v130.634H30.263C13.551,137.316,0,150.86,0,167.579v157.369
		c0,16.721,13.551,30.263,30.263,30.263h11.095v-70.616h42.368v77.171h320.789v-77.171h42.369v70.616h11.094
		c16.71,0,30.264-13.542,30.264-30.263V167.579C488.241,150.86,474.688,137.316,457.978,137.316z M76.669,200.869H36.316v-8.074
		h40.353V200.869z M386.357,343.608H101.884v-59.014h284.474V343.608z M386.357,175.647H101.884v-38.331V24.84h284.474V175.647z
		 M340.053,65.713H147.882V53.208h192.171V65.713z M340.053,109.612H147.882V97.108h192.171V109.612z M340.053,150.68H147.882
		v-12.504h192.171V150.68z M291.956,452.809h84.412v21.184h-84.412c-3.298,4.563-8.629,7.566-14.699,7.566h-66.579
		c-6.059,0-11.396-3.003-14.694-7.566h-73.826v-21.184h73.826c3.298-4.563,8.63-7.566,14.694-7.566h15.131v-15.131
		c0-6.059,3.002-11.396,7.566-14.7v-39.017h21.185v39.017c4.568,3.304,7.565,8.636,7.565,14.7v15.131h15.132
		C283.327,445.243,288.658,448.246,291.956,452.809z"/>
</g>
<g>
</g>
<g>
</g>
<g>
</g>
<g>
</g>
<g>
</g>
<g>
</g>
<g>
</g>
<g>
</g>
<g>
</g>
<g>
</g>
<g>
</g>
<g>
</g>
<g>
</g>
<g>
</g>
<g>
</g>
</svg>
