<?xml version="1.0" encoding="iso-8859-1"?>
<!-- Generator: Adobe Illustrator 16.0.0, SVG Export Plug-In . SVG Version: 6.00 Build 0)  -->
<!DOCTYPE svg PUBLIC "-//W3C//DTD SVG 1.1//EN" "http://www.w3.org/Graphics/SVG/1.1/DTD/svg11.dtd">
<svg version="1.1" id="Capa_1" xmlns="http://www.w3.org/2000/svg" xmlns:xlink="http://www.w3.org/1999/xlink" x="0px" y="0px"
	 width="496.304px" height="496.303px" viewBox="0 0 496.304 496.303" style="enable-background:new 0 0 496.304 496.303;"
	 xml:space="preserve">
<g>
	<path d="M248.152,0C111.32,0,0,111.321,0,248.152c0,136.829,111.32,248.151,248.152,248.151
		c136.829,0,248.152-111.322,248.152-248.151C496.304,111.321,384.992,0,248.152,0z M248.152,472.093
		c-123.479,0-223.941-100.459-223.941-223.941c0-123.479,100.462-223.941,223.941-223.941
		c123.482,0,223.941,100.462,223.941,223.941C472.093,371.634,371.634,472.093,248.152,472.093z M270.985,379.519v37.237
		c0,5.013-4.055,9.079-9.079,9.079h-32.161c-5.018,0-9.079-4.066-9.079-9.079v-37.237c0-5.013,4.061-9.079,9.079-9.079h32.161
		C266.931,370.44,270.985,374.506,270.985,379.519z M310.067,85.671c6.229,6.135,9.386,14.002,9.386,23.403v74.49
		c0,10.229-2.713,19.532-8.056,27.636l-41.678,63.532v67.536c0,5.013-4.055,9.079-9.078,9.079h-29.625
		c-5.019,0-9.079-4.066-9.079-9.079v-63.257c0-11.112,2.586-20.575,7.693-28.146l42.253-63.071v-67.099h-49.559v65.412
		c0,5.012-4.061,9.079-9.079,9.079h-29.415c-5.019,0-9.079-4.067-9.079-9.079v-77.032c0-9.437,3.207-17.321,9.534-23.448
		c6.256-6.052,14.145-9.12,23.454-9.12h78.72C295.94,76.512,303.879,79.592,310.067,85.671z"/>
</g>
<g>
</g>
<g>
</g>
<g>
</g>
<g>
</g>
<g>
</g>
<g>
</g>
<g>
</g>
<g>
</g>
<g>
</g>
<g>
</g>
<g>
</g>
<g>
</g>
<g>
</g>
<g>
</g>
<g>
</g>
</svg>
