<?xml version="1.0" encoding="iso-8859-1"?>
<!-- Generator: Adobe Illustrator 16.0.0, SVG Export Plug-In . SVG Version: 6.00 Build 0)  -->
<!DOCTYPE svg PUBLIC "-//W3C//DTD SVG 1.1//EN" "http://www.w3.org/Graphics/SVG/1.1/DTD/svg11.dtd">
<svg version="1.1" id="Capa_1" xmlns="http://www.w3.org/2000/svg" xmlns:xlink="http://www.w3.org/1999/xlink" x="0px" y="0px"
	 width="491.202px" height="491.202px" viewBox="0 0 491.202 491.202" style="enable-background:new 0 0 491.202 491.202;"
	 xml:space="preserve">
<g>
	<path d="M97.714,232.08v37.867c0,5.137-4.164,9.304-9.304,9.304c-18.326,0-28.289,18.79-29.669,55.88H88.41
		c5.14,0,9.304,4.162,9.304,9.305v79.954c0,5.137-4.164,9.298-9.304,9.298H9.304c-5.14,0-9.304-4.161-9.304-9.298v-79.954
		c0-17.78,1.791-34.105,5.32-48.516c3.621-14.766,9.176-27.681,16.506-38.385c7.548-10.994,16.991-19.627,28.067-25.638
		c11.148-6.046,24.107-9.115,38.523-9.115C93.55,222.782,97.714,226.947,97.714,232.08z M217.646,222.782
		c-14.411,0-27.376,3.068-38.523,9.115c-11.077,6.011-20.52,14.644-28.067,25.638c-7.335,10.71-12.886,23.619-16.512,38.396
		c-3.529,14.41-5.314,30.724-5.314,48.504v79.954c0,5.137,4.165,9.298,9.298,9.298h79.113c5.133,0,9.297-4.161,9.297-9.298v-79.954
		c0-5.143-4.164-9.305-9.297-9.305h-29.252c1.362-37.09,11.186-55.88,29.252-55.88c5.133,0,9.297-4.167,9.297-9.304V232.08
		C226.944,226.947,222.78,222.782,217.646,222.782z M481.904,57.515h-79.109c-5.136,0-9.304,4.164-9.304,9.304v79.949
		c0,5.139,4.161,9.304,9.304,9.304h29.666c-1.377,37.09-11.343,55.877-29.666,55.877c-5.136,0-9.304,4.164-9.304,9.304v37.867
		c0,5.137,4.161,9.304,9.304,9.304c14.411,0,27.373-3.074,38.521-9.114c11.071-6.018,20.517-14.639,28.059-25.645
		c7.329-10.701,12.886-23.61,16.509-38.384c3.528-14.411,5.319-30.73,5.319-48.513V66.818
		C491.208,61.679,487.035,57.515,481.904,57.515z M352.672,57.515h-79.109c-5.131,0-9.298,4.164-9.298,9.304v79.949
		c0,5.139,4.167,9.304,9.298,9.304h29.252c-1.365,37.09-11.188,55.877-29.252,55.877c-5.131,0-9.298,4.164-9.298,9.304v37.867
		c0,5.137,4.167,9.304,9.298,9.304c14.41,0,27.378-3.074,38.526-9.114c11.076-6.018,20.516-14.639,28.058-25.645
		c7.342-10.701,12.897-23.61,16.521-38.39c3.523-14.405,5.309-30.724,5.309-48.5V66.818
		C361.976,61.679,357.809,57.515,352.672,57.515z"/>
</g>
<g>
</g>
<g>
</g>
<g>
</g>
<g>
</g>
<g>
</g>
<g>
</g>
<g>
</g>
<g>
</g>
<g>
</g>
<g>
</g>
<g>
</g>
<g>
</g>
<g>
</g>
<g>
</g>
<g>
</g>
</svg>
