<?xml version="1.0" encoding="iso-8859-1"?>
<!-- Generator: Adobe Illustrator 16.0.0, SVG Export Plug-In . SVG Version: 6.00 Build 0)  -->
<!DOCTYPE svg PUBLIC "-//W3C//DTD SVG 1.1//EN" "http://www.w3.org/Graphics/SVG/1.1/DTD/svg11.dtd">
<svg version="1.1" id="Capa_1" xmlns="http://www.w3.org/2000/svg" xmlns:xlink="http://www.w3.org/1999/xlink" x="0px" y="0px"
	 width="458.096px" height="458.096px" viewBox="0 0 458.096 458.096" style="enable-background:new 0 0 458.096 458.096;"
	 xml:space="preserve">
<g>
	<path d="M454.112,396.635L247.33,38.496c-3.783-6.555-10.775-10.592-18.341-10.592s-14.564,4.037-18.347,10.592L2.837,398.414
		c-3.783,6.555-3.783,14.629,0,21.184c3.783,6.556,10.781,10.593,18.347,10.593h415.61c0.041,0,0.088,0.006,0.118,0
		c11.703,0,21.184-9.481,21.184-21.185C458.096,404.384,456.618,400.116,454.112,396.635z M57.878,387.822L228.995,91.45
		l171.111,296.372H57.878z M214.915,282.61l-70.196-30.967c0,0,8.216-34.693,50.147-51.5l32.834,69.339
		C215.92,270.759,214.915,282.61,214.915,282.61z M234.185,299.013l0.432,76.728c0,0-35.021,6.68-67.507-24.73l49.881-58.298
		C222.972,302.943,234.185,299.013,234.185,299.013z M239.244,273.638l68.694-34.176c0,0,21.438,28.513,7.555,71.484l-74.316-19.08
		C247.737,281.972,239.244,273.638,239.244,273.638z"/>
</g>
<g>
</g>
<g>
</g>
<g>
</g>
<g>
</g>
<g>
</g>
<g>
</g>
<g>
</g>
<g>
</g>
<g>
</g>
<g>
</g>
<g>
</g>
<g>
</g>
<g>
</g>
<g>
</g>
<g>
</g>
</svg>
