<?xml version="1.0" encoding="utf-8"?>
<svg version="1.1" id="Capa_1" x="0px" y="0px" width="100px" height="100px" viewBox="0 0 100 100" style="enable-background:new 0 0 454.839 454.839;" xmlns="http://www.w3.org/2000/svg">
  <g>
    <path d="M 89.022 62.407 C 89.022 83.136 72.157 100 51.43 100 L 38.123 100 C 35.918 100 34.131 98.213 34.131 96.007 L 34.131 94.677 C 34.131 92.471 35.917 90.685 38.123 90.685 L 51.43 90.685 C 67.021 90.685 79.708 77.998 79.708 62.407 C 79.708 55.284 77.06 48.768 72.698 43.79 C 67.51 37.872 59.899 34.129 51.43 34.129 L 26.879 34.129 L 43.787 51.037 C 45.603 52.853 45.603 55.808 43.787 57.624 C 42.025 59.384 38.958 59.382 37.2 57.624 L 12.342 32.765 C 11.463 31.886 10.978 30.716 10.978 29.471 C 10.978 28.228 11.463 27.058 12.342 26.178 L 37.201 1.319 C 38.96 -0.44 42.029 -0.44 43.787 1.319 C 45.603 3.134 45.603 6.09 43.787 7.905 L 26.879 24.814 L 51.43 24.814 C 72.157 24.814 89.022 41.679 89.022 62.407 Z" transform="matrix(-1, 0, 0, -1, 100.000013, 99.999756)"/>
  </g>
</svg>