<?xml version="1.0" encoding="iso-8859-1"?>
<!-- Generator: Adobe Illustrator 16.0.0, SVG Export Plug-In . SVG Version: 6.00 Build 0)  -->
<!DOCTYPE svg PUBLIC "-//W3C//DTD SVG 1.1//EN" "http://www.w3.org/Graphics/SVG/1.1/DTD/svg11.dtd">
<svg version="1.1" id="Capa_1" xmlns="http://www.w3.org/2000/svg" xmlns:xlink="http://www.w3.org/1999/xlink" x="0px" y="0px"
	 width="413.601px" height="413.601px" viewBox="0 0 413.601 413.601" style="enable-background:new 0 0 413.601 413.601;"
	 xml:space="preserve">
<g>
	<path d="M395.439,368.206h18.158v45.395h-45.395v-18.158h27.236V368.206z M109.956,413.601h64.569v-18.158h-64.569V413.601z
		 M239.082,413.601h64.558v-18.158h-64.558V413.601z M18.161,368.206H0.003v45.395h45.395v-18.158H18.161V368.206z M18.161,239.079
		H0.003v64.562h18.158V239.079z M18.161,109.958H0.003v64.563h18.158V109.958z M0.003,45.395h18.158V18.158h27.237V0H0.003V45.395z
		 M174.519,0h-64.563v18.158h64.563V0z M239.082,18.158h64.558V0h-64.558V18.158z M368.203,0v18.158h27.236v27.237h18.158V0H368.203
		z M395.439,303.642h18.158v-64.562h-18.158V303.642z M395.439,174.521h18.158v-64.563h-18.158V174.521z M174.841,286.826
		c-40.329,0-73.14-32.816-73.14-73.14c0-39.794,31.951-72.206,71.541-73.066l-20.271,32.625c-4.744,7.625-2.397,17.649,5.225,22.381
		c2.668,1.658,5.633,2.453,8.562,2.453c5.423,0,10.74-2.725,13.813-7.681l43.107-69.375c2.281-3.662,3.003-8.074,2.027-12.277
		c-0.987-4.194-3.588-7.832-7.253-10.107l-69.38-43.095c-7.613-4.731-17.644-2.403-22.381,5.231
		c-4.741,7.625-2.397,17.649,5.228,22.384l40.25,25.002C115.154,109.595,69.18,156.322,69.18,213.687
		c0,58.256,47.398,105.643,105.646,105.643c8.979,0,16.258-7.275,16.258-16.248C191.09,294.097,183.816,286.826,174.841,286.826z
		 M361.399,199.926c0-58.256-47.398-105.648-105.648-105.648c-8.973,0-16.255,7.273-16.255,16.248
		c0,8.979,7.271,16.261,16.255,16.261c40.328,0,73.14,32.811,73.14,73.14c0,39.792-31.954,72.2-71.544,73.058l20.273-32.622
		c4.74-7.625,2.4-17.649-5.225-22.384c-2.672-1.655-5.633-2.447-8.565-2.447c-5.42,0-10.739,2.719-13.813,7.678l-43.104,69.375
		c-2.281,3.665-3.002,8.074-2.027,12.277c0.987,4.19,3.588,7.831,7.25,10.107l69.387,43.095c7.613,4.729,17.638,2.399,22.378-5.231
		c4.734-7.624,2.4-17.648-5.225-22.384l-40.253-25.002C315.426,304.015,361.399,257.284,361.399,199.926z"/>
</g>
<g>
</g>
<g>
</g>
<g>
</g>
<g>
</g>
<g>
</g>
<g>
</g>
<g>
</g>
<g>
</g>
<g>
</g>
<g>
</g>
<g>
</g>
<g>
</g>
<g>
</g>
<g>
</g>
<g>
</g>
</svg>
