<?xml version="1.0" encoding="iso-8859-1"?>
<!-- Generator: Adobe Illustrator 16.0.0, SVG Export Plug-In . SVG Version: 6.00 Build 0)  -->
<!DOCTYPE svg PUBLIC "-//W3C//DTD SVG 1.1//EN" "http://www.w3.org/Graphics/SVG/1.1/DTD/svg11.dtd">
<svg version="1.1" id="Capa_1" xmlns="http://www.w3.org/2000/svg" xmlns:xlink="http://www.w3.org/1999/xlink" x="0px" y="0px"
	 width="474.022px" height="474.022px" viewBox="0 0 474.022 474.022" style="enable-background:new 0 0 474.022 474.022;"
	 xml:space="preserve">
<g>
	<path d="M458.753,232.949c0,80.073-65.148,145.222-145.228,145.222h-94.835l65.316,65.319c7.017,7.011,7.017,18.424,0,25.435
		c-6.785,6.797-18.643,6.797-25.439,0l-96.035-96.026c-3.402-3.398-5.27-7.921-5.27-12.727c0-4.805,1.874-9.326,5.27-12.72
		l96.035-96.032c6.785-6.797,18.643-6.809,25.439,0c7.017,7.017,7.017,18.424,0,25.44l-65.316,65.319h94.835
		c60.242,0,109.243-49,109.243-109.236c0-51.58-35.979-94.826-84.134-106.211c2.151-3.803,3.393-8.068,3.393-12.554
		c0-6.872-2.672-13.323-7.53-18.169l-7.648-7.651C400.698,95.113,458.753,157.362,458.753,232.949z M131.986,359.842
		c0-4.492,1.247-8.754,3.396-12.555C87.227,335.902,51.25,292.654,51.25,241.076c0-60.228,49-109.236,109.237-109.236h94.83
		l-65.311,65.319c-7.013,7.017-7.013,18.43,0,25.446c6.803,6.809,18.654,6.797,25.446,0l96.029-96.032
		c3.404-3.396,5.272-7.917,5.272-12.723c0-4.805-1.874-9.327-5.272-12.723L215.446,5.098c-6.792-6.797-18.648-6.797-25.44,0
		c-7.013,7.013-7.013,18.424,0,25.44l65.311,65.32h-94.83C80.412,95.858,15.269,161,15.269,241.076
		c0,75.581,58.049,137.834,131.898,144.59l-7.651-7.648C134.661,373.164,131.986,366.71,131.986,359.842z"/>
</g>
<g>
</g>
<g>
</g>
<g>
</g>
<g>
</g>
<g>
</g>
<g>
</g>
<g>
</g>
<g>
</g>
<g>
</g>
<g>
</g>
<g>
</g>
<g>
</g>
<g>
</g>
<g>
</g>
<g>
</g>
</svg>
