<?xml version="1.0" encoding="iso-8859-1"?>
<!-- Generator: Adobe Illustrator 16.0.0, SVG Export Plug-In . SVG Version: 6.00 Build 0)  -->
<!DOCTYPE svg PUBLIC "-//W3C//DTD SVG 1.1//EN" "http://www.w3.org/Graphics/SVG/1.1/DTD/svg11.dtd">
<svg version="1.1" id="Capa_1" xmlns="http://www.w3.org/2000/svg" xmlns:xlink="http://www.w3.org/1999/xlink" x="0px" y="0px"
	 width="483.252px" height="483.252px" viewBox="0 0 483.252 483.252" style="enable-background:new 0 0 483.252 483.252;"
	 xml:space="preserve">
<g>
	<path d="M446.34,280.199c13.175-1.265,25.398-6.933,35.015-16.295v166.979c0,28.88-23.507,52.369-52.387,52.369H53.646
		c-28.889,0-52.393-23.489-52.393-52.369V55.96c0-28.877,23.504-52.372,52.393-52.372H221.08
		c-9.014,9.247-15.004,21.45-16.319,35.009H53.64c-9.582,0-17.377,7.788-17.377,17.363v374.917c0,9.569,7.796,17.359,17.377,17.359
		h375.322c9.581,0,17.378-7.79,17.378-17.359V280.199z M455.743,0H277.895c-14.499,0-26.256,11.754-26.256,26.262
		c0,14.502,11.757,26.255,26.256,26.255h113.02c-1.087,0.792-2.175,1.599-3.156,2.583L202.479,240.367V125.911
		c0-14.502-11.753-26.256-26.255-26.256c-7.253,0-13.819,2.929-18.569,7.688c-4.752,4.761-7.693,11.31-7.693,18.568v177.854
		c0,14.5,11.754,26.256,26.256,26.256h177.849c14.505,0,26.256-11.756,26.256-26.268c0-14.493-11.751-26.256-26.256-26.256H241.059
		c1.091-0.791,2.172-1.596,3.153-2.576L429.477,89.648V204.11c0,14.502,11.75,26.256,26.255,26.256
		c7.253,0,13.819-2.929,18.572-7.684c4.752-4.764,7.695-11.319,7.695-18.572V26.256C481.999,11.76,470.243,0,455.743,0z"/>
</g>
<g>
</g>
<g>
</g>
<g>
</g>
<g>
</g>
<g>
</g>
<g>
</g>
<g>
</g>
<g>
</g>
<g>
</g>
<g>
</g>
<g>
</g>
<g>
</g>
<g>
</g>
<g>
</g>
<g>
</g>
</svg>
