<?xml version="1.0" encoding="iso-8859-1"?>
<!-- Generator: Adobe Illustrator 16.0.0, SVG Export Plug-In . SVG Version: 6.00 Build 0)  -->
<!DOCTYPE svg PUBLIC "-//W3C//DTD SVG 1.1//EN" "http://www.w3.org/Graphics/SVG/1.1/DTD/svg11.dtd">
<svg version="1.1" id="Capa_1" xmlns="http://www.w3.org/2000/svg" xmlns:xlink="http://www.w3.org/1999/xlink" x="0px" y="0px"
	 width="415.361px" height="415.361px" viewBox="0 0 415.361 415.361" style="enable-background:new 0 0 415.361 415.361;"
	 xml:space="preserve">
<g>
	<path d="M335.622,0c5.007,0,9.079,4.067,9.079,9.079v397.203c0,5.013-4.072,9.079-9.079,9.079c-5.013,0-9.079-4.066-9.079-9.079
		V9.079C326.543,4.061,330.609,0,335.622,0z M304.349,39.723c0-5.012-4.067-9.079-9.079-9.079H79.739
		c-5.01,0-9.079,4.067-9.079,9.079c0,5.013,4.069,9.079,9.079,9.079h215.53C300.281,48.802,304.349,44.736,304.349,39.723z
		 M304.349,100.25c0-5.013-4.067-9.079-9.079-9.079H116.055c-5.009,0-9.079,4.066-9.079,9.079c0,5.012,4.069,9.079,9.079,9.079
		H295.27C300.281,109.329,304.349,105.262,304.349,100.25z M70.66,221.299c0,5.012,4.069,9.078,9.079,9.078h215.53
		c5.012,0,9.079-4.066,9.079-9.078c0-5.013-4.067-9.079-9.079-9.079H79.739C74.729,212.22,70.66,216.287,70.66,221.299z
		 M106.976,281.825c0,5.013,4.069,9.079,9.079,9.079H295.27c5.012,0,9.079-4.066,9.079-9.079c0-5.012-4.067-9.078-9.079-9.078
		H116.055C111.045,272.747,106.976,276.813,106.976,281.825z M106.976,342.86c0,5.012,4.069,9.079,9.079,9.079H295.27
		c5.012,0,9.079-4.067,9.079-9.079c0-5.013-4.067-9.079-9.079-9.079H116.055C111.045,333.781,106.976,337.847,106.976,342.86z
		 M304.349,160.776c0-5.013-4.067-9.079-9.079-9.079H135.726c-5.009,0-9.079,4.066-9.079,9.079c0,5.012,4.07,9.079,9.079,9.079
		H295.27C300.281,169.855,304.349,165.788,304.349,160.776z"/>
</g>
<g>
</g>
<g>
</g>
<g>
</g>
<g>
</g>
<g>
</g>
<g>
</g>
<g>
</g>
<g>
</g>
<g>
</g>
<g>
</g>
<g>
</g>
<g>
</g>
<g>
</g>
<g>
</g>
<g>
</g>
</svg>
