<?xml version="1.0" encoding="iso-8859-1"?>
<!-- Generator: Adobe Illustrator 16.0.0, SVG Export Plug-In . SVG Version: 6.00 Build 0)  -->
<!DOCTYPE svg PUBLIC "-//W3C//DTD SVG 1.1//EN" "http://www.w3.org/Graphics/SVG/1.1/DTD/svg11.dtd">
<svg version="1.1" id="Capa_1" xmlns="http://www.w3.org/2000/svg" xmlns:xlink="http://www.w3.org/1999/xlink" x="0px" y="0px"
	 width="533.139px" height="533.139px" viewBox="0 0 533.139 533.139" style="enable-background:new 0 0 533.139 533.139;"
	 xml:space="preserve">
<g>
	<path d="M496.58,198.856c-0.815-4.879-3.582-9.206-7.66-11.996c-68.777-47.011-40.482-106.216-37.072-112.718
		c3.026-5.63,2.885-12.439-0.39-17.927c-3.287-5.485-9.209-8.849-15.593-8.849c-93.354,0-158.361-43.73-158.977-44.147
		c-6.215-4.291-14.425-4.291-20.64,0c-0.635,0.44-65.015,44.147-158.967,44.147c-6.396,0-12.315,3.363-15.59,8.849
		c-3.274,5.488-3.425,12.297-0.387,17.927c1.404,2.61,33.609,64.407-37.084,112.718c-4.082,2.79-6.848,7.123-7.663,11.996
		c-4.02,24.089-4.02,58.995-4.02,82.095c0,146.764,120.024,197.289,184.507,224.432c12.144,5.106,26.977,11.349,32.214,15.107
		c2.329,7.342,9.2,12.649,17.304,12.649c8.104,0,14.984-5.308,17.3-12.649c5.249-3.759,20.073-10.001,32.214-15.107
		C380.564,478.24,500.6,427.714,500.6,280.951C500.611,257.851,500.611,222.945,496.58,198.856z M301.998,471.904
		c-14.233,5.993-26.338,11.088-35.429,16.674c-9.079-5.586-21.184-10.681-35.432-16.674
		c-60.7-25.547-162.289-68.305-162.289-190.965c0-19.523,0-47.945,2.495-68.852c4.454-3.34,8.473-6.774,12.292-10.241h365.85
		c3.818,3.466,7.838,6.907,12.294,10.241c2.507,20.906,2.507,49.328,2.507,68.852C464.296,403.599,362.701,446.357,301.998,471.904z
		"/>
</g>
<g>
</g>
<g>
</g>
<g>
</g>
<g>
</g>
<g>
</g>
<g>
</g>
<g>
</g>
<g>
</g>
<g>
</g>
<g>
</g>
<g>
</g>
<g>
</g>
<g>
</g>
<g>
</g>
<g>
</g>
</svg>
