<?xml version="1.0" encoding="iso-8859-1"?>
<!-- Generator: Adobe Illustrator 16.0.0, SVG Export Plug-In . SVG Version: 6.00 Build 0)  -->
<!DOCTYPE svg PUBLIC "-//W3C//DTD SVG 1.1//EN" "http://www.w3.org/Graphics/SVG/1.1/DTD/svg11.dtd">
<svg version="1.1" id="Capa_1" xmlns="http://www.w3.org/2000/svg" xmlns:xlink="http://www.w3.org/1999/xlink" x="0px" y="0px"
	 width="75.482px" height="75.482px" viewBox="0 0 75.482 75.482" style="enable-background:new 0 0 75.482 75.482;"
	 xml:space="preserve">
<g>
	<path d="M75.482,25.479c0,4.446-3.956,8.064-8.819,8.064H29.186c0.027-1.157-0.17-2.315-0.582-3.42h30.861
		c-0.248-0.319-0.469-0.656-0.664-1.008c-0.75-1.203-1.283-2.672-1.283-4.433c0-2.328,0.93-4.17,2.068-5.552H7.575
		c-2.322,0-4.211,2.465-4.211,5.496c0,1.66,0.578,3.133,1.473,4.142c-0.065,0.3-0.122,0.604-0.159,0.915
		c-0.387,0.893-0.623,1.829-0.714,2.774C1.605,30.938,0,27.984,0,24.627c0-4.885,3.398-8.86,7.575-8.86h56.808
		c0.791,0,1.476,0.551,1.644,1.324c0.169,0.772-0.224,1.558-0.942,1.888c-0.035,0.017-4.201,2.008-4.201,5.705
		c0,3.673,4.139,5.566,4.182,5.584c0.027,0.013,0.047,0.036,0.072,0.05c0.489,0.117,0.996,0.2,1.526,0.2
		c3.194,0,5.793-2.26,5.793-5.039c-0.001,0-0.045-1.267-0.823-1.839c-0.766-0.565-2.078-0.346-3.041-0.065
		c-0.072,0.03-1.375,0.524-1.113,1.39c0.242,0.8-0.209,1.646-1.008,1.888c-0.801,0.241-1.646-0.209-1.89-1.009
		c-0.825-2.724,1.4-4.574,3.099-5.153c2.442-0.715,4.365-0.527,5.783,0.538C75.43,22.705,75.483,25.201,75.482,25.479z
		 M22.197,43.055l4.871,9.141c-4.722-1.447-5.667,6.547-5.667,6.547l-3.606-14.43c-0.466,0.084-0.938,0.13-1.411,0.125
		l-3.819,15.277c0,0-0.945-7.994-5.666-6.547l5.144-9.654c-3.145-0.794-5.524-3.504-5.814-6.821c-0.956-2.025-0.956-4.382,0-6.407
		c0.327-3.733,3.297-6.704,7.03-7.031c2.025-0.958,4.386-0.958,6.411,0c3.731,0.328,6.701,3.298,7.029,7.031
		c0.956,2.024,0.956,4.382,0,6.407C26.45,39.531,24.673,41.924,22.197,43.055z M22.219,33.49c0-3.178-2.577-5.756-5.755-5.756
		c-3.178,0-5.756,2.578-5.756,5.756c0,3.178,2.578,5.754,5.756,5.754C19.642,39.244,22.219,36.667,22.219,33.49z M16.464,30.333
		c-1.743,0-3.156,1.413-3.156,3.157c0,1.744,1.413,3.157,3.156,3.157c1.743,0,3.155-1.413,3.155-3.157
		C19.619,31.746,18.207,30.333,16.464,30.333z"/>
</g>
<g>
</g>
<g>
</g>
<g>
</g>
<g>
</g>
<g>
</g>
<g>
</g>
<g>
</g>
<g>
</g>
<g>
</g>
<g>
</g>
<g>
</g>
<g>
</g>
<g>
</g>
<g>
</g>
<g>
</g>
</svg>
