<?xml version="1.0" encoding="iso-8859-1"?>
<!-- Generator: Adobe Illustrator 16.0.0, SVG Export Plug-In . SVG Version: 6.00 Build 0)  -->
<!DOCTYPE svg PUBLIC "-//W3C//DTD SVG 1.1//EN" "http://www.w3.org/Graphics/SVG/1.1/DTD/svg11.dtd">
<svg version="1.1" id="Capa_1" xmlns="http://www.w3.org/2000/svg" xmlns:xlink="http://www.w3.org/1999/xlink" x="0px" y="0px"
	 width="413.601px" height="413.601px" viewBox="0 0 413.601 413.601" style="enable-background:new 0 0 413.601 413.601;"
	 xml:space="preserve">
<g>
	<path d="M233.26,222.642c27.385-37.2,24.358-89.921-9.274-123.559c-37.089-37.084-97.433-37.084-134.525,0
		c-37.084,37.09-37.084,97.439,0,134.523c33.635,33.644,86.359,36.659,123.556,9.28l114.491,114.497
		c5.592,5.586,14.659,5.586,20.256,0c5.592-5.592,5.592-14.659,0-20.25L233.26,222.642z M203.735,213.361
		c-25.918,25.925-68.098,25.925-94.028,0c-25.918-25.925-25.918-68.104,0-94.028c25.931-25.928,68.11-25.928,94.028,0
		C229.66,145.257,229.66,187.437,203.735,213.361z M395.439,368.206h18.158v45.395h-45.396v-18.158h27.237V368.206z
		 M109.961,395.442h64.557v18.158h-64.557V395.442z M239.082,395.442h64.563v18.158h-64.563V395.442z M18.161,395.442h27.237v18.158
		H0.003v-45.395h18.158V395.442z M18.161,303.642H0.003v-64.562h18.158V303.642z M18.161,174.521H0.003v-64.563h18.158V174.521z
		 M0.003,0h45.395v18.158H18.161v27.237H0.003V0z M174.519,18.158h-64.557V0h64.557V18.158z M303.646,18.158h-64.569V0h64.569
		V18.158z M413.598,0v45.395h-18.158V18.158h-27.237V0H413.598z M395.439,239.079h18.158v64.562h-18.158V239.079z M395.439,109.958
		h18.158v64.563h-18.158V109.958z"/>
</g>
<g>
</g>
<g>
</g>
<g>
</g>
<g>
</g>
<g>
</g>
<g>
</g>
<g>
</g>
<g>
</g>
<g>
</g>
<g>
</g>
<g>
</g>
<g>
</g>
<g>
</g>
<g>
</g>
<g>
</g>
</svg>
