<?xml version="1.0" encoding="iso-8859-1"?>
<!-- Generator: Adobe Illustrator 16.0.0, SVG Export Plug-In . SVG Version: 6.00 Build 0)  -->
<!DOCTYPE svg PUBLIC "-//W3C//DTD SVG 1.1//EN" "http://www.w3.org/Graphics/SVG/1.1/DTD/svg11.dtd">
<svg version="1.1" id="Capa_1" xmlns="http://www.w3.org/2000/svg" xmlns:xlink="http://www.w3.org/1999/xlink" x="0px" y="0px"
	 width="413.601px" height="413.601px" viewBox="0 0 413.601 413.601" style="enable-background:new 0 0 413.601 413.601;"
	 xml:space="preserve">
<g>
	<path d="M395.439,368.206h18.158v45.395h-45.396v-18.158h27.237V368.206z M109.961,413.601h64.557v-18.158h-64.557V413.601z
		 M239.082,413.601h64.563v-18.158h-64.563V413.601z M18.161,368.206H0.003v45.395h45.395v-18.158H18.161V368.206z M18.161,239.079
		H0.003v64.562h18.158V239.079z M18.161,109.958H0.003v64.563h18.158V109.958z M0.003,45.395h18.158V18.158h27.237V0H0.003V45.395z
		 M174.519,0h-64.557v18.158h64.557V0z M303.646,0h-64.569v18.158h64.569V0z M368.202,0v18.158h27.237v27.237h18.158V0H368.202z
		 M395.439,303.642h18.158v-64.562h-18.158V303.642z M395.439,174.521h18.158v-64.563h-18.158V174.521z M352.03,218.829
		c4.025,8.901,6.331,18.742,6.331,29.14c0,39.088-31.693,70.781-70.8,70.781c-39.105,0-70.787-31.693-70.787-70.781
		c0-25.629,13.666-48.019,34.094-60.458c-32.107-5.979-61.927-4.747-88.05,0.047c20.368,12.434,34.022,34.794,34.022,60.411
		c0,39.088-31.697,70.781-70.791,70.781c-39.114,0-70.799-31.693-70.799-70.781c0-7.778,1.321-15.256,3.639-22.271V214.49
		c0-39.945,34.409-72.301,76.831-72.301h8.396h126.771h4.031c42.41,0,76.811,32.355,76.811,72.301L352.03,218.829z M126.044,201.117
		c-25.833,0-46.866,21.01-46.866,46.852c0,25.848,21.039,46.854,46.866,46.854c25.824,0,46.864-21.007,46.864-46.854
		C172.908,222.127,151.875,201.117,126.044,201.117z M334.429,247.969c0-25.842-21.037-46.852-46.867-46.852
		c-25.829,0-46.86,21.01-46.86,46.852c0,25.848,21.037,46.854,46.86,46.854C313.392,294.817,334.429,273.811,334.429,247.969z
		 M275.38,134.774c37.581-0.417,56.768,23.558,56.768,23.558C303.521,108.294,275.38,134.774,275.38,134.774z M129.777,133.909
		c0,0-28.139-26.48-56.767,23.557C73.016,157.466,92.196,133.486,129.777,133.909z M125.527,226.241
		c-0.786,0-1.561,0.041-2.317,0.117c0.727,3.783-2.311,9.505-7.844,14.068c-4.528,3.729-9.49,5.65-13.116,5.455
		c-0.225,1.301-0.364,2.631-0.364,3.996c0,13.057,10.581,23.637,23.634,23.637c13.057,0,23.631-10.58,23.631-23.637
		C149.165,236.827,138.584,226.241,125.527,226.241z M299.597,237.761c-5.545-4.568-8.577-10.297-7.844-14.067
		c-0.757-0.077-1.531-0.124-2.312-0.124c-13.057,0-23.637,10.58-23.637,23.637s10.58,23.637,23.637,23.637
		c13.039,0,23.62-10.58,23.62-23.637c0-1.365-0.131-2.689-0.361-3.989C309.077,243.411,304.124,241.49,299.597,237.761z"/>
</g>
<g>
</g>
<g>
</g>
<g>
</g>
<g>
</g>
<g>
</g>
<g>
</g>
<g>
</g>
<g>
</g>
<g>
</g>
<g>
</g>
<g>
</g>
<g>
</g>
<g>
</g>
<g>
</g>
<g>
</g>
</svg>
