<?xml version="1.0" encoding="iso-8859-1"?>
<!-- Generator: Adobe Illustrator 16.0.0, SVG Export Plug-In . SVG Version: 6.00 Build 0)  -->
<!DOCTYPE svg PUBLIC "-//W3C//DTD SVG 1.1//EN" "http://www.w3.org/Graphics/SVG/1.1/DTD/svg11.dtd">
<svg version="1.1" id="Capa_1" xmlns="http://www.w3.org/2000/svg" xmlns:xlink="http://www.w3.org/1999/xlink" x="0px" y="0px"
	 width="423.683px" height="423.683px" viewBox="0 0 423.683 423.683" style="enable-background:new 0 0 423.683 423.683;"
	 xml:space="preserve">
<g>
	<path d="M54.376,287.577h310.459c26.48,0,48.02-13.979,48.02-40.453c0-17.916-10.001-34.07-25.559-42.292
		c-19.021-72.951-86.061-125.196-162.002-125.223v-3.431h-3.854V61.814h3.854v-9.569h-31.38v9.569h3.854v14.363h-3.854v3.431
		c-75.941,0.026-142.97,52.272-161.988,125.217c-15.56,8.216-25.573,24.376-25.573,42.291
		C6.36,273.597,27.896,287.577,54.376,287.577z M47.676,227.145l7.214-2.424l1.617-7.447
		c13.884-64.232,71.707-110.862,137.467-110.862h31.274c65.763,0,123.582,46.63,137.473,110.862l1.607,7.447l7.223,2.424
		c8.678,2.92,14.506,10.946,14.506,19.979c0,11.703-9.517,13.647-21.221,13.647H54.376c-11.7,0-21.22-1.944-21.22-13.647
		C33.162,238.091,38.984,230.065,47.676,227.145z M423.683,334.602v36.836H0v-36.836h25.348v-18.418h372.99v18.418H423.683z"/>
</g>
<g>
</g>
<g>
</g>
<g>
</g>
<g>
</g>
<g>
</g>
<g>
</g>
<g>
</g>
<g>
</g>
<g>
</g>
<g>
</g>
<g>
</g>
<g>
</g>
<g>
</g>
<g>
</g>
<g>
</g>
</svg>
