<?xml version="1.0" encoding="iso-8859-1"?>
<!-- Generator: Adobe Illustrator 16.0.0, SVG Export Plug-In . SVG Version: 6.00 Build 0)  -->
<!DOCTYPE svg PUBLIC "-//W3C//DTD SVG 1.1//EN" "http://www.w3.org/Graphics/SVG/1.1/DTD/svg11.dtd">
<svg version="1.1" id="Capa_1" xmlns="http://www.w3.org/2000/svg" xmlns:xlink="http://www.w3.org/1999/xlink" x="0px" y="0px"
	 width="519.024px" height="519.024px" viewBox="0 0 519.024 519.024" style="enable-background:new 0 0 519.024 519.024;"
	 xml:space="preserve">
<g>
	<path d="M204.846,256.808c0,29.654,24.125,53.788,53.788,53.788s53.791-24.128,53.791-53.788c0-29.657-24.128-53.793-53.791-53.793
		S204.846,227.145,204.846,256.808z M258.628,220.005c20.301,0,36.804,16.512,36.804,36.803c0,20.298-16.509,36.801-36.804,36.801
		c-20.294,0-36.8-16.509-36.8-36.801C221.828,236.511,238.334,220.005,258.628,220.005z M506.529,236.854h-78.306l0.295,2.586
		c0.071,0.629,0.095,1.203,0.166,1.82h-32.226c-3.168-28.224-14.836-53.892-32.367-74.428l21.527-21.524
		c0.52,0.576,1.063,1.108,1.572,1.685l1.619,1.844l51.364-51.361c4.871-4.874,4.871-12.788,0-17.661
		c-4.717-4.708-12.944-4.708-17.649,0.006l-51.281,51.278l1.761,1.578l-21.338,21.329c-22.508-20.389-51.73-33.481-83.909-35.583
		V89.539c0.798,0.042,1.514,0.065,2.358,0.115l2.447,0.145V12.496c0-6.889-5.609-12.487-12.486-12.487
		c-6.883,0-12.486,5.598-12.486,12.487v77.201l2.317-0.127v28.818c-30.574,1.906-58.469,13.746-80.531,32.338l-20.499-20.493
		c0.567-0.491,1.126-1.031,1.688-1.507l1.936-1.622L97.616,72.224c-4.702-4.717-12.933-4.717-17.649,0
		c-2.353,2.353-3.656,5.482-3.656,8.825c0,3.339,1.303,6.469,3.656,8.824l54.346,54.347l1.611-1.696l20.555,20.555
		c-19.387,21.113-32.32,48.223-35.68,78.188H90.334c0.062-0.618,0.085-1.191,0.165-1.82l0.296-2.586H12.486
		C5.604,236.859,0,242.466,0,249.346c0,6.889,5.604,12.486,12.486,12.486h76.796v-2.317c0-0.129,0.012-0.266,0.012-0.401h30.674
		c0.583,34.862,14.032,66.638,35.858,90.736l-23.159,23.158l-1.572-1.762l-57.914,57.908c-2.353,2.358-3.656,5.485-3.656,8.831
		c0,3.333,1.303,6.466,3.656,8.818c2.367,2.364,5.497,3.658,8.831,3.658c3.336,0,6.466-1.3,8.831-3.658l57.985-57.979l-1.833-1.638
		c-0.582-0.508-1.114-1.052-1.69-1.572l23.359-23.359c22.163,18.95,50.345,31.044,81.25,32.965v34.235l-2.317-0.125v77.195
		c0,6.892,5.603,12.489,12.486,12.489c6.883,0,12.486-5.598,12.486-12.489v-77.289l-2.447,0.142
		c-0.839,0.053-1.561,0.077-2.353,0.118v-34.301c32.51-2.133,62.004-15.479,84.607-36.238l24.14,24.14l-1.691,1.619l54.51,54.497
		c2.358,2.365,5.485,3.659,8.83,3.659c3.322,0,6.455-1.3,8.819-3.659c2.353-2.357,3.659-5.484,3.659-8.818s-1.307-6.467-3.659-8.831
		l-55.053-55.053l-1.62,1.938c-0.473,0.568-1.017,1.135-1.501,1.691l-24.086-24.081c19.872-23.596,32.036-53.87,32.574-86.947
		h32.432c0,0.136,0.012,0.272,0.012,0.401v2.312h76.799c6.893,0,12.483-5.604,12.483-12.486
		C519.012,242.46,513.42,236.854,506.529,236.854z M253.267,142.553v44.136c0,2.805,2.27,5.075,5.072,5.075s5.06-2.27,5.06-5.075
		v-43.432c2.604-1.56,4.358-4.383,4.358-7.631v-0.177c27.503,2.051,52.481,13.243,71.875,30.591l-2.778,2.778
		c-1.389,1.398-2.204,3.159-2.477,4.98l-31.74,31.735c-1.975,1.986-1.975,5.192,0,7.173c1.986,1.977,5.195,1.977,7.182,0
		l29.542-29.551c3.321,1.581,7.388,1.031,10.131-1.711l2.577-2.574c14.588,17.469,24.364,39.07,27.331,62.767
		c-2.589,0.745-4.717,2.592-5.769,5.036h-45.454c-2.802,0-5.071,2.27-5.071,5.065c0,2.796,2.27,5.071,5.071,5.071h47.712
		c1.229,1.1,2.742,1.868,4.434,2.152c-0.509,28.773-11.006,55.135-28.23,75.746c-1.702-0.597-3.534-0.656-5.284-0.184L313.2,300.908
		c-1.975-1.979-5.189-1.979-7.164,0c-1.986,1.975-1.986,5.184,0,7.17l34.259,34.259c-0.13,1.395,0.048,2.813,0.591,4.138
		c-19.859,18.223-45.749,29.932-74.298,31.782c-0.757-1.354-1.845-2.477-3.177-3.275v-48.048c0-2.808-2.258-5.077-5.06-5.077
		s-5.071,2.27-5.071,5.077v48.752c-0.884,0.721-1.634,1.602-2.199,2.606c-28.404-1.75-54.214-13.258-74.071-31.256
		c-0.122-0.373-0.26-0.733-0.426-1.082l34.084-34.094c1.983-1.968,1.983-5.178,0-7.169c-1.974-1.969-5.187-1.969-7.167,0
		l-34.433,34.442c-19.52-21.221-31.59-49.373-32.098-80.293c1.454-0.354,2.754-1.063,3.833-2.033h47.156
		c2.802,0,5.071-2.275,5.071-5.071c0-2.795-2.27-5.065-5.071-5.065h-44.898c-0.969-2.264-2.852-4.013-5.189-4.853
		c3.153-25.531,14.201-48.64,30.665-66.774c1.895,1.726,4.35,2.477,6.735,2.27l31.614,31.607c1.983,1.978,5.187,1.978,7.178,0
		c1.972-1.98,1.972-5.187,0-7.167l-30.972-30.966c0.733-2.722,0.163-5.689-1.714-7.971c18.93-15.584,42.629-25.556,68.553-27.394
		v0.207C249.907,138.439,251.231,140.916,253.267,142.553z"/>
</g>
<g>
</g>
<g>
</g>
<g>
</g>
<g>
</g>
<g>
</g>
<g>
</g>
<g>
</g>
<g>
</g>
<g>
</g>
<g>
</g>
<g>
</g>
<g>
</g>
<g>
</g>
<g>
</g>
<g>
</g>
</svg>
