<?xml version="1.0" encoding="iso-8859-1"?>
<!-- Generator: Adobe Illustrator 16.0.0, SVG Export Plug-In . SVG Version: 6.00 Build 0)  -->
<!DOCTYPE svg PUBLIC "-//W3C//DTD SVG 1.1//EN" "http://www.w3.org/Graphics/SVG/1.1/DTD/svg11.dtd">
<svg version="1.1" id="Capa_1" xmlns="http://www.w3.org/2000/svg" xmlns:xlink="http://www.w3.org/1999/xlink" x="0px" y="0px"
	 width="424.771px" height="424.771px" viewBox="0 0 424.771 424.771" style="enable-background:new 0 0 424.771 424.771;"
	 xml:space="preserve">
<g>
	<path d="M295.431,0c-67.412,0-122.243,54.837-122.243,122.238c0,20.525,5.14,39.85,14.115,56.858L7.104,359.292l65.482,65.479
		l185.991-185.988c11.639,3.688,24.004,5.698,36.854,5.698c67.406,0,122.235-54.84,122.235-122.243
		C417.667,54.837,362.826,0,295.431,0z M86.643,401.205l-33.75-78.193l21.125-21.107l33.748,78.182L86.643,401.205z
		 M128.872,358.985L95.11,280.796l21.116-21.113l33.75,78.176L128.872,358.985z M166.967,320.883l-33.756-78.188l21.113-21.113
		l33.748,78.188L166.967,320.883z M205.056,282.789l-33.745-78.188l19.485-19.482c2.027,3.372,4.211,6.62,6.543,9.768l28.842,66.794
		L205.056,282.789z M295.431,224.621c-56.459,0-102.389-45.924-102.389-102.383c0-56.457,45.93-102.387,102.389-102.387
		c56.454,0,102.387,45.927,102.387,102.387C397.818,178.697,351.885,224.621,295.431,224.621z M358.109,119.713
		c0,34.114-27.656,61.773-61.773,61.773c-34.11,0-61.768-27.653-61.768-61.773c0-34.117,27.657-61.773,61.768-61.773
		C330.453,57.94,358.109,85.603,358.109,119.713z"/>
</g>
<g>
</g>
<g>
</g>
<g>
</g>
<g>
</g>
<g>
</g>
<g>
</g>
<g>
</g>
<g>
</g>
<g>
</g>
<g>
</g>
<g>
</g>
<g>
</g>
<g>
</g>
<g>
</g>
<g>
</g>
</svg>
