<?xml version="1.0" encoding="iso-8859-1"?>
<!-- Generator: Adobe Illustrator 16.0.0, SVG Export Plug-In . SVG Version: 6.00 Build 0)  -->
<!DOCTYPE svg PUBLIC "-//W3C//DTD SVG 1.1//EN" "http://www.w3.org/Graphics/SVG/1.1/DTD/svg11.dtd">
<svg version="1.1" id="Capa_1" xmlns="http://www.w3.org/2000/svg" xmlns:xlink="http://www.w3.org/1999/xlink" x="0px" y="0px"
	 width="435.109px" height="435.109px" viewBox="0 0 435.109 435.109" style="enable-background:new 0 0 435.109 435.109;"
	 xml:space="preserve">
<g>
	<path d="M374.947,8.963v417.179c0,4.954-4.02,8.967-8.967,8.967h-50.844c-4.954,0-8.973-4.013-8.973-8.967V8.963
		c0-4.953,4.019-8.963,8.973-8.963h50.844C370.927,0,374.947,4.01,374.947,8.963z M287.839,32.14H108.395
		c-1.114,0-2.172,0.399-3,1.144L61.653,72.545c-1.011,0.901-1.558,2.229-1.484,3.588c0.086,1.369,0.774,2.622,1.889,3.411
		l43.749,31.026c0.756,0.538,1.658,0.833,2.595,0.833h179.445c2.477,0,4.485-2.016,4.485-4.492V36.623
		C292.332,34.134,290.317,32.14,287.839,32.14z"/>
</g>
<g>
</g>
<g>
</g>
<g>
</g>
<g>
</g>
<g>
</g>
<g>
</g>
<g>
</g>
<g>
</g>
<g>
</g>
<g>
</g>
<g>
</g>
<g>
</g>
<g>
</g>
<g>
</g>
<g>
</g>
</svg>
