<?xml version="1.0" encoding="iso-8859-1"?>
<!-- Generator: Adobe Illustrator 16.0.0, SVG Export Plug-In . SVG Version: 6.00 Build 0)  -->
<!DOCTYPE svg PUBLIC "-//W3C//DTD SVG 1.1//EN" "http://www.w3.org/Graphics/SVG/1.1/DTD/svg11.dtd">
<svg version="1.1" id="Capa_1" xmlns="http://www.w3.org/2000/svg" xmlns:xlink="http://www.w3.org/1999/xlink" x="0px" y="0px"
	 width="560.776px" height="560.776px" viewBox="0 0 560.776 560.776" style="enable-background:new 0 0 560.776 560.776;"
	 xml:space="preserve">
<g>
	<path d="M314.782,71.797v417.18c0,4.953-4.013,8.966-8.973,8.966h-50.841c-4.957,0-8.976-4.013-8.976-8.966V71.797
		c0-4.953,4.019-8.963,8.976-8.963h50.841C310.77,62.833,314.782,66.844,314.782,71.797z M559.287,210.153l-43.739-39.256
		c-0.834-0.733-1.897-1.144-3.003-1.144H333.1c-2.477,0-4.492,2-4.492,4.489v70.285c0,2.474,2.016,4.483,4.492,4.483h179.445
		c0.928,0,1.838-0.29,2.595-0.821l43.739-31.035c1.117-0.792,1.81-2.045,1.892-3.399
		C560.842,212.394,560.298,211.072,559.287,210.153z M0.008,237.928c0.08,1.362,0.774,2.61,1.888,3.402l43.743,31.031
		c0.757,0.535,1.664,0.83,2.598,0.83h179.448c2.474,0,4.483-2.009,4.483-4.486v-70.294c0-2.482-2.01-4.492-4.483-4.492H48.23
		c-1.108,0-2.175,0.414-2.997,1.15L1.491,234.334C0.48,235.248-0.063,236.565,0.008,237.928z M227.679,94.974H48.23
		c-1.108,0-2.175,0.398-2.997,1.144L1.491,135.379c-1.017,0.901-1.563,2.228-1.483,3.587c0.08,1.369,0.774,2.622,1.888,3.411
		l43.743,31.025c0.757,0.538,1.664,0.833,2.598,0.833h179.448c2.474,0,4.483-2.015,4.483-4.492V99.457
		C232.162,96.968,230.152,94.974,227.679,94.974z"/>
</g>
<g>
</g>
<g>
</g>
<g>
</g>
<g>
</g>
<g>
</g>
<g>
</g>
<g>
</g>
<g>
</g>
<g>
</g>
<g>
</g>
<g>
</g>
<g>
</g>
<g>
</g>
<g>
</g>
<g>
</g>
</svg>
