<?xml version="1.0" encoding="iso-8859-1"?>
<!-- Generator: Adobe Illustrator 16.0.0, SVG Export Plug-In . SVG Version: 6.00 Build 0)  -->
<!DOCTYPE svg PUBLIC "-//W3C//DTD SVG 1.1//EN" "http://www.w3.org/Graphics/SVG/1.1/DTD/svg11.dtd">
<svg version="1.1" id="Capa_1" xmlns="http://www.w3.org/2000/svg" xmlns:xlink="http://www.w3.org/1999/xlink" x="0px" y="0px"
	 width="560.784px" height="560.784px" viewBox="0 0 560.784 560.784" style="enable-background:new 0 0 560.784 560.784;"
	 xml:space="preserve">
<g>
	<path d="M314.784,71.801v417.18c0,4.953-4.02,8.966-8.967,8.966h-50.844c-4.959,0-8.979-4.013-8.979-8.966V71.801
		c0-4.953,4.019-8.963,8.979-8.963h50.844C310.771,62.837,314.784,66.848,314.784,71.801z M559.289,210.157l-43.739-39.262
		c-0.822-0.733-1.892-1.147-2.997-1.147H333.102c-2.477,0-4.485,2.004-4.485,4.492v70.285c0,2.474,2.009,4.483,4.485,4.483h179.445
		c0.934,0,1.838-0.29,2.601-0.821l43.74-31.035c1.11-0.792,1.803-2.045,1.891-3.399C560.85,212.397,560.306,211.076,559.289,210.157
		z M227.675,94.978H48.232c-1.108,0-2.172,0.398-3.002,1.144L1.487,135.383c-1.011,0.901-1.555,2.228-1.48,3.587
		c0.077,1.369,0.774,2.622,1.885,3.411l43.743,31.025c0.757,0.538,1.661,0.833,2.598,0.833h179.442c2.477,0,4.492-2.015,4.492-4.492
		V99.46C232.167,96.972,230.157,94.978,227.675,94.978z"/>
</g>
<g>
</g>
<g>
</g>
<g>
</g>
<g>
</g>
<g>
</g>
<g>
</g>
<g>
</g>
<g>
</g>
<g>
</g>
<g>
</g>
<g>
</g>
<g>
</g>
<g>
</g>
<g>
</g>
<g>
</g>
</svg>
