<?xml version="1.0" encoding="iso-8859-1"?>
<!-- Generator: Adobe Illustrator 16.0.0, SVG Export Plug-In . SVG Version: 6.00 Build 0)  -->
<!DOCTYPE svg PUBLIC "-//W3C//DTD SVG 1.1//EN" "http://www.w3.org/Graphics/SVG/1.1/DTD/svg11.dtd">
<svg version="1.1" id="Capa_1" xmlns="http://www.w3.org/2000/svg" xmlns:xlink="http://www.w3.org/1999/xlink" x="0px" y="0px"
	 width="82.796px" height="82.796px" viewBox="0 0 82.796 82.796" style="enable-background:new 0 0 82.796 82.796;"
	 xml:space="preserve">
<g>
	<path d="M41.399,0C18.85,0,0.506,14.084,0.506,31.396c0,13.068,10.471,24.688,26.232,29.314c-0.316,4.892-1.662,9.507-4.01,13.747
		c-1.92,3.466-2.352,5.477-1.488,6.938c0.523,0.892,1.475,1.401,2.609,1.401c0.004,0,0.008,0,0.012,0
		c1.508,0,5.52-0.051,30.909-21.728c16.481-4.36,27.521-16.237,27.521-29.673C82.292,14.084,63.945,0,41.399,0z M53.295,57.221
		l-0.463,0.117l-0.363,0.311c-17.201,14.707-24.262,19.146-27.018,20.48c0.201-0.445,0.479-1.002,0.859-1.689
		c2.926-5.283,4.471-11.082,4.588-17.231l0.031-1.618l-1.568-0.402C14.55,53.369,4.599,43.003,4.599,31.396
		c0-15.053,16.508-27.301,36.799-27.301c20.29,0,36.797,12.248,36.797,27.301C78.195,43.053,68.189,53.432,53.295,57.221z
		 M44.469,12.298c0.246,0.252,0.379,0.592,0.369,0.943l-0.859,26.972c-0.018,0.707-0.598,1.271-1.305,1.271h-2.551
		c-0.709,0-1.287-0.563-1.305-1.271l-0.859-26.972c-0.01-0.352,0.123-0.691,0.369-0.943c0.246-0.251,0.582-0.394,0.934-0.394h4.273
		C43.887,11.905,44.223,12.047,44.469,12.298z M44.783,47.312v4.885c0,0.72-0.584,1.304-1.305,1.304h-4.16
		c-0.721,0-1.305-0.584-1.305-1.304v-4.885c0-0.72,0.584-1.304,1.305-1.304h4.16C44.199,46.009,44.783,46.593,44.783,47.312z"/>
</g>
<g>
</g>
<g>
</g>
<g>
</g>
<g>
</g>
<g>
</g>
<g>
</g>
<g>
</g>
<g>
</g>
<g>
</g>
<g>
</g>
<g>
</g>
<g>
</g>
<g>
</g>
<g>
</g>
<g>
</g>
</svg>
