<?xml version="1.0" encoding="iso-8859-1"?>
<!-- Generator: Adobe Illustrator 16.0.0, SVG Export Plug-In . SVG Version: 6.00 Build 0)  -->
<!DOCTYPE svg PUBLIC "-//W3C//DTD SVG 1.1//EN" "http://www.w3.org/Graphics/SVG/1.1/DTD/svg11.dtd">
<svg version="1.1" id="Capa_1" xmlns="http://www.w3.org/2000/svg" xmlns:xlink="http://www.w3.org/1999/xlink" x="0px" y="0px"
	 width="501.132px" height="501.133px" viewBox="0 0 501.132 501.133" style="enable-background:new 0 0 501.132 501.133;"
	 xml:space="preserve">
<g>
	<path d="M250.57,0C114.09,0,3.059,85.245,3.059,190.028c0,79.095,63.378,149.427,158.772,177.427
		c-1.912,29.606-10.06,57.535-24.27,83.199c-11.621,20.983-14.236,33.154-9.008,41.996c3.165,5.391,8.928,8.482,15.793,8.482
		c0.023,0,0.047,0,0.071,0c9.129,0,33.411-0.308,187.09-131.509c99.744-26.392,166.565-98.278,166.565-179.602
		C498.08,85.245,387.046,0,250.57,0z M322.572,346.348l-2.802,0.703l-2.199,1.886c-104.109,89.004-146.847,115.874-163.53,123.954
		c1.218-2.701,2.899-6.064,5.202-10.22c17.708-31.978,27.06-67.075,27.769-104.301l0.186-9.8l-9.49-2.436
		C88.062,323.029,27.834,260.287,27.834,190.034c0-91.111,99.916-165.241,222.73-165.241c122.805,0,222.721,74.13,222.721,165.241
		C473.285,260.594,412.722,323.401,322.572,346.348z M269.073,304.422v28.862c0,3.89-3.15,7.034-7.033,7.034h-24.92
		c-3.877,0-7.031-3.15-7.031-7.034v-28.862c0-3.883,3.153-7.033,7.031-7.033h24.92C265.922,297.389,269.073,300.551,269.073,304.422
		z M299.348,76.766c4.823,4.75,7.265,10.852,7.265,18.134v57.71c0,7.923-2.093,15.131-6.236,21.409l-32.284,49.225v52.328
		c0,3.889-3.15,7.033-7.034,7.033h-22.958c-3.88,0-7.034-3.15-7.034-7.033v-49.016c0-8.609,2.01-15.95,5.97-21.813l32.729-48.858
		v-51.974h-38.394v50.667c0,3.893-3.153,7.046-7.034,7.046h-22.795c-3.892,0-7.034-3.153-7.034-7.046V94.906
		c0-7.306,2.482-13.42,7.392-18.173c4.835-4.678,10.961-7.054,18.169-7.054h60.984C288.396,69.67,294.56,72.062,299.348,76.766z"/>
</g>
<g>
</g>
<g>
</g>
<g>
</g>
<g>
</g>
<g>
</g>
<g>
</g>
<g>
</g>
<g>
</g>
<g>
</g>
<g>
</g>
<g>
</g>
<g>
</g>
<g>
</g>
<g>
</g>
<g>
</g>
</svg>
