<?xml version="1.0" encoding="iso-8859-1"?>
<!-- Generator: Adobe Illustrator 16.0.0, SVG Export Plug-In . SVG Version: 6.00 Build 0)  -->
<!DOCTYPE svg PUBLIC "-//W3C//DTD SVG 1.1//EN" "http://www.w3.org/Graphics/SVG/1.1/DTD/svg11.dtd">
<svg version="1.1" id="Capa_1" xmlns="http://www.w3.org/2000/svg" xmlns:xlink="http://www.w3.org/1999/xlink" x="0px" y="0px"
	 width="541.549px" height="541.55px" viewBox="0 0 541.549 541.55" style="enable-background:new 0 0 541.549 541.55;"
	 xml:space="preserve">
<g>
	<path d="M532.684,246.174L369.329,409.53c-5.917,5.91-13.66,8.866-21.409,8.866c-7.743,0-15.486-2.956-21.396-8.866l-85.594-85.6
		c-11.818-11.822-11.818-30.984,0-42.794c11.822-11.822,30.979-11.822,42.8,0l64.19,64.196l141.965-141.965
		c11.827-11.812,30.984-11.807,42.8,0C544.505,215.19,544.505,234.353,532.684,246.174z M126.201,182.725h29.876v29.876v7.087
		v22.594v7.288v22.588v7.081v22.798v7.081v29.678H119.12v-29.678v-7.081v-22.798H96.328h-7.09H66.65v0.201H36.768v22.597v7.081
		v29.678H0v-29.678v-7.081V279.44v-7.282V249.57v-7.093v-22.789v-7.087v-29.684h29.681v-29.876h29.876v-29.882h36.771v29.489h29.882
		v30.077H126.201z M119.114,189.611H89.232v-29.489H66.446v29.876H36.762v22.597v7.087v22.789h22.789h7.093h22.588v-0.195h29.882
		v-22.594v-7.087V189.611z M231.404,338.796h-3.402h-22.789h-7.087h-29.684v-29.678v-7.081V279.44v-7.088V249.57v-7.093v-22.591
		v-7.285v-22.597v-7.081v-22.605v-7.282v-29.882h29.684h7.087h22.789h7.087h22.588h7.087h29.882v29.882h29.867v29.684v7.273v29.684
		h-29.867v22.594h29.867v29.876v7.081v24.322l-28.573-28.584c-2.553-2.548-5.385-4.717-8.381-6.562v-18.846h-22.795h-7.087h-22.588
		h-7.087h-22.789v22.783v7.088v22.597h13.56C217.324,315.111,221.53,328.7,231.404,338.796z M205.213,212.595h22.789h7.087h22.588
		h7.087h22.795v-22.597v-7.273v-22.603h-22.795h-7.087h-22.588h-7.087h-22.789v0.201v22.594v7.081V212.595z M366.574,311.341
		l9.315-9.315h-2.039v-29.873h-0.195v-22.588v-7.093v-22.789v-7.087v-22.597v-7.081v-22.795h22.792h7.093h22.592h7.08h22.793v29.876
		h34.164c0.91-0.532,1.85-1.022,2.802-1.486v-35.471h-29.88v-29.882H433.2h-7.081h-22.585h-7.093h-29.879v29.882H336.89v29.876
		v7.081v22.597v7.087v22.789v7.093v22.588v7.081v29.885h29.672v2.223H366.574z"/>
</g>
<g>
</g>
<g>
</g>
<g>
</g>
<g>
</g>
<g>
</g>
<g>
</g>
<g>
</g>
<g>
</g>
<g>
</g>
<g>
</g>
<g>
</g>
<g>
</g>
<g>
</g>
<g>
</g>
<g>
</g>
</svg>
