<?xml version="1.0" encoding="iso-8859-1"?>
<!-- Generator: Adobe Illustrator 16.0.0, SVG Export Plug-In . SVG Version: 6.00 Build 0)  -->
<!DOCTYPE svg PUBLIC "-//W3C//DTD SVG 1.1//EN" "http://www.w3.org/Graphics/SVG/1.1/DTD/svg11.dtd">
<svg version="1.1" id="Capa_1" xmlns="http://www.w3.org/2000/svg" xmlns:xlink="http://www.w3.org/1999/xlink" x="0px" y="0px"
	 width="492.078px" height="492.077px" viewBox="0 0 492.078 492.077" style="enable-background:new 0 0 492.078 492.077;"
	 xml:space="preserve">
<g>
	<path d="M427.339,0H64.732c-5.187,0-9.404,4.206-9.404,9.404v473.269c0,5.19,4.211,9.404,9.404,9.404h362.607
		c5.189,0,9.41-4.208,9.41-9.404V9.404C436.75,4.211,432.541,0,427.339,0z M334.564,194.379h47.913v14.091h-47.913V194.379z
		 M334.564,237.589h47.913v14.092h-47.913V237.589z M334.564,283.149h47.913v14.091h-47.913V283.149z M285.978,109.601h14.091
		v47.913h-14.091V109.601z M242.776,109.601h14.079v47.913h-14.079V109.601z M197.201,109.601h14.104v47.913h-14.104V109.601z
		 M92.92,16.456c12.117,0,21.94,9.824,21.94,21.941s-9.824,21.94-21.94,21.94c-12.117,0-21.941-9.823-21.941-21.94
		S80.803,16.456,92.92,16.456z M92.92,474.055c-12.117,0-21.941-9.823-21.941-21.94c0-12.116,9.824-21.94,21.941-21.94
		c12.117,0,21.94,9.824,21.94,21.94C114.861,464.231,105.037,474.055,92.92,474.055z M157.507,297.24H109.6v-14.091h47.907V297.24z
		 M157.507,251.681H109.6v-14.092h47.907V251.681z M157.507,208.476H109.6v-14.091h47.907V208.476z M199.905,487.295h-15.888v-28.75
		h15.888V487.295z M234.708,487.295h-15.888v-28.75h15.888V487.295z M269.51,487.295h-15.888v-28.75h15.888V487.295z
		 M304.691,487.295h-15.888v-28.75h15.888V487.295z M339.494,487.295h-15.889v-28.75h15.889V487.295z M358.963,447.303H167.549
		v-12.104h179.31v-72.833l-32.173-41.398c-0.703,0.13-1.425,0.213-2.169,0.213H184.762c-6.221,0-11.275-5.036-11.275-11.267V182.158
		c0-6.215,5.054-11.269,11.275-11.269h127.744c6.229,0,11.277,5.054,11.277,11.269v127.755c0,0.893-0.13,1.762-0.337,2.601
		l35.506,45.702v89.087H358.963z M197.201,382.474v-47.912h14.104v47.912H197.201z M242.776,382.474v-47.912h14.079v47.912H242.776z
		 M285.978,382.474v-47.912h14.091v47.912H285.978z M403.211,474.055c-12.117,0-21.94-9.823-21.94-21.94
		c0-12.116,9.823-21.94,21.94-21.94s21.941,9.824,21.941,21.94C425.153,464.231,415.329,474.055,403.211,474.055z M403.211,60.337
		c-12.117,0-21.94-9.823-21.94-21.94s9.823-21.941,21.94-21.941s21.941,9.824,21.941,21.941S415.329,60.337,403.211,60.337z"/>
</g>
<g>
</g>
<g>
</g>
<g>
</g>
<g>
</g>
<g>
</g>
<g>
</g>
<g>
</g>
<g>
</g>
<g>
</g>
<g>
</g>
<g>
</g>
<g>
</g>
<g>
</g>
<g>
</g>
<g>
</g>
</svg>
