<?xml version="1.0" encoding="iso-8859-1"?>
<!-- Generator: Adobe Illustrator 16.0.0, SVG Export Plug-In . SVG Version: 6.00 Build 0)  -->
<!DOCTYPE svg PUBLIC "-//W3C//DTD SVG 1.1//EN" "http://www.w3.org/Graphics/SVG/1.1/DTD/svg11.dtd">
<svg version="1.1" id="Capa_1" xmlns="http://www.w3.org/2000/svg" xmlns:xlink="http://www.w3.org/1999/xlink" x="0px" y="0px"
	 width="453.946px" height="453.946px" viewBox="0 0 453.946 453.946" style="enable-background:new 0 0 453.946 453.946;"
	 xml:space="preserve">
<g>
	<path d="M453.946,42.138V72.4h-129.12v109.396H215.879v121.064H102.895v108.947H0v-30.264h72.631V272.599h112.984V151.534h108.947
		V42.138H453.946z M70.137,194.659l82.878-10.835c1.212-0.15,2.157-1.102,2.326-2.305c0.168-1.206-0.485-2.373-1.599-2.864
		l-33.278-14.431l55.219-55.213c1.055-1.063,1.061-2.772,0-3.83L156.57,86.066c-1.055-1.058-2.767-1.052-3.828,0l-55.218,55.218
		l-14.428-33.269c-0.485-1.114-1.652-1.776-2.858-1.604c-0.603,0.092-1.138,0.369-1.537,0.769c-0.405,0.405-0.683,0.952-0.769,1.561
		l-10.834,82.881c-0.109,0.833,0.168,1.664,0.769,2.264C68.467,194.476,69.304,194.769,70.137,194.659z"/>
</g>
<g>
</g>
<g>
</g>
<g>
</g>
<g>
</g>
<g>
</g>
<g>
</g>
<g>
</g>
<g>
</g>
<g>
</g>
<g>
</g>
<g>
</g>
<g>
</g>
<g>
</g>
<g>
</g>
<g>
</g>
</svg>
