<?xml version="1.0" encoding="iso-8859-1"?>
<!-- Generator: Adobe Illustrator 16.0.0, SVG Export Plug-In . SVG Version: 6.00 Build 0)  -->
<!DOCTYPE svg PUBLIC "-//W3C//DTD SVG 1.1//EN" "http://www.w3.org/Graphics/SVG/1.1/DTD/svg11.dtd">
<svg version="1.1" id="Capa_1" xmlns="http://www.w3.org/2000/svg" xmlns:xlink="http://www.w3.org/1999/xlink" x="0px" y="0px"
	 width="470.19px" height="470.191px" viewBox="0 0 470.19 470.191" style="enable-background:new 0 0 470.19 470.191;"
	 xml:space="preserve">
<g>
	<path d="M109.108,460.218c-6.641,0-12.989-2.068-18.364-5.981c-10.968-7.979-15.525-22-11.343-34.897l41.127-126.561
		l-107.65-78.203C1.899,206.587-2.646,192.555,1.536,179.67c4.194-12.915,16.13-21.583,29.693-21.583h133.054l41.115-126.54
		c4.203-12.906,16.136-21.574,29.696-21.574c13.571,0,25.505,8.674,29.689,21.574l41.133,126.54h133.046
		c13.565,0,25.499,8.674,29.689,21.571c4.191,12.897-0.372,26.924-11.325,34.906l-107.652,78.215l41.115,126.549
		c4.19,12.909-0.366,26.924-11.331,34.909c-10.733,7.808-25.989,7.808-36.718,0L235.1,376.038l-107.647,78.211
		C122.086,458.15,115.741,460.218,109.108,460.218z M31.229,184.851c-1.936,0-3.65,1.242-4.241,3.088
		c-0.6,1.838,0.053,3.848,1.62,4.986l123.378,89.633l-47.126,145.051c-0.594,1.838,0.056,3.848,1.628,4.988
		c1.936,1.413,3.304,1.413,5.237,0L235.1,342.949l123.369,89.643c1.934,1.407,3.322,1.407,5.249,0.006
		c1.566-1.141,2.229-3.15,1.62-5l-47.133-145.039l123.387-89.639c1.566-1.138,2.211-3.147,1.62-4.986
		c-0.604-1.841-2.312-3.083-4.244-3.083H286.464l-47.12-145.033c-1.2-3.691-7.288-3.691-8.494,0l-47.118,145.033H31.229z"/>
</g>
<g>
</g>
<g>
</g>
<g>
</g>
<g>
</g>
<g>
</g>
<g>
</g>
<g>
</g>
<g>
</g>
<g>
</g>
<g>
</g>
<g>
</g>
<g>
</g>
<g>
</g>
<g>
</g>
<g>
</g>
</svg>
