<?xml version="1.0" encoding="iso-8859-1"?>
<!-- Generator: Adobe Illustrator 16.0.0, SVG Export Plug-In . SVG Version: 6.00 Build 0)  -->
<!DOCTYPE svg PUBLIC "-//W3C//DTD SVG 1.1//EN" "http://www.w3.org/Graphics/SVG/1.1/DTD/svg11.dtd">
<svg version="1.1" id="Capa_1" xmlns="http://www.w3.org/2000/svg" xmlns:xlink="http://www.w3.org/1999/xlink" x="0px" y="0px"
	 width="454.354px" height="454.354px" viewBox="0 0 454.354 454.354" style="enable-background:new 0 0 454.354 454.354;"
	 xml:space="preserve">
<g>
	<path d="M451.518,216.585L348.522,38.184c-3.783-6.555-10.781-10.592-18.348-10.592H124.179c-7.566,0-14.561,4.037-18.344,10.592
		L2.837,216.585c-3.783,6.558-3.783,14.632,0,21.181L105.835,416.17c3.783,6.556,10.778,10.593,18.344,10.593h205.996
		c7.566,0,14.564-4.037,18.348-10.593l102.995-178.404C455.3,231.217,455.3,223.143,451.518,216.585z M317.945,384.395H136.411
		L45.646,227.174l90.766-157.215h181.534l90.767,157.215L317.945,384.395z M138.362,245.196c0,14.748-11.349,27.272-35.5,27.272
		c-10.054,0-19.96-2.618-24.932-5.349l4.052-16.444c5.355,2.743,13.568,5.485,22.053,5.485c9.129,0,13.976-3.783,13.976-9.528
		c0-5.491-4.182-8.618-14.756-12.412c-14.617-5.096-24.143-13.182-24.143-25.969c0-15.004,12.534-26.492,33.284-26.492
		c9.918,0,17.23,2.092,22.449,4.436l-4.441,16.057c-3.517-1.699-9.789-4.182-18.4-4.182c-8.615,0-12.797,3.916-12.797,8.485
		c0,5.612,4.962,8.08,16.311,12.404C131.062,224.704,138.362,232.79,138.362,245.196z M145.183,183.192h67.613v16.701h-24.018
		v71.264h-19.973v-71.264h-23.622V183.192z M258.383,181.759c-25.966,0-42.803,19.712-42.803,46.077
		c0,25.05,15.271,44.756,41.372,44.756c25.706,0,43.202-17.483,43.202-46.328C300.154,201.992,285.401,181.759,258.383,181.759z
		 M257.993,256.805c-13.306,0-21.403-12.135-21.403-29.359c0-17.108,7.832-29.891,21.272-29.891
		c13.714,0,21.285,13.577,21.285,29.371C279.142,244.02,271.434,256.805,257.993,256.805z M313.247,271.163h19.706v-31.457
		c1.826,0.271,4.179,0.39,6.798,0.39c11.744,0,21.799-2.872,28.572-9.263c5.236-4.959,8.104-12.255,8.104-20.873
		c0-8.615-3.783-15.927-9.41-20.363c-5.863-4.696-14.611-7.052-26.87-7.052c-12.146,0-20.765,0.792-26.894,1.835v86.782H313.247z
		 M332.953,198.33c1.437-0.387,4.179-0.78,8.222-0.78c9.918,0,15.527,4.835,15.527,12.918c0,9.011-6.525,14.354-17.094,14.354
		c-2.878,0-4.953-0.13-6.661-0.515V198.33H332.953z"/>
</g>
<g>
</g>
<g>
</g>
<g>
</g>
<g>
</g>
<g>
</g>
<g>
</g>
<g>
</g>
<g>
</g>
<g>
</g>
<g>
</g>
<g>
</g>
<g>
</g>
<g>
</g>
<g>
</g>
<g>
</g>
</svg>
