<?xml version="1.0" encoding="iso-8859-1"?>
<!-- Generator: Adobe Illustrator 16.0.0, SVG Export Plug-In . SVG Version: 6.00 Build 0)  -->
<!DOCTYPE svg PUBLIC "-//W3C//DTD SVG 1.1//EN" "http://www.w3.org/Graphics/SVG/1.1/DTD/svg11.dtd">
<svg version="1.1" id="Capa_1" xmlns="http://www.w3.org/2000/svg" xmlns:xlink="http://www.w3.org/1999/xlink" x="0px" y="0px"
	 width="484.21px" height="484.21px" viewBox="0 0 484.21 484.21" style="enable-background:new 0 0 484.21 484.21;"
	 xml:space="preserve">
<g>
	<path d="M395.527,97.043V55.352H124.537l159.46,171.507c9.983,10.749,9.848,27.458-0.319,38.026L126.017,428.861h269.504v-25.18
		c0-15.256,12.413-27.668,27.674-27.668c15.256,0,27.681,12.412,27.681,27.668v52.848c0,15.262-12.419,27.681-27.681,27.681H61.014
		c-11.106,0-21.107-6.603-25.464-16.834c-4.359-10.226-2.189-22.012,5.509-30.026l184.584-191.964L40.743,46.521
		c-7.492-8.068-9.496-19.798-5.101-29.899C40.042,6.525,50.005,0,61.014,0h362.188c15.255,0,27.68,12.413,27.68,27.68v69.363
		c0,15.259-12.419,27.677-27.68,27.677C407.94,124.72,395.527,112.308,395.527,97.043z"/>
</g>
<g>
</g>
<g>
</g>
<g>
</g>
<g>
</g>
<g>
</g>
<g>
</g>
<g>
</g>
<g>
</g>
<g>
</g>
<g>
</g>
<g>
</g>
<g>
</g>
<g>
</g>
<g>
</g>
<g>
</g>
</svg>
