<?xml version="1.0" encoding="iso-8859-1"?>
<!-- Generator: Adobe Illustrator 16.0.0, SVG Export Plug-In . SVG Version: 6.00 Build 0)  -->
<!DOCTYPE svg PUBLIC "-//W3C//DTD SVG 1.1//EN" "http://www.w3.org/Graphics/SVG/1.1/DTD/svg11.dtd">
<svg version="1.1" id="Capa_1" xmlns="http://www.w3.org/2000/svg" xmlns:xlink="http://www.w3.org/1999/xlink" x="0px" y="0px"
	 width="488.304px" height="488.304px" viewBox="0 0 488.304 488.304" style="enable-background:new 0 0 488.304 488.304;"
	 xml:space="preserve">
<g>
	<path d="M483.809,314.838L219.293,50.327c-2.887-2.882-6.792-4.504-10.858-4.504h-96.848c-6.975-8.866-16.355-16.464-27.375-21.935
		c-26.548-13.189-56.46-11.015-72.753,5.267C8.45,32.168,5.974,35.6,4.097,39.371c-6.009,12.105-5.391,26.486,1.737,40.486
		c6.877,13.503,19.065,25.112,34.342,32.689c6.854,3.402,13.929,5.763,20.93,7.149v73.441c0.006,4.069,1.623,7.985,4.504,10.861
		l264.512,264.51c6,6.005,15.723,6.005,21.723,0l131.964-131.958C489.802,330.568,489.802,320.844,483.809,314.838z M65.61,50.327
		c-2.881,2.881-4.499,6.791-4.499,10.857v48.075c-5.47-1.259-10.991-3.194-16.375-5.875c-13.317-6.611-23.891-16.609-29.775-28.165
		C9.34,64.175,8.74,53.06,13.273,43.934c1.38-2.772,3.195-5.308,5.423-7.53C31.922,23.181,56.98,21.813,79.645,33.07
		c6.895,3.425,13.034,7.772,18.196,12.758H76.468C72.396,45.822,68.498,47.445,65.61,50.327z M99.402,84.124
		c4.117-4.117,9.218-6.629,14.559-7.566c0.47,5.678-0.438,11.101-2.852,15.959c-1.375,2.781-3.201,5.317-5.429,7.537
		c-3.747,3.753-8.473,6.513-13.813,8.34C90.299,99.855,92.8,90.72,99.402,84.124z M138.023,122.739
		c-10.669,10.666-27.955,10.666-38.621,0c-1.495-1.501-2.766-3.135-3.836-4.861c6.655-2.311,12.602-5.828,17.357-10.583
		c3.009-3.015,5.485-6.446,7.362-10.217c3.127-6.301,4.418-13.22,3.969-20.375c5.042,1.041,9.853,3.505,13.763,7.421
		C148.689,94.781,148.689,112.073,138.023,122.739z"/>
</g>
<g>
</g>
<g>
</g>
<g>
</g>
<g>
</g>
<g>
</g>
<g>
</g>
<g>
</g>
<g>
</g>
<g>
</g>
<g>
</g>
<g>
</g>
<g>
</g>
<g>
</g>
<g>
</g>
<g>
</g>
</svg>
