<?xml version="1.0" encoding="iso-8859-1"?>
<!-- Generator: Adobe Illustrator 16.0.0, SVG Export Plug-In . SVG Version: 6.00 Build 0)  -->
<!DOCTYPE svg PUBLIC "-//W3C//DTD SVG 1.1//EN" "http://www.w3.org/Graphics/SVG/1.1/DTD/svg11.dtd">
<svg version="1.1" id="Capa_1" xmlns="http://www.w3.org/2000/svg" xmlns:xlink="http://www.w3.org/1999/xlink" x="0px" y="0px"
	 width="500.536px" height="500.536px" viewBox="0 0 500.536 500.536" style="enable-background:new 0 0 500.536 500.536;"
	 xml:space="preserve">
<g>
	<path d="M410.614,323.309L186.108,98.815c-2.444-2.444-5.754-3.818-9.212-3.818H94.702c-5.925-7.524-13.878-13.97-23.241-18.613
		c-22.529-11.198-47.907-9.351-61.738,4.465c-2.554,2.556-4.661,5.473-6.239,8.674c-5.11,10.272-4.581,22.481,1.472,34.362
		c5.834,11.464,16.178,21.311,29.143,27.745c5.816,2.887,11.818,4.888,17.765,6.064v62.329c0.006,3.458,1.38,6.78,3.824,9.218
		l224.494,224.499c5.095,5.096,13.34,5.096,18.436,0L410.62,341.738C415.703,336.655,415.703,328.403,410.614,323.309z
		 M55.688,98.815c-2.438,2.438-3.818,5.763-3.818,9.212v40.802c-4.648-1.067-9.327-2.713-13.905-4.983
		c-11.298-5.609-20.28-14.097-25.263-23.909c-4.776-9.369-5.284-18.799-1.434-26.545c1.162-2.355,2.705-4.51,4.604-6.393
		c11.222-11.222,32.492-12.383,51.725-2.831c5.861,2.905,11.065,6.591,15.448,10.829H64.905
		C61.445,94.988,58.132,96.365,55.688,98.815z M84.364,127.497c3.487-3.49,7.826-5.627,12.354-6.428
		c0.399,4.82-0.375,9.425-2.415,13.547c-1.162,2.355-2.71,4.51-4.61,6.398c-3.18,3.183-7.19,5.523-11.724,7.075
		C76.635,140.85,78.76,133.098,84.364,127.497z M117.139,160.272c-9.049,9.049-23.726,9.049-32.775,0
		c-1.271-1.271-2.353-2.657-3.257-4.125c5.654-1.969,10.702-4.947,14.738-8.984c2.557-2.554,4.661-5.471,6.242-8.671
		c2.657-5.353,3.76-11.225,3.378-17.295c4.28,0.883,8.364,2.979,11.68,6.301C126.188,136.546,126.188,151.217,117.139,160.272z
		 M496.717,315.631L384.725,427.628c-5.095,5.089-13.352,5.089-18.441,0l-5.674-5.675l69.83-69.841
		c4.899-4.889,7.589-11.391,7.589-18.3c0-6.91-2.684-13.412-7.583-18.294L205.957,91.013c-4.903-4.891-11.399-7.578-18.291-7.578
		h-49.694v-1.519c0-3.455,1.38-6.773,3.827-9.218c2.444-2.441,5.748-3.818,9.206-3.818h18.146
		c-4.389-4.232-9.599-7.923-15.447-10.829c-19.24-9.552-40.51-8.39-51.731,2.832c-1.894,1.882-3.431,4.037-4.613,6.393
		c-0.556,1.138-0.999,2.311-1.374,3.517c-2.474-1.581-5.003-3.083-7.654-4.412c0.381-0.999,0.762-2.004,1.241-2.974
		c1.596-3.194,3.691-6.111,6.25-8.674c13.819-13.816,39.215-15.658,61.738-4.466c9.357,4.643,17.315,11.089,23.235,18.613h82.198
		c3.446,0,6.768,1.377,9.215,3.818l224.496,224.497C501.812,302.29,501.812,310.548,496.717,315.631z"/>
</g>
<g>
</g>
<g>
</g>
<g>
</g>
<g>
</g>
<g>
</g>
<g>
</g>
<g>
</g>
<g>
</g>
<g>
</g>
<g>
</g>
<g>
</g>
<g>
</g>
<g>
</g>
<g>
</g>
<g>
</g>
</svg>
