<?xml version="1.0" encoding="iso-8859-1"?>
<!-- Generator: Adobe Illustrator 16.0.0, SVG Export Plug-In . SVG Version: 6.00 Build 0)  -->
<!DOCTYPE svg PUBLIC "-//W3C//DTD SVG 1.1//EN" "http://www.w3.org/Graphics/SVG/1.1/DTD/svg11.dtd">
<svg version="1.1" id="Capa_1" xmlns="http://www.w3.org/2000/svg" xmlns:xlink="http://www.w3.org/1999/xlink" x="0px" y="0px"
	 width="415.361px" height="415.361px" viewBox="0 0 415.361 415.361" style="enable-background:new 0 0 415.361 415.361;"
	 xml:space="preserve">
<g>
	<path d="M88.818,9.079v397.203c0,5.013-4.067,9.079-9.079,9.079c-5.01,0-9.079-4.066-9.079-9.079V9.079
		C70.66,4.067,74.729,0,79.739,0C84.751,0,88.818,4.061,88.818,9.079z M120.092,48.803h215.53c5.007,0,9.079-4.067,9.079-9.079
		c0-5.013-4.072-9.079-9.079-9.079h-215.53c-5.009,0-9.079,4.066-9.079,9.079C111.013,44.736,115.083,48.803,120.092,48.803z
		 M120.092,109.329h179.215c5.006,0,9.079-4.067,9.079-9.079c0-5.013-4.073-9.079-9.079-9.079H120.092
		c-5.009,0-9.079,4.066-9.079,9.079C111.013,105.262,115.083,109.329,120.092,109.329z M335.628,212.221H120.092
		c-5.009,0-9.079,4.066-9.079,9.079c0,5.012,4.069,9.078,9.079,9.078h215.53c5.007,0,9.079-4.066,9.079-9.078
		C344.701,216.287,340.641,212.221,335.628,212.221z M299.312,272.747H120.092c-5.009,0-9.079,4.066-9.079,9.078
		c0,5.013,4.069,9.079,9.079,9.079h179.215c5.006,0,9.079-4.066,9.079-9.079C308.386,276.813,304.324,272.747,299.312,272.747z
		 M299.312,333.781H120.092c-5.009,0-9.079,4.066-9.079,9.079c0,5.012,4.069,9.078,9.079,9.078h179.215
		c5.006,0,9.079-4.066,9.079-9.078C308.386,337.848,304.324,333.781,299.312,333.781z M120.092,169.855h159.544
		c5.006,0,9.078-4.067,9.078-9.079c0-5.013-4.072-9.079-9.078-9.079H120.092c-5.009,0-9.079,4.066-9.079,9.079
		C111.013,165.788,115.083,169.855,120.092,169.855z"/>
</g>
<g>
</g>
<g>
</g>
<g>
</g>
<g>
</g>
<g>
</g>
<g>
</g>
<g>
</g>
<g>
</g>
<g>
</g>
<g>
</g>
<g>
</g>
<g>
</g>
<g>
</g>
<g>
</g>
<g>
</g>
</svg>
