<?xml version="1.0" encoding="iso-8859-1"?>
<!-- Generator: Adobe Illustrator 16.0.0, SVG Export Plug-In . SVG Version: 6.00 Build 0)  -->
<!DOCTYPE svg PUBLIC "-//W3C//DTD SVG 1.1//EN" "http://www.w3.org/Graphics/SVG/1.1/DTD/svg11.dtd">
<svg version="1.1" id="Capa_1" xmlns="http://www.w3.org/2000/svg" xmlns:xlink="http://www.w3.org/1999/xlink" x="0px" y="0px"
	 width="415.36px" height="415.361px" viewBox="0 0 415.36 415.361" style="enable-background:new 0 0 415.36 415.361;"
	 xml:space="preserve">
<g>
	<path d="M219.782,9.079v397.203c0,5.013-4.066,9.079-9.078,9.079c-5.013,0-9.08-4.066-9.08-9.079V9.079
		c0-5.012,4.067-9.079,9.08-9.079C215.716,0,219.782,4.061,219.782,9.079z M251.057,47.289h141.231c5.013,0,9.079-4.067,9.079-9.079
		s-4.066-9.079-9.079-9.079H251.057c-5.013,0-9.079,4.066-9.079,9.079S246.044,47.289,251.057,47.289z M251.057,107.815h104.916
		c5.013,0,9.079-4.066,9.079-9.079s-4.066-9.079-9.079-9.079H251.057c-5.013,0-9.079,4.066-9.079,9.079
		S246.044,107.815,251.057,107.815z M392.288,210.704H251.057c-5.013,0-9.079,4.07-9.079,9.082c0,5.013,4.066,9.079,9.079,9.079
		h141.231c5.013,0,9.079-4.066,9.079-9.079C401.367,214.774,397.301,210.704,392.288,210.704z M355.973,271.233H251.057
		c-5.013,0-9.079,4.066-9.079,9.079s4.066,9.079,9.079,9.079h104.916c5.013,0,9.079-4.066,9.079-9.079
		S360.985,271.233,355.973,271.233z M355.973,332.268H251.057c-5.013,0-9.079,4.066-9.079,9.078c0,5.013,4.066,9.079,9.079,9.079
		h104.916c5.013,0,9.079-4.066,9.079-9.079C365.052,336.334,360.985,332.268,355.973,332.268z M251.057,168.341h85.245
		c5.012,0,9.078-4.066,9.078-9.079c0-5.012-4.066-9.079-9.078-9.079h-85.245c-5.013,0-9.079,4.067-9.079,9.079
		C241.978,164.275,246.044,168.341,251.057,168.341z M164.304,30.384H23.072c-5.012,0-9.079,4.066-9.079,9.079
		c0,5.012,4.067,9.079,9.079,9.079h141.232c5.012,0,9.079-4.066,9.079-9.079C173.383,34.451,169.316,30.384,164.304,30.384z
		 M164.304,90.911H59.388c-5.012,0-9.079,4.066-9.079,9.079s4.067,9.079,9.079,9.079h104.916c5.012,0,9.079-4.067,9.079-9.079
		S169.316,90.911,164.304,90.911z M164.304,211.96H23.072c-5.012,0-9.079,4.067-9.079,9.079c0,5.013,4.067,9.079,9.079,9.079
		h141.232c5.012,0,9.079-4.066,9.079-9.079C173.383,216.027,169.316,211.96,164.304,211.96z M164.304,272.486H59.388
		c-5.012,0-9.079,4.067-9.079,9.079c0,5.013,4.067,9.079,9.079,9.079h104.916c5.012,0,9.079-4.066,9.079-9.079
		C173.383,276.553,169.316,272.486,164.304,272.486z M164.304,333.521H59.388c-5.012,0-9.079,4.066-9.079,9.079
		c0,5.012,4.067,9.078,9.079,9.078h104.916c5.012,0,9.079-4.066,9.079-9.078C173.383,337.587,169.316,333.521,164.304,333.521z
		 M164.304,151.437H79.059c-5.012,0-9.079,4.066-9.079,9.079s4.067,9.079,9.079,9.079h85.245c5.012,0,9.079-4.066,9.079-9.079
		S169.316,151.437,164.304,151.437z"/>
</g>
<g>
</g>
<g>
</g>
<g>
</g>
<g>
</g>
<g>
</g>
<g>
</g>
<g>
</g>
<g>
</g>
<g>
</g>
<g>
</g>
<g>
</g>
<g>
</g>
<g>
</g>
<g>
</g>
<g>
</g>
</svg>
