<?xml version="1.0" encoding="iso-8859-1"?>
<!-- Generator: Adobe Illustrator 16.0.0, SVG Export Plug-In . SVG Version: 6.00 Build 0)  -->
<!DOCTYPE svg PUBLIC "-//W3C//DTD SVG 1.1//EN" "http://www.w3.org/Graphics/SVG/1.1/DTD/svg11.dtd">
<svg version="1.1" id="Capa_1" xmlns="http://www.w3.org/2000/svg" xmlns:xlink="http://www.w3.org/1999/xlink" x="0px" y="0px"
	 width="447.894px" height="447.894px" viewBox="0 0 447.894 447.894" style="enable-background:new 0 0 447.894 447.894;"
	 xml:space="preserve">
<g>
	<path d="M446.381,146.776c0.521,0,1.005,0.115,1.513,0.15v-24.361H0v24.767c1.513-0.343,3.067-0.556,4.678-0.556
		c11.7,0,21.184,9.483,21.184,21.184v25.724c0,11.701-9.484,21.184-21.184,21.184c-1.617,0-3.166-0.219-4.678-0.556v14.736
		c1.513-0.344,3.062-0.562,4.678-0.562c11.7,0,21.184,9.481,21.184,21.185v25.724c0,11.703-9.484,21.184-21.184,21.184
		c-1.617,0-3.166-0.218-4.678-0.555v29.305h447.894v-28.903c-0.508,0.036-0.992,0.153-1.513,0.153
		c-11.703,0-21.185-9.48-21.185-21.184v-25.724c0-11.703,9.481-21.185,21.185-21.185c0.521,0,1.005,0.119,1.513,0.154v-13.929
		c-0.508,0.035-0.992,0.15-1.513,0.15c-11.703,0-21.185-9.483-21.185-21.184V167.96C425.196,156.26,434.678,146.776,446.381,146.776
		z M391.541,301.118H60.665V143.75h330.876V301.118z M90.928,173.257c0-3.34,2.705-6.053,6.053-6.053h254.213
		c3.346,0,6.053,2.713,6.053,6.053c0,3.339-2.707,6.052-6.053,6.052H96.98C93.632,179.309,90.928,176.596,90.928,173.257z
		 M90.928,266.818c0-3.34,2.705-6.053,6.053-6.053h254.213c3.346,0,6.053,2.713,6.053,6.053s-2.707,6.053-6.053,6.053H96.98
		C93.632,272.871,90.928,270.164,90.928,266.818z"/>
</g>
<g>
</g>
<g>
</g>
<g>
</g>
<g>
</g>
<g>
</g>
<g>
</g>
<g>
</g>
<g>
</g>
<g>
</g>
<g>
</g>
<g>
</g>
<g>
</g>
<g>
</g>
<g>
</g>
<g>
</g>
</svg>
