<?xml version="1.0" encoding="iso-8859-1"?>
<!-- Generator: Adobe Illustrator 16.0.0, SVG Export Plug-In . SVG Version: 6.00 Build 0)  -->
<!DOCTYPE svg PUBLIC "-//W3C//DTD SVG 1.1//EN" "http://www.w3.org/Graphics/SVG/1.1/DTD/svg11.dtd">
<svg version="1.1" id="Capa_1" xmlns="http://www.w3.org/2000/svg" xmlns:xlink="http://www.w3.org/1999/xlink" x="0px" y="0px"
	 width="458.09px" height="458.089px" viewBox="0 0 458.09 458.089" style="enable-background:new 0 0 458.09 458.089;"
	 xml:space="preserve">
<g>
	<path d="M436.912,430.19c-0.03,0.006-0.077,0-0.118,0H21.184c-7.566,0-14.564-4.037-18.347-10.593
		c-3.783-6.555-3.783-14.629,0-21.184L210.642,38.489c3.783-6.555,10.781-10.592,18.348-10.592c7.565,0,14.558,4.037,18.341,10.592
		l206.776,358.139c2.506,3.481,3.983,7.749,3.983,12.377C458.096,420.703,448.609,430.19,436.912,430.19z M57.878,387.822H400.1
		L228.989,91.456L57.878,387.822z M302.312,354.408c-1.785,3.818-5.13,6.206-8.913,7.093c1.762,3.464,2.181,7.565,0.449,11.378
		c-2.997,6.609-10.805,9.511-17.372,6.508c-6.644-3.014-9.552-10.805-6.514-17.4c0.095-0.296,0.367-0.432,0.503-0.71l-43.072-19.357
		l-43.621,18.146c0.142,0.278,0.384,0.42,0.479,0.704c2.837,6.679-0.266,14.404-6.992,17.241
		c-6.679,2.784-14.375-0.337-17.188-7.027c-1.631-3.89-1.082-7.956,0.774-11.361c-3.742-0.992-7.052-3.511-8.701-7.353
		c-2.784-6.69,0.308-14.416,7.022-17.2c6.679-2.825,14.375,0.289,17.2,6.975c0.101,0.296,0.071,0.573,0.171,0.846l27.538-11.449
		l-27.207-12.224c-0.118,0.266-0.071,0.567-0.213,0.839c-2.997,6.597-10.805,9.511-17.401,6.514
		c-6.579-3.014-9.469-10.805-6.472-17.413c1.744-3.812,5.125-6.183,8.896-7.116c-1.785-3.44-2.21-7.555-0.467-11.36
		c3.009-6.608,10.805-9.499,17.413-6.514c6.608,3.015,9.511,10.805,6.466,17.413c-0.094,0.277-0.366,0.438-0.461,0.674
		l43.066,19.398l43.592-18.134c-0.136-0.296-0.378-0.438-0.508-0.733c-2.809-6.727,0.307-14.41,7.021-17.224
		c6.649-2.825,14.346,0.284,17.171,7.011c1.638,3.854,1.081,7.955-0.804,11.36c3.771,1.005,7.087,3.464,8.736,7.376
		c2.783,6.668-0.313,14.34-7.022,17.165c-6.685,2.831-14.375-0.296-17.2-6.957c-0.13-0.277-0.071-0.591-0.172-0.856l-27.526,11.432
		l27.189,12.234c0.112-0.26,0.083-0.555,0.207-0.839c3.038-6.597,10.805-9.517,17.39-6.502
		C302.418,340.009,305.326,347.776,302.312,354.408z M271.718,240.673c3.404,3.114,5.556,7.436,5.556,12.229
		c0,7.938-5.881,14.334-13.701,16.297v5.957c0,10.279-8.417,18.714-18.713,18.714h-34.685c-10.297,0-18.708-8.435-18.708-18.714
		v-5.934c-7.861-1.963-13.772-8.358-13.772-16.326c0-4.822,2.163-9.144,5.609-12.247c-5.361-7.737-8.535-16.913-8.535-26.811
		c0-27.216,23.613-49.316,52.741-49.316c29.117,0,52.76,22.1,52.76,49.316C280.288,223.748,277.091,232.923,271.718,240.673z
		 M218.834,217.423c0-7.791-6.543-14.097-14.588-14.097c-8.015,0-14.594,6.307-14.594,14.097c0,7.796,6.579,14.1,14.594,14.1
		C212.291,231.511,218.834,225.219,218.834,217.423z M242.761,258.914l-14.15-23.944l-14.682,24.405l14.541-7.058L242.761,258.914z
		 M265.375,217.423c0-7.791-6.555-14.097-14.569-14.097c-8.051,0-14.576,6.307-14.576,14.097c0,7.796,6.525,14.1,14.576,14.1
		C258.838,231.511,265.375,225.219,265.375,217.423z"/>
</g>
<g>
</g>
<g>
</g>
<g>
</g>
<g>
</g>
<g>
</g>
<g>
</g>
<g>
</g>
<g>
</g>
<g>
</g>
<g>
</g>
<g>
</g>
<g>
</g>
<g>
</g>
<g>
</g>
<g>
</g>
</svg>
