<?xml version="1.0" encoding="iso-8859-1"?>
<!-- Generator: Adobe Illustrator 16.0.0, SVG Export Plug-In . SVG Version: 6.00 Build 0)  -->
<!DOCTYPE svg PUBLIC "-//W3C//DTD SVG 1.1//EN" "http://www.w3.org/Graphics/SVG/1.1/DTD/svg11.dtd">
<svg version="1.1" id="Capa_1" xmlns="http://www.w3.org/2000/svg" xmlns:xlink="http://www.w3.org/1999/xlink" x="0px" y="0px"
	 width="524.812px" height="524.812px" viewBox="0 0 524.812 524.812" style="enable-background:new 0 0 524.812 524.812;"
	 xml:space="preserve">
<g>
	<path d="M160.575,0v524.812h203.662V0H160.575z M347.662,508.237H177.148V16.571h170.514V508.237z M335.273,28.538H189.363v465.886
		h145.911V28.538z M262.313,45.806c33.175,0,60.08,26.897,60.08,60.077c0,33.183-26.899,60.08-60.08,60.08
		c-33.18,0-60.077-26.897-60.077-60.08C202.236,72.703,229.134,45.806,262.313,45.806z M262.313,182.075
		c33.175,0,60.08,26.897,60.08,60.077c0,33.172-26.899,60.077-60.08,60.077c-33.18,0-60.077-26.894-60.077-60.077
		C202.243,208.973,229.134,182.075,262.313,182.075z M262.405,442.185c-33.174,0-60.077-26.905-60.077-60.083
		c0-33.177,26.897-60.077,60.077-60.077c33.183,0,60.077,26.9,60.077,60.077C322.477,415.279,295.576,442.185,262.405,442.185z
		 M299.224,106.246c0,20.381-16.521,36.904-36.91,36.904c-20.383,0-36.907-16.523-36.907-36.904
		c0-20.383,16.524-36.906,36.907-36.906C282.703,69.34,299.224,85.869,299.224,106.246z"/>
</g>
<g>
</g>
<g>
</g>
<g>
</g>
<g>
</g>
<g>
</g>
<g>
</g>
<g>
</g>
<g>
</g>
<g>
</g>
<g>
</g>
<g>
</g>
<g>
</g>
<g>
</g>
<g>
</g>
<g>
</g>
</svg>
