<?xml version="1.0" encoding="iso-8859-1"?>
<!-- Generator: Adobe Illustrator 16.0.0, SVG Export Plug-In . SVG Version: 6.00 Build 0)  -->
<!DOCTYPE svg PUBLIC "-//W3C//DTD SVG 1.1//EN" "http://www.w3.org/Graphics/SVG/1.1/DTD/svg11.dtd">
<svg version="1.1" id="Capa_1" xmlns="http://www.w3.org/2000/svg" xmlns:xlink="http://www.w3.org/1999/xlink" x="0px" y="0px"
	 width="524.812px" height="524.812px" viewBox="0 0 524.812 524.812" style="enable-background:new 0 0 524.812 524.812;"
	 xml:space="preserve">
<g>
	<path d="M160.572,0v524.812h203.667V0H160.572z M347.665,508.237H177.151V16.571h170.514V508.237z M335.276,28.538h-145.91v465.886
		h145.91V28.538z M262.316,45.8c33.181,0,60.08,26.897,60.08,60.077c0,33.183-26.899,60.08-60.08,60.08
		c-33.174,0-60.077-26.897-60.077-60.08C202.24,72.697,229.137,45.8,262.316,45.8z M262.316,182.075
		c33.181,0,60.08,26.897,60.08,60.077c0,33.172-26.899,60.077-60.08,60.077c-33.174,0-60.077-26.894-60.077-60.077
		C202.24,208.967,229.137,182.075,262.316,182.075z M262.408,442.173c-33.18,0-60.077-26.894-60.077-60.077
		c0-33.183,26.897-60.077,60.077-60.077c33.177,0,60.077,26.895,60.077,60.077C322.479,415.279,295.585,442.173,262.408,442.173z"/>
</g>
<g>
</g>
<g>
</g>
<g>
</g>
<g>
</g>
<g>
</g>
<g>
</g>
<g>
</g>
<g>
</g>
<g>
</g>
<g>
</g>
<g>
</g>
<g>
</g>
<g>
</g>
<g>
</g>
<g>
</g>
</svg>
