<?xml version="1.0" encoding="iso-8859-1"?>
<!-- Generator: Adobe Illustrator 16.0.0, SVG Export Plug-In . SVG Version: 6.00 Build 0)  -->
<!DOCTYPE svg PUBLIC "-//W3C//DTD SVG 1.1//EN" "http://www.w3.org/Graphics/SVG/1.1/DTD/svg11.dtd">
<svg version="1.1" id="Capa_1" xmlns="http://www.w3.org/2000/svg" xmlns:xlink="http://www.w3.org/1999/xlink" x="0px" y="0px"
	 width="86.708px" height="86.708px" viewBox="0 0 86.708 86.708" style="enable-background:new 0 0 86.708 86.708;"
	 xml:space="preserve">
<g>
	<path d="M26.53,0v86.708h33.648V0H26.53z M57.44,83.971H29.268V2.738H57.44V83.971z M55.393,4.715H31.286v76.973h24.106
		L55.393,4.715L55.393,4.715z M43.339,7.568c5.482,0,9.926,4.444,9.926,9.926s-4.444,9.926-9.926,9.926
		c-5.481,0-9.926-4.444-9.926-9.926S37.858,7.568,43.339,7.568z M43.339,30.082c5.482,0,9.926,4.444,9.926,9.926
		c0,5.48-4.444,9.926-9.926,9.926c-5.481,0-9.926-4.443-9.926-9.926C33.414,34.526,37.858,30.082,43.339,30.082z M43.354,73.057
		c-5.481,0-9.926-4.445-9.926-9.927s4.444-9.926,9.926-9.926c5.482,0,9.926,4.444,9.926,9.926
		C53.279,68.611,48.834,73.057,43.354,73.057z M49.413,17.568c0,3.367-2.73,6.097-6.099,6.097s-6.098-2.73-6.098-6.097
		c0-3.368,2.73-6.098,6.098-6.098S49.413,14.2,49.413,17.568z M49.413,40.068c0,3.368-2.73,6.097-6.099,6.097
		s-6.098-2.729-6.098-6.097s2.73-6.098,6.098-6.098S49.413,36.7,49.413,40.068z M49.413,63.034c0,3.366-2.73,6.097-6.099,6.097
		s-6.098-2.73-6.098-6.097c0-3.368,2.73-6.099,6.098-6.099S49.413,59.667,49.413,63.034z"/>
</g>
<g>
</g>
<g>
</g>
<g>
</g>
<g>
</g>
<g>
</g>
<g>
</g>
<g>
</g>
<g>
</g>
<g>
</g>
<g>
</g>
<g>
</g>
<g>
</g>
<g>
</g>
<g>
</g>
<g>
</g>
</svg>
