<?xml version="1.0" encoding="iso-8859-1"?>
<!-- Generator: Adobe Illustrator 16.0.0, SVG Export Plug-In . SVG Version: 6.00 Build 0)  -->
<!DOCTYPE svg PUBLIC "-//W3C//DTD SVG 1.1//EN" "http://www.w3.org/Graphics/SVG/1.1/DTD/svg11.dtd">
<svg version="1.1" id="Capa_1" xmlns="http://www.w3.org/2000/svg" xmlns:xlink="http://www.w3.org/1999/xlink" x="0px" y="0px"
	 width="524.812px" height="524.812px" viewBox="0 0 524.812 524.812" style="enable-background:new 0 0 524.812 524.812;"
	 xml:space="preserve">
<g>
	<path d="M160.575,0v524.812h203.662V0H160.575z M347.662,508.243H177.148V16.571h170.514V508.243z M335.268,28.538H189.363v465.886
		h145.905V28.538z M262.313,45.8c33.175,0,60.08,26.9,60.08,60.08c0,33.18-26.899,60.077-60.08,60.077
		c-33.18,0-60.077-26.897-60.077-60.077C202.236,72.7,229.14,45.8,262.313,45.8z M262.313,182.075
		c33.175,0,60.08,26.897,60.08,60.077c0,33.172-26.899,60.077-60.08,60.077c-33.18,0-60.077-26.894-60.077-60.077
		C202.243,208.967,229.14,182.075,262.313,182.075z M262.399,442.173c-33.174,0-60.077-26.894-60.077-60.077
		c0-33.183,26.897-60.077,60.077-60.077c33.177,0,60.077,26.895,60.077,60.077C322.477,415.279,295.576,442.173,262.399,442.173z
		 M299.312,242.613c0,20.381-16.521,36.907-36.907,36.907c-20.386,0-36.91-16.526-36.91-36.907c0-20.386,16.523-36.909,36.91-36.909
		C282.791,205.704,299.312,222.228,299.312,242.613z"/>
</g>
<g>
</g>
<g>
</g>
<g>
</g>
<g>
</g>
<g>
</g>
<g>
</g>
<g>
</g>
<g>
</g>
<g>
</g>
<g>
</g>
<g>
</g>
<g>
</g>
<g>
</g>
<g>
</g>
<g>
</g>
</svg>
