<?xml version="1.0" encoding="iso-8859-1"?>
<!-- Generator: Adobe Illustrator 16.0.0, SVG Export Plug-In . SVG Version: 6.00 Build 0)  -->
<!DOCTYPE svg PUBLIC "-//W3C//DTD SVG 1.1//EN" "http://www.w3.org/Graphics/SVG/1.1/DTD/svg11.dtd">
<svg version="1.1" id="Capa_1" xmlns="http://www.w3.org/2000/svg" xmlns:xlink="http://www.w3.org/1999/xlink" x="0px" y="0px"
	 width="524.812px" height="524.812px" viewBox="0 0 524.812 524.812" style="enable-background:new 0 0 524.812 524.812;"
	 xml:space="preserve">
<g>
	<path d="M160.575,0v524.812h203.662V0H160.575z M347.662,508.237H177.154V16.571h170.514v491.666H347.662z M335.279,28.538H189.363
		v465.886h145.91V28.538H335.279z M262.32,45.806c33.174,0,60.08,26.897,60.08,60.077c0,33.183-26.905,60.08-60.08,60.08
		s-60.077-26.897-60.077-60.08C202.243,72.703,229.14,45.806,262.32,45.806z M262.32,182.075c33.174,0,60.08,26.897,60.08,60.077
		c0,33.172-26.899,60.077-60.08,60.077s-60.077-26.894-60.077-60.077C202.243,208.973,229.14,182.075,262.32,182.075z
		 M262.405,442.185c-33.174,0-60.077-26.905-60.077-60.083c0-33.177,26.897-60.077,60.077-60.077
		c33.183,0,60.077,26.9,60.077,60.077C322.482,415.279,295.588,442.185,262.405,442.185z M299.324,382.102
		c0,20.381-16.526,36.901-36.913,36.901c-20.386,0-36.91-16.521-36.91-36.901c0-20.386,16.523-36.912,36.91-36.912
		C282.798,345.189,299.324,361.716,299.324,382.102z"/>
</g>
<g>
</g>
<g>
</g>
<g>
</g>
<g>
</g>
<g>
</g>
<g>
</g>
<g>
</g>
<g>
</g>
<g>
</g>
<g>
</g>
<g>
</g>
<g>
</g>
<g>
</g>
<g>
</g>
<g>
</g>
</svg>
