<?xml version="1.0" encoding="iso-8859-1"?>
<!-- Generator: Adobe Illustrator 16.0.0, SVG Export Plug-In . SVG Version: 6.00 Build 0)  -->
<!DOCTYPE svg PUBLIC "-//W3C//DTD SVG 1.1//EN" "http://www.w3.org/Graphics/SVG/1.1/DTD/svg11.dtd">
<svg version="1.1" id="Capa_1" xmlns="http://www.w3.org/2000/svg" xmlns:xlink="http://www.w3.org/1999/xlink" x="0px" y="0px"
	 width="78.684px" height="78.685px" viewBox="0 0 78.684 78.685" style="enable-background:new 0 0 78.684 78.685;"
	 xml:space="preserve">
<g>
	<path d="M72.988,30.8c0,0.134-0.041,0.269-0.127,0.381c-0.171,0.229-0.475,0.314-0.74,0.209l-7.924-3.13h-0.158
		c-0.765,8.919-7.531,13.994-13.035,18.115c-4.935,3.695-7.931,6.172-7.931,9.41h-0.001v14.58c0,0.01,0.001,0.018,0.001,0.024
		h-0.001v8.295h-7.461v-8.317c-0.013-6.231-4.923-9.912-10.123-13.806c-5.05-3.78-10.754-8.065-10.905-15.104H14.49l-7.924,3.131
		C6.3,44.693,5.998,44.609,5.825,44.38c-0.172-0.228-0.171-0.542,0.005-0.769l11.967-15.565c0.119-0.157,0.306-0.249,0.503-0.249
		s0.384,0.092,0.503,0.249l11.966,15.567c0.089,0.112,0.132,0.25,0.132,0.387c0,0.135-0.042,0.269-0.127,0.382
		c-0.171,0.229-0.476,0.313-0.741,0.209l-7.924-3.131h-0.063c0.169,3.104,3.124,5.545,7.914,9.132
		c1.832,1.373,3.807,2.852,5.651,4.541V32.295c-0.046-0.088-0.078-0.184-0.078-0.29V13.661l-7.924,3.13
		c-0.266,0.104-0.568,0.02-0.741-0.208c-0.172-0.228-0.171-0.543,0.005-0.771L38.84,0.248C38.959,0.092,39.146,0,39.343,0
		c0.197,0,0.384,0.092,0.503,0.248l11.966,15.566c0.089,0.114,0.132,0.251,0.132,0.388c0,0.135-0.042,0.269-0.127,0.382
		c-0.171,0.228-0.476,0.313-0.741,0.208l-7.924-3.13v18.344c0,0.107-0.033,0.204-0.08,0.293v10.779
		c1.141-0.934,2.314-1.817,3.459-2.674c4.711-3.527,9.173-6.886,9.98-12.12l-7.858,3.105c-0.267,0.105-0.567,0.02-0.741-0.209
		c-0.172-0.228-0.17-0.542,0.006-0.769l11.967-15.565c0.119-0.156,0.306-0.248,0.502-0.248c0.197,0,0.385,0.092,0.504,0.248
		l11.968,15.565C72.945,30.527,72.988,30.663,72.988,30.8z"/>
</g>
<g>
</g>
<g>
</g>
<g>
</g>
<g>
</g>
<g>
</g>
<g>
</g>
<g>
</g>
<g>
</g>
<g>
</g>
<g>
</g>
<g>
</g>
<g>
</g>
<g>
</g>
<g>
</g>
<g>
</g>
</svg>
