<?xml version="1.0" encoding="iso-8859-1"?>
<!-- Generator: Adobe Illustrator 16.0.0, SVG Export Plug-In . SVG Version: 6.00 Build 0)  -->
<!DOCTYPE svg PUBLIC "-//W3C//DTD SVG 1.1//EN" "http://www.w3.org/Graphics/SVG/1.1/DTD/svg11.dtd">
<svg version="1.1" id="Capa_1" xmlns="http://www.w3.org/2000/svg" xmlns:xlink="http://www.w3.org/1999/xlink" x="0px" y="0px"
	 width="471.608px" height="471.608px" viewBox="0 0 471.608 471.608" style="enable-background:new 0 0 471.608 471.608;"
	 xml:space="preserve">
<g>
	<path d="M402.621,68.985c-91.983-91.98-241.655-91.98-333.636,0s-91.98,241.659,0,333.636c91.98,91.983,241.652,91.983,333.636,0
		C494.604,310.645,494.604,160.972,402.621,68.985z M384.321,384.334c-81.887,81.887-215.151,81.887-297.051,0
		c-81.885-81.9-81.885-215.158,0-297.052c81.899-81.896,215.151-81.896,297.051,0C466.216,169.176,466.216,302.434,384.321,384.334z
		 M398.372,160.611l-13.122,59.09c-0.354,1.634-1.969,2.65-3.594,2.299c-0.497-0.106-12.365-2.663-29.696-2.663
		c-29.234,0-80.877,7.737-114.987,55.955l7.11,7.11l79.612,34.507c2.671,1.171,4.243,3.96,3.83,6.851
		c-0.396,2.879-2.666,5.143-5.568,5.503l-198.291,25.925c-1.986,0.26-3.996-0.426-5.417-1.838c-1.43-1.425-2.095-3.429-1.847-5.427
		l25.925-198.294c0.186-1.451,0.851-2.751,1.833-3.732c0.969-0.97,2.246-1.635,3.685-1.842c2.876-0.404,5.666,1.171,6.836,3.833
		l34.516,79.615l0.178,0.178c53.232-67.075,130.326-75.079,163.764-75.079c15.297,0,30.145,1.519,42.936,4.389
		C397.716,157.366,398.744,158.982,398.372,160.611z"/>
</g>
<g>
</g>
<g>
</g>
<g>
</g>
<g>
</g>
<g>
</g>
<g>
</g>
<g>
</g>
<g>
</g>
<g>
</g>
<g>
</g>
<g>
</g>
<g>
</g>
<g>
</g>
<g>
</g>
<g>
</g>
</svg>
