<?xml version="1.0" encoding="iso-8859-1"?>
<!-- Generator: Adobe Illustrator 16.0.0, SVG Export Plug-In . SVG Version: 6.00 Build 0)  -->
<!DOCTYPE svg PUBLIC "-//W3C//DTD SVG 1.1//EN" "http://www.w3.org/Graphics/SVG/1.1/DTD/svg11.dtd">
<svg version="1.1" id="Capa_1" xmlns="http://www.w3.org/2000/svg" xmlns:xlink="http://www.w3.org/1999/xlink" x="0px" y="0px"
	 width="75.686px" height="75.686px" viewBox="0 0 75.686 75.686" style="enable-background:new 0 0 75.686 75.686;"
	 xml:space="preserve">
<g>
	<path d="M75.027,65.531L40.863,6.36c-0.625-1.083-1.78-1.75-3.03-1.75s-2.406,0.667-3.031,1.75L0.469,65.825
		c-0.625,1.083-0.625,2.417,0,3.5s1.781,1.75,3.031,1.75h68.666c0.007,0,0.015,0.001,0.02,0c1.934,0,3.5-1.566,3.5-3.5
		C75.686,66.812,75.441,66.106,75.027,65.531z M46.356,64.075c3.482-1.99,10.804-7.627,3.345-16.9c0,0,2.421,8.34-2.694,8.34
		c-0.658,0-2.183-0.992-0.898-3.078c0,0,3.914-7.25-2.053-9.881c0,0,1.714,3.215-1.046,5.424c-1.126-4.064-5.986-6.969-5.986-6.969
		c-4.647-3.059-2.02-7.958-2.02-7.958c-8.286,3.653-2.853,13.72-2.853,13.72c1.782,2.896-0.334,4.277-1.247,4.277
		c-7.104,0-3.742-11.582-3.742-11.582c-10.897,13.549,0.919,22.062,5.35,24.607H9.562L37.833,15.11l28.271,48.966L46.356,64.075
		L46.356,64.075z"/>
</g>
<g>
</g>
<g>
</g>
<g>
</g>
<g>
</g>
<g>
</g>
<g>
</g>
<g>
</g>
<g>
</g>
<g>
</g>
<g>
</g>
<g>
</g>
<g>
</g>
<g>
</g>
<g>
</g>
<g>
</g>
</svg>
