<?xml version="1.0" encoding="iso-8859-1"?>
<!-- Generator: Adobe Illustrator 16.0.0, SVG Export Plug-In . SVG Version: 6.00 Build 0)  -->
<!DOCTYPE svg PUBLIC "-//W3C//DTD SVG 1.1//EN" "http://www.w3.org/Graphics/SVG/1.1/DTD/svg11.dtd">
<svg version="1.1" id="Capa_1" xmlns="http://www.w3.org/2000/svg" xmlns:xlink="http://www.w3.org/1999/xlink" x="0px" y="0px"
	 width="458.096px" height="458.096px" viewBox="0 0 458.096 458.096" style="enable-background:new 0 0 458.096 458.096;"
	 xml:space="preserve">
<g>
	<path d="M454.112,396.635L247.33,38.496c-3.783-6.555-10.775-10.592-18.341-10.592s-14.564,4.037-18.347,10.592L2.837,398.414
		c-3.783,6.555-3.783,14.629,0,21.184c3.783,6.556,10.781,10.593,18.347,10.593h415.61c0.041,0,0.088,0.006,0.118,0
		c11.703,0,21.184-9.481,21.184-21.185C458.096,404.384,456.618,400.116,454.112,396.635z M57.878,387.822L228.989,91.456
		L400.1,387.828H57.878V387.822z M277.008,201.813l-58.05,64.507h51.59L167.352,369.51l38.709-83.838h-45.146l51.589-83.859H277.008
		z"/>
</g>
<g>
</g>
<g>
</g>
<g>
</g>
<g>
</g>
<g>
</g>
<g>
</g>
<g>
</g>
<g>
</g>
<g>
</g>
<g>
</g>
<g>
</g>
<g>
</g>
<g>
</g>
<g>
</g>
<g>
</g>
</svg>
