<?xml version="1.0" encoding="iso-8859-1"?>
<!-- Generator: Adobe Illustrator 16.0.0, SVG Export Plug-In . SVG Version: 6.00 Build 0)  -->
<!DOCTYPE svg PUBLIC "-//W3C//DTD SVG 1.1//EN" "http://www.w3.org/Graphics/SVG/1.1/DTD/svg11.dtd">
<svg version="1.1" id="Capa_1" xmlns="http://www.w3.org/2000/svg" xmlns:xlink="http://www.w3.org/1999/xlink" x="0px" y="0px"
	 width="468.067px" height="468.067px" viewBox="0 0 468.067 468.067" style="enable-background:new 0 0 468.067 468.067;"
	 xml:space="preserve">
<g>
	<path d="M431.38,0.225H36.685C16.458,0.225,0,16.674,0,36.898v394.268c0,20.221,16.458,36.677,36.685,36.677H431.38
		c20.232,0,36.688-16.456,36.688-36.677V36.898C468.062,16.668,451.606,0.225,431.38,0.225z M406.519,41.969
		c8.678,0,15.711,7.04,15.711,15.72c0,8.683-7.033,15.717-15.711,15.717c-8.688,0-15.723-7.04-15.723-15.717
		C390.796,49.009,397.83,41.969,406.519,41.969z M350.189,41.969c8.688,0,15.723,7.04,15.723,15.72
		c0,8.683-7.034,15.717-15.723,15.717c-8.684,0-15.711-7.04-15.711-15.717C334.479,49.009,341.513,41.969,350.189,41.969z
		 M426.143,425.924H41.919V112.429h384.224V425.924z M107.47,380.216h253.099c0.006,0,0.018,0,0.018,0
		c4.238,0,7.667-3.429,7.667-7.66c0-1.614-0.503-3.115-1.354-4.351L240.653,149.542c-1.368-2.373-3.897-3.83-6.634-3.83
		s-5.267,1.457-6.635,3.83L100.838,368.719c-1.369,2.371-1.369,5.291,0,7.667C102.212,378.756,104.736,380.216,107.47,380.216z
		 M248.606,351.495c0,2.896-2.353,5.255-5.248,5.255h-18.649c-2.899,0-5.249-2.358-5.249-5.255v-18.507
		c0-2.902,2.355-5.26,5.249-5.26h18.649c2.896,0,5.248,2.357,5.248,5.26V351.495z M222.082,204.802h23.9
		c2.896,0,5.249,2.355,5.249,5.255l-2.631,100.507c0,2.896-2.358,5.249-5.248,5.249h-18.643c-2.899,0-5.249-2.347-5.249-5.249
		l-2.63-100.501C216.831,207.157,219.183,204.802,222.082,204.802z"/>
</g>
<g>
</g>
<g>
</g>
<g>
</g>
<g>
</g>
<g>
</g>
<g>
</g>
<g>
</g>
<g>
</g>
<g>
</g>
<g>
</g>
<g>
</g>
<g>
</g>
<g>
</g>
<g>
</g>
<g>
</g>
</svg>
