<?xml version="1.0" encoding="iso-8859-1"?>
<!-- Generator: Adobe Illustrator 16.0.0, SVG Export Plug-In . SVG Version: 6.00 Build 0)  -->
<!DOCTYPE svg PUBLIC "-//W3C//DTD SVG 1.1//EN" "http://www.w3.org/Graphics/SVG/1.1/DTD/svg11.dtd">
<svg version="1.1" id="Capa_1" xmlns="http://www.w3.org/2000/svg" xmlns:xlink="http://www.w3.org/1999/xlink" x="0px" y="0px"
	 width="487.295px" height="487.295px" viewBox="0 0 487.295 487.295" style="enable-background:new 0 0 487.295 487.295;"
	 xml:space="preserve">
<g>
	<path d="M356.688,130.469H55.517c-15.439,0-27.994,12.554-27.994,27.987v300.852c0,15.434,12.555,27.987,27.994,27.987h301.171
		c15.434,0,27.993-12.554,27.993-27.987V158.45C384.681,143.017,372.121,130.469,356.688,130.469z M337.72,162.324
		c6.62,0,11.987,5.37,11.987,11.99c0,6.629-5.373,11.996-11.987,11.996c-6.632,0-11.998-5.367-11.998-11.996
		C325.722,167.694,331.088,162.324,337.72,162.324z M294.737,162.324c6.632,0,11.992,5.37,11.992,11.99
		c0,6.629-5.366,11.996-11.992,11.996c-6.62,0-11.987-5.367-11.987-11.996C282.75,167.694,288.117,162.324,294.737,162.324z
		 M352.698,455.301H59.512V216.092h293.174v239.209H352.698z M431.784,0H130.607c-15.436,0-27.988,12.552-27.988,27.987v82.302
		h31.98V85.626h293.183v239.211h-10.391v31.989h14.387c15.433,0,27.993-12.561,27.993-27.987V27.981
		C459.777,12.546,447.217,0,431.784,0z M369.839,55.842c-6.632,0-11.992-5.37-11.992-11.99c0-6.623,5.366-11.993,11.992-11.993
		c6.62,0,11.987,5.37,11.987,11.993C381.826,50.472,376.459,55.842,369.839,55.842z M412.816,55.842
		c-6.638,0-11.999-5.37-11.999-11.99c0-6.623,5.373-11.993,11.999-11.993c6.62,0,11.981,5.37,11.981,11.993
		C424.81,50.472,419.437,55.842,412.816,55.842z"/>
</g>
<g>
</g>
<g>
</g>
<g>
</g>
<g>
</g>
<g>
</g>
<g>
</g>
<g>
</g>
<g>
</g>
<g>
</g>
<g>
</g>
<g>
</g>
<g>
</g>
<g>
</g>
<g>
</g>
<g>
</g>
</svg>
