<?xml version="1.0" encoding="iso-8859-1"?>
<!-- Generator: Adobe Illustrator 16.0.0, SVG Export Plug-In . SVG Version: 6.00 Build 0)  -->
<!DOCTYPE svg PUBLIC "-//W3C//DTD SVG 1.1//EN" "http://www.w3.org/Graphics/SVG/1.1/DTD/svg11.dtd">
<svg version="1.1" id="Capa_1" xmlns="http://www.w3.org/2000/svg" xmlns:xlink="http://www.w3.org/1999/xlink" x="0px" y="0px"
	 width="468.062px" height="468.062px" viewBox="0 0 468.062 468.062" style="enable-background:new 0 0 468.062 468.062;"
	 xml:space="preserve">
<g>
	<path d="M431.379,0.222h-394.7C16.458,0.222,0,16.671,0,36.895v394.268c0,20.221,16.458,36.677,36.679,36.677h394.7
		c20.228,0,36.683-16.456,36.683-36.677V36.895C468.062,16.665,451.606,0.222,431.379,0.222z M406.519,41.966
		c8.689,0,15.723,7.04,15.723,15.72c0,8.683-7.033,15.717-15.723,15.717c-8.688,0-15.723-7.04-15.723-15.717
		C390.796,49.006,397.83,41.966,406.519,41.966z M350.189,41.966c8.688,0,15.723,7.04,15.723,15.72
		c0,8.683-7.034,15.717-15.723,15.717c-8.684,0-15.711-7.04-15.711-15.717C334.479,49.006,341.506,41.966,350.189,41.966z
		 M426.148,425.921H41.913V112.426h384.229v313.495H426.148z M234.03,405.563c61.792,0,113.877-42.314,128.838-99.483l2.322-10.853
		c1.289-7.424,1.998-15.043,1.998-22.827c0-73.423-59.734-133.158-133.158-133.158c-73.423,0-133.157,59.734-133.157,133.158
		C100.873,345.824,160.607,405.563,234.03,405.563z M133.601,288.396c1.173-3.222,2.021-7.259,2.553-11.645
		c5.03-10.386,14.975-17.438,7.929-33.018c-2.938-7.158-12.04-11.05-21.004-13.622c9.708-25.377,27.878-46.6,51.06-60.192
		c37.253,27.023,3.124,89.891,38.574,108.462c30.591,14.393,14.393-35.99,39.593-37.793c8.996,0,12.59,16.195,19.795,19.801
		c5.397,1.797,16.196-9.002,32.386,4.492c16.195,13.5,16.798-2.394,20.403-18.596c1.797-16.192-16.798-14.69-16.798-23.692
		c-3.605-26.989,8.996-28.792-14.398-52.184c-0.532-0.535-1.135-1.084-1.727-1.637c36.269,20.351,60.84,59.161,60.84,103.627
		c0,7.152-0.668,14.139-1.886,20.942c-20.091,10.532-55.762-2.726-59.024,28.212c-1.39,18.163,14.505,26.599,20.02,40.394
		c-15.93,13.873-35.565,23.561-57.229,27.373c3.057-2.27,4.959-5.946,5.846-9.594c1.992-8.168-5.225-14.605-5.922-22.407
		c-0.94-10.634-3.287-25.339-16.905-25.8c-5.438-0.178-12.525,2.824-17.174-0.846c-4.291-3.381-7.941-6.821-13.571-7.602
		c-13.205-1.832-23.823,10.113-27.458,21.58c-3.499,11.042,0.411,23.602,3.183,34.82c-16.852-8.115-31.487-20.108-42.794-34.797
		c9.909,4.505,19.831,3.777,20.817-9.492C161.901,319.154,134.562,304.543,133.601,288.396z"/>
</g>
<g>
</g>
<g>
</g>
<g>
</g>
<g>
</g>
<g>
</g>
<g>
</g>
<g>
</g>
<g>
</g>
<g>
</g>
<g>
</g>
<g>
</g>
<g>
</g>
<g>
</g>
<g>
</g>
<g>
</g>
</svg>
