<?xml version="1.0" encoding="iso-8859-1"?>
<!-- Generator: Adobe Illustrator 16.0.0, SVG Export Plug-In . SVG Version: 6.00 Build 0)  -->
<!DOCTYPE svg PUBLIC "-//W3C//DTD SVG 1.1//EN" "http://www.w3.org/Graphics/SVG/1.1/DTD/svg11.dtd">
<svg version="1.1" id="Capa_1" xmlns="http://www.w3.org/2000/svg" xmlns:xlink="http://www.w3.org/1999/xlink" x="0px" y="0px"
	 width="535.268px" height="535.267px" viewBox="0 0 535.268 535.267" style="enable-background:new 0 0 535.268 535.267;"
	 xml:space="preserve">
<g>
	<path d="M449.239,0H86.028C67.416,0,52.272,15.131,52.272,33.745v362.82c0,18.595,15.144,33.739,33.756,33.739h363.211
		c18.613,0,33.756-15.145,33.756-33.739V33.745C482.995,15.131,467.853,0,449.239,0z M426.364,38.411
		c7.985,0,14.464,6.475,14.464,14.466c0,7.988-6.473,14.467-14.464,14.467s-14.47-6.479-14.47-14.467
		C411.895,44.886,418.361,38.411,426.364,38.411z M374.527,38.411c7.991,0,14.469,6.475,14.469,14.466
		c0,7.988-6.466,14.467-14.469,14.467c-7.985,0-14.458-6.479-14.458-14.467C360.069,44.886,366.542,38.411,374.527,38.411z
		 M444.422,391.742H90.846V103.252h353.576V391.742z M306.364,506.298h57.973v13.482h-57.973v8.169c0,4.043-2.382,7.317-5.308,7.317
		h-13.991H261.93h-13.994c-2.929,0-5.308-3.274-5.308-7.317v-8.169h-55.824v-13.482h55.824v-8.399c0-4.055,2.379-7.329,5.308-7.329
		h13.994v-31.232c0-4.031,2.379-7.306,5.308-7.306h16.5c2.944,0,5.309,3.274,5.309,7.306v31.232h12.011
		c2.926,0,5.308,3.274,5.308,7.329V506.298z"/>
</g>
<g>
</g>
<g>
</g>
<g>
</g>
<g>
</g>
<g>
</g>
<g>
</g>
<g>
</g>
<g>
</g>
<g>
</g>
<g>
</g>
<g>
</g>
<g>
</g>
<g>
</g>
<g>
</g>
<g>
</g>
</svg>
