<?xml version="1.0" encoding="iso-8859-1"?>
<!-- Generator: Adobe Illustrator 16.0.0, SVG Export Plug-In . SVG Version: 6.00 Build 0)  -->
<!DOCTYPE svg PUBLIC "-//W3C//DTD SVG 1.1//EN" "http://www.w3.org/Graphics/SVG/1.1/DTD/svg11.dtd">
<svg version="1.1" id="Capa_1" xmlns="http://www.w3.org/2000/svg" xmlns:xlink="http://www.w3.org/1999/xlink" x="0px" y="0px"
	 width="515.064px" height="515.064px" viewBox="0 0 515.064 515.064" style="enable-background:new 0 0 515.064 515.064;"
	 xml:space="preserve">
<g>
	<path d="M377.06,123.184H46.288c-16.955,0-30.742,13.781-30.742,30.733v330.411c0,16.952,13.787,30.736,30.742,30.736H377.06
		c16.952,0,30.747-13.784,30.747-30.736V153.917C407.807,136.965,394.012,123.184,377.06,123.184z M356.224,158.161
		c7.265,0,13.163,5.908,13.163,13.184c0,7.261-5.898,13.169-13.163,13.169c-7.288,0-13.175-5.908-13.175-13.169
		C343.049,164.068,348.936,158.161,356.224,158.161z M309.015,158.161c7.282,0,13.175,5.908,13.175,13.184
		c0,7.261-5.893,13.169-13.175,13.169c-7.271,0-13.169-5.908-13.169-13.169C295.858,164.068,301.745,158.161,309.015,158.161z
		 M372.674,479.942H50.667V217.215h322.007V479.942z M132.913,397.795l51.188-51.193l-51.188-51.199
		c-7.616-7.613-7.616-19.954,0-27.562c7.613-7.613,19.943-7.613,27.556,0l51.205,51.193l51.199-51.193
		c7.616-7.613,19.952-7.613,27.564,0c7.613,7.607,7.613,19.948,0,27.562l-51.187,51.199l51.187,51.193
		c7.613,7.613,7.613,19.967,0,27.567c-3.806,3.807-8.801,5.71-13.777,5.71c-5.001,0-9.978-1.903-13.781-5.71l-51.199-51.198
		l-51.205,51.198c-3.801,3.807-8.781,5.71-13.769,5.71c-4.989,0-9.975-1.903-13.781-5.71
		C125.296,417.762,125.296,405.408,132.913,397.795z M468.771,0H137.996c-16.952,0-30.742,13.781-30.742,30.736v65.391h35.131
		v-2.092h322v262.727h-29.282v35.122h33.674c16.958,0,30.742-13.784,30.742-30.735V30.736C499.513,13.781,485.723,0,468.771,0z
		 M400.726,61.33c-7.27,0-13.163-5.901-13.163-13.169c0-7.276,5.894-13.178,13.163-13.178c7.282,0,13.182,5.901,13.182,13.178
		C413.896,55.429,408.008,61.33,400.726,61.33z M447.942,61.33c-7.294,0-13.182-5.901-13.182-13.169
		c0-7.276,5.888-13.178,13.182-13.178c7.27,0,13.157,5.901,13.157,13.178C461.099,55.429,455.211,61.33,447.942,61.33z"/>
</g>
<g>
</g>
<g>
</g>
<g>
</g>
<g>
</g>
<g>
</g>
<g>
</g>
<g>
</g>
<g>
</g>
<g>
</g>
<g>
</g>
<g>
</g>
<g>
</g>
<g>
</g>
<g>
</g>
<g>
</g>
</svg>
