<?xml version="1.0" encoding="iso-8859-1"?>
<!-- Generator: Adobe Illustrator 16.0.0, SVG Export Plug-In . SVG Version: 6.00 Build 0)  -->
<!DOCTYPE svg PUBLIC "-//W3C//DTD SVG 1.1//EN" "http://www.w3.org/Graphics/SVG/1.1/DTD/svg11.dtd">
<svg version="1.1" id="Capa_1" xmlns="http://www.w3.org/2000/svg" xmlns:xlink="http://www.w3.org/1999/xlink" x="0px" y="0px"
	 width="468.062px" height="468.062px" viewBox="0 0 468.062 468.062" style="enable-background:new 0 0 468.062 468.062;"
	 xml:space="preserve">
<g>
	<path d="M431.38,0.225H36.679C16.456,0.225,0,16.668,0,36.897v394.269c0,20.215,16.456,36.671,36.679,36.671H431.38
		c20.227,0,36.682-16.456,36.682-36.671V36.897C468.062,16.668,451.606,0.225,431.38,0.225z M406.519,41.969
		c8.689,0,15.717,7.04,15.717,15.726c0,8.677-7.027,15.716-15.717,15.716c-8.688,0-15.723-7.039-15.723-15.716
		C390.796,49.009,397.83,41.969,406.519,41.969z M350.189,41.969c8.688,0,15.723,7.04,15.723,15.726
		c0,8.677-7.034,15.716-15.723,15.716c-8.684,0-15.717-7.039-15.717-15.716C334.473,49.009,341.506,41.969,350.189,41.969z
		 M426.148,425.924H41.913V112.429h384.229v313.495H426.148z M392.918,187.625H78.182v135.18h314.736V187.625z M269.851,306.662
		h-83.224v-28.75h83.224V306.662z M375.015,306.662h-83.224v-28.75h83.224V306.662z M382.113,222.375l-4.959,4.962l-8.523-8.512
		l-8.512,8.512l-4.971-4.962l8.518-8.517l-8.518-8.518l4.971-4.962l8.512,8.517l8.523-8.517l4.965,4.962l-8.512,8.518
		L382.113,222.375z"/>
</g>
<g>
</g>
<g>
</g>
<g>
</g>
<g>
</g>
<g>
</g>
<g>
</g>
<g>
</g>
<g>
</g>
<g>
</g>
<g>
</g>
<g>
</g>
<g>
</g>
<g>
</g>
<g>
</g>
<g>
</g>
</svg>
