<?xml version="1.0" encoding="iso-8859-1"?>
<!-- Generator: Adobe Illustrator 16.0.0, SVG Export Plug-In . SVG Version: 6.00 Build 0)  -->
<!DOCTYPE svg PUBLIC "-//W3C//DTD SVG 1.1//EN" "http://www.w3.org/Graphics/SVG/1.1/DTD/svg11.dtd">
<svg version="1.1" id="Capa_1" xmlns="http://www.w3.org/2000/svg" xmlns:xlink="http://www.w3.org/1999/xlink" x="0px" y="0px"
	 width="494.575px" height="494.575px" viewBox="0 0 494.575 494.575" style="enable-background:new 0 0 494.575 494.575;"
	 xml:space="preserve">
<g>
	<path d="M487.428,452.934L292.372,257.873c46.654-63.372,41.5-153.181-15.805-210.485c-63.187-63.183-165.996-63.183-229.179,0
		s-63.183,165.992,0,229.175c57.305,57.311,147.113,62.459,210.488,15.812L452.933,487.43c9.521,9.527,24.967,9.527,34.495,0
		C496.956,477.901,496.956,462.45,487.428,452.934z M242.072,242.07c-44.163,44.156-116.022,44.156-160.191,0
		c-44.159-44.162-44.159-116.025,0-160.185c44.168-44.165,116.022-44.165,160.191,0C286.231,126.045,286.231,197.908,242.072,242.07
		z M230.782,144.587c9.108,0,16.5,7.383,16.5,16.497c0,9.118-7.392,16.506-16.5,16.506H91.386c-9.118,0-16.506-7.388-16.506-16.506
		c0-9.114,7.388-16.497,16.506-16.497H230.782z"/>
</g>
<g>
</g>
<g>
</g>
<g>
</g>
<g>
</g>
<g>
</g>
<g>
</g>
<g>
</g>
<g>
</g>
<g>
</g>
<g>
</g>
<g>
</g>
<g>
</g>
<g>
</g>
<g>
</g>
<g>
</g>
</svg>
