<?xml version="1.0" standalone="no"?>
<!DOCTYPE svg PUBLIC "-//W3C//DTD SVG 20010904//EN"
 "http://www.w3.org/TR/2001/REC-SVG-20010904/DTD/svg10.dtd">
<svg version="1.0" xmlns="http://www.w3.org/2000/svg"
 width="600.000000pt" height="600.000000pt" viewBox="0 0 600.000000 600.000000"
 preserveAspectRatio="xMidYMid meet">
<metadata>
Created by potrace 1.11, written by Peter Selinger 2001-2013
</metadata>
<g transform="translate(0.000000,600.000000) scale(0.100000,-0.100000)"
fill="#000000" stroke="none">
<path d="M4998 5425 c-2 -2 -30 -6 -63 -9 -33 -3 -71 -8 -85 -11 -14 -3 -47
-10 -75 -15 -145 -29 -359 -98 -560 -182 -147 -61 -459 -213 -561 -273 -42
-25 -77 -45 -80 -45 -9 0 -351 -212 -481 -297 l-142 -94 -129 95 c-170 123
-358 249 -401 266 -99 40 -186 -9 -184 -103 1 -55 42 -100 148 -165 103 -62
355 -235 355 -242 -1 -3 -47 -39 -103 -80 -118 -87 -393 -306 -471 -375 -6 -5
-43 -37 -81 -70 -131 -111 -375 -337 -511 -472 l-82 -82 -102 106 c-622 645
-981 1304 -860 1580 37 87 117 149 215 167 43 9 175 9 216 1 119 -24 179 -14
203 34 47 90 -2 186 -104 206 -169 33 -393 24 -525 -20 -128 -43 -262 -147
-329 -254 -74 -117 -107 -290 -84 -440 5 -30 10 -66 12 -80 16 -126 129 -406
245 -606 123 -213 400 -590 536 -731 11 -11 37 -40 58 -65 22 -24 77 -83 123
-131 46 -48 84 -90 84 -93 0 -3 -42 -54 -93 -113 -374 -430 -682 -895 -819
-1237 -30 -74 -76 -209 -82 -236 -2 -13 -9 -45 -15 -70 -37 -160 -27 -328 24
-444 63 -142 177 -235 346 -282 50 -13 99 -17 229 -16 144 1 182 5 300 31 319
70 619 188 1032 404 80 42 175 94 210 116 34 21 70 41 78 45 8 4 27 15 42 25
14 9 48 30 75 46 83 50 327 212 437 291 58 41 108 75 110 75 2 0 77 -36 167
-79 197 -95 399 -183 694 -303 236 -96 284 -106 357 -75 114 48 165 189 109
298 -32 62 -65 84 -206 140 -170 68 -440 182 -529 223 -39 18 -99 45 -133 61
-35 15 -63 30 -63 34 0 3 28 28 63 56 192 154 480 411 705 630 79 77 147 141
151 143 11 4 210 -310 276 -436 30 -56 74 -131 95 -159 42 -57 133 -79 205
-49 67 28 108 132 80 203 -10 24 -208 304 -278 393 -7 9 -52 69 -101 133 -100
134 -99 109 -11 206 22 24 45 49 50 55 31 34 179 212 231 276 717 894 953
1592 651 1925 -98 109 -243 164 -444 170 -67 2 -123 2 -125 0z m117 -206 c109
-25 192 -87 218 -164 55 -161 -47 -498 -251 -829 -88 -143 -250 -366 -366
-505 -182 -217 -422 -479 -429 -471 -3 3 -23 28 -47 55 -166 197 -219 256
-384 424 -185 190 -327 318 -529 476 -91 72 -166 133 -166 136 -1 10 228 171
430 303 416 271 928 514 1183 562 174 33 240 35 341 13z m-2003 -1153 c313
-253 561 -487 788 -746 41 -47 77 -87 80 -90 3 -3 34 -40 69 -83 63 -78 63
-78 45 -100 -11 -12 -22 -24 -26 -27 -4 -3 -69 -66 -145 -140 -159 -155 -270
-259 -403 -380 -51 -47 -105 -96 -120 -110 -14 -14 -75 -68 -135 -120 -60 -52
-119 -103 -130 -113 -11 -10 -36 -31 -55 -46 l-35 -28 -128 76 c-342 204 -554
355 -902 645 -135 112 -299 256 -303 266 -7 18 406 410 838 794 19 17 98 83
175 145 77 63 158 129 180 147 22 18 43 33 47 34 3 0 75 -56 160 -124z m-1467
-1550 c238 -207 416 -346 615 -478 120 -79 328 -208 336 -208 3 0 21 -11 40
-24 l35 -24 -188 -125 c-427 -284 -821 -475 -1217 -588 -60 -17 -119 -33 -130
-35 -36 -7 -60 -12 -101 -19 -22 -4 -49 -10 -60 -12 -58 -12 -277 -15 -326 -3
-66 15 -134 53 -151 83 -82 149 42 470 375 967 134 200 387 537 470 625 11 11
26 30 34 42 l15 23 57 -51 c31 -28 119 -106 196 -173z"/>
<path d="M1428 5347 c-21 -5 -55 -25 -77 -45 -84 -77 -87 -203 -7 -290 l21
-24 -48 -41 c-26 -23 -47 -45 -47 -49 0 -4 9 -32 21 -63 18 -49 24 -55 48 -55
48 0 152 61 217 126 141 141 167 311 62 399 -54 45 -119 60 -190 42z"/>
<path d="M1896 5183 c-134 -34 -189 -223 -95 -324 33 -36 30 -49 -23 -85 -37
-26 -39 -30 -33 -63 11 -61 38 -96 70 -94 93 7 247 137 305 257 29 62 32 76
27 133 -4 52 -11 72 -34 101 -51 65 -139 95 -217 75z"/>
<path d="M5105 1885 c-39 -17 -60 -41 -74 -86 -22 -67 -21 -68 174 -419 51
-91 107 -192 125 -225 18 -33 37 -66 43 -72 15 -20 -8 -16 -108 16 -49 16
-151 48 -225 71 -74 23 -162 51 -196 61 -118 38 -211 25 -252 -36 -69 -100
-34 -229 73 -269 19 -7 334 -103 365 -111 8 -2 143 -42 300 -88 157 -47 299
-87 316 -90 64 -10 143 37 170 100 29 66 19 101 -72 280 -48 92 -99 191 -114
218 -15 28 -44 82 -65 120 -145 271 -267 480 -294 504 -48 43 -107 52 -166 26z"/>
</g>
</svg>
